<?xml version="1.0" encoding="UTF-8" standalone="no"?>
<!DOCTYPE svg PUBLIC "-//W3C//DTD SVG 1.1//EN"
 "http://www.w3.org/Graphics/SVG/1.1/DTD/svg11.dtd">
<!-- Generated by graphviz version 2.38.0 (20140413.2041)
 -->
<!-- Title: include/arlib/details/arlib_utils.hpp Pages: 1 -->
<svg width="1386pt" height="229pt"
 viewBox="0.00 0.00 1386.00 229.00" xmlns="http://www.w3.org/2000/svg" xmlns:xlink="http://www.w3.org/1999/xlink">
<g id="graph0" class="graph" transform="scale(1 1) rotate(0) translate(4 225)">
<title>include/arlib/details/arlib_utils.hpp</title>
<polygon fill="white" stroke="none" points="-4,4 -4,-225 1382,-225 1382,4 -4,4"/>
<!-- Node0 -->
<g id="node1" class="node"><title>Node0</title>
<g id="a_node1"><a xlink:title=" ">
<polygon fill="#bfbfbf" stroke="black" points="776.5,-190.5 776.5,-220.5 884.5,-220.5 884.5,-190.5 776.5,-190.5"/>
<text text-anchor="start" x="784.5" y="-208.5" font-family="Helvetica,sans-Serif" font-size="10.00">include/arlib/details</text>
<text text-anchor="middle" x="830.5" y="-197.5" font-family="Helvetica,sans-Serif" font-size="10.00">/arlib_utils.hpp</text>
</a>
</g>
</g>
<!-- Node1 -->
<g id="node2" class="node"><title>Node1</title>
<g id="a_node2"><a xlink:title=" ">
<polygon fill="white" stroke="#bfbfbf" points="0,-129 0,-148 161,-148 161,-129 0,-129"/>
<text text-anchor="middle" x="80.5" y="-136" font-family="Helvetica,sans-Serif" font-size="10.00">boost/graph/astar_search.hpp</text>
</a>
</g>
</g>
<!-- Node0&#45;&gt;Node1 -->
<g id="edge1" class="edge"><title>Node0&#45;&gt;Node1</title>
<path fill="none" stroke="midnightblue" d="M776.369,-201.931C663.33,-196.221 394.058,-180.821 169.5,-154 159.251,-152.776 148.379,-151.221 137.883,-149.586"/>
<polygon fill="midnightblue" stroke="midnightblue" points="138.395,-146.123 127.968,-148.002 137.291,-153.036 138.395,-146.123"/>
</g>
<!-- Node2 -->
<g id="node3" class="node"><title>Node2</title>
<g id="a_node3"><a xlink:title=" ">
<polygon fill="white" stroke="#bfbfbf" points="179,-123.5 179,-153.5 294,-153.5 294,-123.5 179,-123.5"/>
<text text-anchor="start" x="187" y="-141.5" font-family="Helvetica,sans-Serif" font-size="10.00">boost/graph/dijkstra</text>
<text text-anchor="middle" x="236.5" y="-130.5" font-family="Helvetica,sans-Serif" font-size="10.00">_shortest_paths.hpp</text>
</a>
</g>
</g>
<!-- Node0&#45;&gt;Node2 -->
<g id="edge2" class="edge"><title>Node0&#45;&gt;Node2</title>
<path fill="none" stroke="midnightblue" d="M776.172,-201.083C681.039,-194.689 478.26,-179.238 308.5,-154 307.042,-153.783 305.568,-153.556 304.084,-153.321"/>
<polygon fill="midnightblue" stroke="midnightblue" points="304.619,-149.862 294.177,-151.656 303.459,-156.765 304.619,-149.862"/>
</g>
<!-- Node3 -->
<g id="node4" class="node"><title>Node3</title>
<g id="a_node4"><a xlink:title=" ">
<polygon fill="white" stroke="#bfbfbf" points="350.5,-56.5 350.5,-86.5 460.5,-86.5 460.5,-56.5 350.5,-56.5"/>
<text text-anchor="start" x="358.5" y="-74.5" font-family="Helvetica,sans-Serif" font-size="10.00">boost/graph/filtered</text>
<text text-anchor="middle" x="405.5" y="-63.5" font-family="Helvetica,sans-Serif" font-size="10.00">_graph.hpp</text>
</a>
</g>
</g>
<!-- Node0&#45;&gt;Node3 -->
<g id="edge3" class="edge"><title>Node0&#45;&gt;Node3</title>
<path fill="none" stroke="midnightblue" d="M776.33,-198.082C723.383,-190.84 640.978,-176.971 572.5,-154 523.714,-137.634 470.891,-110.024 438,-91.5337"/>
<polygon fill="midnightblue" stroke="midnightblue" points="439.696,-88.4718 429.272,-86.5774 436.24,-94.5588 439.696,-88.4718"/>
</g>
<!-- Node4 -->
<g id="node5" class="node"><title>Node4</title>
<g id="a_node5"><a xlink:title=" ">
<polygon fill="white" stroke="#bfbfbf" points="819,-0.5 819,-19.5 994,-19.5 994,-0.5 819,-0.5"/>
<text text-anchor="middle" x="906.5" y="-7.5" font-family="Helvetica,sans-Serif" font-size="10.00">boost/graph/graph_concepts.hpp</text>
</a>
</g>
</g>
<!-- Node0&#45;&gt;Node4 -->
<g id="edge4" class="edge"><title>Node0&#45;&gt;Node4</title>
<path fill="none" stroke="midnightblue" d="M838.504,-190.445C850.548,-168.812 873.416,-125.787 887.5,-87 894.448,-67.8663 899.766,-45.1273 902.985,-29.5391"/>
<polygon fill="midnightblue" stroke="midnightblue" points="906.443,-30.0955 904.952,-19.6061 899.576,-28.736 906.443,-30.0955"/>
</g>
<!-- Node5 -->
<g id="node6" class="node"><title>Node5</title>
<g id="a_node6"><a xlink:title=" ">
<polygon fill="white" stroke="#bfbfbf" points="404.5,-0.5 404.5,-19.5 560.5,-19.5 560.5,-0.5 404.5,-0.5"/>
<text text-anchor="middle" x="482.5" y="-7.5" font-family="Helvetica,sans-Serif" font-size="10.00">boost/graph/graph_traits.hpp</text>
</a>
</g>
</g>
<!-- Node0&#45;&gt;Node5 -->
<g id="edge5" class="edge"><title>Node0&#45;&gt;Node5</title>
<path fill="none" stroke="midnightblue" d="M776.118,-200.446C658.945,-190.384 389.356,-159.637 341.5,-87 318.789,-52.5293 369.824,-32.4811 416.717,-21.7196"/>
<polygon fill="midnightblue" stroke="midnightblue" points="417.606,-25.1083 426.633,-19.5623 416.118,-18.2683 417.606,-25.1083"/>
</g>
<!-- Node6 -->
<g id="node7" class="node"><title>Node6</title>
<g id="a_node7"><a xlink:title=" ">
<polygon fill="white" stroke="#bfbfbf" points="579,-0.5 579,-19.5 726,-19.5 726,-0.5 579,-0.5"/>
<text text-anchor="middle" x="652.5" y="-7.5" font-family="Helvetica,sans-Serif" font-size="10.00">boost/graph/properties.hpp</text>
</a>
</g>
</g>
<!-- Node0&#45;&gt;Node6 -->
<g id="edge6" class="edge"><title>Node0&#45;&gt;Node6</title>
<path fill="none" stroke="midnightblue" d="M821.148,-190.425C802.449,-162.853 758.299,-100.537 712.5,-56 700.896,-44.7154 686.413,-33.7792 674.584,-25.5139"/>
<polygon fill="midnightblue" stroke="midnightblue" points="676.379,-22.5016 666.147,-19.7525 672.432,-28.2823 676.379,-22.5016"/>
</g>
<!-- Node7 -->
<g id="node8" class="node"><title>Node7</title>
<g id="a_node8"><a xlink:title=" ">
<polygon fill="white" stroke="#bfbfbf" points="973,-123.5 973,-153.5 1086,-153.5 1086,-123.5 973,-123.5"/>
<text text-anchor="start" x="981" y="-141.5" font-family="Helvetica,sans-Serif" font-size="10.00">boost/graph/reverse</text>
<text text-anchor="middle" x="1029.5" y="-130.5" font-family="Helvetica,sans-Serif" font-size="10.00">_graph.hpp</text>
</a>
</g>
</g>
<!-- Node0&#45;&gt;Node7 -->
<g id="edge7" class="edge"><title>Node0&#45;&gt;Node7</title>
<path fill="none" stroke="midnightblue" d="M873.68,-190.396C903.93,-180.515 944.535,-167.252 976.71,-156.743"/>
<polygon fill="midnightblue" stroke="midnightblue" points="977.985,-160.008 986.404,-153.577 975.812,-153.354 977.985,-160.008"/>
</g>
<!-- Node8 -->
<g id="node9" class="node"><title>Node8</title>
<g id="a_node9"><a xlink:href="path_8hpp.html" target="_top" xlink:title=" ">
<polygon fill="white" stroke="black" points="626,-129 626,-148 709,-148 709,-129 626,-129"/>
<text text-anchor="middle" x="667.5" y="-136" font-family="Helvetica,sans-Serif" font-size="10.00">arlib/path.hpp</text>
</a>
</g>
</g>
<!-- Node0&#45;&gt;Node8 -->
<g id="edge8" class="edge"><title>Node0&#45;&gt;Node8</title>
<path fill="none" stroke="midnightblue" d="M795.131,-190.396C766.278,-178.89 725.923,-162.797 698.363,-151.807"/>
<polygon fill="midnightblue" stroke="midnightblue" points="699.418,-148.46 688.833,-148.007 696.825,-154.962 699.418,-148.46"/>
</g>
<!-- Node11 -->
<g id="node12" class="node"><title>Node11</title>
<g id="a_node12"><a xlink:title=" ">
<polygon fill="white" stroke="#bfbfbf" points="1012.5,-0.5 1012.5,-19.5 1098.5,-19.5 1098.5,-0.5 1012.5,-0.5"/>
<text text-anchor="middle" x="1055.5" y="-7.5" font-family="Helvetica,sans-Serif" font-size="10.00">unordered_set</text>
</a>
</g>
</g>
<!-- Node0&#45;&gt;Node11 -->
<g id="edge24" class="edge"><title>Node0&#45;&gt;Node11</title>
<path fill="none" stroke="midnightblue" d="M847.045,-190.271C888.251,-154.834 995.197,-62.861 1037.7,-26.3063"/>
<polygon fill="midnightblue" stroke="midnightblue" points="1040.23,-28.751 1045.53,-19.5769 1035.66,-23.4437 1040.23,-28.751"/>
</g>
<!-- Node12 -->
<g id="node13" class="node"><title>Node12</title>
<g id="a_node13"><a xlink:href="type__traits_8hpp.html" target="_top" xlink:title=" ">
<polygon fill="white" stroke="black" points="478.5,-62 478.5,-81 590.5,-81 590.5,-62 478.5,-62"/>
<text text-anchor="middle" x="534.5" y="-69" font-family="Helvetica,sans-Serif" font-size="10.00">arlib/type_traits.hpp</text>
</a>
</g>
</g>
<!-- Node0&#45;&gt;Node12 -->
<g id="edge20" class="edge"><title>Node0&#45;&gt;Node12</title>
<path fill="none" stroke="midnightblue" d="M776.404,-199.812C731.524,-194.074 667.237,-181.465 617.5,-154 588.026,-137.724 561.74,-108.082 546.99,-89.3854"/>
<polygon fill="midnightblue" stroke="midnightblue" points="549.572,-87.0017 540.712,-81.193 544.016,-91.2594 549.572,-87.0017"/>
</g>
<!-- Node14 -->
<g id="node15" class="node"><title>Node14</title>
<g id="a_node15"><a xlink:title=" ">
<polygon fill="white" stroke="#bfbfbf" points="1104.5,-129 1104.5,-148 1156.5,-148 1156.5,-129 1104.5,-129"/>
<text text-anchor="middle" x="1130.5" y="-136" font-family="Helvetica,sans-Serif" font-size="10.00">iterator</text>
</a>
</g>
</g>
<!-- Node0&#45;&gt;Node14 -->
<g id="edge21" class="edge"><title>Node0&#45;&gt;Node14</title>
<path fill="none" stroke="midnightblue" d="M884.567,-197.505C938.673,-189.737 1023.93,-175.399 1095.5,-154 1097.79,-153.316 1100.13,-152.535 1102.46,-151.698"/>
<polygon fill="midnightblue" stroke="midnightblue" points="1103.81,-154.929 1111.87,-148.047 1101.28,-148.404 1103.81,-154.929"/>
</g>
<!-- Node15 -->
<g id="node16" class="node"><title>Node15</title>
<g id="a_node16"><a xlink:title=" ">
<polygon fill="white" stroke="#bfbfbf" points="1174.5,-129 1174.5,-148 1230.5,-148 1230.5,-129 1174.5,-129"/>
<text text-anchor="middle" x="1202.5" y="-136" font-family="Helvetica,sans-Serif" font-size="10.00">sstream</text>
</a>
</g>
</g>
<!-- Node0&#45;&gt;Node15 -->
<g id="edge22" class="edge"><title>Node0&#45;&gt;Node15</title>
<path fill="none" stroke="midnightblue" d="M884.638,-200.097C951.511,-193.803 1068.34,-180.008 1165.5,-154 1168.16,-153.289 1170.88,-152.447 1173.6,-151.533"/>
<polygon fill="midnightblue" stroke="midnightblue" points="1175.01,-154.743 1183.19,-148.009 1172.59,-148.172 1175.01,-154.743"/>
</g>
<!-- Node16 -->
<g id="node17" class="node"><title>Node16</title>
<g id="a_node17"><a xlink:title=" ">
<polygon fill="white" stroke="#bfbfbf" points="1248.5,-129 1248.5,-148 1312.5,-148 1312.5,-129 1248.5,-129"/>
<text text-anchor="middle" x="1280.5" y="-136" font-family="Helvetica,sans-Serif" font-size="10.00">stdexcept</text>
</a>
</g>
</g>
<!-- Node0&#45;&gt;Node16 -->
<g id="edge23" class="edge"><title>Node0&#45;&gt;Node16</title>
<path fill="none" stroke="midnightblue" d="M884.753,-201.556C963.71,-196.43 1114.5,-183.452 1239.5,-154 1242.73,-153.238 1246.07,-152.31 1249.37,-151.295"/>
<polygon fill="midnightblue" stroke="midnightblue" points="1250.68,-154.549 1259.06,-148.069 1248.47,-147.907 1250.68,-154.549"/>
</g>
<!-- Node17 -->
<g id="node18" class="node"><title>Node17</title>
<g id="a_node18"><a xlink:title=" ">
<polygon fill="white" stroke="#bfbfbf" points="1331,-129 1331,-148 1378,-148 1378,-129 1331,-129"/>
<text text-anchor="middle" x="1354.5" y="-136" font-family="Helvetica,sans-Serif" font-size="10.00">vector</text>
</a>
</g>
</g>
<!-- Node0&#45;&gt;Node17 -->
<g id="edge25" class="edge"><title>Node0&#45;&gt;Node17</title>
<path fill="none" stroke="midnightblue" d="M884.515,-204.391C975.992,-203.007 1166.57,-194.924 1321.5,-154 1323.8,-153.393 1326.14,-152.647 1328.46,-151.817"/>
<polygon fill="midnightblue" stroke="midnightblue" points="1329.78,-155.061 1337.74,-148.069 1327.15,-148.571 1329.78,-155.061"/>
</g>
<!-- Node8&#45;&gt;Node3 -->
<g id="edge16" class="edge"><title>Node8&#45;&gt;Node3</title>
<path fill="none" stroke="midnightblue" d="M632.979,-128.936C591.814,-118.723 522.128,-101.434 470.707,-88.6774"/>
<polygon fill="midnightblue" stroke="midnightblue" points="471.229,-85.2009 460.681,-86.1899 469.544,-91.9949 471.229,-85.2009"/>
</g>
<!-- Node8&#45;&gt;Node5 -->
<g id="edge17" class="edge"><title>Node8&#45;&gt;Node5</title>
<path fill="none" stroke="midnightblue" d="M662.269,-128.627C652.134,-112.141 628.269,-76.5954 599.5,-56 578.073,-40.6608 550.742,-29.765 527.884,-22.5408"/>
<polygon fill="midnightblue" stroke="midnightblue" points="528.649,-19.1157 518.064,-19.5723 526.624,-25.8162 528.649,-19.1157"/>
</g>
<!-- Node8&#45;&gt;Node6 -->
<g id="edge18" class="edge"><title>Node8&#45;&gt;Node6</title>
<path fill="none" stroke="midnightblue" d="M675.022,-128.847C687.083,-113.866 708.347,-82.1879 697.5,-56 692.58,-44.121 682.833,-33.7428 673.666,-25.9557"/>
<polygon fill="midnightblue" stroke="midnightblue" points="675.583,-23.0101 665.564,-19.5641 671.247,-28.5058 675.583,-23.0101"/>
</g>
<!-- Node9 -->
<g id="node10" class="node"><title>Node9</title>
<g id="a_node10"><a xlink:href="path__impl_8hpp.html" target="_top" xlink:title=" ">
<polygon fill="white" stroke="black" points="782.5,-56.5 782.5,-86.5 878.5,-86.5 878.5,-56.5 782.5,-56.5"/>
<text text-anchor="start" x="790.5" y="-74.5" font-family="Helvetica,sans-Serif" font-size="10.00">arlib/details/path</text>
<text text-anchor="middle" x="830.5" y="-63.5" font-family="Helvetica,sans-Serif" font-size="10.00">_impl.hpp</text>
</a>
</g>
</g>
<!-- Node8&#45;&gt;Node9 -->
<g id="edge9" class="edge"><title>Node8&#45;&gt;Node9</title>
<path fill="none" stroke="midnightblue" d="M689.145,-128.869C713.71,-119.073 754.443,-102.83 785.889,-90.2897"/>
<polygon fill="midnightblue" stroke="midnightblue" points="787.33,-93.4833 795.322,-86.5281 784.737,-86.9812 787.33,-93.4833"/>
</g>
<!-- Node8&#45;&gt;Node12 -->
<g id="edge13" class="edge"><title>Node8&#45;&gt;Node12</title>
<path fill="none" stroke="midnightblue" d="M649.839,-128.869C627.183,-117.796 587.672,-98.4862 561.3,-85.5978"/>
<polygon fill="midnightblue" stroke="midnightblue" points="562.756,-82.4136 552.234,-81.1672 559.682,-88.7027 562.756,-82.4136"/>
</g>
<!-- Node13 -->
<g id="node14" class="node"><title>Node13</title>
<g id="a_node14"><a xlink:title=" ">
<polygon fill="white" stroke="#bfbfbf" points="646.5,-62 646.5,-81 688.5,-81 688.5,-62 646.5,-62"/>
<text text-anchor="middle" x="667.5" y="-69" font-family="Helvetica,sans-Serif" font-size="10.00">utility</text>
</a>
</g>
</g>
<!-- Node8&#45;&gt;Node13 -->
<g id="edge19" class="edge"><title>Node8&#45;&gt;Node13</title>
<path fill="none" stroke="midnightblue" d="M667.5,-128.734C667.5,-119.183 667.5,-103.618 667.5,-91.2829"/>
<polygon fill="midnightblue" stroke="midnightblue" points="671,-91.1273 667.5,-81.1273 664,-91.1273 671,-91.1273"/>
</g>
<!-- Node9&#45;&gt;Node4 -->
<g id="edge10" class="edge"><title>Node9&#45;&gt;Node4</title>
<path fill="none" stroke="midnightblue" d="M848.511,-56.3993C860.238,-47.2185 875.515,-35.2579 887.445,-25.9182"/>
<polygon fill="midnightblue" stroke="midnightblue" points="889.725,-28.5782 895.441,-19.6578 885.41,-23.0664 889.725,-28.5782"/>
</g>
<!-- Node10 -->
<g id="node11" class="node"><title>Node10</title>
<g id="a_node11"><a xlink:title=" ">
<polygon fill="white" stroke="#bfbfbf" points="744,-0.5 744,-19.5 801,-19.5 801,-0.5 744,-0.5"/>
<text text-anchor="middle" x="772.5" y="-7.5" font-family="Helvetica,sans-Serif" font-size="10.00">memory</text>
</a>
</g>
</g>
<!-- Node9&#45;&gt;Node10 -->
<g id="edge11" class="edge"><title>Node9&#45;&gt;Node10</title>
<path fill="none" stroke="midnightblue" d="M816.755,-56.3993C808.153,-47.575 797.048,-36.1827 788.114,-27.0178"/>
<polygon fill="midnightblue" stroke="midnightblue" points="790.426,-24.3755 780.94,-19.6578 785.414,-29.2616 790.426,-24.3755"/>
</g>
<!-- Node9&#45;&gt;Node11 -->
<g id="edge12" class="edge"><title>Node9&#45;&gt;Node11</title>
<path fill="none" stroke="midnightblue" d="M878.768,-57.7358C918.832,-47.141 975.241,-32.2239 1013.47,-22.114"/>
<polygon fill="midnightblue" stroke="midnightblue" points="1014.49,-25.4657 1023.26,-19.5254 1012.7,-18.6983 1014.49,-25.4657"/>
</g>
<!-- Node12&#45;&gt;Node5 -->
<g id="edge14" class="edge"><title>Node12&#45;&gt;Node5</title>
<path fill="none" stroke="midnightblue" d="M527.05,-61.9751C519.172,-52.9617 506.555,-38.5246 496.756,-27.3118"/>
<polygon fill="midnightblue" stroke="midnightblue" points="499.153,-24.7356 489.937,-19.5091 493.882,-29.342 499.153,-24.7356"/>
</g>
<!-- Node12&#45;&gt;Node6 -->
<g id="edge15" class="edge"><title>Node12&#45;&gt;Node6</title>
<path fill="none" stroke="midnightblue" d="M551.407,-61.9751C571.034,-52.078 603.631,-35.6416 626.49,-24.1151"/>
<polygon fill="midnightblue" stroke="midnightblue" points="628.272,-27.1367 635.625,-19.5091 625.12,-20.8863 628.272,-27.1367"/>
</g>
</g>
</svg>
