<?xml version="1.0" encoding="UTF-8" standalone="no"?>
<!DOCTYPE svg PUBLIC "-//W3C//DTD SVG 1.1//EN"
 "http://www.w3.org/Graphics/SVG/1.1/DTD/svg11.dtd">
<!-- Generated by graphviz version 2.38.0 (20140413.2041)
 -->
<!-- Title: include/arlib/details/arlib_utils.hpp Pages: 1 -->
<svg width="555pt" height="307pt"
 viewBox="0.00 0.00 554.50 307.00" xmlns="http://www.w3.org/2000/svg" xmlns:xlink="http://www.w3.org/1999/xlink">
<g id="graph0" class="graph" transform="scale(1 1) rotate(0) translate(4 303)">
<title>include/arlib/details/arlib_utils.hpp</title>
<polygon fill="white" stroke="none" points="-4,4 -4,-303 550.5,-303 550.5,4 -4,4"/>
<!-- Node18 -->
<g id="node1" class="node"><title>Node18</title>
<g id="a_node1"><a xlink:title=" ">
<polygon fill="#bfbfbf" stroke="black" points="185.5,-268.5 185.5,-298.5 293.5,-298.5 293.5,-268.5 185.5,-268.5"/>
<text text-anchor="start" x="193.5" y="-286.5" font-family="Helvetica,sans-Serif" font-size="10.00">include/arlib/details</text>
<text text-anchor="middle" x="239.5" y="-275.5" font-family="Helvetica,sans-Serif" font-size="10.00">/arlib_utils.hpp</text>
</a>
</g>
</g>
<!-- Node19 -->
<g id="node2" class="node"><title>Node19</title>
<g id="a_node2"><a xlink:href="esx__impl_8hpp.html" target="_top" xlink:title=" ">
<polygon fill="white" stroke="black" points="145.5,-123.5 145.5,-153.5 253.5,-153.5 253.5,-123.5 145.5,-123.5"/>
<text text-anchor="start" x="153.5" y="-141.5" font-family="Helvetica,sans-Serif" font-size="10.00">include/arlib/details</text>
<text text-anchor="middle" x="199.5" y="-130.5" font-family="Helvetica,sans-Serif" font-size="10.00">/esx_impl.hpp</text>
</a>
</g>
</g>
<!-- Node18&#45;&gt;Node19 -->
<g id="edge1" class="edge"><title>Node18&#45;&gt;Node19</title>
<path fill="none" stroke="midnightblue" d="M207.924,-262.039C198.227,-253.961 188.737,-243.775 183.5,-232 171.91,-205.941 183.642,-172.284 192.227,-153.595"/>
<polygon fill="midnightblue" stroke="midnightblue" points="205.981,-264.961 216.03,-268.318 210.267,-259.427 205.981,-264.961"/>
</g>
<!-- Node22 -->
<g id="node5" class="node"><title>Node22</title>
<g id="a_node5"><a xlink:href="onepass__plus__impl_8hpp.html" target="_top" xlink:title=" ">
<polygon fill="white" stroke="black" points="0,-196 0,-226 131,-226 131,-196 0,-196"/>
<text text-anchor="start" x="8" y="-214" font-family="Helvetica,sans-Serif" font-size="10.00">include/arlib/details</text>
<text text-anchor="middle" x="65.5" y="-203" font-family="Helvetica,sans-Serif" font-size="10.00">/onepass_plus_impl.hpp</text>
</a>
</g>
</g>
<!-- Node18&#45;&gt;Node22 -->
<g id="edge4" class="edge"><title>Node18&#45;&gt;Node22</title>
<path fill="none" stroke="midnightblue" d="M195.072,-264.499C165.602,-252.559 127.482,-237.114 100.233,-226.073"/>
<polygon fill="midnightblue" stroke="midnightblue" points="194.124,-267.891 204.707,-268.403 196.753,-261.404 194.124,-267.891"/>
</g>
<!-- Node24 -->
<g id="node7" class="node"><title>Node24</title>
<g id="a_node7"><a xlink:href="penalty__impl_8hpp.html" target="_top" xlink:title=" ">
<polygon fill="white" stroke="black" points="278.5,-123.5 278.5,-153.5 386.5,-153.5 386.5,-123.5 278.5,-123.5"/>
<text text-anchor="start" x="286.5" y="-141.5" font-family="Helvetica,sans-Serif" font-size="10.00">include/arlib/details</text>
<text text-anchor="middle" x="332.5" y="-130.5" font-family="Helvetica,sans-Serif" font-size="10.00">/penalty_impl.hpp</text>
</a>
</g>
</g>
<!-- Node18&#45;&gt;Node24 -->
<g id="edge7" class="edge"><title>Node18&#45;&gt;Node24</title>
<path fill="none" stroke="midnightblue" d="M224.357,-259.497C213.398,-239.68 202.719,-211.03 216.5,-190 230.345,-168.873 255.159,-156.536 278.294,-149.356"/>
<polygon fill="midnightblue" stroke="midnightblue" points="221.389,-261.354 229.489,-268.183 227.415,-257.793 221.389,-261.354"/>
</g>
<!-- Node26 -->
<g id="node9" class="node"><title>Node26</title>
<g id="a_node9"><a xlink:href="reorder__buffer_8hpp_source.html" target="_top" xlink:title=" ">
<polygon fill="white" stroke="black" points="225.5,-196 225.5,-226 337.5,-226 337.5,-196 225.5,-196"/>
<text text-anchor="start" x="233.5" y="-214" font-family="Helvetica,sans-Serif" font-size="10.00">include/arlib/reorder</text>
<text text-anchor="middle" x="281.5" y="-203" font-family="Helvetica,sans-Serif" font-size="10.00">_buffer.hpp</text>
</a>
</g>
</g>
<!-- Node18&#45;&gt;Node26 -->
<g id="edge10" class="edge"><title>Node18&#45;&gt;Node26</title>
<path fill="none" stroke="midnightblue" d="M253.168,-259.557C259.704,-248.586 267.323,-235.797 273.013,-226.246"/>
<polygon fill="midnightblue" stroke="midnightblue" points="250.111,-257.851 247.999,-268.233 256.124,-261.434 250.111,-257.851"/>
</g>
<!-- Node27 -->
<g id="node10" class="node"><title>Node27</title>
<g id="a_node10"><a xlink:href="bidirectional__dijkstra_8hpp.html" target="_top" xlink:title=" ">
<polygon fill="white" stroke="black" points="356,-190.5 356,-231.5 473,-231.5 473,-190.5 356,-190.5"/>
<text text-anchor="start" x="364" y="-219.5" font-family="Helvetica,sans-Serif" font-size="10.00">include/arlib/routing</text>
<text text-anchor="start" x="364" y="-208.5" font-family="Helvetica,sans-Serif" font-size="10.00">_kernels/bidirectional</text>
<text text-anchor="middle" x="414.5" y="-197.5" font-family="Helvetica,sans-Serif" font-size="10.00">_dijkstra.hpp</text>
</a>
</g>
</g>
<!-- Node18&#45;&gt;Node27 -->
<g id="edge11" class="edge"><title>Node18&#45;&gt;Node27</title>
<path fill="none" stroke="midnightblue" d="M284.1,-264.533C309.118,-254.454 340.353,-241.871 365.981,-231.546"/>
<polygon fill="midnightblue" stroke="midnightblue" points="282.461,-261.419 274.493,-268.403 285.077,-267.912 282.461,-261.419"/>
</g>
<!-- Node28 -->
<g id="node11" class="node"><title>Node28</title>
<g id="a_node11"><a xlink:href="uninformed__bidirectional__pruning_8hpp.html" target="_top" xlink:title=" ">
<polygon fill="white" stroke="black" points="404.5,-123.5 404.5,-153.5 546.5,-153.5 546.5,-123.5 404.5,-123.5"/>
<text text-anchor="start" x="412.5" y="-141.5" font-family="Helvetica,sans-Serif" font-size="10.00">include/arlib/uninformed</text>
<text text-anchor="middle" x="475.5" y="-130.5" font-family="Helvetica,sans-Serif" font-size="10.00">_bidirectional_pruning.hpp</text>
</a>
</g>
</g>
<!-- Node18&#45;&gt;Node28 -->
<g id="edge16" class="edge"><title>Node18&#45;&gt;Node28</title>
<path fill="none" stroke="midnightblue" d="M303.6,-278.137C367.851,-272.27 460.334,-259.246 482.5,-232 500.693,-209.638 490.022,-173.324 481.957,-153.502"/>
<polygon fill="midnightblue" stroke="midnightblue" points="303.202,-274.658 293.546,-279.018 303.813,-281.631 303.202,-274.658"/>
</g>
<!-- Node20 -->
<g id="node3" class="node"><title>Node20</title>
<g id="a_node3"><a xlink:href="esx_8hpp.html" target="_top" xlink:title=" ">
<polygon fill="white" stroke="black" points="142.5,-62 142.5,-81 256.5,-81 256.5,-62 142.5,-62"/>
<text text-anchor="middle" x="199.5" y="-69" font-family="Helvetica,sans-Serif" font-size="10.00">include/arlib/esx.hpp</text>
</a>
</g>
</g>
<!-- Node19&#45;&gt;Node20 -->
<g id="edge2" class="edge"><title>Node19&#45;&gt;Node20</title>
<path fill="none" stroke="midnightblue" d="M199.5,-113.25C199.5,-102.017 199.5,-89.3767 199.5,-81.1945"/>
<polygon fill="midnightblue" stroke="midnightblue" points="196,-113.396 199.5,-123.396 203,-113.396 196,-113.396"/>
</g>
<!-- Node21 -->
<g id="node4" class="node"><title>Node21</title>
<g id="a_node4"><a xlink:href="arlib_8hpp_source.html" target="_top" xlink:title=" ">
<polygon fill="white" stroke="black" points="210.5,-0.5 210.5,-19.5 328.5,-19.5 328.5,-0.5 210.5,-0.5"/>
<text text-anchor="middle" x="269.5" y="-7.5" font-family="Helvetica,sans-Serif" font-size="10.00">include/arlib/arlib.hpp</text>
</a>
</g>
</g>
<!-- Node20&#45;&gt;Node21 -->
<g id="edge3" class="edge"><title>Node20&#45;&gt;Node21</title>
<path fill="none" stroke="midnightblue" d="M217.179,-55.4727C230.568,-44.0925 248.477,-28.8694 259.489,-19.5091"/>
<polygon fill="midnightblue" stroke="midnightblue" points="214.882,-52.8318 209.529,-61.9751 219.415,-58.1654 214.882,-52.8318"/>
</g>
<!-- Node23 -->
<g id="node6" class="node"><title>Node23</title>
<g id="a_node6"><a xlink:href="onepass__plus_8hpp.html" target="_top" xlink:title=" ">
<polygon fill="white" stroke="black" points="7,-56.5 7,-86.5 124,-86.5 124,-56.5 7,-56.5"/>
<text text-anchor="start" x="15" y="-74.5" font-family="Helvetica,sans-Serif" font-size="10.00">include/arlib/onepass</text>
<text text-anchor="middle" x="65.5" y="-63.5" font-family="Helvetica,sans-Serif" font-size="10.00">_plus.hpp</text>
</a>
</g>
</g>
<!-- Node22&#45;&gt;Node23 -->
<g id="edge5" class="edge"><title>Node22&#45;&gt;Node23</title>
<path fill="none" stroke="midnightblue" d="M65.5,-185.787C65.5,-157.107 65.5,-110.275 65.5,-86.8258"/>
<polygon fill="midnightblue" stroke="midnightblue" points="62.0001,-185.803 65.5,-195.803 69.0001,-185.803 62.0001,-185.803"/>
</g>
<!-- Node23&#45;&gt;Node21 -->
<g id="edge6" class="edge"><title>Node23&#45;&gt;Node21</title>
<path fill="none" stroke="midnightblue" d="M123.552,-53.5681C161.706,-42.44 210.003,-28.3534 240.335,-19.5064"/>
<polygon fill="midnightblue" stroke="midnightblue" points="122.207,-50.3146 113.587,-56.4747 124.167,-57.0346 122.207,-50.3146"/>
</g>
<!-- Node25 -->
<g id="node8" class="node"><title>Node25</title>
<g id="a_node8"><a xlink:href="penalty_8hpp.html" target="_top" xlink:title=" ">
<polygon fill="white" stroke="black" points="275,-62 275,-81 406,-81 406,-62 275,-62"/>
<text text-anchor="middle" x="340.5" y="-69" font-family="Helvetica,sans-Serif" font-size="10.00">include/arlib/penalty.hpp</text>
</a>
</g>
</g>
<!-- Node24&#45;&gt;Node25 -->
<g id="edge8" class="edge"><title>Node24&#45;&gt;Node25</title>
<path fill="none" stroke="midnightblue" d="M335.485,-113.25C336.867,-102.017 338.423,-89.3767 339.43,-81.1945"/>
<polygon fill="midnightblue" stroke="midnightblue" points="331.984,-113.043 334.236,-123.396 338.931,-113.898 331.984,-113.043"/>
</g>
<!-- Node25&#45;&gt;Node21 -->
<g id="edge9" class="edge"><title>Node25&#45;&gt;Node21</title>
<path fill="none" stroke="midnightblue" d="M322.568,-55.4727C308.989,-44.0925 290.823,-28.8694 279.654,-19.5091"/>
<polygon fill="midnightblue" stroke="midnightblue" points="320.415,-58.2346 330.327,-61.9751 324.911,-52.8694 320.415,-58.2346"/>
</g>
<!-- Node27&#45;&gt;Node19 -->
<g id="edge12" class="edge"><title>Node27&#45;&gt;Node19</title>
<path fill="none" stroke="midnightblue" d="M345.893,-187.503C311.964,-176.378 272.061,-163.293 242.492,-153.597"/>
<polygon fill="midnightblue" stroke="midnightblue" points="345.158,-190.945 355.75,-190.736 347.339,-184.294 345.158,-190.945"/>
</g>
<!-- Node27&#45;&gt;Node24 -->
<g id="edge13" class="edge"><title>Node27&#45;&gt;Node24</title>
<path fill="none" stroke="midnightblue" d="M383.737,-183.551C371.941,-173.41 358.937,-162.229 348.981,-153.67"/>
<polygon fill="midnightblue" stroke="midnightblue" points="381.794,-186.496 391.658,-190.362 386.357,-181.188 381.794,-186.496"/>
</g>
<!-- Node27&#45;&gt;Node28 -->
<g id="edge14" class="edge"><title>Node27&#45;&gt;Node28</title>
<path fill="none" stroke="midnightblue" d="M438.098,-182.727C446.605,-172.895 455.868,-162.189 463.048,-153.892"/>
<polygon fill="midnightblue" stroke="midnightblue" points="435.388,-180.509 431.492,-190.362 440.682,-185.09 435.388,-180.509"/>
</g>
<!-- Node28&#45;&gt;Node21 -->
<g id="edge15" class="edge"><title>Node28&#45;&gt;Node21</title>
<path fill="none" stroke="midnightblue" d="M463.537,-114.34C452.959,-96.0236 435.895,-71.1004 414.5,-56 387.797,-37.1534 352.943,-26.0066 324.099,-19.5222"/>
<polygon fill="midnightblue" stroke="midnightblue" points="460.556,-116.181 468.467,-123.229 466.678,-112.786 460.556,-116.181"/>
</g>
</g>
</svg>
