<?xml version="1.0" encoding="UTF-8" standalone="no"?>
<!DOCTYPE svg PUBLIC "-//W3C//DTD SVG 1.1//EN"
 "http://www.w3.org/Graphics/SVG/1.1/DTD/svg11.dtd">
<!-- Generated by graphviz version 2.38.0 (20140413.2041)
 -->
<!-- Title: include/arlib/routing_kernels/details/bidirectional_dijkstra_impl.hpp Pages: 1 -->
<svg width="1121pt" height="173pt"
 viewBox="0.00 0.00 1120.50 173.00" xmlns="http://www.w3.org/2000/svg" xmlns:xlink="http://www.w3.org/1999/xlink">
<g id="graph0" class="graph" transform="scale(1 1) rotate(0) translate(4 169)">
<title>include/arlib/routing_kernels/details/bidirectional_dijkstra_impl.hpp</title>
<polygon fill="white" stroke="none" points="-4,4 -4,-169 1116.5,-169 1116.5,4 -4,4"/>
<!-- Node0 -->
<g id="node1" class="node"><title>Node0</title>
<g id="a_node1"><a xlink:title=" ">
<polygon fill="#bfbfbf" stroke="black" points="558,-123.5 558,-164.5 710,-164.5 710,-123.5 558,-123.5"/>
<text text-anchor="start" x="566" y="-152.5" font-family="Helvetica,sans-Serif" font-size="10.00">include/arlib/routing</text>
<text text-anchor="start" x="566" y="-141.5" font-family="Helvetica,sans-Serif" font-size="10.00">_kernels/details/bidirectional</text>
<text text-anchor="middle" x="634" y="-130.5" font-family="Helvetica,sans-Serif" font-size="10.00">_dijkstra_impl.hpp</text>
</a>
</g>
</g>
<!-- Node1 -->
<g id="node2" class="node"><title>Node1</title>
<g id="a_node2"><a xlink:title=" ">
<polygon fill="white" stroke="#bfbfbf" points="400.5,-0.5 400.5,-19.5 575.5,-19.5 575.5,-0.5 400.5,-0.5"/>
<text text-anchor="middle" x="488" y="-7.5" font-family="Helvetica,sans-Serif" font-size="10.00">boost/graph/graph_concepts.hpp</text>
</a>
</g>
</g>
<!-- Node0&#45;&gt;Node1 -->
<g id="edge1" class="edge"><title>Node0&#45;&gt;Node1</title>
<path fill="none" stroke="midnightblue" d="M610.203,-123.36C597.526,-112.759 581.753,-99.3492 568,-87 545.423,-66.727 520.159,-42.4471 504.176,-26.8791"/>
<polygon fill="midnightblue" stroke="midnightblue" points="506.325,-24.0856 496.726,-19.5996 501.432,-29.0921 506.325,-24.0856"/>
</g>
<!-- Node2 -->
<g id="node3" class="node"><title>Node2</title>
<g id="a_node3"><a xlink:title=" ">
<polygon fill="white" stroke="#bfbfbf" points="0,-0.5 0,-19.5 156,-19.5 156,-0.5 0,-0.5"/>
<text text-anchor="middle" x="78" y="-7.5" font-family="Helvetica,sans-Serif" font-size="10.00">boost/graph/graph_traits.hpp</text>
</a>
</g>
</g>
<!-- Node0&#45;&gt;Node2 -->
<g id="edge2" class="edge"><title>Node0&#45;&gt;Node2</title>
<path fill="none" stroke="midnightblue" d="M557.734,-139.783C418.03,-133.204 132.182,-116.308 98,-87 81.6867,-73.0127 77.8762,-47.4693 77.3589,-29.8836"/>
<polygon fill="midnightblue" stroke="midnightblue" points="80.8595,-29.6907 77.3963,-19.6779 73.8596,-29.665 80.8595,-29.6907"/>
</g>
<!-- Node3 -->
<g id="node4" class="node"><title>Node3</title>
<g id="a_node4"><a xlink:title=" ">
<polygon fill="white" stroke="#bfbfbf" points="174.5,-0.5 174.5,-19.5 321.5,-19.5 321.5,-0.5 174.5,-0.5"/>
<text text-anchor="middle" x="248" y="-7.5" font-family="Helvetica,sans-Serif" font-size="10.00">boost/graph/properties.hpp</text>
</a>
</g>
</g>
<!-- Node0&#45;&gt;Node3 -->
<g id="edge3" class="edge"><title>Node0&#45;&gt;Node3</title>
<path fill="none" stroke="midnightblue" d="M557.643,-141.172C462.492,-137.28 307.343,-125.102 266,-87 250.296,-72.527 247.102,-47.0955 246.969,-29.6679"/>
<polygon fill="midnightblue" stroke="midnightblue" points="250.47,-29.6517 247.223,-19.5669 243.473,-29.4757 250.47,-29.6517"/>
</g>
<!-- Node4 -->
<g id="node5" class="node"><title>Node4</title>
<g id="a_node5"><a xlink:title=" ">
<polygon fill="white" stroke="#bfbfbf" points="275.5,-56.5 275.5,-86.5 388.5,-86.5 388.5,-56.5 275.5,-56.5"/>
<text text-anchor="start" x="283.5" y="-74.5" font-family="Helvetica,sans-Serif" font-size="10.00">boost/graph/reverse</text>
<text text-anchor="middle" x="332" y="-63.5" font-family="Helvetica,sans-Serif" font-size="10.00">_graph.hpp</text>
</a>
</g>
</g>
<!-- Node0&#45;&gt;Node4 -->
<g id="edge4" class="edge"><title>Node0&#45;&gt;Node4</title>
<path fill="none" stroke="midnightblue" d="M557.793,-125.21C508.69,-113.747 445.47,-98.9888 398.421,-88.0056"/>
<polygon fill="midnightblue" stroke="midnightblue" points="399.172,-84.5868 388.638,-85.7217 397.58,-91.4035 399.172,-84.5868"/>
</g>
<!-- Node5 -->
<g id="node6" class="node"><title>Node5</title>
<g id="a_node6"><a xlink:title=" ">
<polygon fill="white" stroke="#bfbfbf" points="407,-56.5 407,-86.5 521,-86.5 521,-56.5 407,-56.5"/>
<text text-anchor="start" x="415" y="-74.5" font-family="Helvetica,sans-Serif" font-size="10.00">boost/property_map</text>
<text text-anchor="middle" x="464" y="-63.5" font-family="Helvetica,sans-Serif" font-size="10.00">/property_map.hpp</text>
</a>
</g>
</g>
<!-- Node0&#45;&gt;Node5 -->
<g id="edge5" class="edge"><title>Node0&#45;&gt;Node5</title>
<path fill="none" stroke="midnightblue" d="M586.646,-123.362C561.753,-113.039 531.463,-100.477 507.214,-90.421"/>
<polygon fill="midnightblue" stroke="midnightblue" points="508.481,-87.1574 497.903,-86.5597 505.799,-93.6234 508.481,-87.1574"/>
</g>
<!-- Node6 -->
<g id="node7" class="node"><title>Node6</title>
<g id="a_node7"><a xlink:href="visitor_8hpp.html" target="_top" xlink:title=" ">
<polygon fill="white" stroke="black" points="577.5,-56.5 577.5,-86.5 690.5,-86.5 690.5,-56.5 577.5,-56.5"/>
<text text-anchor="start" x="585.5" y="-74.5" font-family="Helvetica,sans-Serif" font-size="10.00">arlib/routing_kernels</text>
<text text-anchor="middle" x="634" y="-63.5" font-family="Helvetica,sans-Serif" font-size="10.00">/visitor.hpp</text>
</a>
</g>
</g>
<!-- Node0&#45;&gt;Node6 -->
<g id="edge6" class="edge"><title>Node0&#45;&gt;Node6</title>
<path fill="none" stroke="midnightblue" d="M634,-123.362C634,-115.226 634,-105.7 634,-97.105"/>
<polygon fill="midnightblue" stroke="midnightblue" points="637.5,-96.8916 634,-86.8916 630.5,-96.8916 637.5,-96.8916"/>
</g>
<!-- Node7 -->
<g id="node8" class="node"><title>Node7</title>
<g id="a_node8"><a xlink:title=" ">
<polygon fill="white" stroke="#bfbfbf" points="698,-0.5 698,-19.5 740,-19.5 740,-0.5 698,-0.5"/>
<text text-anchor="middle" x="719" y="-7.5" font-family="Helvetica,sans-Serif" font-size="10.00">limits</text>
</a>
</g>
</g>
<!-- Node0&#45;&gt;Node7 -->
<g id="edge15" class="edge"><title>Node0&#45;&gt;Node7</title>
<path fill="none" stroke="midnightblue" d="M664.722,-123.346C677.373,-113.8 691.116,-101.295 700,-87 710.861,-69.525 715.52,-46.1632 717.515,-29.9747"/>
<polygon fill="midnightblue" stroke="midnightblue" points="721.036,-29.9398 718.547,-19.6415 714.071,-29.2441 721.036,-29.9398"/>
</g>
<!-- Node9 -->
<g id="node10" class="node"><title>Node9</title>
<g id="a_node10"><a xlink:href="type__traits_8hpp.html" target="_top" xlink:title=" ">
<polygon fill="white" stroke="black" points="107,-62 107,-81 219,-81 219,-62 107,-62"/>
<text text-anchor="middle" x="163" y="-69" font-family="Helvetica,sans-Serif" font-size="10.00">arlib/type_traits.hpp</text>
</a>
</g>
</g>
<!-- Node0&#45;&gt;Node9 -->
<g id="edge10" class="edge"><title>Node0&#45;&gt;Node9</title>
<path fill="none" stroke="midnightblue" d="M557.64,-133.848C476.789,-123.804 345.551,-106.494 233,-87 226.181,-85.8188 219.011,-84.4642 211.966,-83.0678"/>
<polygon fill="midnightblue" stroke="midnightblue" points="212.287,-79.5617 201.791,-81.0072 210.897,-86.4224 212.287,-79.5617"/>
</g>
<!-- Node10 -->
<g id="node11" class="node"><title>Node10</title>
<g id="a_node11"><a xlink:title=" ">
<polygon fill="white" stroke="#bfbfbf" points="747.5,-62 747.5,-81 794.5,-81 794.5,-62 747.5,-62"/>
<text text-anchor="middle" x="771" y="-69" font-family="Helvetica,sans-Serif" font-size="10.00">deque</text>
</a>
</g>
</g>
<!-- Node0&#45;&gt;Node10 -->
<g id="edge13" class="edge"><title>Node0&#45;&gt;Node10</title>
<path fill="none" stroke="midnightblue" d="M672.162,-123.362C695.401,-111.403 724.478,-96.4403 745.062,-85.8479"/>
<polygon fill="midnightblue" stroke="midnightblue" points="746.855,-88.8612 754.145,-81.1734 743.652,-82.637 746.855,-88.8612"/>
</g>
<!-- Node11 -->
<g id="node12" class="node"><title>Node11</title>
<g id="a_node12"><a xlink:title=" ">
<polygon fill="white" stroke="#bfbfbf" points="812.5,-62 812.5,-81 871.5,-81 871.5,-62 812.5,-62"/>
<text text-anchor="middle" x="842" y="-69" font-family="Helvetica,sans-Serif" font-size="10.00">iostream</text>
</a>
</g>
</g>
<!-- Node0&#45;&gt;Node11 -->
<g id="edge14" class="edge"><title>Node0&#45;&gt;Node11</title>
<path fill="none" stroke="midnightblue" d="M695.61,-123.465C727.994,-113.005 768.277,-99.6916 804,-87 806.108,-86.2509 808.277,-85.4651 810.459,-84.6632"/>
<polygon fill="midnightblue" stroke="midnightblue" points="811.822,-87.8903 819.961,-81.1077 809.368,-81.3342 811.822,-87.8903"/>
</g>
<!-- Node12 -->
<g id="node13" class="node"><title>Node12</title>
<g id="a_node13"><a xlink:title=" ">
<polygon fill="white" stroke="#bfbfbf" points="889.5,-62 889.5,-81 936.5,-81 936.5,-62 889.5,-62"/>
<text text-anchor="middle" x="913" y="-69" font-family="Helvetica,sans-Serif" font-size="10.00">queue</text>
</a>
</g>
</g>
<!-- Node0&#45;&gt;Node12 -->
<g id="edge16" class="edge"><title>Node0&#45;&gt;Node12</title>
<path fill="none" stroke="midnightblue" d="M710.218,-129.862C759.607,-120.34 824.941,-105.839 881,-87 882.669,-86.439 884.369,-85.82 886.072,-85.1634"/>
<polygon fill="midnightblue" stroke="midnightblue" points="887.793,-88.2363 895.652,-81.1308 885.077,-81.7846 887.793,-88.2363"/>
</g>
<!-- Node13 -->
<g id="node14" class="node"><title>Node13</title>
<g id="a_node14"><a xlink:title=" ">
<polygon fill="white" stroke="#bfbfbf" points="954.5,-62 954.5,-81 1047.5,-81 1047.5,-62 954.5,-62"/>
<text text-anchor="middle" x="1001" y="-69" font-family="Helvetica,sans-Serif" font-size="10.00">unordered_map</text>
</a>
</g>
</g>
<!-- Node0&#45;&gt;Node13 -->
<g id="edge17" class="edge"><title>Node0&#45;&gt;Node13</title>
<path fill="none" stroke="midnightblue" d="M710.313,-131.058C773.69,-120.72 866.071,-104.679 946,-87 950.694,-85.9617 955.593,-84.7938 960.447,-83.5832"/>
<polygon fill="midnightblue" stroke="midnightblue" points="961.453,-86.9387 970.272,-81.0663 959.716,-80.1577 961.453,-86.9387"/>
</g>
<!-- Node14 -->
<g id="node15" class="node"><title>Node14</title>
<g id="a_node15"><a xlink:title=" ">
<polygon fill="white" stroke="#bfbfbf" points="1065.5,-62 1065.5,-81 1112.5,-81 1112.5,-62 1065.5,-62"/>
<text text-anchor="middle" x="1089" y="-69" font-family="Helvetica,sans-Serif" font-size="10.00">vector</text>
</a>
</g>
</g>
<!-- Node0&#45;&gt;Node14 -->
<g id="edge18" class="edge"><title>Node0&#45;&gt;Node14</title>
<path fill="none" stroke="midnightblue" d="M710.245,-139.639C796.01,-134.319 938.769,-120.81 1057,-87 1058.94,-86.4466 1060.9,-85.7949 1062.86,-85.0795"/>
<polygon fill="midnightblue" stroke="midnightblue" points="1064.51,-88.187 1072.41,-81.1312 1061.83,-81.7182 1064.51,-88.187"/>
</g>
<!-- Node6&#45;&gt;Node1 -->
<g id="edge7" class="edge"><title>Node6&#45;&gt;Node1</title>
<path fill="none" stroke="midnightblue" d="M599.4,-56.3993C574.904,-46.4163 542.343,-33.1465 518.755,-23.5335"/>
<polygon fill="midnightblue" stroke="midnightblue" points="519.826,-20.1906 509.244,-19.6578 517.184,-26.673 519.826,-20.1906"/>
</g>
<!-- Node6&#45;&gt;Node7 -->
<g id="edge8" class="edge"><title>Node6&#45;&gt;Node7</title>
<path fill="none" stroke="midnightblue" d="M654.144,-56.3993C667.387,-47.1293 684.678,-35.0254 698.076,-25.6469"/>
<polygon fill="midnightblue" stroke="midnightblue" points="700.447,-28.2598 706.632,-19.6578 696.432,-22.5251 700.447,-28.2598"/>
</g>
<!-- Node8 -->
<g id="node9" class="node"><title>Node8</title>
<g id="a_node9"><a xlink:title=" ">
<polygon fill="white" stroke="#bfbfbf" points="594,-0.5 594,-19.5 680,-19.5 680,-0.5 594,-0.5"/>
<text text-anchor="middle" x="637" y="-7.5" font-family="Helvetica,sans-Serif" font-size="10.00">unordered_set</text>
</a>
</g>
</g>
<!-- Node6&#45;&gt;Node8 -->
<g id="edge9" class="edge"><title>Node6&#45;&gt;Node8</title>
<path fill="none" stroke="midnightblue" d="M634.711,-56.3993C635.111,-48.4664 635.616,-38.458 636.049,-29.8583"/>
<polygon fill="midnightblue" stroke="midnightblue" points="639.555,-29.8214 636.563,-19.6578 632.564,-29.4688 639.555,-29.8214"/>
</g>
<!-- Node9&#45;&gt;Node2 -->
<g id="edge11" class="edge"><title>Node9&#45;&gt;Node2</title>
<path fill="none" stroke="midnightblue" d="M150.822,-61.9751C137.188,-52.4315 114.868,-36.8073 98.5262,-25.3683"/>
<polygon fill="midnightblue" stroke="midnightblue" points="100.355,-22.3764 90.1558,-19.5091 96.341,-28.1111 100.355,-22.3764"/>
</g>
<!-- Node9&#45;&gt;Node3 -->
<g id="edge12" class="edge"><title>Node9&#45;&gt;Node3</title>
<path fill="none" stroke="midnightblue" d="M175.178,-61.9751C188.812,-52.4315 211.132,-36.8073 227.474,-25.3683"/>
<polygon fill="midnightblue" stroke="midnightblue" points="229.659,-28.1111 235.844,-19.5091 225.645,-22.3764 229.659,-28.1111"/>
</g>
</g>
</svg>
