<?xml version="1.0" encoding="UTF-8" standalone="no"?>
<!DOCTYPE svg PUBLIC "-//W3C//DTD SVG 1.1//EN"
 "http://www.w3.org/Graphics/SVG/1.1/DTD/svg11.dtd">
<!-- Generated by graphviz version 2.38.0 (20140413.2041)
 -->
<!-- Title: include/arlib/routing_kernels/bidirectional_dijkstra.hpp Pages: 1 -->
<svg width="1887pt" height="318pt"
 viewBox="0.00 0.00 1887.13 318.00" xmlns="http://www.w3.org/2000/svg" xmlns:xlink="http://www.w3.org/1999/xlink">
<g id="graph0" class="graph" transform="scale(1 1) rotate(0) translate(4 314)">
<title>include/arlib/routing_kernels/bidirectional_dijkstra.hpp</title>
<polygon fill="white" stroke="none" points="-4,4 -4,-314 1883.13,-314 1883.13,4 -4,4"/>
<!-- Node0 -->
<g id="node1" class="node"><title>Node0</title>
<g id="a_node1"><a xlink:title=" ">
<polygon fill="#bfbfbf" stroke="black" points="990.206,-268.5 990.206,-309.5 1107.21,-309.5 1107.21,-268.5 990.206,-268.5"/>
<text text-anchor="start" x="998.206" y="-297.5" font-family="Helvetica,sans-Serif" font-size="10.00">include/arlib/routing</text>
<text text-anchor="start" x="998.206" y="-286.5" font-family="Helvetica,sans-Serif" font-size="10.00">_kernels/bidirectional</text>
<text text-anchor="middle" x="1048.71" y="-275.5" font-family="Helvetica,sans-Serif" font-size="10.00">_dijkstra.hpp</text>
</a>
</g>
</g>
<!-- Node1 -->
<g id="node2" class="node"><title>Node1</title>
<g id="a_node2"><a xlink:title=" ">
<polygon fill="white" stroke="#bfbfbf" points="1513.21,-0.5 1513.21,-19.5 1688.21,-19.5 1688.21,-0.5 1513.21,-0.5"/>
<text text-anchor="middle" x="1600.71" y="-7.5" font-family="Helvetica,sans-Serif" font-size="10.00">boost/graph/graph_concepts.hpp</text>
</a>
</g>
</g>
<!-- Node0&#45;&gt;Node1 -->
<g id="edge1" class="edge"><title>Node0&#45;&gt;Node1</title>
<path fill="none" stroke="midnightblue" d="M1107.37,-287.664C1256.76,-286.137 1648.2,-277.757 1768.71,-232 1822.39,-211.617 1846.14,-205.42 1871.71,-154 1911.97,-72.9933 1779.16,-36.5078 1685.45,-21.1399"/>
<polygon fill="midnightblue" stroke="midnightblue" points="1685.79,-17.6512 1675.37,-19.543 1684.7,-24.5649 1685.79,-17.6512"/>
</g>
<!-- Node2 -->
<g id="node3" class="node"><title>Node2</title>
<g id="a_node3"><a xlink:title=" ">
<polygon fill="white" stroke="#bfbfbf" points="701.706,-0.5 701.706,-19.5 857.706,-19.5 857.706,-0.5 701.706,-0.5"/>
<text text-anchor="middle" x="779.706" y="-7.5" font-family="Helvetica,sans-Serif" font-size="10.00">boost/graph/graph_traits.hpp</text>
</a>
</g>
</g>
<!-- Node0&#45;&gt;Node2 -->
<g id="edge2" class="edge"><title>Node0&#45;&gt;Node2</title>
<path fill="none" stroke="midnightblue" d="M1020.49,-268.355C986.287,-243.805 927.873,-199.459 884.706,-154 845.434,-112.643 808.04,-56.2993 790.353,-28.2861"/>
<polygon fill="midnightblue" stroke="midnightblue" points="793.213,-26.2586 784.948,-19.63 787.276,-29.966 793.213,-26.2586"/>
</g>
<!-- Node3 -->
<g id="node4" class="node"><title>Node3</title>
<g id="a_node4"><a xlink:title=" ">
<polygon fill="white" stroke="#bfbfbf" points="486.206,-0.5 486.206,-19.5 633.206,-19.5 633.206,-0.5 486.206,-0.5"/>
<text text-anchor="middle" x="559.706" y="-7.5" font-family="Helvetica,sans-Serif" font-size="10.00">boost/graph/properties.hpp</text>
</a>
</g>
</g>
<!-- Node0&#45;&gt;Node3 -->
<g id="edge3" class="edge"><title>Node0&#45;&gt;Node3</title>
<path fill="none" stroke="midnightblue" d="M989.899,-286.537C796.548,-281.447 188.132,-263.107 105.706,-232 52.9705,-212.098 30.435,-204.651 5.70567,-154 -0.339059,-141.619 -3.0182,-133.664 5.70567,-123 64.1614,-51.5439 335.989,-24.6226 475.94,-15.3726"/>
<polygon fill="midnightblue" stroke="midnightblue" points="476.439,-18.8477 486.193,-14.711 475.989,-11.8623 476.439,-18.8477"/>
</g>
<!-- Node4 -->
<g id="node5" class="node"><title>Node4</title>
<g id="a_node5"><a xlink:title=" ">
<polygon fill="white" stroke="#bfbfbf" points="894.206,-123.5 894.206,-153.5 1007.21,-153.5 1007.21,-123.5 894.206,-123.5"/>
<text text-anchor="start" x="902.206" y="-141.5" font-family="Helvetica,sans-Serif" font-size="10.00">boost/graph/reverse</text>
<text text-anchor="middle" x="950.706" y="-130.5" font-family="Helvetica,sans-Serif" font-size="10.00">_graph.hpp</text>
</a>
</g>
</g>
<!-- Node0&#45;&gt;Node4 -->
<g id="edge4" class="edge"><title>Node0&#45;&gt;Node4</title>
<path fill="none" stroke="midnightblue" d="M1035.69,-268.28C1017.56,-240.8 984.766,-191.111 965.651,-162.147"/>
<polygon fill="midnightblue" stroke="midnightblue" points="968.391,-159.944 959.962,-153.526 962.549,-163.8 968.391,-159.944"/>
</g>
<!-- Node5 -->
<g id="node6" class="node"><title>Node5</title>
<g id="a_node6"><a xlink:href="arlib__utils_8hpp.html" target="_top" xlink:title=" ">
<polygon fill="white" stroke="black" points="542.206,-196 542.206,-226 637.206,-226 637.206,-196 542.206,-196"/>
<text text-anchor="start" x="550.206" y="-214" font-family="Helvetica,sans-Serif" font-size="10.00">arlib/details/arlib</text>
<text text-anchor="middle" x="589.706" y="-203" font-family="Helvetica,sans-Serif" font-size="10.00">_utils.hpp</text>
</a>
</g>
</g>
<!-- Node0&#45;&gt;Node5 -->
<g id="edge5" class="edge"><title>Node0&#45;&gt;Node5</title>
<path fill="none" stroke="midnightblue" d="M990.107,-278.297C901.766,-263.67 735.484,-236.138 647.575,-221.582"/>
<polygon fill="midnightblue" stroke="midnightblue" points="647.948,-218.096 637.511,-219.915 646.805,-225.002 647.948,-218.096"/>
</g>
<!-- Node13 -->
<g id="node14" class="node"><title>Node13</title>
<g id="a_node14"><a xlink:href="type__traits_8hpp.html" target="_top" xlink:title=" ">
<polygon fill="white" stroke="black" points="503.706,-62 503.706,-81 615.706,-81 615.706,-62 503.706,-62"/>
<text text-anchor="middle" x="559.706" y="-69" font-family="Helvetica,sans-Serif" font-size="10.00">arlib/type_traits.hpp</text>
</a>
</g>
</g>
<!-- Node0&#45;&gt;Node13 -->
<g id="edge49" class="edge"><title>Node0&#45;&gt;Node13</title>
<path fill="none" stroke="midnightblue" d="M989.994,-284.877C780.653,-273.146 79.842,-228.538 15.7057,-154 6.71933,-143.556 6.33549,-133.101 15.7057,-123 52.0038,-83.8714 441.911,-94.8307 494.706,-87 501.545,-85.9856 508.735,-84.654 515.74,-83.2087"/>
<polygon fill="midnightblue" stroke="midnightblue" points="516.772,-86.5666 525.807,-81.0335 515.293,-79.7245 516.772,-86.5666"/>
</g>
<!-- Node18 -->
<g id="node19" class="node"><title>Node18</title>
<g id="a_node19"><a xlink:title=" ">
<polygon fill="white" stroke="#bfbfbf" points="1025.21,-129 1025.21,-148 1072.21,-148 1072.21,-129 1025.21,-129"/>
<text text-anchor="middle" x="1048.71" y="-136" font-family="Helvetica,sans-Serif" font-size="10.00">vector</text>
</a>
</g>
</g>
<!-- Node0&#45;&gt;Node18 -->
<g id="edge52" class="edge"><title>Node0&#45;&gt;Node18</title>
<path fill="none" stroke="midnightblue" d="M1048.71,-268.28C1048.71,-239.573 1048.71,-186.627 1048.71,-158.393"/>
<polygon fill="midnightblue" stroke="midnightblue" points="1052.21,-158.258 1048.71,-148.258 1045.21,-158.258 1052.21,-158.258"/>
</g>
<!-- Node19 -->
<g id="node20" class="node"><title>Node19</title>
<g id="a_node20"><a xlink:href="bidirectional__dijkstra__impl_8hpp.html" target="_top" xlink:title=" ">
<polygon fill="white" stroke="black" points="1257.21,-190.5 1257.21,-231.5 1370.21,-231.5 1370.21,-190.5 1257.21,-190.5"/>
<text text-anchor="start" x="1265.21" y="-219.5" font-family="Helvetica,sans-Serif" font-size="10.00">arlib/routing_kernels</text>
<text text-anchor="start" x="1265.21" y="-208.5" font-family="Helvetica,sans-Serif" font-size="10.00">/details/bidirectional</text>
<text text-anchor="middle" x="1313.71" y="-197.5" font-family="Helvetica,sans-Serif" font-size="10.00">_dijkstra_impl.hpp</text>
</a>
</g>
</g>
<!-- Node0&#45;&gt;Node19 -->
<g id="edge31" class="edge"><title>Node0&#45;&gt;Node19</title>
<path fill="none" stroke="midnightblue" d="M1107.52,-271.133C1148.83,-259.287 1204.14,-243.422 1247.08,-231.108"/>
<polygon fill="midnightblue" stroke="midnightblue" points="1248.23,-234.419 1256.88,-228.298 1246.3,-227.691 1248.23,-234.419"/>
</g>
<!-- Node21 -->
<g id="node22" class="node"><title>Node21</title>
<g id="a_node22"><a xlink:href="visitor_8hpp.html" target="_top" xlink:title=" ">
<polygon fill="white" stroke="black" points="1629.21,-123.5 1629.21,-153.5 1742.21,-153.5 1742.21,-123.5 1629.21,-123.5"/>
<text text-anchor="start" x="1637.21" y="-141.5" font-family="Helvetica,sans-Serif" font-size="10.00">arlib/routing_kernels</text>
<text text-anchor="middle" x="1685.71" y="-130.5" font-family="Helvetica,sans-Serif" font-size="10.00">/visitor.hpp</text>
</a>
</g>
</g>
<!-- Node0&#45;&gt;Node21 -->
<g id="edge48" class="edge"><title>Node0&#45;&gt;Node21</title>
<path fill="none" stroke="midnightblue" d="M1107.45,-280.342C1173.97,-271.144 1285.38,-254.144 1379.71,-232 1471.06,-210.554 1575.23,-177.084 1635.43,-156.83"/>
<polygon fill="midnightblue" stroke="midnightblue" points="1636.72,-160.091 1645.07,-153.575 1634.48,-153.46 1636.72,-160.091"/>
</g>
<!-- Node22 -->
<g id="node23" class="node"><title>Node22</title>
<g id="a_node23"><a xlink:title=" ">
<polygon fill="white" stroke="#bfbfbf" points="1749.71,-62 1749.71,-81 1791.71,-81 1791.71,-62 1749.71,-62"/>
<text text-anchor="middle" x="1770.71" y="-69" font-family="Helvetica,sans-Serif" font-size="10.00">limits</text>
</a>
</g>
</g>
<!-- Node0&#45;&gt;Node22 -->
<g id="edge51" class="edge"><title>Node0&#45;&gt;Node22</title>
<path fill="none" stroke="midnightblue" d="M1107.22,-288.062C1277.23,-286.829 1764.87,-272.822 1855.71,-154 1864.07,-143.054 1862.52,-134.975 1855.71,-123 1844.14,-102.674 1820.81,-89.6787 1801.51,-81.9692"/>
<polygon fill="midnightblue" stroke="midnightblue" points="1802.46,-78.5903 1791.87,-78.4085 1800.04,-85.1567 1802.46,-78.5903"/>
</g>
<!-- Node23 -->
<g id="node24" class="node"><title>Node23</title>
<g id="a_node24"><a xlink:title=" ">
<polygon fill="white" stroke="#bfbfbf" points="1799.21,-129 1799.21,-148 1846.21,-148 1846.21,-129 1799.21,-129"/>
<text text-anchor="middle" x="1822.71" y="-136" font-family="Helvetica,sans-Serif" font-size="10.00">deque</text>
</a>
</g>
</g>
<!-- Node0&#45;&gt;Node23 -->
<g id="edge50" class="edge"><title>Node0&#45;&gt;Node23</title>
<path fill="none" stroke="midnightblue" d="M1107.49,-282.371C1189.04,-274.063 1340.88,-256.777 1468.71,-232 1606.07,-205.374 1638.82,-191.191 1773.71,-154 1778.71,-152.62 1783.98,-151.114 1789.15,-149.611"/>
<polygon fill="midnightblue" stroke="midnightblue" points="1790.23,-152.942 1798.83,-146.759 1788.25,-146.227 1790.23,-152.942"/>
</g>
<!-- Node5&#45;&gt;Node1 -->
<g id="edge9" class="edge"><title>Node5&#45;&gt;Node1</title>
<path fill="none" stroke="midnightblue" d="M637.594,-198.522C680.386,-187.96 744.642,-171.345 799.706,-154 838.06,-141.919 845.768,-133.044 884.706,-123 1005.26,-91.904 1367.32,-41.9519 1525.45,-20.8816"/>
<polygon fill="midnightblue" stroke="midnightblue" points="1526.11,-24.3242 1535.56,-19.536 1525.19,-17.3853 1526.11,-24.3242"/>
</g>
<!-- Node5&#45;&gt;Node2 -->
<g id="edge10" class="edge"><title>Node5&#45;&gt;Node2</title>
<path fill="none" stroke="midnightblue" d="M637.321,-201.056C667.631,-193.196 705.901,-178.971 731.706,-154 766.582,-120.251 776.118,-60.4241 778.725,-29.9628"/>
<polygon fill="midnightblue" stroke="midnightblue" points="782.227,-30.0588 779.423,-19.8416 775.243,-29.5769 782.227,-30.0588"/>
</g>
<!-- Node5&#45;&gt;Node3 -->
<g id="edge11" class="edge"><title>Node5&#45;&gt;Node3</title>
<path fill="none" stroke="midnightblue" d="M542.059,-207.721C498.776,-203.253 435.618,-190.415 394.706,-154 370.598,-132.543 373.052,-118.643 366.706,-87 363.996,-73.4912 358.141,-66.7919 366.706,-56 380.654,-38.425 430.489,-27.0774 476.021,-20.1738"/>
<polygon fill="midnightblue" stroke="midnightblue" points="476.568,-23.6312 485.959,-18.7252 475.558,-16.7044 476.568,-23.6312"/>
</g>
<!-- Node5&#45;&gt;Node4 -->
<g id="edge12" class="edge"><title>Node5&#45;&gt;Node4</title>
<path fill="none" stroke="midnightblue" d="M637.271,-200.711C700.54,-188.355 812.707,-166.45 884.295,-152.469"/>
<polygon fill="midnightblue" stroke="midnightblue" points="884.974,-155.903 894.118,-150.551 883.633,-149.033 884.974,-155.903"/>
</g>
<!-- Node6 -->
<g id="node7" class="node"><title>Node6</title>
<g id="a_node7"><a xlink:title=" ">
<polygon fill="white" stroke="#bfbfbf" points="25.2057,-129 25.2057,-148 186.206,-148 186.206,-129 25.2057,-129"/>
<text text-anchor="middle" x="105.706" y="-136" font-family="Helvetica,sans-Serif" font-size="10.00">boost/graph/astar_search.hpp</text>
</a>
</g>
</g>
<!-- Node5&#45;&gt;Node6 -->
<g id="edge6" class="edge"><title>Node5&#45;&gt;Node6</title>
<path fill="none" stroke="midnightblue" d="M541.929,-203.551C467.61,-193.446 319.839,-173.062 194.706,-154 185.727,-152.632 176.247,-151.14 166.954,-149.649"/>
<polygon fill="midnightblue" stroke="midnightblue" points="167.406,-146.177 156.976,-148.039 166.29,-153.088 167.406,-146.177"/>
</g>
<!-- Node7 -->
<g id="node8" class="node"><title>Node7</title>
<g id="a_node8"><a xlink:title=" ">
<polygon fill="white" stroke="#bfbfbf" points="204.206,-123.5 204.206,-153.5 319.206,-153.5 319.206,-123.5 204.206,-123.5"/>
<text text-anchor="start" x="212.206" y="-141.5" font-family="Helvetica,sans-Serif" font-size="10.00">boost/graph/dijkstra</text>
<text text-anchor="middle" x="261.706" y="-130.5" font-family="Helvetica,sans-Serif" font-size="10.00">_shortest_paths.hpp</text>
</a>
</g>
</g>
<!-- Node5&#45;&gt;Node7 -->
<g id="edge7" class="edge"><title>Node5&#45;&gt;Node7</title>
<path fill="none" stroke="midnightblue" d="M542.012,-199.749C486.019,-187.714 392.76,-167.669 329.323,-154.034"/>
<polygon fill="midnightblue" stroke="midnightblue" points="329.92,-150.582 319.408,-151.903 328.449,-157.426 329.92,-150.582"/>
</g>
<!-- Node8 -->
<g id="node9" class="node"><title>Node8</title>
<g id="a_node9"><a xlink:title=" ">
<polygon fill="white" stroke="#bfbfbf" points="375.706,-56.5 375.706,-86.5 485.706,-86.5 485.706,-56.5 375.706,-56.5"/>
<text text-anchor="start" x="383.706" y="-74.5" font-family="Helvetica,sans-Serif" font-size="10.00">boost/graph/filtered</text>
<text text-anchor="middle" x="430.706" y="-63.5" font-family="Helvetica,sans-Serif" font-size="10.00">_graph.hpp</text>
</a>
</g>
</g>
<!-- Node5&#45;&gt;Node8 -->
<g id="edge8" class="edge"><title>Node5&#45;&gt;Node8</title>
<path fill="none" stroke="midnightblue" d="M541.85,-208.936C410.333,-205.522 50.8146,-192.701 15.7057,-154 6.44837,-143.796 6.57066,-133.314 15.7057,-123 38.4843,-97.2815 254.581,-81.9817 365.576,-75.7577"/>
<polygon fill="midnightblue" stroke="midnightblue" points="365.864,-79.2472 375.655,-75.2012 365.478,-72.2579 365.864,-79.2472"/>
</g>
<!-- Node9 -->
<g id="node10" class="node"><title>Node9</title>
<g id="a_node10"><a xlink:href="path_8hpp.html" target="_top" xlink:title=" ">
<polygon fill="white" stroke="black" points="640.206,-129 640.206,-148 723.206,-148 723.206,-129 640.206,-129"/>
<text text-anchor="middle" x="681.706" y="-136" font-family="Helvetica,sans-Serif" font-size="10.00">arlib/path.hpp</text>
</a>
</g>
</g>
<!-- Node5&#45;&gt;Node9 -->
<g id="edge13" class="edge"><title>Node5&#45;&gt;Node9</title>
<path fill="none" stroke="midnightblue" d="M608.323,-195.733C624.006,-183.716 646.365,-166.582 662.273,-154.391"/>
<polygon fill="midnightblue" stroke="midnightblue" points="664.556,-157.052 670.364,-148.191 660.298,-151.495 664.556,-157.052"/>
</g>
<!-- Node12 -->
<g id="node13" class="node"><title>Node12</title>
<g id="a_node13"><a xlink:title=" ">
<polygon fill="white" stroke="#bfbfbf" points="1019.71,-0.5 1019.71,-19.5 1105.71,-19.5 1105.71,-0.5 1019.71,-0.5"/>
<text text-anchor="middle" x="1062.71" y="-7.5" font-family="Helvetica,sans-Serif" font-size="10.00">unordered_set</text>
</a>
</g>
</g>
<!-- Node5&#45;&gt;Node12 -->
<g id="edge29" class="edge"><title>Node5&#45;&gt;Node12</title>
<path fill="none" stroke="midnightblue" d="M637.287,-196.692C671.412,-186.536 718.153,-171.363 757.706,-154 783.754,-142.565 786.819,-132.294 813.706,-123 908.591,-90.2005 959.96,-151.723 1036.71,-87 1053.5,-72.8403 1059.47,-47.3367 1061.58,-29.8071"/>
<polygon fill="midnightblue" stroke="midnightblue" points="1065.08,-29.9091 1062.48,-19.6385 1058.11,-29.2894 1065.08,-29.9091"/>
</g>
<!-- Node5&#45;&gt;Node13 -->
<g id="edge25" class="edge"><title>Node5&#45;&gt;Node13</title>
<path fill="none" stroke="midnightblue" d="M542.19,-210.334C498.57,-207.785 436.103,-196.308 404.706,-154 396.495,-142.936 396.612,-134.15 404.706,-123 411.531,-113.598 473.375,-95.4793 516.846,-83.6952"/>
<polygon fill="midnightblue" stroke="midnightblue" points="517.887,-87.0397 526.636,-81.0638 516.07,-80.2797 517.887,-87.0397"/>
</g>
<!-- Node15 -->
<g id="node16" class="node"><title>Node15</title>
<g id="a_node16"><a xlink:title=" ">
<polygon fill="white" stroke="#bfbfbf" points="413.706,-129 413.706,-148 465.706,-148 465.706,-129 413.706,-129"/>
<text text-anchor="middle" x="439.706" y="-136" font-family="Helvetica,sans-Serif" font-size="10.00">iterator</text>
</a>
</g>
</g>
<!-- Node5&#45;&gt;Node15 -->
<g id="edge26" class="edge"><title>Node5&#45;&gt;Node15</title>
<path fill="none" stroke="midnightblue" d="M559.711,-195.903C532.723,-183.218 493.396,-164.734 467.204,-152.424"/>
<polygon fill="midnightblue" stroke="midnightblue" points="468.401,-149.12 457.862,-148.034 465.424,-155.455 468.401,-149.12"/>
</g>
<!-- Node16 -->
<g id="node17" class="node"><title>Node16</title>
<g id="a_node17"><a xlink:title=" ">
<polygon fill="white" stroke="#bfbfbf" points="483.706,-129 483.706,-148 539.706,-148 539.706,-129 483.706,-129"/>
<text text-anchor="middle" x="511.706" y="-136" font-family="Helvetica,sans-Serif" font-size="10.00">sstream</text>
</a>
</g>
</g>
<!-- Node5&#45;&gt;Node16 -->
<g id="edge27" class="edge"><title>Node5&#45;&gt;Node16</title>
<path fill="none" stroke="midnightblue" d="M573.921,-195.733C560.945,-184.005 542.578,-167.404 529.164,-155.28"/>
<polygon fill="midnightblue" stroke="midnightblue" points="531.311,-152.502 521.545,-148.393 526.617,-157.695 531.311,-152.502"/>
</g>
<!-- Node17 -->
<g id="node18" class="node"><title>Node17</title>
<g id="a_node18"><a xlink:title=" ">
<polygon fill="white" stroke="#bfbfbf" points="557.706,-129 557.706,-148 621.706,-148 621.706,-129 557.706,-129"/>
<text text-anchor="middle" x="589.706" y="-136" font-family="Helvetica,sans-Serif" font-size="10.00">stdexcept</text>
</a>
</g>
</g>
<!-- Node5&#45;&gt;Node17 -->
<g id="edge28" class="edge"><title>Node5&#45;&gt;Node17</title>
<path fill="none" stroke="midnightblue" d="M589.706,-195.733C589.706,-185.001 589.706,-170.187 589.706,-158.459"/>
<polygon fill="midnightblue" stroke="midnightblue" points="593.206,-158.393 589.706,-148.393 586.206,-158.393 593.206,-158.393"/>
</g>
<!-- Node5&#45;&gt;Node18 -->
<g id="edge30" class="edge"><title>Node5&#45;&gt;Node18</title>
<path fill="none" stroke="midnightblue" d="M637.384,-208.318C717.276,-204.494 882.616,-192.257 1016.71,-154 1018.64,-153.448 1020.61,-152.797 1022.57,-152.082"/>
<polygon fill="midnightblue" stroke="midnightblue" points="1024.21,-155.19 1032.12,-148.135 1021.54,-148.721 1024.21,-155.19"/>
</g>
<!-- Node9&#45;&gt;Node2 -->
<g id="edge22" class="edge"><title>Node9&#45;&gt;Node2</title>
<path fill="none" stroke="midnightblue" d="M681.547,-128.958C681.677,-113.022 684.024,-78.3575 700.706,-56 711.571,-41.4377 728.638,-30.873 744.132,-23.6551"/>
<polygon fill="midnightblue" stroke="midnightblue" points="745.726,-26.7788 753.507,-19.5876 742.94,-20.3572 745.726,-26.7788"/>
</g>
<!-- Node9&#45;&gt;Node3 -->
<g id="edge23" class="edge"><title>Node9&#45;&gt;Node3</title>
<path fill="none" stroke="midnightblue" d="M677.069,-128.905C668.305,-113.181 648.081,-79.2639 624.706,-56 612.65,-44.0019 597.035,-33.0751 584.131,-24.9938"/>
<polygon fill="midnightblue" stroke="midnightblue" points="585.669,-21.8331 575.304,-19.6377 582.038,-27.8176 585.669,-21.8331"/>
</g>
<!-- Node9&#45;&gt;Node8 -->
<g id="edge21" class="edge"><title>Node9&#45;&gt;Node8</title>
<path fill="none" stroke="midnightblue" d="M652.351,-128.993C645.275,-126.987 637.729,-124.885 630.706,-123 585.937,-110.987 535.312,-98.2117 496.197,-88.5164"/>
<polygon fill="midnightblue" stroke="midnightblue" points="496.547,-84.9976 485.999,-85.9938 494.866,-91.7927 496.547,-84.9976"/>
</g>
<!-- Node10 -->
<g id="node11" class="node"><title>Node10</title>
<g id="a_node11"><a xlink:href="path__impl_8hpp.html" target="_top" xlink:title=" ">
<polygon fill="white" stroke="black" points="931.706,-56.5 931.706,-86.5 1027.71,-86.5 1027.71,-56.5 931.706,-56.5"/>
<text text-anchor="start" x="939.706" y="-74.5" font-family="Helvetica,sans-Serif" font-size="10.00">arlib/details/path</text>
<text text-anchor="middle" x="979.706" y="-63.5" font-family="Helvetica,sans-Serif" font-size="10.00">_impl.hpp</text>
</a>
</g>
</g>
<!-- Node9&#45;&gt;Node10 -->
<g id="edge14" class="edge"><title>Node9&#45;&gt;Node10</title>
<path fill="none" stroke="midnightblue" d="M720.97,-128.936C772.216,-117.758 862.321,-98.104 921.516,-85.1925"/>
<polygon fill="midnightblue" stroke="midnightblue" points="922.441,-88.573 931.465,-83.0223 920.949,-81.7338 922.441,-88.573"/>
</g>
<!-- Node9&#45;&gt;Node13 -->
<g id="edge18" class="edge"><title>Node9&#45;&gt;Node13</title>
<path fill="none" stroke="midnightblue" d="M665.505,-128.869C644.905,-117.893 609.114,-98.8243 584.929,-85.9385"/>
<polygon fill="midnightblue" stroke="midnightblue" points="586.445,-82.7804 575.973,-81.1672 583.153,-88.9583 586.445,-82.7804"/>
</g>
<!-- Node14 -->
<g id="node15" class="node"><title>Node14</title>
<g id="a_node15"><a xlink:title=" ">
<polygon fill="white" stroke="#bfbfbf" points="709.706,-62 709.706,-81 751.706,-81 751.706,-62 709.706,-62"/>
<text text-anchor="middle" x="730.706" y="-69" font-family="Helvetica,sans-Serif" font-size="10.00">utility</text>
</a>
</g>
</g>
<!-- Node9&#45;&gt;Node14 -->
<g id="edge24" class="edge"><title>Node9&#45;&gt;Node14</title>
<path fill="none" stroke="midnightblue" d="M688.314,-128.734C695.881,-118.695 708.456,-102.014 717.95,-89.4213"/>
<polygon fill="midnightblue" stroke="midnightblue" points="720.977,-91.2194 724.202,-81.1273 715.387,-87.0057 720.977,-91.2194"/>
</g>
<!-- Node10&#45;&gt;Node1 -->
<g id="edge15" class="edge"><title>Node10&#45;&gt;Node1</title>
<path fill="none" stroke="midnightblue" d="M1027.95,-62.9289C1044.35,-60.5089 1062.8,-57.9539 1079.71,-56 1226.77,-39.0006 1397.88,-25.399 1502.73,-17.7641"/>
<polygon fill="midnightblue" stroke="midnightblue" points="1503.26,-21.2351 1512.98,-17.0214 1502.75,-14.2534 1503.26,-21.2351"/>
</g>
<!-- Node11 -->
<g id="node12" class="node"><title>Node11</title>
<g id="a_node12"><a xlink:title=" ">
<polygon fill="white" stroke="#bfbfbf" points="944.206,-0.5 944.206,-19.5 1001.21,-19.5 1001.21,-0.5 944.206,-0.5"/>
<text text-anchor="middle" x="972.706" y="-7.5" font-family="Helvetica,sans-Serif" font-size="10.00">memory</text>
</a>
</g>
</g>
<!-- Node10&#45;&gt;Node11 -->
<g id="edge16" class="edge"><title>Node10&#45;&gt;Node11</title>
<path fill="none" stroke="midnightblue" d="M978.047,-56.3993C977.113,-48.4664 975.936,-38.458 974.924,-29.8583"/>
<polygon fill="midnightblue" stroke="midnightblue" points="978.369,-29.1803 973.724,-19.6578 971.417,-29.9983 978.369,-29.1803"/>
</g>
<!-- Node10&#45;&gt;Node12 -->
<g id="edge17" class="edge"><title>Node10&#45;&gt;Node12</title>
<path fill="none" stroke="midnightblue" d="M999.376,-56.3993C1012.31,-47.1293 1029.19,-35.0254 1042.27,-25.6469"/>
<polygon fill="midnightblue" stroke="midnightblue" points="1044.54,-28.3287 1050.63,-19.6578 1040.46,-22.6395 1044.54,-28.3287"/>
</g>
<!-- Node13&#45;&gt;Node2 -->
<g id="edge19" class="edge"><title>Node13&#45;&gt;Node2</title>
<path fill="none" stroke="midnightblue" d="M591.226,-61.9751C629.944,-51.5036 695.729,-33.7118 738.442,-22.1601"/>
<polygon fill="midnightblue" stroke="midnightblue" points="739.504,-25.4985 748.244,-19.5091 737.677,-18.7413 739.504,-25.4985"/>
</g>
<!-- Node13&#45;&gt;Node3 -->
<g id="edge20" class="edge"><title>Node13&#45;&gt;Node3</title>
<path fill="none" stroke="midnightblue" d="M559.706,-61.9751C559.706,-53.5803 559.706,-40.4806 559.706,-29.6631"/>
<polygon fill="midnightblue" stroke="midnightblue" points="563.206,-29.5091 559.706,-19.5091 556.206,-29.5091 563.206,-29.5091"/>
</g>
<!-- Node19&#45;&gt;Node1 -->
<g id="edge32" class="edge"><title>Node19&#45;&gt;Node1</title>
<path fill="none" stroke="midnightblue" d="M1370.38,-191.37C1372.17,-190.893 1373.95,-190.435 1375.71,-190 1465.93,-167.679 1517.34,-221.051 1581.71,-154 1614,-120.356 1609.37,-59.9963 1604.44,-29.587"/>
<polygon fill="midnightblue" stroke="midnightblue" points="1607.84,-28.7319 1602.61,-19.5169 1600.95,-29.981 1607.84,-28.7319"/>
</g>
<!-- Node19&#45;&gt;Node2 -->
<g id="edge33" class="edge"><title>Node19&#45;&gt;Node2</title>
<path fill="none" stroke="midnightblue" d="M1267.6,-190.468C1245.38,-180.468 1218.64,-167.558 1195.71,-154 1175.42,-142.011 1174.5,-131.956 1152.71,-123 1057.01,-83.668 1018.41,-126.332 922.706,-87 900.915,-78.044 900.107,-67.7829 879.706,-56 857.746,-43.3172 831.565,-31.6496 811.501,-23.3744"/>
<polygon fill="midnightblue" stroke="midnightblue" points="812.77,-20.1122 802.188,-19.5949 810.137,-26.5985 812.77,-20.1122"/>
</g>
<!-- Node19&#45;&gt;Node3 -->
<g id="edge34" class="edge"><title>Node19&#45;&gt;Node3</title>
<path fill="none" stroke="midnightblue" d="M1257.07,-195.968C1225.15,-186.696 1185.27,-172.767 1152.71,-154 1134.41,-143.457 1135.9,-131.794 1116.71,-123 1018.25,-77.8929 981.72,-109.13 875.706,-87 823.887,-76.1829 812.102,-68.6743 760.706,-56 709.654,-43.4107 650.937,-30.4376 610.203,-21.6749"/>
<polygon fill="midnightblue" stroke="midnightblue" points="610.761,-18.2151 600.249,-19.5406 609.293,-25.0596 610.761,-18.2151"/>
</g>
<!-- Node19&#45;&gt;Node4 -->
<g id="edge35" class="edge"><title>Node19&#45;&gt;Node4</title>
<path fill="none" stroke="midnightblue" d="M1256.95,-199.819C1199.21,-189.344 1106.89,-172.276 1017.02,-154.029"/>
<polygon fill="midnightblue" stroke="midnightblue" points="1017.71,-150.596 1007.21,-152.03 1016.31,-157.456 1017.71,-150.596"/>
</g>
<!-- Node19&#45;&gt;Node13 -->
<g id="edge41" class="edge"><title>Node19&#45;&gt;Node13</title>
<path fill="none" stroke="midnightblue" d="M1256.86,-198.441C1218.34,-189.352 1166.95,-174.736 1124.71,-154 1103.56,-143.618 1103.76,-131.287 1081.71,-123 922.487,-63.1746 869.971,-103.7 700.706,-87 676.387,-84.6007 649.718,-81.8809 626.182,-79.4504"/>
<polygon fill="midnightblue" stroke="midnightblue" points="626.264,-75.9402 615.957,-78.3923 625.543,-82.9031 626.264,-75.9402"/>
</g>
<!-- Node19&#45;&gt;Node18 -->
<g id="edge47" class="edge"><title>Node19&#45;&gt;Node18</title>
<path fill="none" stroke="midnightblue" d="M1257.2,-198.086C1210.95,-187.851 1144.04,-171.937 1086.71,-154 1084.29,-153.244 1081.8,-152.415 1079.31,-151.548"/>
<polygon fill="midnightblue" stroke="midnightblue" points="1080.44,-148.234 1069.85,-148.094 1078.04,-154.81 1080.44,-148.234"/>
</g>
<!-- Node20 -->
<g id="node21" class="node"><title>Node20</title>
<g id="a_node21"><a xlink:title=" ">
<polygon fill="white" stroke="#bfbfbf" points="1204.71,-123.5 1204.71,-153.5 1318.71,-153.5 1318.71,-123.5 1204.71,-123.5"/>
<text text-anchor="start" x="1212.71" y="-141.5" font-family="Helvetica,sans-Serif" font-size="10.00">boost/property_map</text>
<text text-anchor="middle" x="1261.71" y="-130.5" font-family="Helvetica,sans-Serif" font-size="10.00">/property_map.hpp</text>
</a>
</g>
</g>
<!-- Node19&#45;&gt;Node20 -->
<g id="edge36" class="edge"><title>Node19&#45;&gt;Node20</title>
<path fill="none" stroke="midnightblue" d="M1299.22,-190.362C1292.75,-181.593 1285.09,-171.209 1278.39,-162.118"/>
<polygon fill="midnightblue" stroke="midnightblue" points="1281.07,-159.862 1272.32,-153.892 1275.44,-164.017 1281.07,-159.862"/>
</g>
<!-- Node19&#45;&gt;Node21 -->
<g id="edge37" class="edge"><title>Node19&#45;&gt;Node21</title>
<path fill="none" stroke="midnightblue" d="M1370.35,-199.767C1430.89,-188.758 1529.67,-170.592 1614.71,-154 1616.17,-153.714 1617.66,-153.423 1619.15,-153.129"/>
<polygon fill="midnightblue" stroke="midnightblue" points="1620.02,-156.525 1629.14,-151.145 1618.65,-149.659 1620.02,-156.525"/>
</g>
<!-- Node19&#45;&gt;Node22 -->
<g id="edge44" class="edge"><title>Node19&#45;&gt;Node22</title>
<path fill="none" stroke="midnightblue" d="M1370.25,-210.503C1475.73,-210.231 1696.8,-203.579 1751.71,-154 1769.11,-138.283 1772.12,-109.985 1771.97,-91.2193"/>
<polygon fill="midnightblue" stroke="midnightblue" points="1775.47,-91.0594 1771.58,-81.2017 1768.47,-91.3291 1775.47,-91.0594"/>
</g>
<!-- Node19&#45;&gt;Node23 -->
<g id="edge42" class="edge"><title>Node19&#45;&gt;Node23</title>
<path fill="none" stroke="midnightblue" d="M1370.33,-207.763C1459.6,-203.236 1637.98,-190.129 1784.71,-154 1787.53,-153.304 1790.44,-152.455 1793.32,-151.522"/>
<polygon fill="midnightblue" stroke="midnightblue" points="1794.64,-154.768 1802.88,-148.118 1792.29,-148.173 1794.64,-154.768"/>
</g>
<!-- Node24 -->
<g id="node25" class="node"><title>Node24</title>
<g id="a_node25"><a xlink:title=" ">
<polygon fill="white" stroke="#bfbfbf" points="1337.21,-129 1337.21,-148 1396.21,-148 1396.21,-129 1337.21,-129"/>
<text text-anchor="middle" x="1366.71" y="-136" font-family="Helvetica,sans-Serif" font-size="10.00">iostream</text>
</a>
</g>
</g>
<!-- Node19&#45;&gt;Node24 -->
<g id="edge43" class="edge"><title>Node19&#45;&gt;Node24</title>
<path fill="none" stroke="midnightblue" d="M1328.47,-190.362C1336.52,-179.648 1346.39,-166.522 1354.08,-156.289"/>
<polygon fill="midnightblue" stroke="midnightblue" points="1356.97,-158.27 1360.19,-148.173 1351.38,-154.063 1356.97,-158.27"/>
</g>
<!-- Node25 -->
<g id="node26" class="node"><title>Node25</title>
<g id="a_node26"><a xlink:title=" ">
<polygon fill="white" stroke="#bfbfbf" points="1414.21,-129 1414.21,-148 1461.21,-148 1461.21,-129 1414.21,-129"/>
<text text-anchor="middle" x="1437.71" y="-136" font-family="Helvetica,sans-Serif" font-size="10.00">queue</text>
</a>
</g>
</g>
<!-- Node19&#45;&gt;Node25 -->
<g id="edge45" class="edge"><title>Node19&#45;&gt;Node25</title>
<path fill="none" stroke="midnightblue" d="M1348.25,-190.362C1369.09,-178.511 1395.12,-163.711 1413.72,-153.137"/>
<polygon fill="midnightblue" stroke="midnightblue" points="1415.49,-156.159 1422.45,-148.173 1412.03,-150.073 1415.49,-156.159"/>
</g>
<!-- Node26 -->
<g id="node27" class="node"><title>Node26</title>
<g id="a_node27"><a xlink:title=" ">
<polygon fill="white" stroke="#bfbfbf" points="1479.21,-129 1479.21,-148 1572.21,-148 1572.21,-129 1479.21,-129"/>
<text text-anchor="middle" x="1525.71" y="-136" font-family="Helvetica,sans-Serif" font-size="10.00">unordered_map</text>
</a>
</g>
</g>
<!-- Node19&#45;&gt;Node26 -->
<g id="edge46" class="edge"><title>Node19&#45;&gt;Node26</title>
<path fill="none" stroke="midnightblue" d="M1370.24,-191.2C1408.48,-178.484 1457.79,-162.085 1490.51,-151.204"/>
<polygon fill="midnightblue" stroke="midnightblue" points="1491.72,-154.491 1500.1,-148.014 1489.51,-147.848 1491.72,-154.491"/>
</g>
<!-- Node21&#45;&gt;Node1 -->
<g id="edge38" class="edge"><title>Node21&#45;&gt;Node1</title>
<path fill="none" stroke="midnightblue" d="M1676.28,-123.479C1660.65,-100.206 1629.37,-53.6633 1612.37,-28.3555"/>
<polygon fill="midnightblue" stroke="midnightblue" points="1615.09,-26.1368 1606.61,-19.7885 1609.28,-30.0409 1615.09,-26.1368"/>
</g>
<!-- Node21&#45;&gt;Node12 -->
<g id="edge40" class="edge"><title>Node21&#45;&gt;Node12</title>
<path fill="none" stroke="midnightblue" d="M1629.04,-125.995C1509.08,-101.637 1230.98,-45.1689 1114.99,-21.6157"/>
<polygon fill="midnightblue" stroke="midnightblue" points="1115.43,-18.1348 1104.94,-19.5749 1114.04,-24.9949 1115.43,-18.1348"/>
</g>
<!-- Node21&#45;&gt;Node22 -->
<g id="edge39" class="edge"><title>Node21&#45;&gt;Node22</title>
<path fill="none" stroke="midnightblue" d="M1704.15,-123.396C1718.06,-112.759 1737.09,-98.2028 1751.25,-87.3813"/>
<polygon fill="midnightblue" stroke="midnightblue" points="1753.52,-90.0493 1759.34,-81.1945 1749.27,-84.4888 1753.52,-90.0493"/>
</g>
</g>
</svg>
