<?xml version="1.0" encoding="UTF-8" standalone="no"?>
<!DOCTYPE svg PUBLIC "-//W3C//DTD SVG 1.1//EN"
 "http://www.w3.org/Graphics/SVG/1.1/DTD/svg11.dtd">
<!-- Generated by graphviz version 2.38.0 (20140413.2041)
 -->
<!-- Title: include/arlib/routing_kernels/details/bidirectional_dijkstra_impl.hpp Pages: 1 -->
<svg width="432pt" height="318pt"
 viewBox="0.00 0.00 432.00 318.00" xmlns="http://www.w3.org/2000/svg" xmlns:xlink="http://www.w3.org/1999/xlink">
<g id="graph0" class="graph" transform="scale(1 1) rotate(0) translate(4 314)">
<title>include/arlib/routing_kernels/details/bidirectional_dijkstra_impl.hpp</title>
<polygon fill="white" stroke="none" points="-4,4 -4,-314 428,-314 428,4 -4,4"/>
<!-- Node15 -->
<g id="node1" class="node"><title>Node15</title>
<g id="a_node1"><a xlink:title=" ">
<polygon fill="#bfbfbf" stroke="black" points="122,-268.5 122,-309.5 274,-309.5 274,-268.5 122,-268.5"/>
<text text-anchor="start" x="130" y="-297.5" font-family="Helvetica,sans-Serif" font-size="10.00">include/arlib/routing</text>
<text text-anchor="start" x="130" y="-286.5" font-family="Helvetica,sans-Serif" font-size="10.00">_kernels/details/bidirectional</text>
<text text-anchor="middle" x="198" y="-275.5" font-family="Helvetica,sans-Serif" font-size="10.00">_dijkstra_impl.hpp</text>
</a>
</g>
</g>
<!-- Node16 -->
<g id="node2" class="node"><title>Node16</title>
<g id="a_node2"><a xlink:href="bidirectional__dijkstra_8hpp.html" target="_top" xlink:title=" ">
<polygon fill="white" stroke="black" points="139.5,-190.5 139.5,-231.5 256.5,-231.5 256.5,-190.5 139.5,-190.5"/>
<text text-anchor="start" x="147.5" y="-219.5" font-family="Helvetica,sans-Serif" font-size="10.00">include/arlib/routing</text>
<text text-anchor="start" x="147.5" y="-208.5" font-family="Helvetica,sans-Serif" font-size="10.00">_kernels/bidirectional</text>
<text text-anchor="middle" x="198" y="-197.5" font-family="Helvetica,sans-Serif" font-size="10.00">_dijkstra.hpp</text>
</a>
</g>
</g>
<!-- Node15&#45;&gt;Node16 -->
<g id="edge1" class="edge"><title>Node15&#45;&gt;Node16</title>
<path fill="none" stroke="midnightblue" d="M198,-258.297C198,-249.301 198,-239.653 198,-231.506"/>
<polygon fill="midnightblue" stroke="midnightblue" points="194.5,-258.428 198,-268.428 201.5,-258.428 194.5,-258.428"/>
</g>
<!-- Node17 -->
<g id="node3" class="node"><title>Node17</title>
<g id="a_node3"><a xlink:href="esx__impl_8hpp.html" target="_top" xlink:title=" ">
<polygon fill="white" stroke="black" points="10,-123.5 10,-153.5 118,-153.5 118,-123.5 10,-123.5"/>
<text text-anchor="start" x="18" y="-141.5" font-family="Helvetica,sans-Serif" font-size="10.00">include/arlib/details</text>
<text text-anchor="middle" x="64" y="-130.5" font-family="Helvetica,sans-Serif" font-size="10.00">/esx_impl.hpp</text>
</a>
</g>
</g>
<!-- Node16&#45;&gt;Node17 -->
<g id="edge2" class="edge"><title>Node16&#45;&gt;Node17</title>
<path fill="none" stroke="midnightblue" d="M151.592,-185.584C131.336,-174.927 108.297,-162.805 90.9331,-153.67"/>
<polygon fill="midnightblue" stroke="midnightblue" points="150.194,-188.803 160.674,-190.362 153.453,-182.608 150.194,-188.803"/>
</g>
<!-- Node20 -->
<g id="node6" class="node"><title>Node20</title>
<g id="a_node6"><a xlink:href="penalty__impl_8hpp.html" target="_top" xlink:title=" ">
<polygon fill="white" stroke="black" points="144,-123.5 144,-153.5 252,-153.5 252,-123.5 144,-123.5"/>
<text text-anchor="start" x="152" y="-141.5" font-family="Helvetica,sans-Serif" font-size="10.00">include/arlib/details</text>
<text text-anchor="middle" x="198" y="-130.5" font-family="Helvetica,sans-Serif" font-size="10.00">/penalty_impl.hpp</text>
</a>
</g>
</g>
<!-- Node16&#45;&gt;Node20 -->
<g id="edge5" class="edge"><title>Node16&#45;&gt;Node20</title>
<path fill="none" stroke="midnightblue" d="M198,-180.08C198,-171.006 198,-161.45 198,-153.892"/>
<polygon fill="midnightblue" stroke="midnightblue" points="194.5,-180.362 198,-190.362 201.5,-180.362 194.5,-180.362"/>
</g>
<!-- Node22 -->
<g id="node8" class="node"><title>Node22</title>
<g id="a_node8"><a xlink:href="uninformed__bidirectional__pruning_8hpp.html" target="_top" xlink:title=" ">
<polygon fill="white" stroke="black" points="282,-56.5 282,-86.5 424,-86.5 424,-56.5 282,-56.5"/>
<text text-anchor="start" x="290" y="-74.5" font-family="Helvetica,sans-Serif" font-size="10.00">include/arlib/uninformed</text>
<text text-anchor="middle" x="353" y="-63.5" font-family="Helvetica,sans-Serif" font-size="10.00">_bidirectional_pruning.hpp</text>
</a>
</g>
</g>
<!-- Node16&#45;&gt;Node22 -->
<g id="edge8" class="edge"><title>Node16&#45;&gt;Node22</title>
<path fill="none" stroke="midnightblue" d="M228.067,-183.327C260.623,-154.447 311.324,-109.471 336.976,-86.7151"/>
<polygon fill="midnightblue" stroke="midnightblue" points="225.366,-181.045 220.208,-190.3 230.011,-186.282 225.366,-181.045"/>
</g>
<!-- Node18 -->
<g id="node4" class="node"><title>Node18</title>
<g id="a_node4"><a xlink:href="esx_8hpp.html" target="_top" xlink:title=" ">
<polygon fill="white" stroke="black" points="0,-62 0,-81 114,-81 114,-62 0,-62"/>
<text text-anchor="middle" x="57" y="-69" font-family="Helvetica,sans-Serif" font-size="10.00">include/arlib/esx.hpp</text>
</a>
</g>
</g>
<!-- Node17&#45;&gt;Node18 -->
<g id="edge3" class="edge"><title>Node17&#45;&gt;Node18</title>
<path fill="none" stroke="midnightblue" d="M61.3884,-113.25C60.1788,-102.017 58.8175,-89.3767 57.9363,-81.1945"/>
<polygon fill="midnightblue" stroke="midnightblue" points="57.9304,-113.828 62.4811,-123.396 64.8902,-113.079 57.9304,-113.828"/>
</g>
<!-- Node19 -->
<g id="node5" class="node"><title>Node19</title>
<g id="a_node5"><a xlink:href="arlib_8hpp_source.html" target="_top" xlink:title=" ">
<polygon fill="white" stroke="black" points="139,-0.5 139,-19.5 257,-19.5 257,-0.5 139,-0.5"/>
<text text-anchor="middle" x="198" y="-7.5" font-family="Helvetica,sans-Serif" font-size="10.00">include/arlib/arlib.hpp</text>
</a>
</g>
</g>
<!-- Node18&#45;&gt;Node19 -->
<g id="edge4" class="edge"><title>Node18&#45;&gt;Node19</title>
<path fill="none" stroke="midnightblue" d="M86.6704,-57.9795C114.055,-46.4238 153.98,-29.5758 177.836,-19.5091"/>
<polygon fill="midnightblue" stroke="midnightblue" points="85.0544,-54.8625 77.2019,-61.9751 87.7759,-61.3118 85.0544,-54.8625"/>
</g>
<!-- Node21 -->
<g id="node7" class="node"><title>Node21</title>
<g id="a_node7"><a xlink:href="penalty_8hpp.html" target="_top" xlink:title=" ">
<polygon fill="white" stroke="black" points="132.5,-62 132.5,-81 263.5,-81 263.5,-62 132.5,-62"/>
<text text-anchor="middle" x="198" y="-69" font-family="Helvetica,sans-Serif" font-size="10.00">include/arlib/penalty.hpp</text>
</a>
</g>
</g>
<!-- Node20&#45;&gt;Node21 -->
<g id="edge6" class="edge"><title>Node20&#45;&gt;Node21</title>
<path fill="none" stroke="midnightblue" d="M198,-113.25C198,-102.017 198,-89.3767 198,-81.1945"/>
<polygon fill="midnightblue" stroke="midnightblue" points="194.5,-113.396 198,-123.396 201.5,-113.396 194.5,-113.396"/>
</g>
<!-- Node21&#45;&gt;Node19 -->
<g id="edge7" class="edge"><title>Node21&#45;&gt;Node19</title>
<path fill="none" stroke="midnightblue" d="M198,-51.8165C198,-40.9962 198,-27.898 198,-19.5091"/>
<polygon fill="midnightblue" stroke="midnightblue" points="194.5,-51.9751 198,-61.9751 201.5,-51.9751 194.5,-51.9751"/>
</g>
<!-- Node22&#45;&gt;Node19 -->
<g id="edge9" class="edge"><title>Node22&#45;&gt;Node19</title>
<path fill="none" stroke="midnightblue" d="M306.894,-52.8011C278.4,-41.8633 243.093,-28.31 220.554,-19.6578"/>
<polygon fill="midnightblue" stroke="midnightblue" points="305.677,-56.0831 316.267,-56.3993 308.186,-49.548 305.677,-56.0831"/>
</g>
</g>
</svg>
