<?xml version="1.0" encoding="UTF-8" standalone="no"?>
<!DOCTYPE svg PUBLIC "-//W3C//DTD SVG 1.1//EN"
 "http://www.w3.org/Graphics/SVG/1.1/DTD/svg11.dtd">
<!-- Generated by graphviz version 2.38.0 (20140413.2041)
 -->
<!-- Title: include/arlib Pages: 1 -->
<svg width="146pt" height="255pt"
 viewBox="0.00 0.00 146.00 255.00" xmlns="http://www.w3.org/2000/svg" xmlns:xlink="http://www.w3.org/1999/xlink">
<g id="graph0" class="graph" transform="scale(1 1) rotate(0) translate(4 251)">
<title>include/arlib</title>
<polygon fill="white" stroke="none" points="-4,4 -4,-251 142,-251 142,4 -4,4"/>
<g id="clust1" class="cluster"><title>clusterdir_d44c64559bbebec7f509842c48db8b23</title>
<g id="a_clust1"><a xlink:href="dir_d44c64559bbebec7f509842c48db8b23.html" target="_top" xlink:title="include">
<polygon fill="#ddddee" stroke="black" points="8,-8 8,-239 130,-239 130,-8 8,-8"/>
<text text-anchor="middle" x="69" y="-227" font-family="Helvetica,sans-Serif" font-size="10.00">include</text>
</a>
</g>
</g>
<g id="clust2" class="cluster"><title>clusterdir_bf0decf5f712d28131f0055d10744e7e</title>
<g id="a_clust2"><a xlink:href="dir_bf0decf5f712d28131f0055d10744e7e.html" target="_top">
<polygon fill="#eeeeff" stroke="black" points="16,-16 16,-212 122,-212 122,-16 16,-16"/>
</a>
</g>
</g>
<!-- dir_bf0decf5f712d28131f0055d10744e7e -->
<g id="node1" class="node"><title>dir_bf0decf5f712d28131f0055d10744e7e</title>
<text text-anchor="middle" x="77" y="-183.5" font-family="Helvetica,sans-Serif" font-size="10.00">arlib</text>
</g>
<!-- dir_cf7ebf9a85eecfc7603be4a136b29f0b -->
<g id="node2" class="node"><title>dir_cf7ebf9a85eecfc7603be4a136b29f0b</title>
<g id="a_node2"><a xlink:href="dir_cf7ebf9a85eecfc7603be4a136b29f0b.html" target="_top" xlink:title="details">
<polygon fill="white" stroke="black" points="94,-132 40,-132 40,-96 94,-96 94,-132"/>
<text text-anchor="middle" x="67" y="-111.5" font-family="Helvetica,sans-Serif" font-size="10.00">details</text>
</a>
</g>
</g>
<!-- dir_bf0decf5f712d28131f0055d10744e7e&#45;&gt;dir_cf7ebf9a85eecfc7603be4a136b29f0b -->
<g id="edge3" class="edge"><title>dir_bf0decf5f712d28131f0055d10744e7e&#45;&gt;dir_cf7ebf9a85eecfc7603be4a136b29f0b</title>
<path fill="none" stroke="black" d="M74.5281,-167.697C73.4261,-159.983 72.1018,-150.712 70.8732,-142.112"/>
<polygon fill="black" stroke="black" points="74.3226,-141.509 69.4435,-132.104 67.393,-142.499 74.3226,-141.509"/>
<g id="a_edge3&#45;headlabel"><a xlink:href="dir_000003_000004.html" target="_top" xlink:title="8">
<text text-anchor="middle" x="77.6416" y="-142.166" font-family="Helvetica,sans-Serif" font-size="10.00">8</text>
</a>
</g>
</g>
<!-- dir_bcf02685c6e634ed5c2b724fb9b858f2 -->
<g id="node3" class="node"><title>dir_bcf02685c6e634ed5c2b724fb9b858f2</title>
<g id="a_node3"><a xlink:href="dir_bcf02685c6e634ed5c2b724fb9b858f2.html" target="_top" xlink:title="routing_kernels">
<polygon fill="white" stroke="red" points="114,-60 24,-60 24,-24 114,-24 114,-60"/>
<text text-anchor="middle" x="69" y="-39.5" font-family="Helvetica,sans-Serif" font-size="10.00">routing_kernels</text>
</a>
</g>
</g>
<!-- dir_bf0decf5f712d28131f0055d10744e7e&#45;&gt;dir_bcf02685c6e634ed5c2b724fb9b858f2 -->
<g id="edge4" class="edge"><title>dir_bf0decf5f712d28131f0055d10744e7e&#45;&gt;dir_bcf02685c6e634ed5c2b724fb9b858f2</title>
<path fill="none" stroke="black" d="M88.0462,-167.611C93.7366,-157.615 100.081,-144.579 103,-132 106.617,-116.414 107.501,-111.354 103,-96 100.199,-86.4472 95.089,-76.9843 89.6666,-68.7561"/>
<polygon fill="black" stroke="black" points="92.376,-66.5248 83.7547,-60.3664 86.6539,-70.5569 92.376,-66.5248"/>
<g id="a_edge4&#45;headlabel"><a xlink:href="dir_000003_000005.html" target="_top" xlink:title="7">
<text text-anchor="middle" x="96.7674" y="-65.3277" font-family="Helvetica,sans-Serif" font-size="10.00">7</text>
</a>
</g>
</g>
<!-- dir_cf7ebf9a85eecfc7603be4a136b29f0b&#45;&gt;dir_bcf02685c6e634ed5c2b724fb9b858f2 -->
<g id="edge1" class="edge"><title>dir_cf7ebf9a85eecfc7603be4a136b29f0b&#45;&gt;dir_bcf02685c6e634ed5c2b724fb9b858f2</title>
<path fill="none" stroke="black" d="M61.5787,-95.6966C61.0034,-87.9827 61.0417,-78.7125 61.6301,-70.1124"/>
<polygon fill="black" stroke="black" points="65.1187,-70.3994 62.6163,-60.1043 58.1524,-69.7129 65.1187,-70.3994"/>
<g id="a_edge1&#45;headlabel"><a xlink:href="dir_000004_000005.html" target="_top" xlink:title="4">
<text text-anchor="middle" x="67.5918" y="-71.7551" font-family="Helvetica,sans-Serif" font-size="10.00">4</text>
</a>
</g>
</g>
<!-- dir_bcf02685c6e634ed5c2b724fb9b858f2&#45;&gt;dir_cf7ebf9a85eecfc7603be4a136b29f0b -->
<g id="edge2" class="edge"><title>dir_bcf02685c6e634ed5c2b724fb9b858f2&#45;&gt;dir_cf7ebf9a85eecfc7603be4a136b29f0b</title>
<path fill="none" stroke="black" d="M74.4063,-60.1043C74.9922,-67.7913 74.9639,-77.0537 74.385,-85.6651"/>
<polygon fill="black" stroke="black" points="70.8939,-85.4049 73.4101,-95.6966 77.8611,-86.0821 70.8939,-85.4049"/>
<g id="a_edge2&#45;headlabel"><a xlink:href="dir_000005_000004.html" target="_top" xlink:title="1">
<text text-anchor="middle" x="68.4155" y="-79.0526" font-family="Helvetica,sans-Serif" font-size="10.00">1</text>
</a>
</g>
</g>
</g>
</svg>
