<?xml version="1.0" encoding="UTF-8" standalone="no"?>
<!DOCTYPE svg PUBLIC "-//W3C//DTD SVG 1.1//EN"
 "http://www.w3.org/Graphics/SVG/1.1/DTD/svg11.dtd">
<!-- Generated by graphviz version 2.38.0 (20140413.2041)
 -->
<!-- Title: include/arlib/routing_kernels Pages: 1 -->
<svg width="200pt" height="183pt"
 viewBox="0.00 0.00 200.00 183.00" xmlns="http://www.w3.org/2000/svg" xmlns:xlink="http://www.w3.org/1999/xlink">
<g id="graph0" class="graph" transform="scale(1 1) rotate(0) translate(4 179)">
<title>include/arlib/routing_kernels</title>
<polygon fill="white" stroke="none" points="-4,4 -4,-179 196,-179 196,4 -4,4"/>
<g id="clust1" class="cluster"><title>clusterdir_bf0decf5f712d28131f0055d10744e7e</title>
<g id="a_clust1"><a xlink:href="dir_bf0decf5f712d28131f0055d10744e7e.html" target="_top" xlink:title="arlib">
<polygon fill="#ddddee" stroke="black" points="8,-8 8,-167 130,-167 130,-8 8,-8"/>
<text text-anchor="middle" x="69" y="-155" font-family="Helvetica,sans-Serif" font-size="10.00">arlib</text>
</a>
</g>
</g>
<g id="clust2" class="cluster"><title>clusterdir_bcf02685c6e634ed5c2b724fb9b858f2</title>
<g id="a_clust2"><a xlink:href="dir_bcf02685c6e634ed5c2b724fb9b858f2.html" target="_top">
<polygon fill="#eeeeff" stroke="black" points="16,-16 16,-140 122,-140 122,-16 16,-16"/>
</a>
</g>
</g>
<!-- dir_bcf02685c6e634ed5c2b724fb9b858f2 -->
<g id="node1" class="node"><title>dir_bcf02685c6e634ed5c2b724fb9b858f2</title>
<text text-anchor="middle" x="69" y="-111.5" font-family="Helvetica,sans-Serif" font-size="10.00">routing_kernels</text>
</g>
<!-- dir_6c5bfac964901c3fadf5a31a152e827e -->
<g id="node2" class="node"><title>dir_6c5bfac964901c3fadf5a31a152e827e</title>
<g id="a_node2"><a xlink:href="dir_6c5bfac964901c3fadf5a31a152e827e.html" target="_top" xlink:title="details">
<polygon fill="white" stroke="black" points="96,-60 42,-60 42,-24 96,-24 96,-60"/>
<text text-anchor="middle" x="69" y="-39.5" font-family="Helvetica,sans-Serif" font-size="10.00">details</text>
</a>
</g>
</g>
<!-- dir_bcf02685c6e634ed5c2b724fb9b858f2&#45;&gt;dir_6c5bfac964901c3fadf5a31a152e827e -->
<g id="edge3" class="edge"><title>dir_bcf02685c6e634ed5c2b724fb9b858f2&#45;&gt;dir_6c5bfac964901c3fadf5a31a152e827e</title>
<path fill="none" stroke="black" d="M69,-95.6966C69,-87.9827 69,-78.7125 69,-70.1124"/>
<polygon fill="black" stroke="black" points="72.5001,-70.1043 69,-60.1043 65.5001,-70.1044 72.5001,-70.1043"/>
<g id="a_edge3&#45;headlabel"><a xlink:href="dir_000005_000006.html" target="_top" xlink:title="1">
<text text-anchor="middle" x="75.3393" y="-71.199" font-family="Helvetica,sans-Serif" font-size="10.00">1</text>
</a>
</g>
</g>
<!-- dir_cf7ebf9a85eecfc7603be4a136b29f0b -->
<g id="node3" class="node"><title>dir_cf7ebf9a85eecfc7603be4a136b29f0b</title>
<g id="a_node3"><a xlink:href="dir_cf7ebf9a85eecfc7603be4a136b29f0b.html" target="_top" xlink:title="details">
<polygon fill="none" stroke="black" points="192,-60 138,-60 138,-24 192,-24 192,-60"/>
<text text-anchor="middle" x="165" y="-39.5" font-family="Helvetica,sans-Serif" font-size="10.00">details</text>
</a>
</g>
</g>
<!-- dir_bcf02685c6e634ed5c2b724fb9b858f2&#45;&gt;dir_cf7ebf9a85eecfc7603be4a136b29f0b -->
<g id="edge2" class="edge"><title>dir_bcf02685c6e634ed5c2b724fb9b858f2&#45;&gt;dir_cf7ebf9a85eecfc7603be4a136b29f0b</title>
<path fill="none" stroke="black" d="M86.8146,-95.6966C98.8332,-86.2203 114.932,-74.3952 129.45,-64.3493"/>
<polygon fill="black" stroke="black" points="131.484,-67.1984 137.772,-58.6712 127.539,-61.416 131.484,-67.1984"/>
<g id="a_edge2&#45;headlabel"><a xlink:href="dir_000005_000004.html" target="_top" xlink:title="1">
<text text-anchor="middle" x="130.115" y="-69.0696" font-family="Helvetica,sans-Serif" font-size="10.00">1</text>
</a>
</g>
</g>
<!-- dir_cf7ebf9a85eecfc7603be4a136b29f0b&#45;&gt;dir_bcf02685c6e634ed5c2b724fb9b858f2 -->
<g id="edge1" class="edge"><title>dir_cf7ebf9a85eecfc7603be4a136b29f0b&#45;&gt;dir_bcf02685c6e634ed5c2b724fb9b858f2</title>
<path fill="none" stroke="black" d="M147.329,-60.1898C135.932,-69.1832 120.824,-80.3156 106.874,-90.0371"/>
<polygon fill="black" stroke="black" points="104.639,-87.3264 98.3813,-95.8761 108.605,-93.0946 104.639,-87.3264"/>
<g id="a_edge1&#45;headlabel"><a xlink:href="dir_000004_000005.html" target="_top" xlink:title="4">
<text text-anchor="middle" x="105.992" y="-80.4503" font-family="Helvetica,sans-Serif" font-size="10.00">4</text>
</a>
</g>
</g>
</g>
</svg>
