<?xml version="1.0" encoding="UTF-8" standalone="no"?>
<!DOCTYPE svg PUBLIC "-//W3C//DTD SVG 1.1//EN"
 "http://www.w3.org/Graphics/SVG/1.1/DTD/svg11.dtd">
<!-- Generated by graphviz version 2.38.0 (20140413.2041)
 -->
<!-- Title: include/arlib/details Pages: 1 -->
<svg width="98pt" height="151pt"
 viewBox="0.00 0.00 98.00 151.00" xmlns="http://www.w3.org/2000/svg" xmlns:xlink="http://www.w3.org/1999/xlink">
<g id="graph0" class="graph" transform="scale(1 1) rotate(0) translate(4 147)">
<title>include/arlib/details</title>
<polygon fill="white" stroke="none" points="-4,4 -4,-147 94,-147 94,4 -4,4"/>
<g id="clust1" class="cluster"><title>clusterdir_bf0decf5f712d28131f0055d10744e7e</title>
<g id="a_clust1"><a xlink:href="dir_bf0decf5f712d28131f0055d10744e7e.html" target="_top" xlink:title="arlib">
<polygon fill="#ddddee" stroke="black" points="10,-64 10,-135 80,-135 80,-64 10,-64"/>
<text text-anchor="middle" x="45" y="-123" font-family="Helvetica,sans-Serif" font-size="10.00">arlib</text>
</a>
</g>
</g>
<!-- dir_cf7ebf9a85eecfc7603be4a136b29f0b -->
<g id="node1" class="node"><title>dir_cf7ebf9a85eecfc7603be4a136b29f0b</title>
<g id="a_node1"><a xlink:href="dir_cf7ebf9a85eecfc7603be4a136b29f0b.html" target="_top" xlink:title="details">
<polygon fill="#eeeeff" stroke="black" points="72,-108 18,-108 18,-72 72,-72 72,-108"/>
<text text-anchor="middle" x="45" y="-87.5" font-family="Helvetica,sans-Serif" font-size="10.00">details</text>
</a>
</g>
</g>
<!-- dir_bcf02685c6e634ed5c2b724fb9b858f2 -->
<g id="node2" class="node"><title>dir_bcf02685c6e634ed5c2b724fb9b858f2</title>
<g id="a_node2"><a xlink:href="dir_bcf02685c6e634ed5c2b724fb9b858f2.html" target="_top" xlink:title="routing_kernels">
<polygon fill="white" stroke="red" points="90,-36 0,-36 0,-0 90,-0 90,-36"/>
<text text-anchor="middle" x="45" y="-15.5" font-family="Helvetica,sans-Serif" font-size="10.00">routing_kernels</text>
</a>
</g>
</g>
<!-- dir_cf7ebf9a85eecfc7603be4a136b29f0b&#45;&gt;dir_bcf02685c6e634ed5c2b724fb9b858f2 -->
<g id="edge1" class="edge"><title>dir_cf7ebf9a85eecfc7603be4a136b29f0b&#45;&gt;dir_bcf02685c6e634ed5c2b724fb9b858f2</title>
<path fill="none" stroke="black" d="M39.0843,-71.6966C38.2886,-63.9827 38.0621,-54.7125 38.4047,-46.1124"/>
<polygon fill="black" stroke="black" points="41.8984,-46.3243 39.105,-36.1043 34.9154,-45.8356 41.8984,-46.3243"/>
<g id="a_edge1&#45;headlabel"><a xlink:href="dir_000004_000005.html" target="_top" xlink:title="4">
<text text-anchor="middle" x="44.4799" y="-47.6083" font-family="Helvetica,sans-Serif" font-size="10.00">4</text>
</a>
</g>
</g>
<!-- dir_bcf02685c6e634ed5c2b724fb9b858f2&#45;&gt;dir_cf7ebf9a85eecfc7603be4a136b29f0b -->
<g id="edge2" class="edge"><title>dir_bcf02685c6e634ed5c2b724fb9b858f2&#45;&gt;dir_cf7ebf9a85eecfc7603be4a136b29f0b</title>
<path fill="none" stroke="black" d="M50.895,-36.1043C51.7005,-43.7913 51.9369,-53.0537 51.604,-61.6651"/>
<polygon fill="black" stroke="black" points="48.1085,-61.4805 50.9157,-71.6966 55.0921,-61.9597 48.1085,-61.4805"/>
<g id="a_edge2&#45;headlabel"><a xlink:href="dir_000005_000004.html" target="_top" xlink:title="1">
<text text-anchor="middle" x="45.5219" y="-55.2" font-family="Helvetica,sans-Serif" font-size="10.00">1</text>
</a>
</g>
</g>
</g>
</svg>
