<?xml version="1.0" encoding="UTF-8" standalone="no"?>
<!DOCTYPE svg PUBLIC "-//W3C//DTD SVG 1.1//EN"
 "http://www.w3.org/Graphics/SVG/1.1/DTD/svg11.dtd">
<!-- Generated by graphviz version 2.38.0 (20140413.2041)
 -->
<!-- Title: include/arlib/esx.hpp Pages: 1 -->
<svg width="2609pt" height="419pt"
 viewBox="0.00 0.00 2609.00 419.00" xmlns="http://www.w3.org/2000/svg" xmlns:xlink="http://www.w3.org/1999/xlink">
<g id="graph0" class="graph" transform="scale(1 1) rotate(0) translate(4 415)">
<title>include/arlib/esx.hpp</title>
<polygon fill="white" stroke="none" points="-4,4 -4,-415 2605,-415 2605,4 -4,4"/>
<!-- Node0 -->
<g id="node1" class="node"><title>Node0</title>
<g id="a_node1"><a xlink:title=" ">
<polygon fill="#bfbfbf" stroke="black" points="892,-391.5 892,-410.5 1006,-410.5 1006,-391.5 892,-391.5"/>
<text text-anchor="middle" x="949" y="-398.5" font-family="Helvetica,sans-Serif" font-size="10.00">include/arlib/esx.hpp</text>
</a>
</g>
</g>
<!-- Node1 -->
<g id="node2" class="node"><title>Node1</title>
<g id="a_node2"><a xlink:title=" ">
<polygon fill="white" stroke="#bfbfbf" points="1839.5,-0.5 1839.5,-19.5 2014.5,-19.5 2014.5,-0.5 1839.5,-0.5"/>
<text text-anchor="middle" x="1927" y="-7.5" font-family="Helvetica,sans-Serif" font-size="10.00">boost/graph/graph_concepts.hpp</text>
</a>
</g>
</g>
<!-- Node0&#45;&gt;Node1 -->
<g id="edge1" class="edge"><title>Node0&#45;&gt;Node1</title>
<path fill="none" stroke="midnightblue" d="M1006.08,-399.992C1231.26,-399.669 2058.34,-395.679 2317,-355 2429.35,-337.33 2563,-398.235 2563,-284.5 2563,-284.5 2563,-284.5 2563,-137.5 2563,-29.1349 2203.34,-12.2148 2024.95,-10.4872"/>
<polygon fill="midnightblue" stroke="midnightblue" points="2024.79,-6.9859 2014.77,-10.4032 2024.74,-13.9857 2024.79,-6.9859"/>
</g>
<!-- Node2 -->
<g id="node3" class="node"><title>Node2</title>
<g id="a_node3"><a xlink:title=" ">
<polygon fill="white" stroke="#bfbfbf" points="359,-0.5 359,-19.5 515,-19.5 515,-0.5 359,-0.5"/>
<text text-anchor="middle" x="437" y="-7.5" font-family="Helvetica,sans-Serif" font-size="10.00">boost/graph/graph_traits.hpp</text>
</a>
</g>
</g>
<!-- Node0&#45;&gt;Node2 -->
<g id="edge2" class="edge"><title>Node0&#45;&gt;Node2</title>
<path fill="none" stroke="midnightblue" d="M891.983,-399.509C708.765,-397.596 142.614,-388.971 68,-355 28.3797,-336.961 0,-328.033 0,-284.5 0,-284.5 0,-284.5 0,-137.5 0,-65.5983 221.042,-31.9849 348.712,-18.567"/>
<polygon fill="midnightblue" stroke="midnightblue" points="349.284,-22.0267 358.873,-17.5209 348.567,-15.0635 349.284,-22.0267"/>
</g>
<!-- Node3 -->
<g id="node4" class="node"><title>Node3</title>
<g id="a_node4"><a xlink:title=" ">
<polygon fill="white" stroke="#bfbfbf" points="533.5,-0.5 533.5,-19.5 680.5,-19.5 680.5,-0.5 533.5,-0.5"/>
<text text-anchor="middle" x="607" y="-7.5" font-family="Helvetica,sans-Serif" font-size="10.00">boost/graph/properties.hpp</text>
</a>
</g>
</g>
<!-- Node0&#45;&gt;Node3 -->
<g id="edge3" class="edge"><title>Node0&#45;&gt;Node3</title>
<path fill="none" stroke="midnightblue" d="M891.733,-399.583C737.345,-397.994 315.136,-390.436 181,-355 112.491,-336.901 38,-355.36 38,-284.5 38,-284.5 38,-284.5 38,-210 38,-153.075 84.4908,-154.359 132,-123 192.937,-82.7781 211.805,-76.0961 282,-56 305.135,-49.3766 439.343,-31.8892 527.903,-20.7666"/>
<polygon fill="midnightblue" stroke="midnightblue" points="528.442,-24.2265 537.929,-19.51 527.572,-17.2808 528.442,-24.2265"/>
</g>
<!-- Node4 -->
<g id="node5" class="node"><title>Node4</title>
<g id="a_node5"><a xlink:href="terminators_8hpp_source.html" target="_top" xlink:title=" ">
<polygon fill="white" stroke="black" points="104.5,-274 104.5,-293 221.5,-293 221.5,-274 104.5,-274"/>
<text text-anchor="middle" x="163" y="-281" font-family="Helvetica,sans-Serif" font-size="10.00">arlib/terminators.hpp</text>
</a>
</g>
</g>
<!-- Node0&#45;&gt;Node4 -->
<g id="edge4" class="edge"><title>Node0&#45;&gt;Node4</title>
<path fill="none" stroke="midnightblue" d="M891.994,-393.014C770.881,-377.932 479.115,-340.332 236,-299 228.819,-297.779 221.26,-296.393 213.839,-294.973"/>
<polygon fill="midnightblue" stroke="midnightblue" points="214.337,-291.504 203.852,-293.029 212.999,-298.375 214.337,-291.504"/>
</g>
<!-- Node7 -->
<g id="node8" class="node"><title>Node7</title>
<g id="a_node8"><a xlink:href="type__traits_8hpp.html" target="_top" xlink:title=" ">
<polygon fill="white" stroke="black" points="429,-62 429,-81 541,-81 541,-62 429,-62"/>
<text text-anchor="middle" x="485" y="-69" font-family="Helvetica,sans-Serif" font-size="10.00">arlib/type_traits.hpp</text>
</a>
</g>
</g>
<!-- Node0&#45;&gt;Node7 -->
<g id="edge7" class="edge"><title>Node0&#45;&gt;Node7</title>
<path fill="none" stroke="midnightblue" d="M891.72,-398.468C697.501,-392.525 76,-367.057 76,-284.5 76,-284.5 76,-284.5 76,-210 76,-138.555 303.06,-97.2415 418.82,-80.8215"/>
<polygon fill="midnightblue" stroke="midnightblue" points="419.568,-84.2512 428.988,-79.4027 418.6,-77.3184 419.568,-84.2512"/>
</g>
<!-- Node8 -->
<g id="node9" class="node"><title>Node8</title>
<g id="a_node9"><a xlink:href="esx__impl_8hpp.html" target="_top" xlink:title=" ">
<polygon fill="white" stroke="black" points="880.5,-335.5 880.5,-354.5 1017.5,-354.5 1017.5,-335.5 880.5,-335.5"/>
<text text-anchor="middle" x="949" y="-342.5" font-family="Helvetica,sans-Serif" font-size="10.00">arlib/details/esx_impl.hpp</text>
</a>
</g>
</g>
<!-- Node0&#45;&gt;Node8 -->
<g id="edge10" class="edge"><title>Node0&#45;&gt;Node8</title>
<path fill="none" stroke="midnightblue" d="M949,-391.083C949,-384.006 949,-373.861 949,-364.986"/>
<polygon fill="midnightblue" stroke="midnightblue" points="952.5,-364.751 949,-354.751 945.5,-364.751 952.5,-364.751"/>
</g>
<!-- Node17 -->
<g id="node18" class="node"><title>Node17</title>
<g id="a_node18"><a xlink:title=" ">
<polygon fill="white" stroke="#bfbfbf" points="2331,-0.5 2331,-19.5 2417,-19.5 2417,-0.5 2331,-0.5"/>
<text text-anchor="middle" x="2374" y="-7.5" font-family="Helvetica,sans-Serif" font-size="10.00">unordered_set</text>
</a>
</g>
</g>
<!-- Node0&#45;&gt;Node17 -->
<g id="edge76" class="edge"><title>Node0&#45;&gt;Node17</title>
<path fill="none" stroke="midnightblue" d="M1006.19,-399.539C1262.94,-397.298 2302.82,-386.349 2445,-355 2519.3,-338.617 2601,-360.585 2601,-284.5 2601,-284.5 2601,-284.5 2601,-137.5 2601,-58.3255 2494.33,-28.2554 2427.23,-17.1726"/>
<polygon fill="midnightblue" stroke="midnightblue" points="2427.65,-13.6959 2417.23,-15.6119 2426.57,-20.6121 2427.65,-13.6959"/>
</g>
<!-- Node21 -->
<g id="node22" class="node"><title>Node21</title>
<g id="a_node22"><a xlink:title=" ">
<polygon fill="white" stroke="#bfbfbf" points="1218.5,-129 1218.5,-148 1265.5,-148 1265.5,-129 1218.5,-129"/>
<text text-anchor="middle" x="1242" y="-136" font-family="Helvetica,sans-Serif" font-size="10.00">vector</text>
</a>
</g>
</g>
<!-- Node0&#45;&gt;Node21 -->
<g id="edge77" class="edge"><title>Node0&#45;&gt;Node21</title>
<path fill="none" stroke="midnightblue" d="M977.07,-391.433C1018.57,-377.616 1096.88,-347.003 1148,-299 1192.42,-257.29 1222.6,-189.891 1235.27,-157.721"/>
<polygon fill="midnightblue" stroke="midnightblue" points="1238.59,-158.84 1238.89,-148.249 1232.05,-156.34 1238.59,-158.84"/>
</g>
<!-- Node29 -->
<g id="node30" class="node"><title>Node29</title>
<g id="a_node30"><a xlink:title=" ">
<polygon fill="white" stroke="#bfbfbf" points="2487.5,-129 2487.5,-148 2534.5,-148 2534.5,-129 2487.5,-129"/>
<text text-anchor="middle" x="2511" y="-136" font-family="Helvetica,sans-Serif" font-size="10.00">queue</text>
</a>
</g>
</g>
<!-- Node0&#45;&gt;Node29 -->
<g id="edge75" class="edge"><title>Node0&#45;&gt;Node29</title>
<path fill="none" stroke="midnightblue" d="M1006.06,-400.151C1269.37,-400.328 2359.13,-395.211 2473,-299 2514.61,-263.842 2515.25,-192.119 2512.91,-158.144"/>
<polygon fill="midnightblue" stroke="midnightblue" points="2516.4,-157.843 2512.06,-148.176 2509.43,-158.437 2516.4,-157.843"/>
</g>
<!-- Node5 -->
<g id="node6" class="node"><title>Node5</title>
<g id="a_node6"><a xlink:title=" ">
<polygon fill="white" stroke="#bfbfbf" points="138,-201.5 138,-220.5 188,-220.5 188,-201.5 138,-201.5"/>
<text text-anchor="middle" x="163" y="-208.5" font-family="Helvetica,sans-Serif" font-size="10.00">chrono</text>
</a>
</g>
</g>
<!-- Node4&#45;&gt;Node5 -->
<g id="edge5" class="edge"><title>Node4&#45;&gt;Node5</title>
<path fill="none" stroke="midnightblue" d="M163,-273.855C163,-263.179 163,-244.717 163,-230.734"/>
<polygon fill="midnightblue" stroke="midnightblue" points="166.5,-230.715 163,-220.715 159.5,-230.715 166.5,-230.715"/>
</g>
<!-- Node6 -->
<g id="node7" class="node"><title>Node6</title>
<g id="a_node7"><a xlink:title=" ">
<polygon fill="white" stroke="#bfbfbf" points="369,-129 369,-148 433,-148 433,-129 369,-129"/>
<text text-anchor="middle" x="401" y="-136" font-family="Helvetica,sans-Serif" font-size="10.00">stdexcept</text>
</a>
</g>
</g>
<!-- Node4&#45;&gt;Node6 -->
<g id="edge6" class="edge"><title>Node4&#45;&gt;Node6</title>
<path fill="none" stroke="midnightblue" d="M177.175,-273.983C216.849,-250.145 329.28,-182.592 378.007,-153.315"/>
<polygon fill="midnightblue" stroke="midnightblue" points="379.829,-156.304 386.598,-148.153 376.224,-150.303 379.829,-156.304"/>
</g>
<!-- Node7&#45;&gt;Node2 -->
<g id="edge8" class="edge"><title>Node7&#45;&gt;Node2</title>
<path fill="none" stroke="midnightblue" d="M478.123,-61.9751C470.851,-52.9617 459.205,-38.5246 450.159,-27.3118"/>
<polygon fill="midnightblue" stroke="midnightblue" points="452.867,-25.0946 443.864,-19.5091 447.419,-29.4898 452.867,-25.0946"/>
</g>
<!-- Node7&#45;&gt;Node3 -->
<g id="edge9" class="edge"><title>Node7&#45;&gt;Node3</title>
<path fill="none" stroke="midnightblue" d="M502.48,-61.9751C522.863,-52.0338 556.775,-35.4947 580.425,-23.961"/>
<polygon fill="midnightblue" stroke="midnightblue" points="582.099,-27.0385 589.553,-19.5091 579.031,-20.7468 582.099,-27.0385"/>
</g>
<!-- Node8&#45;&gt;Node1 -->
<g id="edge14" class="edge"><title>Node8&#45;&gt;Node1</title>
<path fill="none" stroke="midnightblue" d="M949.181,-335.438C950.39,-301.952 959.637,-178.957 1030,-123 1151.7,-26.2172 1622.43,-12.1585 1828.94,-10.7466"/>
<polygon fill="midnightblue" stroke="midnightblue" points="1829.19,-14.2453 1839.17,-10.6856 1829.15,-7.24538 1829.19,-14.2453"/>
</g>
<!-- Node8&#45;&gt;Node2 -->
<g id="edge15" class="edge"><title>Node8&#45;&gt;Node2</title>
<path fill="none" stroke="midnightblue" d="M880.454,-344.398C750.697,-344.192 474.516,-338.899 389,-299 282.061,-249.105 210.435,-149.83 282,-56 293.504,-40.9163 336.199,-29.2 373.873,-21.5084"/>
<polygon fill="midnightblue" stroke="midnightblue" points="374.694,-24.914 383.827,-19.5434 373.338,-18.0466 374.694,-24.914"/>
</g>
<!-- Node8&#45;&gt;Node3 -->
<g id="edge16" class="edge"><title>Node8&#45;&gt;Node3</title>
<path fill="none" stroke="midnightblue" d="M880.437,-342.291C763.004,-338.619 528.628,-327.832 452,-299 404.657,-281.187 390.931,-272.023 360,-232 309.721,-166.942 249.285,-118.251 303,-56 310.237,-47.6133 436.058,-31.1658 523.537,-20.6482"/>
<polygon fill="midnightblue" stroke="midnightblue" points="523.958,-24.1229 533.471,-19.4594 523.126,-17.1725 523.958,-24.1229"/>
</g>
<!-- Node8&#45;&gt;Node4 -->
<g id="edge70" class="edge"><title>Node8&#45;&gt;Node4</title>
<path fill="none" stroke="midnightblue" d="M880.378,-342.701C752.924,-339.617 471.221,-329.646 236,-299 227.893,-297.944 219.334,-296.524 211.041,-294.985"/>
<polygon fill="midnightblue" stroke="midnightblue" points="211.59,-291.526 201.107,-293.064 210.261,-298.399 211.59,-291.526"/>
</g>
<!-- Node8&#45;&gt;Node7 -->
<g id="edge71" class="edge"><title>Node8&#45;&gt;Node7</title>
<path fill="none" stroke="midnightblue" d="M897.08,-335.431C765.096,-312.456 422.742,-245.002 360,-154 336.349,-119.696 391.756,-96.3264 436.217,-83.6924"/>
<polygon fill="midnightblue" stroke="midnightblue" points="437.348,-87.0121 446.079,-81.01 435.51,-80.2576 437.348,-87.0121"/>
</g>
<!-- Node9 -->
<g id="node10" class="node"><title>Node9</title>
<g id="a_node10"><a xlink:title=" ">
<polygon fill="white" stroke="#bfbfbf" points="1039.5,-129 1039.5,-148 1200.5,-148 1200.5,-129 1039.5,-129"/>
<text text-anchor="middle" x="1120" y="-136" font-family="Helvetica,sans-Serif" font-size="10.00">boost/graph/astar_search.hpp</text>
</a>
</g>
</g>
<!-- Node8&#45;&gt;Node9 -->
<g id="edge11" class="edge"><title>Node8&#45;&gt;Node9</title>
<path fill="none" stroke="midnightblue" d="M1016.7,-335.447C1060.72,-328.337 1112.38,-316.521 1126,-299 1158.25,-257.53 1139.44,-190.016 1127.52,-157.769"/>
<polygon fill="midnightblue" stroke="midnightblue" points="1130.71,-156.322 1123.82,-148.274 1124.19,-158.862 1130.71,-156.322"/>
</g>
<!-- Node10 -->
<g id="node11" class="node"><title>Node10</title>
<g id="a_node11"><a xlink:title=" ">
<polygon fill="white" stroke="#bfbfbf" points="1322.5,-123.5 1322.5,-153.5 1437.5,-153.5 1437.5,-123.5 1322.5,-123.5"/>
<text text-anchor="start" x="1330.5" y="-141.5" font-family="Helvetica,sans-Serif" font-size="10.00">boost/graph/dijkstra</text>
<text text-anchor="middle" x="1380" y="-130.5" font-family="Helvetica,sans-Serif" font-size="10.00">_shortest_paths.hpp</text>
</a>
</g>
</g>
<!-- Node8&#45;&gt;Node10 -->
<g id="edge12" class="edge"><title>Node8&#45;&gt;Node10</title>
<path fill="none" stroke="midnightblue" d="M1015.51,-335.438C1055.15,-328.77 1105.81,-317.454 1148,-299 1231.58,-262.44 1316.61,-194.409 1356.54,-160.229"/>
<polygon fill="midnightblue" stroke="midnightblue" points="1358.86,-162.853 1364.14,-153.668 1354.29,-157.555 1358.86,-162.853"/>
</g>
<!-- Node11 -->
<g id="node12" class="node"><title>Node11</title>
<g id="a_node12"><a xlink:title=" ">
<polygon fill="white" stroke="#bfbfbf" points="749,-56.5 749,-86.5 859,-86.5 859,-56.5 749,-56.5"/>
<text text-anchor="start" x="757" y="-74.5" font-family="Helvetica,sans-Serif" font-size="10.00">boost/graph/filtered</text>
<text text-anchor="middle" x="804" y="-63.5" font-family="Helvetica,sans-Serif" font-size="10.00">_graph.hpp</text>
</a>
</g>
</g>
<!-- Node8&#45;&gt;Node11 -->
<g id="edge13" class="edge"><title>Node8&#45;&gt;Node11</title>
<path fill="none" stroke="midnightblue" d="M926.597,-335.454C874.444,-314.174 745.591,-253.261 696,-154 689.842,-141.675 688.603,-134.624 696,-123 706.032,-107.234 722.42,-96.3079 739.434,-88.7682"/>
<polygon fill="midnightblue" stroke="midnightblue" points="740.965,-91.9239 748.914,-84.9187 738.332,-85.4383 740.965,-91.9239"/>
</g>
<!-- Node12 -->
<g id="node13" class="node"><title>Node12</title>
<g id="a_node13"><a xlink:href="arlib__utils_8hpp.html" target="_top" xlink:title=" ">
<polygon fill="white" stroke="black" points="859.5,-196 859.5,-226 954.5,-226 954.5,-196 859.5,-196"/>
<text text-anchor="start" x="867.5" y="-214" font-family="Helvetica,sans-Serif" font-size="10.00">arlib/details/arlib</text>
<text text-anchor="middle" x="907" y="-203" font-family="Helvetica,sans-Serif" font-size="10.00">_utils.hpp</text>
</a>
</g>
</g>
<!-- Node8&#45;&gt;Node12 -->
<g id="edge17" class="edge"><title>Node8&#45;&gt;Node12</title>
<path fill="none" stroke="midnightblue" d="M946.244,-335.339C939.91,-315.432 924.13,-265.836 914.621,-235.951"/>
<polygon fill="midnightblue" stroke="midnightblue" points="917.912,-234.751 911.545,-226.283 911.242,-236.874 917.912,-234.751"/>
</g>
<!-- Node8&#45;&gt;Node17 -->
<g id="edge73" class="edge"><title>Node8&#45;&gt;Node17</title>
<path fill="none" stroke="midnightblue" d="M1017.5,-342.707C1225.53,-338.543 1847.98,-324.257 2049,-299 2233.83,-275.778 2459,-398.279 2459,-212 2459,-212 2459,-212 2459,-137.5 2459,-90.6693 2418.37,-48.1268 2393.29,-26.328"/>
<polygon fill="midnightblue" stroke="midnightblue" points="2395.37,-23.5052 2385.46,-19.7544 2390.87,-28.8657 2395.37,-23.5052"/>
</g>
<!-- Node18 -->
<g id="node19" class="node"><title>Node18</title>
<g id="a_node19"><a xlink:title=" ">
<polygon fill="white" stroke="#bfbfbf" points="312,-62 312,-81 354,-81 354,-62 312,-62"/>
<text text-anchor="middle" x="333" y="-69" font-family="Helvetica,sans-Serif" font-size="10.00">utility</text>
</a>
</g>
</g>
<!-- Node8&#45;&gt;Node18 -->
<g id="edge74" class="edge"><title>Node8&#45;&gt;Node18</title>
<path fill="none" stroke="midnightblue" d="M880.366,-339.166C809.104,-333.226 694.727,-321.101 598,-299 506.2,-278.025 470.229,-291.2 397,-232 352.79,-196.26 338.936,-125.366 334.742,-91.4448"/>
<polygon fill="midnightblue" stroke="midnightblue" points="338.179,-90.6738 333.627,-81.1067 331.219,-91.4243 338.179,-90.6738"/>
</g>
<!-- Node22 -->
<g id="node23" class="node"><title>Node22</title>
<g id="a_node23"><a xlink:href="bidirectional__dijkstra_8hpp.html" target="_top" xlink:title=" ">
<polygon fill="white" stroke="black" points="1416,-268.5 1416,-298.5 1554,-298.5 1554,-268.5 1416,-268.5"/>
<text text-anchor="start" x="1424" y="-286.5" font-family="Helvetica,sans-Serif" font-size="10.00">arlib/routing_kernels</text>
<text text-anchor="middle" x="1485" y="-275.5" font-family="Helvetica,sans-Serif" font-size="10.00">/bidirectional_dijkstra.hpp</text>
</a>
</g>
</g>
<!-- Node8&#45;&gt;Node22 -->
<g id="edge41" class="edge"><title>Node8&#45;&gt;Node22</title>
<path fill="none" stroke="midnightblue" d="M1017.59,-337.071C1100.95,-328.558 1245.88,-313.457 1370,-299 1381.56,-297.654 1393.76,-296.176 1405.72,-294.695"/>
<polygon fill="midnightblue" stroke="midnightblue" points="1406.21,-298.162 1415.7,-293.453 1405.34,-291.216 1406.21,-298.162"/>
</g>
<!-- Node26 -->
<g id="node27" class="node"><title>Node26</title>
<g id="a_node27"><a xlink:title=" ">
<polygon fill="white" stroke="#bfbfbf" points="2253,-62 2253,-81 2295,-81 2295,-62 2253,-62"/>
<text text-anchor="middle" x="2274" y="-69" font-family="Helvetica,sans-Serif" font-size="10.00">limits</text>
</a>
</g>
</g>
<!-- Node8&#45;&gt;Node26 -->
<g id="edge72" class="edge"><title>Node8&#45;&gt;Node26</title>
<path fill="none" stroke="midnightblue" d="M1017.9,-342.718C1273.91,-337.335 2160.47,-312.948 2255,-232 2295.53,-197.289 2286.08,-125.344 2278.73,-91.2292"/>
<polygon fill="midnightblue" stroke="midnightblue" points="2282.07,-90.1598 2276.39,-81.2183 2275.26,-91.7524 2282.07,-90.1598"/>
</g>
<!-- Node31 -->
<g id="node32" class="node"><title>Node31</title>
<g id="a_node32"><a xlink:href="types_8hpp.html" target="_top" xlink:title=" ">
<polygon fill="white" stroke="black" points="1004.5,-268.5 1004.5,-298.5 1117.5,-298.5 1117.5,-268.5 1004.5,-268.5"/>
<text text-anchor="start" x="1012.5" y="-286.5" font-family="Helvetica,sans-Serif" font-size="10.00">arlib/routing_kernels</text>
<text text-anchor="middle" x="1061" y="-275.5" font-family="Helvetica,sans-Serif" font-size="10.00">/types.hpp</text>
</a>
</g>
</g>
<!-- Node8&#45;&gt;Node31 -->
<g id="edge69" class="edge"><title>Node8&#45;&gt;Node31</title>
<path fill="none" stroke="midnightblue" d="M965.047,-335.475C980.783,-327.115 1005.3,-314.09 1025.61,-303.299"/>
<polygon fill="midnightblue" stroke="midnightblue" points="1027.41,-306.305 1034.6,-298.523 1024.13,-300.124 1027.41,-306.305"/>
</g>
<!-- Node12&#45;&gt;Node1 -->
<g id="edge21" class="edge"><title>Node12&#45;&gt;Node1</title>
<path fill="none" stroke="midnightblue" d="M909.526,-195.783C915.974,-164.215 936.262,-88.5044 987,-56 1056.52,-11.4613 1602.34,-9.20245 1828.93,-10.2233"/>
<polygon fill="midnightblue" stroke="midnightblue" points="1829.13,-13.7242 1839.14,-10.2725 1829.16,-6.72425 1829.13,-13.7242"/>
</g>
<!-- Node12&#45;&gt;Node2 -->
<g id="edge22" class="edge"><title>Node12&#45;&gt;Node2</title>
<path fill="none" stroke="midnightblue" d="M859.305,-210.096C783.981,-208.741 634.023,-199.866 517,-154 468.218,-134.88 444.342,-133.398 420,-87 410.325,-68.5581 418.447,-44.7948 426.452,-28.7901"/>
<polygon fill="midnightblue" stroke="midnightblue" points="429.56,-30.4017 431.261,-19.9444 423.41,-27.0582 429.56,-30.4017"/>
</g>
<!-- Node12&#45;&gt;Node3 -->
<g id="edge23" class="edge"><title>Node12&#45;&gt;Node3</title>
<path fill="none" stroke="midnightblue" d="M908.073,-195.579C909.49,-164.932 908.077,-93.0933 868,-56 854.913,-43.8878 761.856,-29.9317 690.548,-20.8135"/>
<polygon fill="midnightblue" stroke="midnightblue" points="690.557,-17.2869 680.197,-19.5041 689.679,-24.2315 690.557,-17.2869"/>
</g>
<!-- Node12&#45;&gt;Node6 -->
<g id="edge38" class="edge"><title>Node12&#45;&gt;Node6</title>
<path fill="none" stroke="midnightblue" d="M859.171,-207.09C775.038,-201.327 595.411,-186.137 447,-154 443.062,-153.147 438.978,-152.103 434.944,-150.968"/>
<polygon fill="midnightblue" stroke="midnightblue" points="435.71,-147.544 425.126,-148.023 433.698,-154.249 435.71,-147.544"/>
</g>
<!-- Node12&#45;&gt;Node7 -->
<g id="edge35" class="edge"><title>Node12&#45;&gt;Node7</title>
<path fill="none" stroke="midnightblue" d="M859.263,-206.42C775.783,-199.503 607.272,-182.422 556,-154 528.621,-138.823 506.776,-108.819 494.878,-89.7559"/>
<polygon fill="midnightblue" stroke="midnightblue" points="497.866,-87.9315 489.721,-81.155 491.862,-91.5313 497.866,-87.9315"/>
</g>
<!-- Node12&#45;&gt;Node9 -->
<g id="edge18" class="edge"><title>Node12&#45;&gt;Node9</title>
<path fill="none" stroke="midnightblue" d="M949.337,-195.987C988.816,-182.92 1047.05,-163.646 1084.25,-151.332"/>
<polygon fill="midnightblue" stroke="midnightblue" points="1085.76,-154.52 1094.15,-148.055 1083.56,-147.875 1085.76,-154.52"/>
</g>
<!-- Node12&#45;&gt;Node10 -->
<g id="edge19" class="edge"><title>Node12&#45;&gt;Node10</title>
<path fill="none" stroke="midnightblue" d="M954.519,-202.917C1038.91,-190.338 1215.19,-164.065 1312.27,-149.595"/>
<polygon fill="midnightblue" stroke="midnightblue" points="1312.9,-153.041 1322.27,-148.105 1311.86,-146.117 1312.9,-153.041"/>
</g>
<!-- Node12&#45;&gt;Node11 -->
<g id="edge20" class="edge"><title>Node12&#45;&gt;Node11</title>
<path fill="none" stroke="midnightblue" d="M896.365,-195.803C878.478,-171.925 842.236,-123.543 820.853,-94.9985"/>
<polygon fill="midnightblue" stroke="midnightblue" points="823.528,-92.7309 814.731,-86.8258 817.925,-96.9277 823.528,-92.7309"/>
</g>
<!-- Node13 -->
<g id="node14" class="node"><title>Node13</title>
<g id="a_node14"><a xlink:title=" ">
<polygon fill="white" stroke="#bfbfbf" points="1494.5,-123.5 1494.5,-153.5 1607.5,-153.5 1607.5,-123.5 1494.5,-123.5"/>
<text text-anchor="start" x="1502.5" y="-141.5" font-family="Helvetica,sans-Serif" font-size="10.00">boost/graph/reverse</text>
<text text-anchor="middle" x="1551" y="-130.5" font-family="Helvetica,sans-Serif" font-size="10.00">_graph.hpp</text>
</a>
</g>
</g>
<!-- Node12&#45;&gt;Node13 -->
<g id="edge24" class="edge"><title>Node12&#45;&gt;Node13</title>
<path fill="none" stroke="midnightblue" d="M954.739,-205.619C1048.97,-196.844 1265.49,-176.059 1447,-154 1459.02,-152.54 1471.8,-150.861 1484.14,-149.176"/>
<polygon fill="midnightblue" stroke="midnightblue" points="1484.95,-152.598 1494.37,-147.764 1483.99,-145.664 1484.95,-152.598"/>
</g>
<!-- Node14 -->
<g id="node15" class="node"><title>Node14</title>
<g id="a_node15"><a xlink:href="path_8hpp.html" target="_top" xlink:title=" ">
<polygon fill="white" stroke="black" points="565.5,-129 565.5,-148 648.5,-148 648.5,-129 565.5,-129"/>
<text text-anchor="middle" x="607" y="-136" font-family="Helvetica,sans-Serif" font-size="10.00">arlib/path.hpp</text>
</a>
</g>
</g>
<!-- Node12&#45;&gt;Node14 -->
<g id="edge25" class="edge"><title>Node12&#45;&gt;Node14</title>
<path fill="none" stroke="midnightblue" d="M859.464,-198.829C803.004,-185.561 709.444,-163.574 653.46,-150.418"/>
<polygon fill="midnightblue" stroke="midnightblue" points="653.997,-146.949 643.461,-148.068 652.396,-153.763 653.997,-146.949"/>
</g>
<!-- Node12&#45;&gt;Node17 -->
<g id="edge39" class="edge"><title>Node12&#45;&gt;Node17</title>
<path fill="none" stroke="midnightblue" d="M921.389,-195.811C942.925,-175.581 985.764,-139.117 1030,-123 1152.96,-78.2031 2086.16,-26.2317 2320.66,-13.7809"/>
<polygon fill="midnightblue" stroke="midnightblue" points="2321.17,-17.2589 2330.97,-13.235 2320.8,-10.2687 2321.17,-17.2589"/>
</g>
<!-- Node19 -->
<g id="node20" class="node"><title>Node19</title>
<g id="a_node20"><a xlink:title=" ">
<polygon fill="white" stroke="#bfbfbf" points="705,-129 705,-148 757,-148 757,-129 705,-129"/>
<text text-anchor="middle" x="731" y="-136" font-family="Helvetica,sans-Serif" font-size="10.00">iterator</text>
</a>
</g>
</g>
<!-- Node12&#45;&gt;Node19 -->
<g id="edge36" class="edge"><title>Node12&#45;&gt;Node19</title>
<path fill="none" stroke="midnightblue" d="M871.303,-195.99C842.764,-184.749 801.756,-168.506 766,-154 764.408,-153.354 762.776,-152.689 761.129,-152.015"/>
<polygon fill="midnightblue" stroke="midnightblue" points="762.287,-148.707 751.707,-148.138 759.623,-155.18 762.287,-148.707"/>
</g>
<!-- Node20 -->
<g id="node21" class="node"><title>Node20</title>
<g id="a_node21"><a xlink:title=" ">
<polygon fill="white" stroke="#bfbfbf" points="775,-129 775,-148 831,-148 831,-129 775,-129"/>
<text text-anchor="middle" x="803" y="-136" font-family="Helvetica,sans-Serif" font-size="10.00">sstream</text>
</a>
</g>
</g>
<!-- Node12&#45;&gt;Node20 -->
<g id="edge37" class="edge"><title>Node12&#45;&gt;Node20</title>
<path fill="none" stroke="midnightblue" d="M885.954,-195.733C868.062,-183.604 842.482,-166.264 824.47,-154.054"/>
<polygon fill="midnightblue" stroke="midnightblue" points="826.062,-150.905 815.821,-148.191 822.134,-156.699 826.062,-150.905"/>
</g>
<!-- Node12&#45;&gt;Node21 -->
<g id="edge40" class="edge"><title>Node12&#45;&gt;Node21</title>
<path fill="none" stroke="midnightblue" d="M954.632,-204.619C1014.84,-197.037 1121.22,-181.027 1209,-154 1210.93,-153.406 1212.9,-152.732 1214.86,-152.007"/>
<polygon fill="midnightblue" stroke="midnightblue" points="1216.53,-155.105 1224.47,-148.095 1213.89,-148.621 1216.53,-155.105"/>
</g>
<!-- Node14&#45;&gt;Node2 -->
<g id="edge32" class="edge"><title>Node14&#45;&gt;Node2</title>
<path fill="none" stroke="midnightblue" d="M602.967,-128.624C595.058,-112.134 575.99,-76.5797 550,-56 530.404,-40.4833 504.77,-29.6949 482.872,-22.5798"/>
<polygon fill="midnightblue" stroke="midnightblue" points="483.696,-19.1713 473.108,-19.5654 481.631,-25.8597 483.696,-19.1713"/>
</g>
<!-- Node14&#45;&gt;Node3 -->
<g id="edge33" class="edge"><title>Node14&#45;&gt;Node3</title>
<path fill="none" stroke="midnightblue" d="M607,-128.805C607,-108.494 607,-57.5532 607,-29.7768"/>
<polygon fill="midnightblue" stroke="midnightblue" points="610.5,-29.7557 607,-19.7557 603.5,-29.7557 610.5,-29.7557"/>
</g>
<!-- Node14&#45;&gt;Node7 -->
<g id="edge30" class="edge"><title>Node14&#45;&gt;Node7</title>
<path fill="none" stroke="midnightblue" d="M590.799,-128.869C570.2,-117.893 534.409,-98.8243 510.223,-85.9385"/>
<polygon fill="midnightblue" stroke="midnightblue" points="511.739,-82.7804 501.268,-81.1672 508.447,-88.9583 511.739,-82.7804"/>
</g>
<!-- Node14&#45;&gt;Node11 -->
<g id="edge31" class="edge"><title>Node14&#45;&gt;Node11</title>
<path fill="none" stroke="midnightblue" d="M633.16,-128.869C663.233,-118.946 713.354,-102.408 751.552,-89.8051"/>
<polygon fill="midnightblue" stroke="midnightblue" points="753.084,-92.9852 761.484,-86.5281 750.891,-86.3377 753.084,-92.9852"/>
</g>
<!-- Node15 -->
<g id="node16" class="node"><title>Node15</title>
<g id="a_node16"><a xlink:href="path__impl_8hpp.html" target="_top" xlink:title=" ">
<polygon fill="white" stroke="black" points="635,-56.5 635,-86.5 731,-86.5 731,-56.5 635,-56.5"/>
<text text-anchor="start" x="643" y="-74.5" font-family="Helvetica,sans-Serif" font-size="10.00">arlib/details/path</text>
<text text-anchor="middle" x="683" y="-63.5" font-family="Helvetica,sans-Serif" font-size="10.00">_impl.hpp</text>
</a>
</g>
</g>
<!-- Node14&#45;&gt;Node15 -->
<g id="edge26" class="edge"><title>Node14&#45;&gt;Node15</title>
<path fill="none" stroke="midnightblue" d="M617.25,-128.734C627.817,-119.696 644.68,-105.274 658.682,-93.2982"/>
<polygon fill="midnightblue" stroke="midnightblue" points="661.202,-95.7486 666.527,-86.589 656.652,-90.4288 661.202,-95.7486"/>
</g>
<!-- Node14&#45;&gt;Node18 -->
<g id="edge34" class="edge"><title>Node14&#45;&gt;Node18</title>
<path fill="none" stroke="midnightblue" d="M570.898,-128.936C516.653,-116.067 415.052,-91.9649 363.98,-79.8493"/>
<polygon fill="midnightblue" stroke="midnightblue" points="364.714,-76.4263 354.176,-77.5235 363.098,-83.2373 364.714,-76.4263"/>
</g>
<!-- Node15&#45;&gt;Node1 -->
<g id="edge27" class="edge"><title>Node15&#45;&gt;Node1</title>
<path fill="none" stroke="midnightblue" d="M731.058,-57.5149C734.071,-56.9371 737.069,-56.4235 740,-56 949.137,-25.7816 1584.1,-15.1067 1829.1,-12.0502"/>
<polygon fill="midnightblue" stroke="midnightblue" points="1829.46,-15.5462 1839.42,-11.9232 1829.38,-8.54671 1829.46,-15.5462"/>
</g>
<!-- Node16 -->
<g id="node17" class="node"><title>Node16</title>
<g id="a_node17"><a xlink:title=" ">
<polygon fill="white" stroke="#bfbfbf" points="698.5,-0.5 698.5,-19.5 755.5,-19.5 755.5,-0.5 698.5,-0.5"/>
<text text-anchor="middle" x="727" y="-7.5" font-family="Helvetica,sans-Serif" font-size="10.00">memory</text>
</a>
</g>
</g>
<!-- Node15&#45;&gt;Node16 -->
<g id="edge28" class="edge"><title>Node15&#45;&gt;Node16</title>
<path fill="none" stroke="midnightblue" d="M693.427,-56.3993C699.755,-47.8424 707.869,-36.8708 714.534,-27.857"/>
<polygon fill="midnightblue" stroke="midnightblue" points="717.466,-29.7792 720.598,-19.6578 711.838,-25.6171 717.466,-29.7792"/>
</g>
<!-- Node15&#45;&gt;Node17 -->
<g id="edge29" class="edge"><title>Node15&#45;&gt;Node17</title>
<path fill="none" stroke="midnightblue" d="M731.053,-57.4791C734.067,-56.9101 737.067,-56.4083 740,-56 760.033,-53.2113 2041.25,-19.6758 2320.6,-12.3907"/>
<polygon fill="midnightblue" stroke="midnightblue" points="2320.97,-15.8824 2330.87,-12.1228 2320.79,-8.88475 2320.97,-15.8824"/>
</g>
<!-- Node22&#45;&gt;Node1 -->
<g id="edge42" class="edge"><title>Node22&#45;&gt;Node1</title>
<path fill="none" stroke="midnightblue" d="M1554.13,-281.1C1716.78,-276.161 2115.88,-253.898 2194,-154 2252.66,-78.9873 2094.72,-38.5439 1997.27,-21.2982"/>
<polygon fill="midnightblue" stroke="midnightblue" points="1997.61,-17.8057 1987.17,-19.5539 1996.42,-24.7037 1997.61,-17.8057"/>
</g>
<!-- Node22&#45;&gt;Node2 -->
<g id="edge43" class="edge"><title>Node22&#45;&gt;Node2</title>
<path fill="none" stroke="midnightblue" d="M1465.95,-268.33C1434.3,-244.751 1368.91,-195.904 1314,-154 1296.12,-140.355 1294.71,-131.771 1274,-123 1169.82,-78.8795 1133.5,-106.171 1022,-87 953.192,-75.1695 937.019,-66.5257 868,-56 863.795,-55.3588 650.284,-33.15 525.398,-20.1773"/>
<polygon fill="midnightblue" stroke="midnightblue" points="525.391,-16.6578 515.082,-19.1058 524.667,-23.6203 525.391,-16.6578"/>
</g>
<!-- Node22&#45;&gt;Node3 -->
<g id="edge44" class="edge"><title>Node22&#45;&gt;Node3</title>
<path fill="none" stroke="midnightblue" d="M1486.4,-268.421C1488.68,-237.049 1489.24,-161.167 1447,-123 1432.94,-110.301 897.585,-45.5163 689.001,-20.6947"/>
<polygon fill="midnightblue" stroke="midnightblue" points="689.363,-17.2132 679.02,-19.5078 688.536,-24.1642 689.363,-17.2132"/>
</g>
<!-- Node22&#45;&gt;Node7 -->
<g id="edge65" class="edge"><title>Node22&#45;&gt;Node7</title>
<path fill="none" stroke="midnightblue" d="M1415.54,-280.4C1298.32,-276.093 1054.06,-263.828 850,-232 699.81,-208.575 631.941,-253.47 517,-154 498.447,-137.944 490.568,-109.734 487.279,-91.0803"/>
<polygon fill="midnightblue" stroke="midnightblue" points="490.732,-90.5057 485.798,-81.1299 483.808,-91.5362 490.732,-90.5057"/>
</g>
<!-- Node22&#45;&gt;Node12 -->
<g id="edge46" class="edge"><title>Node22&#45;&gt;Node12</title>
<path fill="none" stroke="midnightblue" d="M1415.85,-274.066C1300.76,-260.027 1071.96,-232.121 964.842,-219.055"/>
<polygon fill="midnightblue" stroke="midnightblue" points="965.214,-215.575 954.864,-217.838 964.366,-222.523 965.214,-215.575"/>
</g>
<!-- Node22&#45;&gt;Node13 -->
<g id="edge45" class="edge"><title>Node22&#45;&gt;Node13</title>
<path fill="none" stroke="midnightblue" d="M1491.57,-268.266C1502.94,-243.639 1526.37,-192.857 1540.18,-162.951"/>
<polygon fill="midnightblue" stroke="midnightblue" points="1543.44,-164.223 1544.46,-153.677 1537.09,-161.289 1543.44,-164.223"/>
</g>
<!-- Node22&#45;&gt;Node21 -->
<g id="edge68" class="edge"><title>Node22&#45;&gt;Node21</title>
<path fill="none" stroke="midnightblue" d="M1415.54,-280.92C1372.04,-276.488 1317.35,-264.183 1280,-232 1257.93,-212.978 1248.46,-179.14 1244.56,-158.088"/>
<polygon fill="midnightblue" stroke="midnightblue" points="1248.01,-157.452 1242.96,-148.137 1241.09,-158.567 1248.01,-157.452"/>
</g>
<!-- Node23 -->
<g id="node24" class="node"><title>Node23</title>
<g id="a_node24"><a xlink:href="bidirectional__dijkstra__impl_8hpp.html" target="_top" xlink:title=" ">
<polygon fill="white" stroke="black" points="1757.5,-190.5 1757.5,-231.5 1870.5,-231.5 1870.5,-190.5 1757.5,-190.5"/>
<text text-anchor="start" x="1765.5" y="-219.5" font-family="Helvetica,sans-Serif" font-size="10.00">arlib/routing_kernels</text>
<text text-anchor="start" x="1765.5" y="-208.5" font-family="Helvetica,sans-Serif" font-size="10.00">/details/bidirectional</text>
<text text-anchor="middle" x="1814" y="-197.5" font-family="Helvetica,sans-Serif" font-size="10.00">_dijkstra_impl.hpp</text>
</a>
</g>
</g>
<!-- Node22&#45;&gt;Node23 -->
<g id="edge47" class="edge"><title>Node22&#45;&gt;Node23</title>
<path fill="none" stroke="midnightblue" d="M1550.39,-268.487C1607.41,-256.27 1689.74,-238.628 1747.17,-226.321"/>
<polygon fill="midnightblue" stroke="midnightblue" points="1748.19,-229.682 1757.23,-224.164 1746.72,-222.837 1748.19,-229.682"/>
</g>
<!-- Node25 -->
<g id="node26" class="node"><title>Node25</title>
<g id="a_node26"><a xlink:href="visitor_8hpp.html" target="_top" xlink:title=" ">
<polygon fill="white" stroke="black" points="2317.5,-123.5 2317.5,-153.5 2430.5,-153.5 2430.5,-123.5 2317.5,-123.5"/>
<text text-anchor="start" x="2325.5" y="-141.5" font-family="Helvetica,sans-Serif" font-size="10.00">arlib/routing_kernels</text>
<text text-anchor="middle" x="2374" y="-130.5" font-family="Helvetica,sans-Serif" font-size="10.00">/visitor.hpp</text>
</a>
</g>
</g>
<!-- Node22&#45;&gt;Node25 -->
<g id="edge64" class="edge"><title>Node22&#45;&gt;Node25</title>
<path fill="none" stroke="midnightblue" d="M1554.25,-280.501C1732.93,-274.992 2200.09,-258.24 2265,-232 2302.5,-216.839 2336.43,-183.489 2356.14,-161.256"/>
<polygon fill="midnightblue" stroke="midnightblue" points="2358.85,-163.477 2362.74,-153.622 2353.55,-158.9 2358.85,-163.477"/>
</g>
<!-- Node22&#45;&gt;Node26 -->
<g id="edge67" class="edge"><title>Node22&#45;&gt;Node26</title>
<path fill="none" stroke="midnightblue" d="M1554.19,-282.226C1728.45,-280.918 2175.26,-273.509 2227,-232 2270.09,-197.431 2275.02,-125.416 2274.77,-91.2564"/>
<polygon fill="midnightblue" stroke="midnightblue" points="2278.26,-91.1456 2274.53,-81.2317 2271.27,-91.3121 2278.26,-91.1456"/>
</g>
<!-- Node27 -->
<g id="node28" class="node"><title>Node27</title>
<g id="a_node28"><a xlink:title=" ">
<polygon fill="white" stroke="#bfbfbf" points="1625.5,-129 1625.5,-148 1672.5,-148 1672.5,-129 1625.5,-129"/>
<text text-anchor="middle" x="1649" y="-136" font-family="Helvetica,sans-Serif" font-size="10.00">deque</text>
</a>
</g>
</g>
<!-- Node22&#45;&gt;Node27 -->
<g id="edge66" class="edge"><title>Node22&#45;&gt;Node27</title>
<path fill="none" stroke="midnightblue" d="M1501.32,-268.266C1532.26,-241.288 1599.2,-182.922 1631.23,-154.997"/>
<polygon fill="midnightblue" stroke="midnightblue" points="1633.69,-157.494 1638.93,-148.284 1629.09,-152.218 1633.69,-157.494"/>
</g>
<!-- Node23&#45;&gt;Node1 -->
<g id="edge48" class="edge"><title>Node23&#45;&gt;Node1</title>
<path fill="none" stroke="midnightblue" d="M1865.02,-190.364C1881.25,-181.634 1897.65,-169.702 1908,-154 1933.31,-115.603 1932.09,-58.7162 1929.37,-29.6195"/>
<polygon fill="midnightblue" stroke="midnightblue" points="1932.84,-29.1668 1928.27,-19.6096 1925.89,-29.9324 1932.84,-29.1668"/>
</g>
<!-- Node23&#45;&gt;Node2 -->
<g id="edge49" class="edge"><title>Node23&#45;&gt;Node2</title>
<path fill="none" stroke="midnightblue" d="M1792.17,-190.111C1764.27,-164.739 1719.28,-123.989 1717,-123 1657.92,-97.4192 657.873,-30.7684 525.517,-20.04"/>
<polygon fill="midnightblue" stroke="midnightblue" points="525.511,-16.5267 515.248,-19.1579 524.912,-23.501 525.511,-16.5267"/>
</g>
<!-- Node23&#45;&gt;Node3 -->
<g id="edge50" class="edge"><title>Node23&#45;&gt;Node3</title>
<path fill="none" stroke="midnightblue" d="M1805.34,-190.249C1795.54,-170.231 1777.66,-139.873 1753,-123 1649.89,-52.4588 1603.66,-73.8137 1480,-56 1134.99,-6.29933 1041.64,-46.4313 690.922,-20.0957"/>
<polygon fill="midnightblue" stroke="midnightblue" points="690.974,-16.5895 680.736,-19.3176 690.441,-23.5692 690.974,-16.5895"/>
</g>
<!-- Node23&#45;&gt;Node7 -->
<g id="edge57" class="edge"><title>Node23&#45;&gt;Node7</title>
<path fill="none" stroke="midnightblue" d="M1781.55,-190.265C1764.55,-179.751 1743.47,-166.449 1725,-154 1705.46,-140.831 1704.29,-130.62 1682,-123 1570.91,-85.0283 743.128,-95.0096 626,-87 601.62,-85.3328 574.937,-82.7772 551.408,-80.2733"/>
<polygon fill="midnightblue" stroke="midnightblue" points="551.505,-76.7634 541.186,-79.1681 550.752,-83.7229 551.505,-76.7634"/>
</g>
<!-- Node23&#45;&gt;Node13 -->
<g id="edge51" class="edge"><title>Node23&#45;&gt;Node13</title>
<path fill="none" stroke="midnightblue" d="M1757.26,-194.789C1714.95,-183.448 1657.18,-167.963 1613.54,-156.265"/>
<polygon fill="midnightblue" stroke="midnightblue" points="1614.18,-152.813 1603.62,-153.604 1612.37,-159.574 1614.18,-152.813"/>
</g>
<!-- Node23&#45;&gt;Node21 -->
<g id="edge63" class="edge"><title>Node23&#45;&gt;Node21</title>
<path fill="none" stroke="midnightblue" d="M1757.17,-205.261C1664.19,-197.144 1473.87,-179.002 1314,-154 1301.43,-152.034 1287.72,-149.398 1275.67,-146.913"/>
<polygon fill="midnightblue" stroke="midnightblue" points="1276.09,-143.424 1265.58,-144.789 1274.64,-150.273 1276.09,-143.424"/>
</g>
<!-- Node24 -->
<g id="node25" class="node"><title>Node24</title>
<g id="a_node25"><a xlink:title=" ">
<polygon fill="white" stroke="#bfbfbf" points="1993,-123.5 1993,-153.5 2107,-153.5 2107,-123.5 1993,-123.5"/>
<text text-anchor="start" x="2001" y="-141.5" font-family="Helvetica,sans-Serif" font-size="10.00">boost/property_map</text>
<text text-anchor="middle" x="2050" y="-130.5" font-family="Helvetica,sans-Serif" font-size="10.00">/property_map.hpp</text>
</a>
</g>
</g>
<!-- Node23&#45;&gt;Node24 -->
<g id="edge52" class="edge"><title>Node23&#45;&gt;Node24</title>
<path fill="none" stroke="midnightblue" d="M1870.53,-193.113C1907.71,-182.007 1956.18,-167.527 1993.38,-156.415"/>
<polygon fill="midnightblue" stroke="midnightblue" points="1994.48,-159.738 2003.06,-153.522 1992.48,-153.031 1994.48,-159.738"/>
</g>
<!-- Node23&#45;&gt;Node25 -->
<g id="edge53" class="edge"><title>Node23&#45;&gt;Node25</title>
<path fill="none" stroke="midnightblue" d="M1870.52,-202.885C1974.6,-189.781 2196.1,-161.896 2307.34,-147.892"/>
<polygon fill="midnightblue" stroke="midnightblue" points="2307.94,-151.344 2317.43,-146.622 2307.07,-144.399 2307.94,-151.344"/>
</g>
<!-- Node23&#45;&gt;Node26 -->
<g id="edge60" class="edge"><title>Node23&#45;&gt;Node26</title>
<path fill="none" stroke="midnightblue" d="M1864.95,-190.407C1888.64,-180.578 1916.85,-167.828 1941,-154 1961.45,-142.294 1962.29,-132.143 1984,-123 2072.75,-85.6298 2187.98,-75.9129 2242.61,-73.3869"/>
<polygon fill="midnightblue" stroke="midnightblue" points="2242.86,-76.8799 2252.7,-72.9716 2242.57,-69.8858 2242.86,-76.8799"/>
</g>
<!-- Node23&#45;&gt;Node27 -->
<g id="edge58" class="edge"><title>Node23&#45;&gt;Node27</title>
<path fill="none" stroke="midnightblue" d="M1768.04,-190.362C1739.42,-178.133 1703.44,-162.762 1678.57,-152.136"/>
<polygon fill="midnightblue" stroke="midnightblue" points="1679.87,-148.884 1669.3,-148.173 1677.12,-155.321 1679.87,-148.884"/>
</g>
<!-- Node28 -->
<g id="node29" class="node"><title>Node28</title>
<g id="a_node29"><a xlink:title=" ">
<polygon fill="white" stroke="#bfbfbf" points="2125.5,-129 2125.5,-148 2184.5,-148 2184.5,-129 2125.5,-129"/>
<text text-anchor="middle" x="2155" y="-136" font-family="Helvetica,sans-Serif" font-size="10.00">iostream</text>
</a>
</g>
</g>
<!-- Node23&#45;&gt;Node28 -->
<g id="edge59" class="edge"><title>Node23&#45;&gt;Node28</title>
<path fill="none" stroke="midnightblue" d="M1870.6,-202.487C1931.78,-193.677 2031.84,-177.261 2116,-154 2118.81,-153.224 2121.7,-152.333 2124.57,-151.383"/>
<polygon fill="midnightblue" stroke="midnightblue" points="2125.9,-154.626 2134.17,-148.001 2123.57,-148.024 2125.9,-154.626"/>
</g>
<!-- Node23&#45;&gt;Node29 -->
<g id="edge61" class="edge"><title>Node23&#45;&gt;Node29</title>
<path fill="none" stroke="midnightblue" d="M1870.79,-207.06C1980.99,-200.883 2231.36,-184.539 2440,-154 2452.32,-152.196 2465.73,-149.619 2477.55,-147.136"/>
<polygon fill="midnightblue" stroke="midnightblue" points="2478.41,-150.53 2487.45,-145.001 2476.94,-143.688 2478.41,-150.53"/>
</g>
<!-- Node30 -->
<g id="node31" class="node"><title>Node30</title>
<g id="a_node31"><a xlink:title=" ">
<polygon fill="white" stroke="#bfbfbf" points="1805.5,-129 1805.5,-148 1898.5,-148 1898.5,-129 1805.5,-129"/>
<text text-anchor="middle" x="1852" y="-136" font-family="Helvetica,sans-Serif" font-size="10.00">unordered_map</text>
</a>
</g>
</g>
<!-- Node23&#45;&gt;Node30 -->
<g id="edge62" class="edge"><title>Node23&#45;&gt;Node30</title>
<path fill="none" stroke="midnightblue" d="M1824.59,-190.362C1830.19,-179.972 1837.01,-167.315 1842.45,-157.227"/>
<polygon fill="midnightblue" stroke="midnightblue" points="1845.66,-158.637 1847.32,-148.173 1839.5,-155.315 1845.66,-158.637"/>
</g>
<!-- Node25&#45;&gt;Node1 -->
<g id="edge54" class="edge"><title>Node25&#45;&gt;Node1</title>
<path fill="none" stroke="midnightblue" d="M2366.44,-123.445C2355.44,-104.549 2333.13,-71.5366 2304,-56 2257.21,-31.0458 2120.33,-19.6837 2025.08,-14.6855"/>
<polygon fill="midnightblue" stroke="midnightblue" points="2025,-11.1772 2014.84,-14.1641 2024.64,-18.1682 2025,-11.1772"/>
</g>
<!-- Node25&#45;&gt;Node17 -->
<g id="edge56" class="edge"><title>Node25&#45;&gt;Node17</title>
<path fill="none" stroke="midnightblue" d="M2374,-123.479C2374,-100.719 2374,-55.7023 2374,-30.0582"/>
<polygon fill="midnightblue" stroke="midnightblue" points="2377.5,-29.7885 2374,-19.7885 2370.5,-29.7886 2377.5,-29.7885"/>
</g>
<!-- Node25&#45;&gt;Node26 -->
<g id="edge55" class="edge"><title>Node25&#45;&gt;Node26</title>
<path fill="none" stroke="midnightblue" d="M2352.3,-123.396C2335.53,-112.496 2312.43,-97.4787 2295.67,-86.5835"/>
<polygon fill="midnightblue" stroke="midnightblue" points="2297.38,-83.5224 2287.09,-81.007 2293.56,-89.3915 2297.38,-83.5224"/>
</g>
</g>
</svg>
