<?xml version="1.0" encoding="UTF-8" standalone="no"?>
<!DOCTYPE svg PUBLIC "-//W3C//DTD SVG 1.1//EN"
 "http://www.w3.org/Graphics/SVG/1.1/DTD/svg11.dtd">
<!-- Generated by graphviz version 2.38.0 (20140413.2041)
 -->
<!-- Title: include/arlib/details/esx_impl.hpp Pages: 1 -->
<svg width="2412pt" height="374pt"
 viewBox="0.00 0.00 2412.35 374.00" xmlns="http://www.w3.org/2000/svg" xmlns:xlink="http://www.w3.org/1999/xlink">
<g id="graph0" class="graph" transform="scale(1 1) rotate(0) translate(4 370)">
<title>include/arlib/details/esx_impl.hpp</title>
<polygon fill="white" stroke="none" points="-4,4 -4,-370 2408.35,-370 2408.35,4 -4,4"/>
<!-- Node0 -->
<g id="node1" class="node"><title>Node0</title>
<g id="a_node1"><a xlink:title=" ">
<polygon fill="#bfbfbf" stroke="black" points="890,-335.5 890,-365.5 998,-365.5 998,-335.5 890,-335.5"/>
<text text-anchor="start" x="898" y="-353.5" font-family="Helvetica,sans-Serif" font-size="10.00">include/arlib/details</text>
<text text-anchor="middle" x="944" y="-342.5" font-family="Helvetica,sans-Serif" font-size="10.00">/esx_impl.hpp</text>
</a>
</g>
</g>
<!-- Node1 -->
<g id="node2" class="node"><title>Node1</title>
<g id="a_node2"><a xlink:title=" ">
<polygon fill="white" stroke="#bfbfbf" points="142.5,-129 142.5,-148 303.5,-148 303.5,-129 142.5,-129"/>
<text text-anchor="middle" x="223" y="-136" font-family="Helvetica,sans-Serif" font-size="10.00">boost/graph/astar_search.hpp</text>
</a>
</g>
</g>
<!-- Node0&#45;&gt;Node1 -->
<g id="edge1" class="edge"><title>Node0&#45;&gt;Node1</title>
<path fill="none" stroke="midnightblue" d="M889.633,-337.822C846.212,-328.219 783.923,-313.823 730,-299 550.424,-249.636 338.863,-178.967 257.372,-151.271"/>
<polygon fill="midnightblue" stroke="midnightblue" points="258.461,-147.944 247.866,-148.034 256.204,-154.571 258.461,-147.944"/>
</g>
<!-- Node2 -->
<g id="node3" class="node"><title>Node2</title>
<g id="a_node3"><a xlink:title=" ">
<polygon fill="white" stroke="#bfbfbf" points="321.5,-123.5 321.5,-153.5 436.5,-153.5 436.5,-123.5 321.5,-123.5"/>
<text text-anchor="start" x="329.5" y="-141.5" font-family="Helvetica,sans-Serif" font-size="10.00">boost/graph/dijkstra</text>
<text text-anchor="middle" x="379" y="-130.5" font-family="Helvetica,sans-Serif" font-size="10.00">_shortest_paths.hpp</text>
</a>
</g>
</g>
<!-- Node0&#45;&gt;Node2 -->
<g id="edge2" class="edge"><title>Node0&#45;&gt;Node2</title>
<path fill="none" stroke="midnightblue" d="M906.051,-335.395C806.139,-298.26 535.98,-197.846 426.269,-157.069"/>
<polygon fill="midnightblue" stroke="midnightblue" points="427.376,-153.747 416.783,-153.543 424.937,-160.308 427.376,-153.747"/>
</g>
<!-- Node3 -->
<g id="node4" class="node"><title>Node3</title>
<g id="a_node4"><a xlink:title=" ">
<polygon fill="white" stroke="#bfbfbf" points="535,-56.5 535,-86.5 645,-86.5 645,-56.5 535,-56.5"/>
<text text-anchor="start" x="543" y="-74.5" font-family="Helvetica,sans-Serif" font-size="10.00">boost/graph/filtered</text>
<text text-anchor="middle" x="590" y="-63.5" font-family="Helvetica,sans-Serif" font-size="10.00">_graph.hpp</text>
</a>
</g>
</g>
<!-- Node0&#45;&gt;Node3 -->
<g id="edge3" class="edge"><title>Node0&#45;&gt;Node3</title>
<path fill="none" stroke="midnightblue" d="M889.824,-345.303C723.076,-331.115 223.345,-278.683 133,-154 124.916,-142.843 123.713,-133.177 133,-123 161.057,-92.2552 450.926,-93.6213 524.973,-86.6553"/>
<polygon fill="midnightblue" stroke="midnightblue" points="525.42,-90.127 534.931,-85.4596 524.585,-83.1769 525.42,-90.127"/>
</g>
<!-- Node4 -->
<g id="node5" class="node"><title>Node4</title>
<g id="a_node5"><a xlink:title=" ">
<polygon fill="white" stroke="#bfbfbf" points="1826.5,-0.5 1826.5,-19.5 2001.5,-19.5 2001.5,-0.5 1826.5,-0.5"/>
<text text-anchor="middle" x="1914" y="-7.5" font-family="Helvetica,sans-Serif" font-size="10.00">boost/graph/graph_concepts.hpp</text>
</a>
</g>
</g>
<!-- Node0&#45;&gt;Node4 -->
<g id="edge4" class="edge"><title>Node0&#45;&gt;Node4</title>
<path fill="none" stroke="midnightblue" d="M998.034,-349.054C1188.88,-347.156 1830.57,-337.962 2032,-299 2120.74,-281.837 2171.67,-305.688 2224,-232 2267.42,-170.863 2198.63,-91.7969 2149,-56 2126.44,-39.7291 2063.18,-28.1672 2007.97,-20.8401"/>
<polygon fill="midnightblue" stroke="midnightblue" points="2008.13,-17.3321 1997.77,-19.521 2007.24,-24.2743 2008.13,-17.3321"/>
</g>
<!-- Node5 -->
<g id="node6" class="node"><title>Node5</title>
<g id="a_node6"><a xlink:title=" ">
<polygon fill="white" stroke="#bfbfbf" points="974,-0.5 974,-19.5 1130,-19.5 1130,-0.5 974,-0.5"/>
<text text-anchor="middle" x="1052" y="-7.5" font-family="Helvetica,sans-Serif" font-size="10.00">boost/graph/graph_traits.hpp</text>
</a>
</g>
</g>
<!-- Node0&#45;&gt;Node5 -->
<g id="edge5" class="edge"><title>Node0&#45;&gt;Node5</title>
<path fill="none" stroke="midnightblue" d="M998.301,-348.633C1228.79,-344.399 2118.1,-322.276 2200,-232 2250.05,-176.828 2208.19,-105.631 2130,-56 2088.52,-29.6701 1390.74,-16.2697 1140.46,-12.2934"/>
<polygon fill="midnightblue" stroke="midnightblue" points="1140.36,-8.79156 1130.31,-12.1334 1140.25,-15.7907 1140.36,-8.79156"/>
</g>
<!-- Node6 -->
<g id="node7" class="node"><title>Node6</title>
<g id="a_node7"><a xlink:title=" ">
<polygon fill="white" stroke="#bfbfbf" points="797.5,-0.5 797.5,-19.5 944.5,-19.5 944.5,-0.5 797.5,-0.5"/>
<text text-anchor="middle" x="871" y="-7.5" font-family="Helvetica,sans-Serif" font-size="10.00">boost/graph/properties.hpp</text>
</a>
</g>
</g>
<!-- Node0&#45;&gt;Node6 -->
<g id="edge6" class="edge"><title>Node0&#45;&gt;Node6</title>
<path fill="none" stroke="midnightblue" d="M889.839,-348.726C747.718,-346.196 366.82,-336.055 247,-299 190.488,-281.523 167.09,-279.621 132,-232 110.895,-203.358 118.026,-189.349 114,-154 112.441,-140.311 105.241,-133.635 114,-123 156.451,-71.4543 599.128,-31.7923 787.209,-17.1407"/>
<polygon fill="midnightblue" stroke="midnightblue" points="787.628,-20.6188 797.328,-16.3574 787.088,-13.6397 787.628,-20.6188"/>
</g>
<!-- Node7 -->
<g id="node8" class="node"><title>Node7</title>
<g id="a_node8"><a xlink:href="arlib__utils_8hpp.html" target="_top" xlink:title=" ">
<polygon fill="white" stroke="black" points="739.5,-196 739.5,-226 834.5,-226 834.5,-196 739.5,-196"/>
<text text-anchor="start" x="747.5" y="-214" font-family="Helvetica,sans-Serif" font-size="10.00">arlib/details/arlib</text>
<text text-anchor="middle" x="787" y="-203" font-family="Helvetica,sans-Serif" font-size="10.00">_utils.hpp</text>
</a>
</g>
</g>
<!-- Node0&#45;&gt;Node7 -->
<g id="edge7" class="edge"><title>Node0&#45;&gt;Node7</title>
<path fill="none" stroke="midnightblue" d="M927.79,-335.303C900.055,-311.013 843.369,-261.368 811.024,-233.04"/>
<polygon fill="midnightblue" stroke="midnightblue" points="813.186,-230.281 803.357,-226.326 808.574,-235.547 813.186,-230.281"/>
</g>
<!-- Node12 -->
<g id="node13" class="node"><title>Node12</title>
<g id="a_node13"><a xlink:title=" ">
<polygon fill="white" stroke="#bfbfbf" points="453,-0.5 453,-19.5 539,-19.5 539,-0.5 453,-0.5"/>
<text text-anchor="middle" x="496" y="-7.5" font-family="Helvetica,sans-Serif" font-size="10.00">unordered_set</text>
</a>
</g>
</g>
<!-- Node0&#45;&gt;Node12 -->
<g id="edge67" class="edge"><title>Node0&#45;&gt;Node12</title>
<path fill="none" stroke="midnightblue" d="M889.882,-348.969C736.293,-346.992 299.967,-338.004 163,-299 84.0222,-276.51 0,-294.118 0,-212 0,-212 0,-212 0,-137.5 0,-46.9566 314.26,-20.4062 442.489,-13.3414"/>
<polygon fill="midnightblue" stroke="midnightblue" points="443.051,-16.8166 452.851,-12.7908 442.679,-9.82647 443.051,-16.8166"/>
</g>
<!-- Node13 -->
<g id="node14" class="node"><title>Node13</title>
<g id="a_node14"><a xlink:href="type__traits_8hpp.html" target="_top" xlink:title=" ">
<polygon fill="white" stroke="black" points="967,-62 967,-81 1079,-81 1079,-62 967,-62"/>
<text text-anchor="middle" x="1023" y="-69" font-family="Helvetica,sans-Serif" font-size="10.00">arlib/type_traits.hpp</text>
</a>
</g>
</g>
<!-- Node0&#45;&gt;Node13 -->
<g id="edge65" class="edge"><title>Node0&#45;&gt;Node13</title>
<path fill="none" stroke="midnightblue" d="M945.915,-335.336C951.098,-299.105 966.993,-200.456 996,-123 1000.3,-111.529 1006.71,-99.403 1012.21,-89.9089"/>
<polygon fill="midnightblue" stroke="midnightblue" points="1015.35,-91.4831 1017.48,-81.1056 1009.34,-87.8866 1015.35,-91.4831"/>
</g>
<!-- Node14 -->
<g id="node15" class="node"><title>Node14</title>
<g id="a_node15"><a xlink:title=" ">
<polygon fill="white" stroke="#bfbfbf" points="475,-62 475,-81 517,-81 517,-62 475,-62"/>
<text text-anchor="middle" x="496" y="-69" font-family="Helvetica,sans-Serif" font-size="10.00">utility</text>
</a>
</g>
</g>
<!-- Node0&#45;&gt;Node14 -->
<g id="edge68" class="edge"><title>Node0&#45;&gt;Node14</title>
<path fill="none" stroke="midnightblue" d="M889.881,-348.004C733.388,-342.66 284.339,-319.84 172,-232 139.749,-206.783 134.332,-193.34 123,-154 119.186,-140.761 113.856,-133.306 123,-123 167.561,-72.7725 356.689,-97.5485 423,-87 436.895,-84.7896 452.177,-81.8362 465.152,-79.1718"/>
<polygon fill="midnightblue" stroke="midnightblue" points="465.92,-82.5871 474.993,-77.1166 464.489,-75.7349 465.92,-82.5871"/>
</g>
<!-- Node19 -->
<g id="node20" class="node"><title>Node19</title>
<g id="a_node20"><a xlink:href="bidirectional__dijkstra_8hpp.html" target="_top" xlink:title=" ">
<polygon fill="white" stroke="black" points="1187,-268.5 1187,-298.5 1325,-298.5 1325,-268.5 1187,-268.5"/>
<text text-anchor="start" x="1195" y="-286.5" font-family="Helvetica,sans-Serif" font-size="10.00">arlib/routing_kernels</text>
<text text-anchor="middle" x="1256" y="-275.5" font-family="Helvetica,sans-Serif" font-size="10.00">/bidirectional_dijkstra.hpp</text>
</a>
</g>
</g>
<!-- Node0&#45;&gt;Node19 -->
<g id="edge33" class="edge"><title>Node0&#45;&gt;Node19</title>
<path fill="none" stroke="midnightblue" d="M998.346,-338.178C1048.25,-327.781 1122.74,-312.263 1178.81,-300.582"/>
<polygon fill="midnightblue" stroke="midnightblue" points="1179.62,-303.988 1188.7,-298.522 1178.19,-297.135 1179.62,-303.988"/>
</g>
<!-- Node23 -->
<g id="node24" class="node"><title>Node23</title>
<g id="a_node24"><a xlink:title=" ">
<polygon fill="white" stroke="#bfbfbf" points="2079,-62 2079,-81 2121,-81 2121,-62 2079,-62"/>
<text text-anchor="middle" x="2100" y="-69" font-family="Helvetica,sans-Serif" font-size="10.00">limits</text>
</a>
</g>
</g>
<!-- Node0&#45;&gt;Node23 -->
<g id="edge66" class="edge"><title>Node0&#45;&gt;Node23</title>
<path fill="none" stroke="midnightblue" d="M998.364,-349.68C1255.01,-350.271 2335.02,-349.726 2384,-299 2476.69,-203.001 2222.13,-110.958 2131.04,-81.9151"/>
<polygon fill="midnightblue" stroke="midnightblue" points="2131.85,-78.5022 2121.26,-78.8413 2129.75,-85.1799 2131.85,-78.5022"/>
</g>
<!-- Node28 -->
<g id="node29" class="node"><title>Node28</title>
<g id="a_node29"><a xlink:href="types_8hpp.html" target="_top" xlink:title=" ">
<polygon fill="white" stroke="black" points="2261.5,-268.5 2261.5,-298.5 2374.5,-298.5 2374.5,-268.5 2261.5,-268.5"/>
<text text-anchor="start" x="2269.5" y="-286.5" font-family="Helvetica,sans-Serif" font-size="10.00">arlib/routing_kernels</text>
<text text-anchor="middle" x="2318" y="-275.5" font-family="Helvetica,sans-Serif" font-size="10.00">/types.hpp</text>
</a>
</g>
</g>
<!-- Node0&#45;&gt;Node28 -->
<g id="edge61" class="edge"><title>Node0&#45;&gt;Node28</title>
<path fill="none" stroke="midnightblue" d="M998.289,-348.575C1212.49,-344.741 1999.35,-328.886 2247,-299 2248.3,-298.843 2249.61,-298.675 2250.93,-298.497"/>
<polygon fill="midnightblue" stroke="midnightblue" points="2251.8,-301.906 2261.17,-296.954 2250.76,-294.984 2251.8,-301.906"/>
</g>
<!-- Node29 -->
<g id="node30" class="node"><title>Node29</title>
<g id="a_node30"><a xlink:href="terminators_8hpp_source.html" target="_top" xlink:title=" ">
<polygon fill="white" stroke="black" points="1387.5,-274 1387.5,-293 1504.5,-293 1504.5,-274 1387.5,-274"/>
<text text-anchor="middle" x="1446" y="-281" font-family="Helvetica,sans-Serif" font-size="10.00">arlib/terminators.hpp</text>
</a>
</g>
</g>
<!-- Node0&#45;&gt;Node29 -->
<g id="edge62" class="edge"><title>Node0&#45;&gt;Node29</title>
<path fill="none" stroke="midnightblue" d="M998.2,-342.482C1090.12,-330.581 1276.39,-306.461 1377.31,-293.395"/>
<polygon fill="midnightblue" stroke="midnightblue" points="1377.93,-296.844 1387.39,-292.088 1377.03,-289.902 1377.93,-296.844"/>
</g>
<!-- Node7&#45;&gt;Node1 -->
<g id="edge8" class="edge"><title>Node7&#45;&gt;Node1</title>
<path fill="none" stroke="midnightblue" d="M739.38,-205.089C653.721,-196.1 468.033,-175.897 312,-154 302.565,-152.676 292.586,-151.162 282.855,-149.623"/>
<polygon fill="midnightblue" stroke="midnightblue" points="283.265,-146.144 272.837,-148.017 282.157,-153.056 283.265,-146.144"/>
</g>
<!-- Node7&#45;&gt;Node2 -->
<g id="edge9" class="edge"><title>Node7&#45;&gt;Node2</title>
<path fill="none" stroke="midnightblue" d="M739.338,-202.573C674.133,-192.294 553.51,-172.859 451,-154 449.55,-153.733 448.084,-153.461 446.607,-153.184"/>
<polygon fill="midnightblue" stroke="midnightblue" points="447.214,-149.737 436.736,-151.305 445.904,-156.614 447.214,-149.737"/>
</g>
<!-- Node7&#45;&gt;Node3 -->
<g id="edge10" class="edge"><title>Node7&#45;&gt;Node3</title>
<path fill="none" stroke="midnightblue" d="M764.779,-195.794C747.844,-184.78 724.094,-168.927 704,-154 686.504,-141.002 683.542,-135.936 666,-123 651.567,-112.357 635.037,-101.252 621.087,-92.1742"/>
<polygon fill="midnightblue" stroke="midnightblue" points="622.641,-89.011 612.341,-86.5271 618.844,-94.8917 622.641,-89.011"/>
</g>
<!-- Node7&#45;&gt;Node4 -->
<g id="edge11" class="edge"><title>Node7&#45;&gt;Node4</title>
<path fill="none" stroke="midnightblue" d="M803.002,-195.948C815.643,-184.752 833.65,-168.589 849,-154 863.123,-140.577 865.711,-136.246 880,-123 884.189,-119.116 952.692,-58.1102 958,-56 1036.12,-24.9447 1588.24,-14.867 1816.06,-12.0081"/>
<polygon fill="midnightblue" stroke="midnightblue" points="1816.38,-15.5046 1826.33,-11.8813 1816.29,-8.50509 1816.38,-15.5046"/>
</g>
<!-- Node7&#45;&gt;Node5 -->
<g id="edge12" class="edge"><title>Node7&#45;&gt;Node5</title>
<path fill="none" stroke="midnightblue" d="M795.318,-195.881C814.187,-165.182 863.415,-92.2106 925,-56 950.545,-40.98 981.908,-29.8057 1007.08,-22.3492"/>
<polygon fill="midnightblue" stroke="midnightblue" points="1008.09,-25.6979 1016.74,-19.576 1006.16,-18.9693 1008.09,-25.6979"/>
</g>
<!-- Node7&#45;&gt;Node6 -->
<g id="edge13" class="edge"><title>Node7&#45;&gt;Node6</title>
<path fill="none" stroke="midnightblue" d="M739.085,-209.157C683.223,-206.175 589.901,-194.834 522,-154 488.741,-133.999 479.238,-123.482 466,-87 461.3,-74.0486 456.811,-66.2662 466,-56 476.591,-44.167 671.616,-26.7917 787.108,-17.4726"/>
<polygon fill="midnightblue" stroke="midnightblue" points="787.652,-20.9402 797.34,-16.6512 787.092,-13.9626 787.652,-20.9402"/>
</g>
<!-- Node8 -->
<g id="node9" class="node"><title>Node8</title>
<g id="a_node9"><a xlink:title=" ">
<polygon fill="white" stroke="#bfbfbf" points="1005.5,-123.5 1005.5,-153.5 1118.5,-153.5 1118.5,-123.5 1005.5,-123.5"/>
<text text-anchor="start" x="1013.5" y="-141.5" font-family="Helvetica,sans-Serif" font-size="10.00">boost/graph/reverse</text>
<text text-anchor="middle" x="1062" y="-130.5" font-family="Helvetica,sans-Serif" font-size="10.00">_graph.hpp</text>
</a>
</g>
</g>
<!-- Node7&#45;&gt;Node8 -->
<g id="edge14" class="edge"><title>Node7&#45;&gt;Node8</title>
<path fill="none" stroke="midnightblue" d="M834.587,-197.8C879.553,-186.273 947.363,-168.889 997.24,-156.102"/>
<polygon fill="midnightblue" stroke="midnightblue" points="998.147,-159.483 1006.96,-153.609 996.408,-152.702 998.147,-159.483"/>
</g>
<!-- Node9 -->
<g id="node10" class="node"><title>Node9</title>
<g id="a_node10"><a xlink:href="path_8hpp.html" target="_top" xlink:title=" ">
<polygon fill="white" stroke="black" points="713.5,-129 713.5,-148 796.5,-148 796.5,-129 713.5,-129"/>
<text text-anchor="middle" x="755" y="-136" font-family="Helvetica,sans-Serif" font-size="10.00">arlib/path.hpp</text>
</a>
</g>
</g>
<!-- Node7&#45;&gt;Node9 -->
<g id="edge15" class="edge"><title>Node7&#45;&gt;Node9</title>
<path fill="none" stroke="midnightblue" d="M780.524,-195.733C775.552,-184.779 768.651,-169.575 763.278,-157.738"/>
<polygon fill="midnightblue" stroke="midnightblue" points="766.357,-156.052 759.037,-148.393 759.983,-158.946 766.357,-156.052"/>
</g>
<!-- Node7&#45;&gt;Node12 -->
<g id="edge31" class="edge"><title>Node7&#45;&gt;Node12</title>
<path fill="none" stroke="midnightblue" d="M739.26,-207.098C662.955,-201.529 518.202,-186.853 480,-154 446.08,-124.828 441.363,-97.9175 457,-56 461.173,-44.8124 469.52,-34.5598 477.424,-26.6759"/>
<polygon fill="midnightblue" stroke="midnightblue" points="480.062,-29.0029 485.01,-19.6346 475.299,-23.8724 480.062,-29.0029"/>
</g>
<!-- Node7&#45;&gt;Node13 -->
<g id="edge27" class="edge"><title>Node7&#45;&gt;Node13</title>
<path fill="none" stroke="midnightblue" d="M811.367,-195.803C856.996,-169.219 954.755,-112.261 999.62,-86.122"/>
<polygon fill="midnightblue" stroke="midnightblue" points="1001.47,-89.0923 1008.35,-81.0339 997.95,-83.0439 1001.47,-89.0923"/>
</g>
<!-- Node15 -->
<g id="node16" class="node"><title>Node15</title>
<g id="a_node16"><a xlink:title=" ">
<polygon fill="white" stroke="#bfbfbf" points="531,-129 531,-148 583,-148 583,-129 531,-129"/>
<text text-anchor="middle" x="557" y="-136" font-family="Helvetica,sans-Serif" font-size="10.00">iterator</text>
</a>
</g>
</g>
<!-- Node7&#45;&gt;Node15 -->
<g id="edge28" class="edge"><title>Node7&#45;&gt;Node15</title>
<path fill="none" stroke="midnightblue" d="M739.244,-197.903C699.473,-187.444 641.543,-171.314 592,-154 590.091,-153.333 588.135,-152.617 586.172,-151.873"/>
<polygon fill="midnightblue" stroke="midnightblue" points="587.057,-148.459 576.471,-148.024 584.476,-154.965 587.057,-148.459"/>
</g>
<!-- Node16 -->
<g id="node17" class="node"><title>Node16</title>
<g id="a_node17"><a xlink:title=" ">
<polygon fill="white" stroke="#bfbfbf" points="601,-129 601,-148 657,-148 657,-129 601,-129"/>
<text text-anchor="middle" x="629" y="-136" font-family="Helvetica,sans-Serif" font-size="10.00">sstream</text>
</a>
</g>
</g>
<!-- Node7&#45;&gt;Node16 -->
<g id="edge29" class="edge"><title>Node7&#45;&gt;Node16</title>
<path fill="none" stroke="midnightblue" d="M755.406,-195.903C726.853,-183.162 685.189,-164.571 657.601,-152.262"/>
<polygon fill="midnightblue" stroke="midnightblue" points="658.683,-148.912 648.125,-148.034 655.831,-155.305 658.683,-148.912"/>
</g>
<!-- Node17 -->
<g id="node18" class="node"><title>Node17</title>
<g id="a_node18"><a xlink:title=" ">
<polygon fill="white" stroke="#bfbfbf" points="1240,-129 1240,-148 1304,-148 1304,-129 1240,-129"/>
<text text-anchor="middle" x="1272" y="-136" font-family="Helvetica,sans-Serif" font-size="10.00">stdexcept</text>
</a>
</g>
</g>
<!-- Node7&#45;&gt;Node17 -->
<g id="edge30" class="edge"><title>Node7&#45;&gt;Node17</title>
<path fill="none" stroke="midnightblue" d="M834.792,-204.051C910.645,-194.46 1063.2,-174.567 1192,-154 1204.31,-152.035 1217.64,-149.701 1229.82,-147.486"/>
<polygon fill="midnightblue" stroke="midnightblue" points="1230.54,-150.913 1239.74,-145.664 1229.28,-144.028 1230.54,-150.913"/>
</g>
<!-- Node18 -->
<g id="node19" class="node"><title>Node18</title>
<g id="a_node19"><a xlink:title=" ">
<polygon fill="white" stroke="#bfbfbf" points="1136.5,-129 1136.5,-148 1183.5,-148 1183.5,-129 1136.5,-129"/>
<text text-anchor="middle" x="1160" y="-136" font-family="Helvetica,sans-Serif" font-size="10.00">vector</text>
</a>
</g>
</g>
<!-- Node7&#45;&gt;Node18 -->
<g id="edge32" class="edge"><title>Node7&#45;&gt;Node18</title>
<path fill="none" stroke="midnightblue" d="M834.588,-205.958C901.118,-199.457 1025.21,-184.224 1127,-154 1129.14,-153.363 1131.33,-152.622 1133.51,-151.817"/>
<polygon fill="midnightblue" stroke="midnightblue" points="1134.9,-155.031 1142.84,-148.013 1132.26,-148.549 1134.9,-155.031"/>
</g>
<!-- Node9&#45;&gt;Node3 -->
<g id="edge23" class="edge"><title>Node9&#45;&gt;Node3</title>
<path fill="none" stroke="midnightblue" d="M733.089,-128.869C708.223,-119.073 666.991,-102.83 635.158,-90.2897"/>
<polygon fill="midnightblue" stroke="midnightblue" points="636.197,-86.9369 625.61,-86.5281 633.631,-93.4498 636.197,-86.9369"/>
</g>
<!-- Node9&#45;&gt;Node5 -->
<g id="edge24" class="edge"><title>Node9&#45;&gt;Node5</title>
<path fill="none" stroke="midnightblue" d="M764.482,-128.805C786.363,-108.812 839.257,-60.9031 849,-56 884.37,-38.2012 926.697,-27.3936 963.527,-20.8536"/>
<polygon fill="midnightblue" stroke="midnightblue" points="964.484,-24.2415 973.759,-19.12 963.315,-17.3398 964.484,-24.2415"/>
</g>
<!-- Node9&#45;&gt;Node6 -->
<g id="edge25" class="edge"><title>Node9&#45;&gt;Node6</title>
<path fill="none" stroke="midnightblue" d="M759.607,-128.982C768.3,-113.383 788.3,-79.6618 811,-56 822.206,-44.3195 836.677,-33.3719 848.6,-25.1997"/>
<polygon fill="midnightblue" stroke="midnightblue" points="850.739,-27.98 857.124,-19.5251 846.86,-22.153 850.739,-27.98"/>
</g>
<!-- Node10 -->
<g id="node11" class="node"><title>Node10</title>
<g id="a_node11"><a xlink:href="path__impl_8hpp.html" target="_top" xlink:title=" ">
<polygon fill="white" stroke="black" points="663,-56.5 663,-86.5 759,-86.5 759,-56.5 663,-56.5"/>
<text text-anchor="start" x="671" y="-74.5" font-family="Helvetica,sans-Serif" font-size="10.00">arlib/details/path</text>
<text text-anchor="middle" x="711" y="-63.5" font-family="Helvetica,sans-Serif" font-size="10.00">_impl.hpp</text>
</a>
</g>
</g>
<!-- Node9&#45;&gt;Node10 -->
<g id="edge16" class="edge"><title>Node9&#45;&gt;Node10</title>
<path fill="none" stroke="midnightblue" d="M749.066,-128.734C743.234,-120.118 734.09,-106.61 726.226,-94.9923"/>
<polygon fill="midnightblue" stroke="midnightblue" points="729.041,-92.9081 720.537,-86.589 723.244,-96.8321 729.041,-92.9081"/>
</g>
<!-- Node9&#45;&gt;Node13 -->
<g id="edge20" class="edge"><title>Node9&#45;&gt;Node13</title>
<path fill="none" stroke="midnightblue" d="M790.312,-128.936C838.516,-117.244 924.954,-96.2797 977.825,-83.4566"/>
<polygon fill="midnightblue" stroke="midnightblue" points="978.717,-86.8419 987.61,-81.0834 977.067,-80.0391 978.717,-86.8419"/>
</g>
<!-- Node9&#45;&gt;Node14 -->
<g id="edge26" class="edge"><title>Node9&#45;&gt;Node14</title>
<path fill="none" stroke="midnightblue" d="M713.246,-131.301C666.721,-123.707 589.663,-109.065 526,-87 524.384,-86.44 522.741,-85.8159 521.1,-85.1501"/>
<polygon fill="midnightblue" stroke="midnightblue" points="522.457,-81.923 511.899,-81.035 519.599,-88.313 522.457,-81.923"/>
</g>
<!-- Node10&#45;&gt;Node4 -->
<g id="edge17" class="edge"><title>Node10&#45;&gt;Node4</title>
<path fill="none" stroke="midnightblue" d="M759.002,-66.9419C802.361,-63.8008 867.931,-59.2313 925,-56 1251.36,-37.5208 1638.65,-21.6624 1816.21,-14.7296"/>
<polygon fill="midnightblue" stroke="midnightblue" points="1816.46,-18.2227 1826.32,-14.3359 1816.19,-11.228 1816.46,-18.2227"/>
</g>
<!-- Node11 -->
<g id="node12" class="node"><title>Node11</title>
<g id="a_node12"><a xlink:title=" ">
<polygon fill="white" stroke="#bfbfbf" points="682.5,-0.5 682.5,-19.5 739.5,-19.5 739.5,-0.5 682.5,-0.5"/>
<text text-anchor="middle" x="711" y="-7.5" font-family="Helvetica,sans-Serif" font-size="10.00">memory</text>
</a>
</g>
</g>
<!-- Node10&#45;&gt;Node11 -->
<g id="edge18" class="edge"><title>Node10&#45;&gt;Node11</title>
<path fill="none" stroke="midnightblue" d="M711,-56.3993C711,-48.4664 711,-38.458 711,-29.8583"/>
<polygon fill="midnightblue" stroke="midnightblue" points="714.5,-29.6577 711,-19.6578 707.5,-29.6578 714.5,-29.6577"/>
</g>
<!-- Node10&#45;&gt;Node12 -->
<g id="edge19" class="edge"><title>Node10&#45;&gt;Node12</title>
<path fill="none" stroke="midnightblue" d="M662.75,-57.147C624.726,-46.6241 572.319,-32.1208 536.466,-22.1988"/>
<polygon fill="midnightblue" stroke="midnightblue" points="537.39,-18.8229 526.819,-19.5289 535.523,-25.5693 537.39,-18.8229"/>
</g>
<!-- Node13&#45;&gt;Node5 -->
<g id="edge21" class="edge"><title>Node13&#45;&gt;Node5</title>
<path fill="none" stroke="midnightblue" d="M1027.15,-61.9751C1031.38,-53.3152 1038.04,-39.6486 1043.4,-28.6453"/>
<polygon fill="midnightblue" stroke="midnightblue" points="1046.62,-30.0317 1047.85,-19.5091 1040.33,-26.9648 1046.62,-30.0317"/>
</g>
<!-- Node13&#45;&gt;Node6 -->
<g id="edge22" class="edge"><title>Node13&#45;&gt;Node6</title>
<path fill="none" stroke="midnightblue" d="M1001.22,-61.9751C975.262,-51.8129 931.689,-34.7564 902.165,-23.1996"/>
<polygon fill="midnightblue" stroke="midnightblue" points="903.325,-19.8951 892.737,-19.5091 900.774,-26.4135 903.325,-19.8951"/>
</g>
<!-- Node19&#45;&gt;Node4 -->
<g id="edge34" class="edge"><title>Node19&#45;&gt;Node4</title>
<path fill="none" stroke="midnightblue" d="M1325.28,-273.558C1342.49,-271.532 1360.9,-269.531 1378,-268 1548.76,-252.717 2049.1,-298.724 2141,-154 2153.44,-134.413 2140.34,-66.7939 2130,-56 2113.33,-38.5992 2060.86,-27.4323 2011.81,-20.5752"/>
<polygon fill="midnightblue" stroke="midnightblue" points="2012.11,-17.0844 2001.74,-19.2187 2011.18,-24.0218 2012.11,-17.0844"/>
</g>
<!-- Node19&#45;&gt;Node5 -->
<g id="edge35" class="edge"><title>Node19&#45;&gt;Node5</title>
<path fill="none" stroke="midnightblue" d="M1269.15,-268.253C1294.45,-239.054 1344.72,-171.124 1313,-123 1272.9,-62.1604 1192.13,-34.2398 1131,-21.506"/>
<polygon fill="midnightblue" stroke="midnightblue" points="1131.48,-18.0319 1120.99,-19.5175 1130.11,-24.8979 1131.48,-18.0319"/>
</g>
<!-- Node19&#45;&gt;Node6 -->
<g id="edge36" class="edge"><title>Node19&#45;&gt;Node6</title>
<path fill="none" stroke="midnightblue" d="M1209.22,-268.414C1181.73,-259.428 1146.67,-246.72 1117,-232 1059.68,-203.564 1044.42,-195.829 996,-154 949.393,-113.735 904.253,-56.0997 883.251,-27.8773"/>
<polygon fill="midnightblue" stroke="midnightblue" points="886.056,-25.7846 877.309,-19.807 880.419,-29.9349 886.056,-25.7846"/>
</g>
<!-- Node19&#45;&gt;Node7 -->
<g id="edge38" class="edge"><title>Node19&#45;&gt;Node7</title>
<path fill="none" stroke="midnightblue" d="M1186.78,-274.314C1112.48,-265.228 991.094,-249.515 887,-232 873.232,-229.683 858.457,-226.896 844.602,-224.148"/>
<polygon fill="midnightblue" stroke="midnightblue" points="845.197,-220.698 834.703,-222.161 843.819,-227.561 845.197,-220.698"/>
</g>
<!-- Node19&#45;&gt;Node8 -->
<g id="edge37" class="edge"><title>Node19&#45;&gt;Node8</title>
<path fill="none" stroke="midnightblue" d="M1230.69,-268.408C1213.92,-258.76 1191.66,-245.341 1173,-232 1141.19,-209.262 1106.97,-179.924 1085.07,-160.451"/>
<polygon fill="midnightblue" stroke="midnightblue" points="1087.37,-157.812 1077.58,-153.753 1082.7,-163.029 1087.37,-157.812"/>
</g>
<!-- Node19&#45;&gt;Node13 -->
<g id="edge57" class="edge"><title>Node19&#45;&gt;Node13</title>
<path fill="none" stroke="midnightblue" d="M1254.42,-268.252C1250.2,-237.205 1235.86,-163.027 1192,-123 1164,-97.4473 1123.57,-84.7986 1089.27,-78.5492"/>
<polygon fill="midnightblue" stroke="midnightblue" points="1089.75,-75.0812 1079.31,-76.8794 1088.6,-81.9848 1089.75,-75.0812"/>
</g>
<!-- Node19&#45;&gt;Node18 -->
<g id="edge60" class="edge"><title>Node19&#45;&gt;Node18</title>
<path fill="none" stroke="midnightblue" d="M1235.31,-268.304C1223.14,-259.104 1208.19,-246.214 1198,-232 1181.43,-208.894 1170.51,-177.496 1164.79,-157.871"/>
<polygon fill="midnightblue" stroke="midnightblue" points="1168.12,-156.774 1162.08,-148.067 1161.37,-158.638 1168.12,-156.774"/>
</g>
<!-- Node20 -->
<g id="node21" class="node"><title>Node20</title>
<g id="a_node21"><a xlink:href="bidirectional__dijkstra__impl_8hpp.html" target="_top" xlink:title=" ">
<polygon fill="white" stroke="black" points="1526.5,-190.5 1526.5,-231.5 1639.5,-231.5 1639.5,-190.5 1526.5,-190.5"/>
<text text-anchor="start" x="1534.5" y="-219.5" font-family="Helvetica,sans-Serif" font-size="10.00">arlib/routing_kernels</text>
<text text-anchor="start" x="1534.5" y="-208.5" font-family="Helvetica,sans-Serif" font-size="10.00">/details/bidirectional</text>
<text text-anchor="middle" x="1583" y="-197.5" font-family="Helvetica,sans-Serif" font-size="10.00">_dijkstra_impl.hpp</text>
</a>
</g>
</g>
<!-- Node19&#45;&gt;Node20 -->
<g id="edge39" class="edge"><title>Node19&#45;&gt;Node20</title>
<path fill="none" stroke="midnightblue" d="M1321,-268.487C1377.57,-256.289 1459.24,-238.682 1516.31,-226.378"/>
<polygon fill="midnightblue" stroke="midnightblue" points="1517.28,-229.75 1526.31,-224.221 1515.8,-222.908 1517.28,-229.75"/>
</g>
<!-- Node22 -->
<g id="node23" class="node"><title>Node22</title>
<g id="a_node23"><a xlink:href="visitor_8hpp.html" target="_top" xlink:title=" ">
<polygon fill="white" stroke="black" points="2001.5,-123.5 2001.5,-153.5 2114.5,-153.5 2114.5,-123.5 2001.5,-123.5"/>
<text text-anchor="start" x="2009.5" y="-141.5" font-family="Helvetica,sans-Serif" font-size="10.00">arlib/routing_kernels</text>
<text text-anchor="middle" x="2058" y="-130.5" font-family="Helvetica,sans-Serif" font-size="10.00">/visitor.hpp</text>
</a>
</g>
</g>
<!-- Node19&#45;&gt;Node22 -->
<g id="edge56" class="edge"><title>Node19&#45;&gt;Node22</title>
<path fill="none" stroke="midnightblue" d="M1325.01,-274.058C1342.3,-272.008 1360.82,-269.87 1378,-268 1539.61,-250.406 1582.41,-262.969 1742,-232 1838.21,-213.329 1947.3,-178.176 2008.85,-156.993"/>
<polygon fill="midnightblue" stroke="midnightblue" points="2010.37,-160.17 2018.68,-153.591 2008.08,-153.555 2010.37,-160.17"/>
</g>
<!-- Node19&#45;&gt;Node23 -->
<g id="edge59" class="edge"><title>Node19&#45;&gt;Node23</title>
<path fill="none" stroke="midnightblue" d="M1325.3,-273.781C1342.51,-271.75 1360.91,-269.689 1378,-268 1580.31,-247.999 1633.66,-266.548 1834,-232 1965.53,-209.319 2042.8,-259.927 2124,-154 2138.67,-134.86 2124.81,-106.925 2112.88,-89.2355"/>
<polygon fill="midnightblue" stroke="midnightblue" points="2115.66,-87.0996 2106.98,-81.0201 2109.97,-91.1837 2115.66,-87.0996"/>
</g>
<!-- Node24 -->
<g id="node25" class="node"><title>Node24</title>
<g id="a_node25"><a xlink:title=" ">
<polygon fill="white" stroke="#bfbfbf" points="1936.5,-129 1936.5,-148 1983.5,-148 1983.5,-129 1936.5,-129"/>
<text text-anchor="middle" x="1960" y="-136" font-family="Helvetica,sans-Serif" font-size="10.00">deque</text>
</a>
</g>
</g>
<!-- Node19&#45;&gt;Node24 -->
<g id="edge58" class="edge"><title>Node19&#45;&gt;Node24</title>
<path fill="none" stroke="midnightblue" d="M1325.09,-274.175C1429.13,-261.554 1617.17,-238.368 1648,-232 1771.16,-206.56 1800.37,-192.786 1920,-154 1922.55,-153.174 1925.17,-152.292 1927.81,-151.385"/>
<polygon fill="midnightblue" stroke="midnightblue" points="1928.98,-154.682 1937.25,-148.053 1926.65,-148.081 1928.98,-154.682"/>
</g>
<!-- Node20&#45;&gt;Node4 -->
<g id="edge40" class="edge"><title>Node20&#45;&gt;Node4</title>
<path fill="none" stroke="midnightblue" d="M1639.74,-191.098C1641.17,-190.717 1642.59,-190.351 1644,-190 1734.6,-167.394 1777.46,-211.548 1851,-154 1890.96,-122.73 1906.16,-60.8233 1911.45,-29.7362"/>
<polygon fill="midnightblue" stroke="midnightblue" points="1914.92,-30.2068 1912.97,-19.7913 1908,-29.1438 1914.92,-30.2068"/>
</g>
<!-- Node20&#45;&gt;Node5 -->
<g id="edge41" class="edge"><title>Node20&#45;&gt;Node5</title>
<path fill="none" stroke="midnightblue" d="M1526.49,-192.74C1505.07,-183.93 1481.82,-171.328 1465,-154 1431.87,-119.873 1460.17,-84.3733 1422,-56 1378.78,-23.877 1235.37,-14.5022 1140.31,-11.8744"/>
<polygon fill="midnightblue" stroke="midnightblue" points="1140.2,-8.37063 1130.12,-11.6132 1140.02,-15.3683 1140.2,-8.37063"/>
</g>
<!-- Node20&#45;&gt;Node6 -->
<g id="edge42" class="edge"><title>Node20&#45;&gt;Node6</title>
<path fill="none" stroke="midnightblue" d="M1534.66,-190.336C1487.7,-171.636 1414.14,-143.409 1349,-123 1234.72,-87.1944 1204.67,-83.0552 1088,-56 1032.71,-43.1786 969.092,-30.192 925.097,-21.4876"/>
<polygon fill="midnightblue" stroke="midnightblue" points="925.675,-18.0342 915.187,-19.5335 924.321,-24.902 925.675,-18.0342"/>
</g>
<!-- Node20&#45;&gt;Node8 -->
<g id="edge43" class="edge"><title>Node20&#45;&gt;Node8</title>
<path fill="none" stroke="midnightblue" d="M1526.22,-204.82C1441.66,-196.709 1277.44,-179.444 1128.87,-154.23"/>
<polygon fill="midnightblue" stroke="midnightblue" points="1129.1,-150.719 1118.66,-152.479 1127.92,-157.618 1129.1,-150.719"/>
</g>
<!-- Node20&#45;&gt;Node13 -->
<g id="edge49" class="edge"><title>Node20&#45;&gt;Node13</title>
<path fill="none" stroke="midnightblue" d="M1526.42,-202.216C1479.24,-194.295 1411.08,-179.477 1356,-154 1334.62,-144.109 1334.71,-132.143 1313,-123 1240.2,-92.3486 1149.6,-80.3008 1089.23,-75.5656"/>
<polygon fill="midnightblue" stroke="midnightblue" points="1089.29,-72.061 1079.06,-74.815 1088.78,-79.042 1089.29,-72.061"/>
</g>
<!-- Node20&#45;&gt;Node18 -->
<g id="edge55" class="edge"><title>Node20&#45;&gt;Node18</title>
<path fill="none" stroke="midnightblue" d="M1526.48,-201.785C1456.84,-191.485 1334.96,-172.876 1231,-154 1218.75,-151.775 1205.35,-149.102 1193.53,-146.661"/>
<polygon fill="midnightblue" stroke="midnightblue" points="1194.12,-143.209 1183.62,-144.592 1192.69,-150.061 1194.12,-143.209"/>
</g>
<!-- Node21 -->
<g id="node22" class="node"><title>Node21</title>
<g id="a_node22"><a xlink:title=" ">
<polygon fill="white" stroke="#bfbfbf" points="1474,-123.5 1474,-153.5 1588,-153.5 1588,-123.5 1474,-123.5"/>
<text text-anchor="start" x="1482" y="-141.5" font-family="Helvetica,sans-Serif" font-size="10.00">boost/property_map</text>
<text text-anchor="middle" x="1531" y="-130.5" font-family="Helvetica,sans-Serif" font-size="10.00">/property_map.hpp</text>
</a>
</g>
</g>
<!-- Node20&#45;&gt;Node21 -->
<g id="edge44" class="edge"><title>Node20&#45;&gt;Node21</title>
<path fill="none" stroke="midnightblue" d="M1568.52,-190.362C1562.05,-181.593 1554.39,-171.209 1547.68,-162.118"/>
<polygon fill="midnightblue" stroke="midnightblue" points="1550.37,-159.862 1541.62,-153.892 1544.73,-164.017 1550.37,-159.862"/>
</g>
<!-- Node20&#45;&gt;Node22 -->
<g id="edge45" class="edge"><title>Node20&#45;&gt;Node22</title>
<path fill="none" stroke="midnightblue" d="M1639.61,-203.788C1716.91,-194.969 1859.99,-177.449 1991.11,-154.258"/>
<polygon fill="midnightblue" stroke="midnightblue" points="1992.11,-157.636 2001.34,-152.434 1990.88,-150.745 1992.11,-157.636"/>
</g>
<!-- Node20&#45;&gt;Node23 -->
<g id="edge52" class="edge"><title>Node20&#45;&gt;Node23</title>
<path fill="none" stroke="midnightblue" d="M1639.71,-206.69C1701.81,-201.438 1803.3,-188.009 1884,-154 1906.04,-144.71 1906.46,-133.398 1928,-123 1974.61,-100.504 2033.24,-85.9248 2068.61,-78.4698"/>
<polygon fill="midnightblue" stroke="midnightblue" points="2069.71,-81.8182 2078.8,-76.384 2068.3,-74.9604 2069.71,-81.8182"/>
</g>
<!-- Node20&#45;&gt;Node24 -->
<g id="edge50" class="edge"><title>Node20&#45;&gt;Node24</title>
<path fill="none" stroke="midnightblue" d="M1639.53,-204.181C1707.43,-196.387 1824.4,-180.396 1922,-154 1924.66,-153.282 1927.38,-152.446 1930.1,-151.545"/>
<polygon fill="midnightblue" stroke="midnightblue" points="1931.51,-154.76 1939.74,-148.093 1929.14,-148.17 1931.51,-154.76"/>
</g>
<!-- Node25 -->
<g id="node26" class="node"><title>Node25</title>
<g id="a_node26"><a xlink:title=" ">
<polygon fill="white" stroke="#bfbfbf" points="1606.5,-129 1606.5,-148 1665.5,-148 1665.5,-129 1606.5,-129"/>
<text text-anchor="middle" x="1636" y="-136" font-family="Helvetica,sans-Serif" font-size="10.00">iostream</text>
</a>
</g>
</g>
<!-- Node20&#45;&gt;Node25 -->
<g id="edge51" class="edge"><title>Node20&#45;&gt;Node25</title>
<path fill="none" stroke="midnightblue" d="M1597.76,-190.362C1605.82,-179.648 1615.69,-166.522 1623.38,-156.289"/>
<polygon fill="midnightblue" stroke="midnightblue" points="1626.27,-158.27 1629.48,-148.173 1620.67,-154.063 1626.27,-158.27"/>
</g>
<!-- Node26 -->
<g id="node27" class="node"><title>Node26</title>
<g id="a_node27"><a xlink:title=" ">
<polygon fill="white" stroke="#bfbfbf" points="1683.5,-129 1683.5,-148 1730.5,-148 1730.5,-129 1683.5,-129"/>
<text text-anchor="middle" x="1707" y="-136" font-family="Helvetica,sans-Serif" font-size="10.00">queue</text>
</a>
</g>
</g>
<!-- Node20&#45;&gt;Node26 -->
<g id="edge53" class="edge"><title>Node20&#45;&gt;Node26</title>
<path fill="none" stroke="midnightblue" d="M1617.54,-190.362C1638.38,-178.511 1664.42,-163.711 1683.02,-153.137"/>
<polygon fill="midnightblue" stroke="midnightblue" points="1684.78,-156.159 1691.74,-148.173 1681.32,-150.073 1684.78,-156.159"/>
</g>
<!-- Node27 -->
<g id="node28" class="node"><title>Node27</title>
<g id="a_node28"><a xlink:title=" ">
<polygon fill="white" stroke="#bfbfbf" points="1748.5,-129 1748.5,-148 1841.5,-148 1841.5,-129 1748.5,-129"/>
<text text-anchor="middle" x="1795" y="-136" font-family="Helvetica,sans-Serif" font-size="10.00">unordered_map</text>
</a>
</g>
</g>
<!-- Node20&#45;&gt;Node27 -->
<g id="edge54" class="edge"><title>Node20&#45;&gt;Node27</title>
<path fill="none" stroke="midnightblue" d="M1639.53,-191.2C1677.77,-178.484 1727.08,-162.085 1759.81,-151.204"/>
<polygon fill="midnightblue" stroke="midnightblue" points="1761.01,-154.491 1769.4,-148.014 1758.8,-147.848 1761.01,-154.491"/>
</g>
<!-- Node22&#45;&gt;Node4 -->
<g id="edge46" class="edge"><title>Node22&#45;&gt;Node4</title>
<path fill="none" stroke="midnightblue" d="M2042.04,-123.479C2014.85,-99.5912 1959.75,-51.1866 1931.52,-26.394"/>
<polygon fill="midnightblue" stroke="midnightblue" points="1933.83,-23.7589 1924,-19.7885 1929.21,-29.0179 1933.83,-23.7589"/>
</g>
<!-- Node22&#45;&gt;Node12 -->
<g id="edge48" class="edge"><title>Node22&#45;&gt;Node12</title>
<path fill="none" stroke="midnightblue" d="M2001.37,-124.36C1998.55,-123.865 1995.74,-123.407 1993,-123 1705.29,-80.3762 781.349,-26.9414 549.274,-13.9464"/>
<polygon fill="midnightblue" stroke="midnightblue" points="549.249,-10.4396 539.069,-13.3761 548.858,-17.4287 549.249,-10.4396"/>
</g>
<!-- Node22&#45;&gt;Node23 -->
<g id="edge47" class="edge"><title>Node22&#45;&gt;Node23</title>
<path fill="none" stroke="midnightblue" d="M2067.11,-123.396C2073.47,-113.562 2081.99,-100.378 2088.76,-89.892"/>
<polygon fill="midnightblue" stroke="midnightblue" points="2091.89,-91.4932 2094.38,-81.1945 2086.02,-87.6942 2091.89,-91.4932"/>
</g>
<!-- Node29&#45;&gt;Node17 -->
<g id="edge64" class="edge"><title>Node29&#45;&gt;Node17</title>
<path fill="none" stroke="midnightblue" d="M1435.64,-273.983C1407.05,-250.492 1326.82,-184.549 1290.39,-154.617"/>
<polygon fill="midnightblue" stroke="midnightblue" points="1292.48,-151.799 1282.53,-148.153 1288.03,-157.207 1292.48,-151.799"/>
</g>
<!-- Node30 -->
<g id="node31" class="node"><title>Node30</title>
<g id="a_node31"><a xlink:title=" ">
<polygon fill="white" stroke="#bfbfbf" points="2141,-201.5 2141,-220.5 2191,-220.5 2191,-201.5 2141,-201.5"/>
<text text-anchor="middle" x="2166" y="-208.5" font-family="Helvetica,sans-Serif" font-size="10.00">chrono</text>
</a>
</g>
</g>
<!-- Node29&#45;&gt;Node30 -->
<g id="edge63" class="edge"><title>Node29&#45;&gt;Node30</title>
<path fill="none" stroke="midnightblue" d="M1504.73,-281.138C1647.71,-277.342 2010.66,-264.693 2127,-232 2132.59,-230.43 2138.3,-228.022 2143.58,-225.413"/>
<polygon fill="midnightblue" stroke="midnightblue" points="2145.32,-228.451 2152.48,-220.638 2142.01,-222.283 2145.32,-228.451"/>
</g>
</g>
</svg>
