<?xml version="1.0" encoding="UTF-8" standalone="no"?>
<!DOCTYPE svg PUBLIC "-//W3C//DTD SVG 1.1//EN"
 "http://www.w3.org/Graphics/SVG/1.1/DTD/svg11.dtd">
<!-- Generated by graphviz version 2.38.0 (20140413.2041)
 -->
<!-- Title: include/arlib/graph_utils.hpp Pages: 1 -->
<svg width="1466pt" height="240pt"
 viewBox="0.00 0.00 1465.50 240.00" xmlns="http://www.w3.org/2000/svg" xmlns:xlink="http://www.w3.org/1999/xlink">
<g id="graph0" class="graph" transform="scale(1 1) rotate(0) translate(4 236)">
<title>include/arlib/graph_utils.hpp</title>
<polygon fill="white" stroke="none" points="-4,4 -4,-236 1461.5,-236 1461.5,4 -4,4"/>
<!-- Node0 -->
<g id="node1" class="node"><title>Node0</title>
<g id="a_node1"><a xlink:title=" ">
<polygon fill="#bfbfbf" stroke="black" points="648,-201.5 648,-231.5 752,-231.5 752,-201.5 648,-201.5"/>
<text text-anchor="start" x="656" y="-219.5" font-family="Helvetica,sans-Serif" font-size="10.00">include/arlib/graph</text>
<text text-anchor="middle" x="700" y="-208.5" font-family="Helvetica,sans-Serif" font-size="10.00">_utils.hpp</text>
</a>
</g>
</g>
<!-- Node1 -->
<g id="node2" class="node"><title>Node1</title>
<g id="a_node2"><a xlink:title=" ">
<polygon fill="white" stroke="#bfbfbf" points="0,-140 0,-159 62,-159 62,-140 0,-140"/>
<text text-anchor="middle" x="31" y="-147" font-family="Helvetica,sans-Serif" font-size="10.00">algorithm</text>
</a>
</g>
</g>
<!-- Node0&#45;&gt;Node1 -->
<g id="edge1" class="edge"><title>Node0&#45;&gt;Node1</title>
<path fill="none" stroke="midnightblue" d="M647.951,-215.991C539.378,-215.999 281.363,-210.705 71,-165 67.7518,-164.294 64.4096,-163.389 61.1068,-162.375"/>
<polygon fill="midnightblue" stroke="midnightblue" points="62.0442,-158.997 51.4499,-159.103 59.7979,-165.627 62.0442,-158.997"/>
</g>
<!-- Node2 -->
<g id="node3" class="node"><title>Node2</title>
<g id="a_node3"><a xlink:title=" ">
<polygon fill="white" stroke="#bfbfbf" points="80.5,-140 80.5,-159 145.5,-159 145.5,-140 80.5,-140"/>
<text text-anchor="middle" x="113" y="-147" font-family="Helvetica,sans-Serif" font-size="10.00">filesystem</text>
</a>
</g>
</g>
<!-- Node0&#45;&gt;Node2 -->
<g id="edge2" class="edge"><title>Node0&#45;&gt;Node2</title>
<path fill="none" stroke="midnightblue" d="M647.902,-214.813C550.169,-212.614 333.112,-203.413 155,-165 151.501,-164.245 147.89,-163.288 144.323,-162.226"/>
<polygon fill="midnightblue" stroke="midnightblue" points="145.108,-158.801 134.516,-159.037 142.944,-165.458 145.108,-158.801"/>
</g>
<!-- Node3 -->
<g id="node4" class="node"><title>Node3</title>
<g id="a_node4"><a xlink:title=" ">
<polygon fill="white" stroke="#bfbfbf" points="164,-140 164,-159 218,-159 218,-140 164,-140"/>
<text text-anchor="middle" x="191" y="-147" font-family="Helvetica,sans-Serif" font-size="10.00">fstream</text>
</a>
</g>
</g>
<!-- Node0&#45;&gt;Node3 -->
<g id="edge3" class="edge"><title>Node0&#45;&gt;Node3</title>
<path fill="none" stroke="midnightblue" d="M647.739,-214.613C559.666,-212.083 376.635,-202.353 227,-165 224.334,-164.334 221.604,-163.513 218.898,-162.602"/>
<polygon fill="midnightblue" stroke="midnightblue" points="219.951,-159.259 209.359,-159.031 217.497,-165.815 219.951,-159.259"/>
</g>
<!-- Node4 -->
<g id="node5" class="node"><title>Node4</title>
<g id="a_node5"><a xlink:title=" ">
<polygon fill="white" stroke="#bfbfbf" points="236.5,-140 236.5,-159 295.5,-159 295.5,-140 236.5,-140"/>
<text text-anchor="middle" x="266" y="-147" font-family="Helvetica,sans-Serif" font-size="10.00">iostream</text>
</a>
</g>
</g>
<!-- Node0&#45;&gt;Node4 -->
<g id="edge4" class="edge"><title>Node0&#45;&gt;Node4</title>
<path fill="none" stroke="midnightblue" d="M647.861,-212.64C571.618,-207.606 425.661,-194.727 305,-165 302.01,-164.263 298.935,-163.37 295.885,-162.393"/>
<polygon fill="midnightblue" stroke="midnightblue" points="296.963,-159.062 286.369,-159.073 294.658,-165.671 296.963,-159.062"/>
</g>
<!-- Node5 -->
<g id="node6" class="node"><title>Node5</title>
<g id="a_node6"><a xlink:title=" ">
<polygon fill="white" stroke="#bfbfbf" points="313.5,-140 313.5,-159 368.5,-159 368.5,-140 313.5,-140"/>
<text text-anchor="middle" x="341" y="-147" font-family="Helvetica,sans-Serif" font-size="10.00">optional</text>
</a>
</g>
</g>
<!-- Node0&#45;&gt;Node5 -->
<g id="edge5" class="edge"><title>Node0&#45;&gt;Node5</title>
<path fill="none" stroke="midnightblue" d="M647.966,-210.862C583.692,-204.332 471.396,-190.299 378,-165 375.405,-164.297 372.743,-163.472 370.094,-162.579"/>
<polygon fill="midnightblue" stroke="midnightblue" points="371.296,-159.292 360.702,-159.138 368.888,-165.865 371.296,-159.292"/>
</g>
<!-- Node6 -->
<g id="node7" class="node"><title>Node6</title>
<g id="a_node7"><a xlink:title=" ">
<polygon fill="white" stroke="#bfbfbf" points="387,-140 387,-159 443,-159 443,-140 387,-140"/>
<text text-anchor="middle" x="415" y="-147" font-family="Helvetica,sans-Serif" font-size="10.00">sstream</text>
</a>
</g>
</g>
<!-- Node0&#45;&gt;Node6 -->
<g id="edge6" class="edge"><title>Node0&#45;&gt;Node6</title>
<path fill="none" stroke="midnightblue" d="M647.585,-207.531C596.945,-199.2 518.37,-184.603 452,-165 449.568,-164.282 447.072,-163.471 444.581,-162.609"/>
<polygon fill="midnightblue" stroke="midnightblue" points="445.73,-159.302 435.136,-159.118 443.303,-165.868 445.73,-159.302"/>
</g>
<!-- Node7 -->
<g id="node8" class="node"><title>Node7</title>
<g id="a_node8"><a xlink:title=" ">
<polygon fill="white" stroke="#bfbfbf" points="461,-140 461,-159 503,-159 503,-140 461,-140"/>
<text text-anchor="middle" x="482" y="-147" font-family="Helvetica,sans-Serif" font-size="10.00">stack</text>
</a>
</g>
</g>
<!-- Node0&#45;&gt;Node7 -->
<g id="edge7" class="edge"><title>Node0&#45;&gt;Node7</title>
<path fill="none" stroke="midnightblue" d="M647.713,-204.241C609.527,-195.351 556.817,-181.682 512,-165 510.577,-164.47 509.13,-163.897 507.68,-163.294"/>
<polygon fill="midnightblue" stroke="midnightblue" points="508.817,-159.967 498.262,-159.046 505.939,-166.348 508.817,-159.967"/>
</g>
<!-- Node8 -->
<g id="node9" class="node"><title>Node8</title>
<g id="a_node9"><a xlink:title=" ">
<polygon fill="white" stroke="#bfbfbf" points="521,-140 521,-159 565,-159 565,-140 521,-140"/>
<text text-anchor="middle" x="543" y="-147" font-family="Helvetica,sans-Serif" font-size="10.00">string</text>
</a>
</g>
</g>
<!-- Node0&#45;&gt;Node8 -->
<g id="edge8" class="edge"><title>Node0&#45;&gt;Node8</title>
<path fill="none" stroke="midnightblue" d="M664.006,-201.417C638.941,-191.498 604.798,-177.764 575,-165 573.633,-164.415 572.237,-163.809 570.829,-163.193"/>
<polygon fill="midnightblue" stroke="midnightblue" points="572.115,-159.934 561.555,-159.065 569.268,-166.329 572.115,-159.934"/>
</g>
<!-- Node9 -->
<g id="node10" class="node"><title>Node9</title>
<g id="a_node10"><a xlink:title=" ">
<polygon fill="white" stroke="#bfbfbf" points="583.5,-140 583.5,-159 652.5,-159 652.5,-140 583.5,-140"/>
<text text-anchor="middle" x="618" y="-147" font-family="Helvetica,sans-Serif" font-size="10.00">string_view</text>
</a>
</g>
</g>
<!-- Node0&#45;&gt;Node9 -->
<g id="edge9" class="edge"><title>Node0&#45;&gt;Node9</title>
<path fill="none" stroke="midnightblue" d="M682.207,-201.396C668.915,-190.86 650.771,-176.477 637.161,-165.689"/>
<polygon fill="midnightblue" stroke="midnightblue" points="638.979,-162.664 628.968,-159.195 634.631,-168.149 638.979,-162.664"/>
</g>
<!-- Node10 -->
<g id="node11" class="node"><title>Node10</title>
<g id="a_node11"><a xlink:title=" ">
<polygon fill="white" stroke="#bfbfbf" points="728,-6 728,-25 814,-25 814,-6 728,-6"/>
<text text-anchor="middle" x="771" y="-13" font-family="Helvetica,sans-Serif" font-size="10.00">unordered_set</text>
</a>
</g>
</g>
<!-- Node0&#45;&gt;Node10 -->
<g id="edge10" class="edge"><title>Node0&#45;&gt;Node10</title>
<path fill="none" stroke="midnightblue" d="M711.172,-201.208C718.307,-191.474 727.261,-178.037 733,-165 752.593,-120.49 763.577,-63.8557 768.259,-35.0873"/>
<polygon fill="midnightblue" stroke="midnightblue" points="771.719,-35.6162 769.796,-25.1974 764.802,-34.5413 771.719,-35.6162"/>
</g>
<!-- Node11 -->
<g id="node12" class="node"><title>Node11</title>
<g id="a_node12"><a xlink:title=" ">
<polygon fill="white" stroke="#bfbfbf" points="1255.5,-140 1255.5,-159 1302.5,-159 1302.5,-140 1255.5,-140"/>
<text text-anchor="middle" x="1279" y="-147" font-family="Helvetica,sans-Serif" font-size="10.00">vector</text>
</a>
</g>
</g>
<!-- Node0&#45;&gt;Node11 -->
<g id="edge11" class="edge"><title>Node0&#45;&gt;Node11</title>
<path fill="none" stroke="midnightblue" d="M752.217,-215.301C849.614,-213.905 1065.06,-205.972 1241,-165 1244,-164.302 1247.08,-163.421 1250.12,-162.44"/>
<polygon fill="midnightblue" stroke="midnightblue" points="1251.35,-165.718 1259.6,-159.065 1249,-159.124 1251.35,-165.718"/>
</g>
<!-- Node12 -->
<g id="node13" class="node"><title>Node12</title>
<g id="a_node13"><a xlink:title=" ">
<polygon fill="white" stroke="#bfbfbf" points="823,-67.5 823,-97.5 933,-97.5 933,-67.5 823,-67.5"/>
<text text-anchor="start" x="831" y="-85.5" font-family="Helvetica,sans-Serif" font-size="10.00">boost/graph/filtered</text>
<text text-anchor="middle" x="878" y="-74.5" font-family="Helvetica,sans-Serif" font-size="10.00">_graph.hpp</text>
</a>
</g>
</g>
<!-- Node0&#45;&gt;Node12 -->
<g id="edge12" class="edge"><title>Node0&#45;&gt;Node12</title>
<path fill="none" stroke="midnightblue" d="M740.907,-201.464C762.424,-192.911 788.512,-180.61 809,-165 830.725,-148.448 850.296,-123.956 862.998,-106.145"/>
<polygon fill="midnightblue" stroke="midnightblue" points="866.16,-107.727 868.989,-97.5165 860.411,-103.734 866.16,-107.727"/>
</g>
<!-- Node13 -->
<g id="node14" class="node"><title>Node13</title>
<g id="a_node14"><a xlink:title=" ">
<polygon fill="white" stroke="#bfbfbf" points="459.5,-6 459.5,-25 634.5,-25 634.5,-6 459.5,-6"/>
<text text-anchor="middle" x="547" y="-13" font-family="Helvetica,sans-Serif" font-size="10.00">boost/graph/graph_concepts.hpp</text>
</a>
</g>
</g>
<!-- Node0&#45;&gt;Node13 -->
<g id="edge13" class="edge"><title>Node0&#45;&gt;Node13</title>
<path fill="none" stroke="midnightblue" d="M701.019,-201.483C701.569,-184.097 700.094,-154.276 686,-134 667.814,-107.836 648.977,-117.785 624,-98 599.182,-78.3412 574.818,-50.7641 560.349,-33.2659"/>
<polygon fill="midnightblue" stroke="midnightblue" points="562.759,-30.6812 553.735,-25.1295 557.327,-35.0968 562.759,-30.6812"/>
</g>
<!-- Node14 -->
<g id="node15" class="node"><title>Node14</title>
<g id="a_node15"><a xlink:title=" ">
<polygon fill="white" stroke="#bfbfbf" points="859,-6 859,-25 1015,-25 1015,-6 859,-6"/>
<text text-anchor="middle" x="937" y="-13" font-family="Helvetica,sans-Serif" font-size="10.00">boost/graph/graph_traits.hpp</text>
</a>
</g>
</g>
<!-- Node0&#45;&gt;Node14 -->
<g id="edge14" class="edge"><title>Node0&#45;&gt;Node14</title>
<path fill="none" stroke="midnightblue" d="M716.454,-201.372C727.21,-191.708 741.211,-178.286 752,-165 784.491,-124.99 774.518,-100.13 814,-67 836.245,-48.3332 866.33,-35.8176 891.177,-27.9154"/>
<polygon fill="midnightblue" stroke="midnightblue" points="892.211,-31.2596 900.765,-25.0088 890.18,-24.5606 892.211,-31.2596"/>
</g>
<!-- Node15 -->
<g id="node16" class="node"><title>Node15</title>
<g id="a_node16"><a xlink:title=" ">
<polygon fill="white" stroke="#bfbfbf" points="1033.5,-6 1033.5,-25 1180.5,-25 1180.5,-6 1033.5,-6"/>
<text text-anchor="middle" x="1107" y="-13" font-family="Helvetica,sans-Serif" font-size="10.00">boost/graph/properties.hpp</text>
</a>
</g>
</g>
<!-- Node0&#45;&gt;Node15 -->
<g id="edge15" class="edge"><title>Node0&#45;&gt;Node15</title>
<path fill="none" stroke="midnightblue" d="M752.206,-213.989C874.574,-209.929 1171.95,-196.856 1203,-165 1233.44,-133.77 1230.93,-104.099 1208,-67 1196.31,-48.0826 1175.15,-36.0146 1155.2,-28.4404"/>
<polygon fill="midnightblue" stroke="midnightblue" points="1156.15,-25.0646 1145.56,-25.0728 1153.85,-31.6734 1156.15,-25.0646"/>
</g>
<!-- Node16 -->
<g id="node17" class="node"><title>Node16</title>
<g id="a_node17"><a xlink:href="graph__types_8hpp.html" target="_top" xlink:title=" ">
<polygon fill="white" stroke="black" points="1074,-140 1074,-159 1194,-159 1194,-140 1074,-140"/>
<text text-anchor="middle" x="1134" y="-147" font-family="Helvetica,sans-Serif" font-size="10.00">arlib/graph_types.hpp</text>
</a>
</g>
</g>
<!-- Node0&#45;&gt;Node16 -->
<g id="edge16" class="edge"><title>Node0&#45;&gt;Node16</title>
<path fill="none" stroke="midnightblue" d="M752.25,-208.42C820.717,-199.038 944.492,-181.715 1050,-165 1058.4,-163.669 1067.27,-162.204 1075.97,-160.732"/>
<polygon fill="midnightblue" stroke="midnightblue" points="1076.79,-164.142 1086.06,-159.01 1075.62,-157.242 1076.79,-164.142"/>
</g>
<!-- Node18 -->
<g id="node19" class="node"><title>Node18</title>
<g id="a_node19"><a xlink:href="path_8hpp.html" target="_top" xlink:title=" ">
<polygon fill="white" stroke="black" points="919.5,-140 919.5,-159 1002.5,-159 1002.5,-140 919.5,-140"/>
<text text-anchor="middle" x="961" y="-147" font-family="Helvetica,sans-Serif" font-size="10.00">arlib/path.hpp</text>
</a>
</g>
</g>
<!-- Node0&#45;&gt;Node18 -->
<g id="edge18" class="edge"><title>Node0&#45;&gt;Node18</title>
<path fill="none" stroke="midnightblue" d="M752.19,-202.503C800.458,-190.482 871.406,-172.813 916.905,-161.481"/>
<polygon fill="midnightblue" stroke="midnightblue" points="917.913,-164.837 926.771,-159.024 916.221,-158.045 917.913,-164.837"/>
</g>
<!-- Node21 -->
<g id="node22" class="node"><title>Node21</title>
<g id="a_node22"><a xlink:href="type__traits_8hpp.html" target="_top" xlink:title=" ">
<polygon fill="white" stroke="black" points="1027,-73 1027,-92 1139,-92 1139,-73 1027,-73"/>
<text text-anchor="middle" x="1083" y="-80" font-family="Helvetica,sans-Serif" font-size="10.00">arlib/type_traits.hpp</text>
</a>
</g>
</g>
<!-- Node0&#45;&gt;Node21 -->
<g id="edge30" class="edge"><title>Node0&#45;&gt;Node21</title>
<path fill="none" stroke="midnightblue" d="M752.197,-211.362C829.073,-204.549 968.356,-189.259 1012,-165 1039.36,-149.792 1061.21,-119.797 1073.12,-100.745"/>
<polygon fill="midnightblue" stroke="midnightblue" points="1076.13,-102.524 1078.28,-92.1488 1070.13,-98.9212 1076.13,-102.524"/>
</g>
<!-- Node22 -->
<g id="node23" class="node"><title>Node22</title>
<g id="a_node23"><a xlink:href="multi__predecessor__map_8hpp.html" target="_top" xlink:title=" ">
<polygon fill="white" stroke="black" points="449,-67.5 449,-97.5 577,-97.5 577,-67.5 449,-67.5"/>
<text text-anchor="start" x="457" y="-85.5" font-family="Helvetica,sans-Serif" font-size="10.00">arlib/multi_predecessor</text>
<text text-anchor="middle" x="513" y="-74.5" font-family="Helvetica,sans-Serif" font-size="10.00">_map.hpp</text>
</a>
</g>
</g>
<!-- Node0&#45;&gt;Node22 -->
<g id="edge31" class="edge"><title>Node0&#45;&gt;Node22</title>
<path fill="none" stroke="midnightblue" d="M697.028,-201.351C692.515,-183.264 682.231,-152.128 662,-134 649.133,-122.47 612.594,-110.003 578.923,-100.341"/>
<polygon fill="midnightblue" stroke="midnightblue" points="579.635,-96.9052 569.061,-97.5649 577.739,-103.643 579.635,-96.9052"/>
</g>
<!-- Node25 -->
<g id="node26" class="node"><title>Node25</title>
<g id="a_node26"><a xlink:title=" ">
<polygon fill="white" stroke="#bfbfbf" points="1320.5,-134.5 1320.5,-164.5 1457.5,-164.5 1457.5,-134.5 1320.5,-134.5"/>
<text text-anchor="start" x="1328.5" y="-152.5" font-family="Helvetica,sans-Serif" font-size="10.00">boost/graph/compressed</text>
<text text-anchor="middle" x="1389" y="-141.5" font-family="Helvetica,sans-Serif" font-size="10.00">_sparse_row_graph.hpp</text>
</a>
</g>
</g>
<!-- Node0&#45;&gt;Node25 -->
<g id="edge36" class="edge"><title>Node0&#45;&gt;Node25</title>
<path fill="none" stroke="midnightblue" d="M752.185,-213.024C856.437,-207.682 1098.01,-193.316 1310.13,-165.171"/>
<polygon fill="midnightblue" stroke="midnightblue" points="1310.76,-168.617 1320.21,-163.82 1309.83,-161.679 1310.76,-168.617"/>
</g>
<!-- Node17 -->
<g id="node18" class="node"><title>Node17</title>
<g id="a_node18"><a xlink:title=" ">
<polygon fill="white" stroke="#bfbfbf" points="1157,-73 1157,-92 1199,-92 1199,-73 1157,-73"/>
<text text-anchor="middle" x="1178" y="-80" font-family="Helvetica,sans-Serif" font-size="10.00">utility</text>
</a>
</g>
</g>
<!-- Node16&#45;&gt;Node17 -->
<g id="edge17" class="edge"><title>Node16&#45;&gt;Node17</title>
<path fill="none" stroke="midnightblue" d="M1139.93,-139.734C1146.73,-129.695 1158.02,-113.014 1166.55,-100.421"/>
<polygon fill="midnightblue" stroke="midnightblue" points="1169.45,-102.37 1172.16,-92.1273 1163.66,-98.4464 1169.45,-102.37"/>
</g>
<!-- Node18&#45;&gt;Node12 -->
<g id="edge26" class="edge"><title>Node18&#45;&gt;Node12</title>
<path fill="none" stroke="midnightblue" d="M949.806,-139.734C938.158,-130.611 919.505,-116.004 904.13,-103.963"/>
<polygon fill="midnightblue" stroke="midnightblue" points="906.022,-100.999 895.991,-97.589 901.706,-106.51 906.022,-100.999"/>
</g>
<!-- Node18&#45;&gt;Node14 -->
<g id="edge27" class="edge"><title>Node18&#45;&gt;Node14</title>
<path fill="none" stroke="midnightblue" d="M959.425,-139.839C955.577,-118.674 945.627,-63.9482 940.37,-35.0329"/>
<polygon fill="midnightblue" stroke="midnightblue" points="943.782,-34.2337 938.549,-25.0212 936.895,-35.486 943.782,-34.2337"/>
</g>
<!-- Node18&#45;&gt;Node15 -->
<g id="edge28" class="edge"><title>Node18&#45;&gt;Node15</title>
<path fill="none" stroke="midnightblue" d="M965.309,-139.949C973.678,-124 993.481,-89.312 1018,-67 1035.46,-51.1163 1058.76,-38.1187 1077.14,-29.2892"/>
<polygon fill="midnightblue" stroke="midnightblue" points="1078.66,-32.4456 1086.25,-25.0586 1075.71,-26.0971 1078.66,-32.4456"/>
</g>
<!-- Node18&#45;&gt;Node17 -->
<g id="edge29" class="edge"><title>Node18&#45;&gt;Node17</title>
<path fill="none" stroke="midnightblue" d="M1001.07,-139.962C1039.41,-131.264 1098.53,-116.45 1148,-98 1149.42,-97.4693 1150.87,-96.8951 1152.32,-96.2917"/>
<polygon fill="midnightblue" stroke="midnightblue" points="1154.06,-99.3455 1161.74,-92.0414 1151.18,-92.9653 1154.06,-99.3455"/>
</g>
<!-- Node19 -->
<g id="node20" class="node"><title>Node19</title>
<g id="a_node20"><a xlink:href="path__impl_8hpp.html" target="_top" xlink:title=" ">
<polygon fill="white" stroke="black" points="633,-67.5 633,-97.5 729,-97.5 729,-67.5 633,-67.5"/>
<text text-anchor="start" x="641" y="-85.5" font-family="Helvetica,sans-Serif" font-size="10.00">arlib/details/path</text>
<text text-anchor="middle" x="681" y="-74.5" font-family="Helvetica,sans-Serif" font-size="10.00">_impl.hpp</text>
</a>
</g>
</g>
<!-- Node18&#45;&gt;Node19 -->
<g id="edge19" class="edge"><title>Node18&#45;&gt;Node19</title>
<path fill="none" stroke="midnightblue" d="M924.107,-139.936C876.995,-128.999 794.927,-109.947 739.311,-97.0365"/>
<polygon fill="midnightblue" stroke="midnightblue" points="739.781,-93.5527 729.249,-94.7006 738.198,-100.371 739.781,-93.5527"/>
</g>
<!-- Node18&#45;&gt;Node21 -->
<g id="edge23" class="edge"><title>Node18&#45;&gt;Node21</title>
<path fill="none" stroke="midnightblue" d="M977.201,-139.869C997.8,-128.893 1033.59,-109.824 1057.78,-96.9385"/>
<polygon fill="midnightblue" stroke="midnightblue" points="1059.55,-99.9583 1066.73,-92.1672 1056.26,-93.7804 1059.55,-99.9583"/>
</g>
<!-- Node19&#45;&gt;Node10 -->
<g id="edge22" class="edge"><title>Node19&#45;&gt;Node10</title>
<path fill="none" stroke="midnightblue" d="M700.529,-67.396C715.482,-56.5966 736.03,-41.7564 751.079,-30.8872"/>
<polygon fill="midnightblue" stroke="midnightblue" points="753.163,-33.6993 759.221,-25.007 749.065,-28.0246 753.163,-33.6993"/>
</g>
<!-- Node19&#45;&gt;Node13 -->
<g id="edge20" class="edge"><title>Node19&#45;&gt;Node13</title>
<path fill="none" stroke="midnightblue" d="M651.924,-67.396C628.62,-56.0919 596.19,-40.3607 573.574,-29.3903"/>
<polygon fill="midnightblue" stroke="midnightblue" points="575.062,-26.2224 564.538,-25.007 572.007,-32.5205 575.062,-26.2224"/>
</g>
<!-- Node20 -->
<g id="node21" class="node"><title>Node20</title>
<g id="a_node21"><a xlink:title=" ">
<polygon fill="white" stroke="#bfbfbf" points="652.5,-6 652.5,-25 709.5,-25 709.5,-6 652.5,-6"/>
<text text-anchor="middle" x="681" y="-13" font-family="Helvetica,sans-Serif" font-size="10.00">memory</text>
</a>
</g>
</g>
<!-- Node19&#45;&gt;Node20 -->
<g id="edge21" class="edge"><title>Node19&#45;&gt;Node20</title>
<path fill="none" stroke="midnightblue" d="M681,-67.396C681,-58.0638 681,-45.7143 681,-35.5173"/>
<polygon fill="midnightblue" stroke="midnightblue" points="684.5,-35.1945 681,-25.1945 677.5,-35.1946 684.5,-35.1945"/>
</g>
<!-- Node21&#45;&gt;Node14 -->
<g id="edge24" class="edge"><title>Node21&#45;&gt;Node14</title>
<path fill="none" stroke="midnightblue" d="M1063.61,-72.8685C1038.52,-61.699 994.607,-42.1468 965.661,-29.2602"/>
<polygon fill="midnightblue" stroke="midnightblue" points="967.027,-26.037 956.468,-25.1672 964.18,-32.4319 967.027,-26.037"/>
</g>
<!-- Node21&#45;&gt;Node15 -->
<g id="edge25" class="edge"><title>Node21&#45;&gt;Node15</title>
<path fill="none" stroke="midnightblue" d="M1086.24,-72.7338C1089.84,-62.9877 1095.75,-46.9805 1100.34,-34.5318"/>
<polygon fill="midnightblue" stroke="midnightblue" points="1103.63,-35.7206 1103.81,-25.1273 1097.07,-33.2959 1103.63,-35.7206"/>
</g>
<!-- Node22&#45;&gt;Node13 -->
<g id="edge32" class="edge"><title>Node22&#45;&gt;Node13</title>
<path fill="none" stroke="midnightblue" d="M520.377,-67.396C525.469,-57.6624 532.277,-44.6464 537.734,-34.2139"/>
<polygon fill="midnightblue" stroke="midnightblue" points="540.918,-35.6778 542.452,-25.1945 534.716,-32.4333 540.918,-35.6778"/>
</g>
<!-- Node22&#45;&gt;Node20 -->
<g id="edge34" class="edge"><title>Node22&#45;&gt;Node20</title>
<path fill="none" stroke="midnightblue" d="M549.725,-67.4054C575.997,-57.3069 612.194,-43.3627 644,-31 645.833,-30.2876 647.716,-29.5542 649.616,-28.8131"/>
<polygon fill="midnightblue" stroke="midnightblue" points="651.056,-32.0081 659.095,-25.1075 648.507,-25.4886 651.056,-32.0081"/>
</g>
<!-- Node23 -->
<g id="node24" class="node"><title>Node23</title>
<g id="a_node24"><a xlink:title=" ">
<polygon fill="white" stroke="#bfbfbf" points="327,-0.5 327,-30.5 441,-30.5 441,-0.5 327,-0.5"/>
<text text-anchor="start" x="335" y="-18.5" font-family="Helvetica,sans-Serif" font-size="10.00">boost/property_map</text>
<text text-anchor="middle" x="384" y="-7.5" font-family="Helvetica,sans-Serif" font-size="10.00">/property_map.hpp</text>
</a>
</g>
</g>
<!-- Node22&#45;&gt;Node23 -->
<g id="edge33" class="edge"><title>Node22&#45;&gt;Node23</title>
<path fill="none" stroke="midnightblue" d="M485.009,-67.396C466.245,-57.9413 441.335,-45.3896 420.947,-35.1168"/>
<polygon fill="midnightblue" stroke="midnightblue" points="422.442,-31.9507 411.936,-30.5765 419.292,-38.202 422.442,-31.9507"/>
</g>
<!-- Node24 -->
<g id="node25" class="node"><title>Node24</title>
<g id="a_node25"><a xlink:title=" ">
<polygon fill="white" stroke="#bfbfbf" points="215.5,-6 215.5,-25 308.5,-25 308.5,-6 215.5,-6"/>
<text text-anchor="middle" x="262" y="-13" font-family="Helvetica,sans-Serif" font-size="10.00">unordered_map</text>
</a>
</g>
</g>
<!-- Node22&#45;&gt;Node24 -->
<g id="edge35" class="edge"><title>Node22&#45;&gt;Node24</title>
<path fill="none" stroke="midnightblue" d="M458.846,-67.476C412.683,-55.5214 347.234,-38.5726 304.7,-27.5578"/>
<polygon fill="midnightblue" stroke="midnightblue" points="305.492,-24.1474 294.934,-25.0287 303.737,-30.9239 305.492,-24.1474"/>
</g>
</g>
</svg>
