<?xml version="1.0" encoding="UTF-8" standalone="no"?>
<!DOCTYPE svg PUBLIC "-//W3C//DTD SVG 1.1//EN"
 "http://www.w3.org/Graphics/SVG/1.1/DTD/svg11.dtd">
<!-- Generated by graphviz version 2.38.0 (20140413.2041)
 -->
<!-- Title: Graphical Class Hierarchy Pages: 1 -->
<svg width="388pt" height="88pt"
 viewBox="0.00 0.00 388.00 88.00" xmlns="http://www.w3.org/2000/svg" xmlns:xlink="http://www.w3.org/1999/xlink">
<g id="graph0" class="graph" transform="scale(1 1) rotate(0) translate(4 84)">
<title>Graphical Class Hierarchy</title>
<polygon fill="white" stroke="none" points="-4,4 -4,-84 384,-84 384,4 -4,4"/>
<!-- Node20 -->
<g id="node1" class="node"><title>Node20</title>
<g id="a_node1"><a xlink:title="STL class.">
<polygon fill="white" stroke="#bfbfbf" points="0,-31 0,-50 84,-50 84,-31 0,-31"/>
<text text-anchor="middle" x="42" y="-38" font-family="Helvetica,sans-Serif" font-size="10.00">std::exception</text>
</a>
</g>
</g>
<!-- Node21 -->
<g id="node2" class="node"><title>Node21</title>
<g id="a_node2"><a xlink:title="STL class.">
<polygon fill="white" stroke="#bfbfbf" points="128,-52 128,-71 216,-71 216,-52 128,-52"/>
<text text-anchor="middle" x="172" y="-59" font-family="Helvetica,sans-Serif" font-size="10.00">std::logic_error</text>
</a>
</g>
</g>
<!-- Node20&#45;&gt;Node21 -->
<g id="edge1" class="edge"><title>Node20&#45;&gt;Node21</title>
<path fill="none" stroke="midnightblue" d="M94.199,-48.8998C105.29,-50.7194 116.915,-52.6266 127.668,-54.3908"/>
<polygon fill="midnightblue" stroke="midnightblue" points="94.6393,-45.4254 84.2046,-47.2601 93.506,-52.333 94.6393,-45.4254"/>
</g>
<!-- Node23 -->
<g id="node4" class="node"><title>Node23</title>
<g id="a_node4"><a xlink:title="STL class.">
<polygon fill="white" stroke="#bfbfbf" points="120,-11 120,-30 224,-30 224,-11 120,-11"/>
<text text-anchor="middle" x="172" y="-18" font-family="Helvetica,sans-Serif" font-size="10.00">std::runtime_error</text>
</a>
</g>
</g>
<!-- Node20&#45;&gt;Node23 -->
<g id="edge3" class="edge"><title>Node20&#45;&gt;Node23</title>
<path fill="none" stroke="midnightblue" d="M94.1955,-32.5007C102.542,-31.1965 111.192,-29.8449 119.545,-28.5398"/>
<polygon fill="midnightblue" stroke="midnightblue" points="93.5443,-29.0599 84.2046,-34.0618 94.625,-35.976 93.5443,-29.0599"/>
</g>
<!-- Node22 -->
<g id="node3" class="node"><title>Node22</title>
<g id="a_node3"><a xlink:href="structarlib_1_1details_1_1target__not__found.html" target="_top" xlink:title=" ">
<polygon fill="white" stroke="black" points="265,-49.5 265,-79.5 375,-79.5 375,-49.5 265,-49.5"/>
<text text-anchor="start" x="273" y="-67.5" font-family="Helvetica,sans-Serif" font-size="10.00">arlib::details::target</text>
<text text-anchor="middle" x="320" y="-56.5" font-family="Helvetica,sans-Serif" font-size="10.00">_not_found</text>
</a>
</g>
</g>
<!-- Node21&#45;&gt;Node22 -->
<g id="edge2" class="edge"><title>Node21&#45;&gt;Node22</title>
<path fill="none" stroke="midnightblue" d="M226.331,-62.5958C238.89,-62.8539 252.288,-63.1292 264.881,-63.388"/>
<polygon fill="midnightblue" stroke="midnightblue" points="226.085,-59.0901 216.015,-62.3839 225.941,-66.0887 226.085,-59.0901"/>
</g>
<!-- Node0 -->
<g id="node5" class="node"><title>Node0</title>
<g id="a_node5"><a xlink:href="structarlib_1_1terminator__stop__error.html" target="_top" xlink:title=" ">
<polygon fill="white" stroke="black" points="260,-0.5 260,-30.5 380,-30.5 380,-0.5 260,-0.5"/>
<text text-anchor="start" x="268" y="-18.5" font-family="Helvetica,sans-Serif" font-size="10.00">arlib::terminator_stop</text>
<text text-anchor="middle" x="320" y="-7.5" font-family="Helvetica,sans-Serif" font-size="10.00">_error</text>
</a>
</g>
</g>
<!-- Node23&#45;&gt;Node0 -->
<g id="edge4" class="edge"><title>Node23&#45;&gt;Node0</title>
<path fill="none" stroke="midnightblue" d="M234.29,-18.401C242.789,-18.11 251.505,-17.8115 259.961,-17.5219"/>
<polygon fill="midnightblue" stroke="midnightblue" points="233.938,-14.9109 224.064,-18.7512 234.178,-21.9068 233.938,-14.9109"/>
</g>
</g>
</svg>
