<?xml version="1.0" encoding="UTF-8" standalone="no"?>
<!DOCTYPE svg PUBLIC "-//W3C//DTD SVG 1.1//EN"
 "http://www.w3.org/Graphics/SVG/1.1/DTD/svg11.dtd">
<!-- Generated by graphviz version 2.38.0 (20140413.2041)
 -->
<!-- Title: include/arlib/multi_predecessor_map.hpp Pages: 1 -->
<svg width="165pt" height="162pt"
 viewBox="0.00 0.00 164.50 162.00" xmlns="http://www.w3.org/2000/svg" xmlns:xlink="http://www.w3.org/1999/xlink">
<g id="graph0" class="graph" transform="scale(1 1) rotate(0) translate(4 158)">
<title>include/arlib/multi_predecessor_map.hpp</title>
<polygon fill="white" stroke="none" points="-4,4 -4,-158 160.5,-158 160.5,4 -4,4"/>
<!-- Node5 -->
<g id="node1" class="node"><title>Node5</title>
<g id="a_node1"><a xlink:title=" ">
<polygon fill="#bfbfbf" stroke="black" points="0,-123.5 0,-153.5 129,-153.5 129,-123.5 0,-123.5"/>
<text text-anchor="start" x="8" y="-141.5" font-family="Helvetica,sans-Serif" font-size="10.00">include/arlib/multi</text>
<text text-anchor="middle" x="64.5" y="-130.5" font-family="Helvetica,sans-Serif" font-size="10.00">_predecessor_map.hpp</text>
</a>
</g>
</g>
<!-- Node6 -->
<g id="node2" class="node"><title>Node6</title>
<g id="a_node2"><a xlink:href="arlib_8hpp_source.html" target="_top" xlink:title=" ">
<polygon fill="white" stroke="black" points="5.5,-0.5 5.5,-19.5 123.5,-19.5 123.5,-0.5 5.5,-0.5"/>
<text text-anchor="middle" x="64.5" y="-7.5" font-family="Helvetica,sans-Serif" font-size="10.00">include/arlib/arlib.hpp</text>
</a>
</g>
</g>
<!-- Node5&#45;&gt;Node6 -->
<g id="edge1" class="edge"><title>Node5&#45;&gt;Node6</title>
<path fill="none" stroke="midnightblue" d="M52.59,-114.265C48.9113,-105.896 45.3438,-96.2358 43.5,-87 40.8027,-73.4888 40.516,-69.4507 43.5,-56 46.4876,-42.5333 53.9438,-28.3218 59.1159,-19.557"/>
<polygon fill="midnightblue" stroke="midnightblue" points="49.4536,-115.82 56.863,-123.393 55.7935,-112.853 49.4536,-115.82"/>
</g>
<!-- Node7 -->
<g id="node3" class="node"><title>Node7</title>
<g id="a_node3"><a xlink:href="graph__utils_8hpp.html" target="_top" xlink:title=" ">
<polygon fill="white" stroke="black" points="52.5,-56.5 52.5,-86.5 156.5,-86.5 156.5,-56.5 52.5,-56.5"/>
<text text-anchor="start" x="60.5" y="-74.5" font-family="Helvetica,sans-Serif" font-size="10.00">include/arlib/graph</text>
<text text-anchor="middle" x="104.5" y="-63.5" font-family="Helvetica,sans-Serif" font-size="10.00">_utils.hpp</text>
</a>
</g>
</g>
<!-- Node5&#45;&gt;Node7 -->
<g id="edge2" class="edge"><title>Node5&#45;&gt;Node7</title>
<path fill="none" stroke="midnightblue" d="M78.4281,-114.867C84.2173,-105.459 90.7563,-94.8334 95.8375,-86.5765"/>
<polygon fill="midnightblue" stroke="midnightblue" points="75.4396,-113.045 73.1794,-123.396 81.4012,-116.714 75.4396,-113.045"/>
</g>
<!-- Node7&#45;&gt;Node6 -->
<g id="edge3" class="edge"><title>Node7&#45;&gt;Node6</title>
<path fill="none" stroke="midnightblue" d="M89.2417,-47.8032C82.6266,-37.9633 75.2771,-27.031 70.3204,-19.6578"/>
<polygon fill="midnightblue" stroke="midnightblue" points="86.5367,-50.053 95.0206,-56.3993 92.346,-46.1476 86.5367,-50.053"/>
</g>
</g>
</svg>
