<?xml version="1.0" encoding="UTF-8" standalone="no"?>
<!DOCTYPE svg PUBLIC "-//W3C//DTD SVG 1.1//EN"
 "http://www.w3.org/Graphics/SVG/1.1/DTD/svg11.dtd">
<!-- Generated by graphviz version 2.38.0 (20140413.2041)
 -->
<!-- Title: include/arlib/multi_predecessor_map.hpp Pages: 1 -->
<svg width="502pt" height="106pt"
 viewBox="0.00 0.00 502.00 106.00" xmlns="http://www.w3.org/2000/svg" xmlns:xlink="http://www.w3.org/1999/xlink">
<g id="graph0" class="graph" transform="scale(1 1) rotate(0) translate(4 102)">
<title>include/arlib/multi_predecessor_map.hpp</title>
<polygon fill="white" stroke="none" points="-4,4 -4,-102 498,-102 498,4 -4,4"/>
<!-- Node0 -->
<g id="node1" class="node"><title>Node0</title>
<g id="a_node1"><a xlink:title=" ">
<polygon fill="#bfbfbf" stroke="black" points="238,-67.5 238,-97.5 367,-97.5 367,-67.5 238,-67.5"/>
<text text-anchor="start" x="246" y="-85.5" font-family="Helvetica,sans-Serif" font-size="10.00">include/arlib/multi</text>
<text text-anchor="middle" x="302.5" y="-74.5" font-family="Helvetica,sans-Serif" font-size="10.00">_predecessor_map.hpp</text>
</a>
</g>
</g>
<!-- Node1 -->
<g id="node2" class="node"><title>Node1</title>
<g id="a_node2"><a xlink:title=" ">
<polygon fill="white" stroke="#bfbfbf" points="0,-6 0,-25 175,-25 175,-6 0,-6"/>
<text text-anchor="middle" x="87.5" y="-13" font-family="Helvetica,sans-Serif" font-size="10.00">boost/graph/graph_concepts.hpp</text>
</a>
</g>
</g>
<!-- Node0&#45;&gt;Node1 -->
<g id="edge1" class="edge"><title>Node0&#45;&gt;Node1</title>
<path fill="none" stroke="midnightblue" d="M256.113,-67.476C217.071,-55.6727 161.926,-39.0009 125.469,-27.9789"/>
<polygon fill="midnightblue" stroke="midnightblue" points="126.295,-24.5724 115.71,-25.0287 124.269,-31.2729 126.295,-24.5724"/>
</g>
<!-- Node2 -->
<g id="node3" class="node"><title>Node2</title>
<g id="a_node3"><a xlink:title=" ">
<polygon fill="white" stroke="#bfbfbf" points="193.5,-0.5 193.5,-30.5 307.5,-30.5 307.5,-0.5 193.5,-0.5"/>
<text text-anchor="start" x="201.5" y="-18.5" font-family="Helvetica,sans-Serif" font-size="10.00">boost/property_map</text>
<text text-anchor="middle" x="250.5" y="-7.5" font-family="Helvetica,sans-Serif" font-size="10.00">/property_map.hpp</text>
</a>
</g>
</g>
<!-- Node0&#45;&gt;Node2 -->
<g id="edge2" class="edge"><title>Node0&#45;&gt;Node2</title>
<path fill="none" stroke="midnightblue" d="M291.217,-67.396C284.471,-58.9634 275.754,-48.0673 268.117,-38.5216"/>
<polygon fill="midnightblue" stroke="midnightblue" points="270.741,-36.1988 261.761,-30.5765 265.275,-40.5717 270.741,-36.1988"/>
</g>
<!-- Node3 -->
<g id="node4" class="node"><title>Node3</title>
<g id="a_node4"><a xlink:title=" ">
<polygon fill="white" stroke="#bfbfbf" points="326,-6 326,-25 383,-25 383,-6 326,-6"/>
<text text-anchor="middle" x="354.5" y="-13" font-family="Helvetica,sans-Serif" font-size="10.00">memory</text>
</a>
</g>
</g>
<!-- Node0&#45;&gt;Node3 -->
<g id="edge3" class="edge"><title>Node0&#45;&gt;Node3</title>
<path fill="none" stroke="midnightblue" d="M313.783,-67.396C321.811,-57.3614 332.629,-43.8382 341.097,-33.2535"/>
<polygon fill="midnightblue" stroke="midnightblue" points="344.03,-35.1897 347.544,-25.1945 338.564,-30.8168 344.03,-35.1897"/>
</g>
<!-- Node4 -->
<g id="node5" class="node"><title>Node4</title>
<g id="a_node5"><a xlink:title=" ">
<polygon fill="white" stroke="#bfbfbf" points="401,-6 401,-25 494,-25 494,-6 401,-6"/>
<text text-anchor="middle" x="447.5" y="-13" font-family="Helvetica,sans-Serif" font-size="10.00">unordered_map</text>
</a>
</g>
</g>
<!-- Node0&#45;&gt;Node4 -->
<g id="edge4" class="edge"><title>Node0&#45;&gt;Node4</title>
<path fill="none" stroke="midnightblue" d="M333.963,-67.396C359.405,-55.991 394.9,-40.0794 419.398,-29.0976"/>
<polygon fill="midnightblue" stroke="midnightblue" points="420.829,-32.2914 428.523,-25.007 417.966,-25.9038 420.829,-32.2914"/>
</g>
</g>
</svg>
