<?xml version="1.0" encoding="UTF-8" standalone="no"?>
<!DOCTYPE svg PUBLIC "-//W3C//DTD SVG 1.1//EN"
 "http://www.w3.org/Graphics/SVG/1.1/DTD/svg11.dtd">
<!-- Generated by graphviz version 2.38.0 (20140413.2041)
 -->
<!-- Title: include/arlib/details/onepass_plus_impl.hpp Pages: 1 -->
<svg width="1562pt" height="296pt"
 viewBox="0.00 0.00 1561.50 296.00" xmlns="http://www.w3.org/2000/svg" xmlns:xlink="http://www.w3.org/1999/xlink">
<g id="graph0" class="graph" transform="scale(1 1) rotate(0) translate(4 292)">
<title>include/arlib/details/onepass_plus_impl.hpp</title>
<polygon fill="white" stroke="none" points="-4,4 -4,-292 1557.5,-292 1557.5,4 -4,4"/>
<!-- Node0 -->
<g id="node1" class="node"><title>Node0</title>
<g id="a_node1"><a xlink:title=" ">
<polygon fill="#bfbfbf" stroke="black" points="1094.5,-257.5 1094.5,-287.5 1225.5,-287.5 1225.5,-257.5 1094.5,-257.5"/>
<text text-anchor="start" x="1102.5" y="-275.5" font-family="Helvetica,sans-Serif" font-size="10.00">include/arlib/details</text>
<text text-anchor="middle" x="1160" y="-264.5" font-family="Helvetica,sans-Serif" font-size="10.00">/onepass_plus_impl.hpp</text>
</a>
</g>
</g>
<!-- Node1 -->
<g id="node2" class="node"><title>Node1</title>
<g id="a_node2"><a xlink:title=" ">
<polygon fill="white" stroke="#bfbfbf" points="898.5,-0.5 898.5,-19.5 1073.5,-19.5 1073.5,-0.5 898.5,-0.5"/>
<text text-anchor="middle" x="986" y="-7.5" font-family="Helvetica,sans-Serif" font-size="10.00">boost/graph/graph_concepts.hpp</text>
</a>
</g>
</g>
<!-- Node0&#45;&gt;Node1 -->
<g id="edge1" class="edge"><title>Node0&#45;&gt;Node1</title>
<path fill="none" stroke="midnightblue" d="M1157.36,-257.083C1150.97,-223.732 1133.86,-142.611 1115,-123 1081.09,-87.7452 1045.32,-121.853 1011,-87 995.955,-71.7211 989.964,-47.2326 987.579,-30.1978"/>
<polygon fill="midnightblue" stroke="midnightblue" points="991.007,-29.358 986.436,-19.8001 984.049,-30.1226 991.007,-29.358"/>
</g>
<!-- Node2 -->
<g id="node3" class="node"><title>Node2</title>
<g id="a_node3"><a xlink:title=" ">
<polygon fill="white" stroke="#bfbfbf" points="0,-0.5 0,-19.5 156,-19.5 156,-0.5 0,-0.5"/>
<text text-anchor="middle" x="78" y="-7.5" font-family="Helvetica,sans-Serif" font-size="10.00">boost/graph/graph_traits.hpp</text>
</a>
</g>
</g>
<!-- Node0&#45;&gt;Node2 -->
<g id="edge2" class="edge"><title>Node0&#45;&gt;Node2</title>
<path fill="none" stroke="midnightblue" d="M1094.44,-270.014C891.445,-265.143 281.786,-248.379 197,-221 112.56,-193.733 74.4195,-172.014 49,-87 45.0531,-73.7997 45.11,-69.2172 49,-56 52.0124,-45.7645 58.1546,-35.6599 64.0139,-27.627"/>
<polygon fill="midnightblue" stroke="midnightblue" points="66.9316,-29.5773 70.3271,-19.5413 61.4142,-25.2694 66.9316,-29.5773"/>
</g>
<!-- Node3 -->
<g id="node4" class="node"><title>Node3</title>
<g id="a_node4"><a xlink:title=" ">
<polygon fill="white" stroke="#bfbfbf" points="572.5,-0.5 572.5,-19.5 719.5,-19.5 719.5,-0.5 572.5,-0.5"/>
<text text-anchor="middle" x="646" y="-7.5" font-family="Helvetica,sans-Serif" font-size="10.00">boost/graph/properties.hpp</text>
</a>
</g>
</g>
<!-- Node0&#45;&gt;Node3 -->
<g id="edge3" class="edge"><title>Node0&#45;&gt;Node3</title>
<path fill="none" stroke="midnightblue" d="M1154.24,-257.398C1140.32,-223.969 1104.29,-141.335 1081,-123 1050.54,-99.0205 804.976,-44.7249 696.827,-21.6725"/>
<polygon fill="midnightblue" stroke="midnightblue" points="697.311,-18.1973 686.801,-19.5412 695.855,-25.0443 697.311,-18.1973"/>
</g>
<!-- Node4 -->
<g id="node5" class="node"><title>Node4</title>
<g id="a_node5"><a xlink:href="arlib__utils_8hpp.html" target="_top" xlink:title=" ">
<polygon fill="white" stroke="black" points="647.5,-190.5 647.5,-220.5 742.5,-220.5 742.5,-190.5 647.5,-190.5"/>
<text text-anchor="start" x="655.5" y="-208.5" font-family="Helvetica,sans-Serif" font-size="10.00">arlib/details/arlib</text>
<text text-anchor="middle" x="695" y="-197.5" font-family="Helvetica,sans-Serif" font-size="10.00">_utils.hpp</text>
</a>
</g>
</g>
<!-- Node0&#45;&gt;Node4 -->
<g id="edge4" class="edge"><title>Node0&#45;&gt;Node4</title>
<path fill="none" stroke="midnightblue" d="M1094.36,-262.325C1003.1,-249.567 839.322,-226.674 752.57,-214.547"/>
<polygon fill="midnightblue" stroke="midnightblue" points="753.025,-211.077 742.637,-213.159 752.056,-218.01 753.025,-211.077"/>
</g>
<!-- Node11 -->
<g id="node12" class="node"><title>Node11</title>
<g id="a_node12"><a xlink:title=" ">
<polygon fill="white" stroke="#bfbfbf" points="1196.5,-0.5 1196.5,-19.5 1253.5,-19.5 1253.5,-0.5 1196.5,-0.5"/>
<text text-anchor="middle" x="1225" y="-7.5" font-family="Helvetica,sans-Serif" font-size="10.00">memory</text>
</a>
</g>
</g>
<!-- Node0&#45;&gt;Node11 -->
<g id="edge33" class="edge"><title>Node0&#45;&gt;Node11</title>
<path fill="none" stroke="midnightblue" d="M1164.04,-257.384C1166.91,-247.275 1170.8,-233.327 1174,-221 1192.31,-150.579 1212.15,-66.3345 1220.69,-29.6261"/>
<polygon fill="midnightblue" stroke="midnightblue" points="1224.11,-30.3604 1222.96,-19.828 1217.29,-28.7775 1224.11,-30.3604"/>
</g>
<!-- Node12 -->
<g id="node13" class="node"><title>Node12</title>
<g id="a_node13"><a xlink:title=" ">
<polygon fill="white" stroke="#bfbfbf" points="1092,-0.5 1092,-19.5 1178,-19.5 1178,-0.5 1092,-0.5"/>
<text text-anchor="middle" x="1135" y="-7.5" font-family="Helvetica,sans-Serif" font-size="10.00">unordered_set</text>
</a>
</g>
</g>
<!-- Node0&#45;&gt;Node12 -->
<g id="edge36" class="edge"><title>Node0&#45;&gt;Node12</title>
<path fill="none" stroke="midnightblue" d="M1160.12,-257.257C1160.19,-222.556 1159.02,-130.987 1146,-56 1144.47,-47.1747 1142.19,-37.511 1140.1,-29.4089"/>
<polygon fill="midnightblue" stroke="midnightblue" points="1143.43,-28.3077 1137.46,-19.5538 1136.67,-30.1188 1143.43,-28.3077"/>
</g>
<!-- Node13 -->
<g id="node14" class="node"><title>Node13</title>
<g id="a_node14"><a xlink:href="type__traits_8hpp.html" target="_top" xlink:title=" ">
<polygon fill="white" stroke="black" points="64,-62 64,-81 176,-81 176,-62 64,-62"/>
<text text-anchor="middle" x="120" y="-69" font-family="Helvetica,sans-Serif" font-size="10.00">arlib/type_traits.hpp</text>
</a>
</g>
</g>
<!-- Node0&#45;&gt;Node13 -->
<g id="edge30" class="edge"><title>Node0&#45;&gt;Node13</title>
<path fill="none" stroke="midnightblue" d="M1094.39,-269.218C873.926,-260.879 169.791,-228.562 104,-154 88.5447,-136.484 99.0573,-108.5 108.861,-90.3108"/>
<polygon fill="midnightblue" stroke="midnightblue" points="112.074,-91.748 114.065,-81.342 106.019,-88.2347 112.074,-91.748"/>
</g>
<!-- Node18 -->
<g id="node19" class="node"><title>Node18</title>
<g id="a_node19"><a xlink:title=" ">
<polygon fill="white" stroke="#bfbfbf" points="1025.5,-129 1025.5,-148 1072.5,-148 1072.5,-129 1025.5,-129"/>
<text text-anchor="middle" x="1049" y="-136" font-family="Helvetica,sans-Serif" font-size="10.00">vector</text>
</a>
</g>
</g>
<!-- Node0&#45;&gt;Node18 -->
<g id="edge37" class="edge"><title>Node0&#45;&gt;Node18</title>
<path fill="none" stroke="midnightblue" d="M1132.69,-257.348C1117.69,-248.502 1099.62,-235.957 1087,-221 1071.07,-202.129 1060.32,-175.464 1054.43,-157.841"/>
<polygon fill="midnightblue" stroke="midnightblue" points="1057.73,-156.672 1051.39,-148.187 1051.05,-158.777 1057.73,-156.672"/>
</g>
<!-- Node19 -->
<g id="node20" class="node"><title>Node19</title>
<g id="a_node20"><a xlink:title=" ">
<polygon fill="white" stroke="#bfbfbf" points="1248,-196 1248,-215 1300,-215 1300,-196 1248,-196"/>
<text text-anchor="middle" x="1274" y="-203" font-family="Helvetica,sans-Serif" font-size="10.00">cassert</text>
</a>
</g>
</g>
<!-- Node0&#45;&gt;Node19 -->
<g id="edge31" class="edge"><title>Node0&#45;&gt;Node19</title>
<path fill="none" stroke="midnightblue" d="M1184.74,-257.396C1204.21,-246.294 1231.17,-230.921 1250.35,-219.983"/>
<polygon fill="midnightblue" stroke="midnightblue" points="1252.13,-223.001 1259.08,-215.007 1248.66,-216.92 1252.13,-223.001"/>
</g>
<!-- Node20 -->
<g id="node21" class="node"><title>Node20</title>
<g id="a_node21"><a xlink:title=" ">
<polygon fill="white" stroke="#bfbfbf" points="1318.5,-196 1318.5,-215 1377.5,-215 1377.5,-196 1318.5,-196"/>
<text text-anchor="middle" x="1348" y="-203" font-family="Helvetica,sans-Serif" font-size="10.00">iostream</text>
</a>
</g>
</g>
<!-- Node0&#45;&gt;Node20 -->
<g id="edge32" class="edge"><title>Node0&#45;&gt;Node20</title>
<path fill="none" stroke="midnightblue" d="M1202.5,-257.461C1232.37,-247.506 1273.23,-233.71 1309,-221 1311.24,-220.204 1313.55,-219.373 1315.87,-218.53"/>
<polygon fill="midnightblue" stroke="midnightblue" points="1317.18,-221.779 1325.36,-215.046 1314.76,-215.208 1317.18,-221.779"/>
</g>
<!-- Node21 -->
<g id="node22" class="node"><title>Node21</title>
<g id="a_node22"><a xlink:title=" ">
<polygon fill="white" stroke="#bfbfbf" points="1395.5,-196 1395.5,-215 1442.5,-215 1442.5,-196 1395.5,-196"/>
<text text-anchor="middle" x="1419" y="-203" font-family="Helvetica,sans-Serif" font-size="10.00">queue</text>
</a>
</g>
</g>
<!-- Node0&#45;&gt;Node21 -->
<g id="edge34" class="edge"><title>Node0&#45;&gt;Node21</title>
<path fill="none" stroke="midnightblue" d="M1225.69,-260.317C1271.28,-251.711 1333.09,-238.353 1386,-221 1387.87,-220.386 1389.78,-219.703 1391.7,-218.978"/>
<polygon fill="midnightblue" stroke="midnightblue" points="1393.17,-222.157 1401.09,-215.123 1390.51,-215.682 1393.17,-222.157"/>
</g>
<!-- Node22 -->
<g id="node23" class="node"><title>Node22</title>
<g id="a_node23"><a xlink:title=" ">
<polygon fill="white" stroke="#bfbfbf" points="1460.5,-196 1460.5,-215 1553.5,-215 1553.5,-196 1460.5,-196"/>
<text text-anchor="middle" x="1507" y="-203" font-family="Helvetica,sans-Serif" font-size="10.00">unordered_map</text>
</a>
</g>
</g>
<!-- Node0&#45;&gt;Node22 -->
<g id="edge35" class="edge"><title>Node0&#45;&gt;Node22</title>
<path fill="none" stroke="midnightblue" d="M1225.59,-261.683C1284.77,-252.455 1374.06,-237.607 1451,-221 1455.97,-219.928 1461.15,-218.714 1466.29,-217.455"/>
<polygon fill="midnightblue" stroke="midnightblue" points="1467.16,-220.843 1476.01,-215.006 1465.45,-214.056 1467.16,-220.843"/>
</g>
<!-- Node4&#45;&gt;Node1 -->
<g id="edge8" class="edge"><title>Node4&#45;&gt;Node1</title>
<path fill="none" stroke="midnightblue" d="M742.689,-200.348C805.525,-193.945 911.436,-179.635 940,-154 958.739,-137.182 975.381,-64.3725 982.428,-29.6097"/>
<polygon fill="midnightblue" stroke="midnightblue" points="985.865,-30.2678 984.369,-19.7792 978.998,-28.9117 985.865,-30.2678"/>
</g>
<!-- Node4&#45;&gt;Node2 -->
<g id="edge9" class="edge"><title>Node4&#45;&gt;Node2</title>
<path fill="none" stroke="midnightblue" d="M647.295,-202.685C515.133,-197.344 150.899,-180.374 104,-154 71.8445,-135.917 66.4551,-122.068 55,-87 50.7219,-73.9032 51.7752,-69.3951 55,-56 57.3067,-46.4183 62.0173,-36.5813 66.5782,-28.5579"/>
<polygon fill="midnightblue" stroke="midnightblue" points="69.6924,-30.1727 71.8954,-19.8095 63.7106,-26.537 69.6924,-30.1727"/>
</g>
<!-- Node4&#45;&gt;Node3 -->
<g id="edge10" class="edge"><title>Node4&#45;&gt;Node3</title>
<path fill="none" stroke="midnightblue" d="M695.305,-190.483C695.442,-163.531 693.56,-102.99 676,-56 672.227,-45.9032 665.805,-35.8129 659.869,-27.7535"/>
<polygon fill="midnightblue" stroke="midnightblue" points="662.445,-25.3653 653.54,-19.6252 656.922,-29.6658 662.445,-25.3653"/>
</g>
<!-- Node5 -->
<g id="node6" class="node"><title>Node5</title>
<g id="a_node6"><a xlink:title=" ">
<polygon fill="white" stroke="#bfbfbf" points="140.5,-129 140.5,-148 301.5,-148 301.5,-129 140.5,-129"/>
<text text-anchor="middle" x="221" y="-136" font-family="Helvetica,sans-Serif" font-size="10.00">boost/graph/astar_search.hpp</text>
</a>
</g>
</g>
<!-- Node4&#45;&gt;Node5 -->
<g id="edge5" class="edge"><title>Node4&#45;&gt;Node5</title>
<path fill="none" stroke="midnightblue" d="M647.217,-198.717C574.374,-189.791 431.22,-171.82 310,-154 300.9,-152.662 291.29,-151.175 281.883,-149.677"/>
<polygon fill="midnightblue" stroke="midnightblue" points="282.217,-146.186 271.788,-148.054 281.106,-153.097 282.217,-146.186"/>
</g>
<!-- Node6 -->
<g id="node7" class="node"><title>Node6</title>
<g id="a_node7"><a xlink:title=" ">
<polygon fill="white" stroke="#bfbfbf" points="319.5,-123.5 319.5,-153.5 434.5,-153.5 434.5,-123.5 319.5,-123.5"/>
<text text-anchor="start" x="327.5" y="-141.5" font-family="Helvetica,sans-Serif" font-size="10.00">boost/graph/dijkstra</text>
<text text-anchor="middle" x="377" y="-130.5" font-family="Helvetica,sans-Serif" font-size="10.00">_shortest_paths.hpp</text>
</a>
</g>
</g>
<!-- Node4&#45;&gt;Node6 -->
<g id="edge6" class="edge"><title>Node4&#45;&gt;Node6</title>
<path fill="none" stroke="midnightblue" d="M647.105,-195.175C598.551,-185.661 520.983,-170.295 444.826,-154.364"/>
<polygon fill="midnightblue" stroke="midnightblue" points="445.085,-150.843 434.579,-152.216 443.648,-157.694 445.085,-150.843"/>
</g>
<!-- Node7 -->
<g id="node8" class="node"><title>Node7</title>
<g id="a_node8"><a xlink:title=" ">
<polygon fill="white" stroke="#bfbfbf" points="251,-56.5 251,-86.5 361,-86.5 361,-56.5 251,-56.5"/>
<text text-anchor="start" x="259" y="-74.5" font-family="Helvetica,sans-Serif" font-size="10.00">boost/graph/filtered</text>
<text text-anchor="middle" x="306" y="-63.5" font-family="Helvetica,sans-Serif" font-size="10.00">_graph.hpp</text>
</a>
</g>
</g>
<!-- Node4&#45;&gt;Node7 -->
<g id="edge7" class="edge"><title>Node4&#45;&gt;Node7</title>
<path fill="none" stroke="midnightblue" d="M647.059,-203.827C517.109,-201.508 165.54,-191.77 131,-154 93.7516,-113.267 176.854,-91.2134 240.874,-80.6629"/>
<polygon fill="midnightblue" stroke="midnightblue" points="241.633,-84.0865 250.964,-79.0673 240.54,-77.1724 241.633,-84.0865"/>
</g>
<!-- Node8 -->
<g id="node9" class="node"><title>Node8</title>
<g id="a_node9"><a xlink:title=" ">
<polygon fill="white" stroke="#bfbfbf" points="452.5,-123.5 452.5,-153.5 565.5,-153.5 565.5,-123.5 452.5,-123.5"/>
<text text-anchor="start" x="460.5" y="-141.5" font-family="Helvetica,sans-Serif" font-size="10.00">boost/graph/reverse</text>
<text text-anchor="middle" x="509" y="-130.5" font-family="Helvetica,sans-Serif" font-size="10.00">_graph.hpp</text>
</a>
</g>
</g>
<!-- Node4&#45;&gt;Node8 -->
<g id="edge11" class="edge"><title>Node4&#45;&gt;Node8</title>
<path fill="none" stroke="midnightblue" d="M654.641,-190.396C626.489,-180.558 588.742,-167.367 558.731,-156.879"/>
<polygon fill="midnightblue" stroke="midnightblue" points="559.875,-153.571 549.28,-153.577 557.566,-160.18 559.875,-153.571"/>
</g>
<!-- Node9 -->
<g id="node10" class="node"><title>Node9</title>
<g id="a_node10"><a xlink:href="path_8hpp.html" target="_top" xlink:title=" ">
<polygon fill="white" stroke="black" points="583.5,-129 583.5,-148 666.5,-148 666.5,-129 583.5,-129"/>
<text text-anchor="middle" x="625" y="-136" font-family="Helvetica,sans-Serif" font-size="10.00">arlib/path.hpp</text>
</a>
</g>
</g>
<!-- Node4&#45;&gt;Node9 -->
<g id="edge12" class="edge"><title>Node4&#45;&gt;Node9</title>
<path fill="none" stroke="midnightblue" d="M679.811,-190.396C668.68,-180.06 653.564,-166.024 642.025,-155.309"/>
<polygon fill="midnightblue" stroke="midnightblue" points="644.073,-152.434 634.363,-148.195 639.31,-157.564 644.073,-152.434"/>
</g>
<!-- Node4&#45;&gt;Node12 -->
<g id="edge28" class="edge"><title>Node4&#45;&gt;Node12</title>
<path fill="none" stroke="midnightblue" d="M742.798,-200.472C797.455,-194.742 888.937,-181.687 963,-154 988.561,-144.444 991.129,-134.23 1016,-123 1062.5,-102.005 1092.47,-126.305 1125,-87 1138.1,-71.1723 1139.04,-46.7969 1137.72,-29.9384"/>
<polygon fill="midnightblue" stroke="midnightblue" points="1141.16,-29.2128 1136.56,-19.6655 1134.2,-29.9934 1141.16,-29.2128"/>
</g>
<!-- Node4&#45;&gt;Node13 -->
<g id="edge24" class="edge"><title>Node4&#45;&gt;Node13</title>
<path fill="none" stroke="midnightblue" d="M647.384,-203.936C515.615,-201.883 153.495,-192.738 118,-154 102.573,-137.164 107.385,-109.179 113.054,-90.7844"/>
<polygon fill="midnightblue" stroke="midnightblue" points="116.401,-91.8136 116.343,-81.2189 109.781,-89.537 116.401,-91.8136"/>
</g>
<!-- Node15 -->
<g id="node16" class="node"><title>Node15</title>
<g id="a_node16"><a xlink:title=" ">
<polygon fill="white" stroke="#bfbfbf" points="723,-129 723,-148 775,-148 775,-129 723,-129"/>
<text text-anchor="middle" x="749" y="-136" font-family="Helvetica,sans-Serif" font-size="10.00">iterator</text>
</a>
</g>
</g>
<!-- Node4&#45;&gt;Node15 -->
<g id="edge25" class="edge"><title>Node4&#45;&gt;Node15</title>
<path fill="none" stroke="midnightblue" d="M706.717,-190.396C715.137,-180.261 726.513,-166.567 735.345,-155.937"/>
<polygon fill="midnightblue" stroke="midnightblue" points="738.079,-158.123 741.777,-148.195 732.694,-153.65 738.079,-158.123"/>
</g>
<!-- Node16 -->
<g id="node17" class="node"><title>Node16</title>
<g id="a_node17"><a xlink:title=" ">
<polygon fill="white" stroke="#bfbfbf" points="793,-129 793,-148 849,-148 849,-129 793,-129"/>
<text text-anchor="middle" x="821" y="-136" font-family="Helvetica,sans-Serif" font-size="10.00">sstream</text>
</a>
</g>
</g>
<!-- Node4&#45;&gt;Node16 -->
<g id="edge26" class="edge"><title>Node4&#45;&gt;Node16</title>
<path fill="none" stroke="midnightblue" d="M722.34,-190.396C744.057,-179.193 774.203,-163.641 795.441,-152.685"/>
<polygon fill="midnightblue" stroke="midnightblue" points="797.227,-155.702 804.51,-148.007 794.018,-149.481 797.227,-155.702"/>
</g>
<!-- Node17 -->
<g id="node18" class="node"><title>Node17</title>
<g id="a_node18"><a xlink:title=" ">
<polygon fill="white" stroke="#bfbfbf" points="867,-129 867,-148 931,-148 931,-129 867,-129"/>
<text text-anchor="middle" x="899" y="-136" font-family="Helvetica,sans-Serif" font-size="10.00">stdexcept</text>
</a>
</g>
</g>
<!-- Node4&#45;&gt;Node17 -->
<g id="edge27" class="edge"><title>Node4&#45;&gt;Node17</title>
<path fill="none" stroke="midnightblue" d="M742.234,-190.405C774.86,-180.537 819.194,-166.868 858,-154 860.446,-153.189 862.968,-152.337 865.502,-151.468"/>
<polygon fill="midnightblue" stroke="midnightblue" points="866.911,-154.684 875.207,-148.094 864.612,-148.073 866.911,-154.684"/>
</g>
<!-- Node4&#45;&gt;Node18 -->
<g id="edge29" class="edge"><title>Node4&#45;&gt;Node18</title>
<path fill="none" stroke="midnightblue" d="M742.751,-199.968C805.192,-193.34 917.617,-178.992 1011,-154 1013.66,-153.289 1016.39,-152.458 1019.1,-151.56"/>
<polygon fill="midnightblue" stroke="midnightblue" points="1020.51,-154.776 1028.74,-148.113 1018.15,-148.185 1020.51,-154.776"/>
</g>
<!-- Node9&#45;&gt;Node2 -->
<g id="edge21" class="edge"><title>Node9&#45;&gt;Node2</title>
<path fill="none" stroke="midnightblue" d="M602.478,-128.982C558.432,-112.622 457.542,-76.6014 370,-56 301.798,-39.9499 223.243,-28.2159 164.802,-20.7617"/>
<polygon fill="midnightblue" stroke="midnightblue" points="165.225,-17.2875 154.867,-19.5109 164.351,-24.2327 165.225,-17.2875"/>
</g>
<!-- Node9&#45;&gt;Node3 -->
<g id="edge22" class="edge"><title>Node9&#45;&gt;Node3</title>
<path fill="none" stroke="midnightblue" d="M621.791,-128.726C616.734,-113.561 608.245,-81.6141 616,-56 619.117,-45.7048 625.452,-35.612 631.501,-27.6023"/>
<polygon fill="midnightblue" stroke="midnightblue" points="634.228,-29.7968 637.786,-19.8175 628.781,-25.3995 634.228,-29.7968"/>
</g>
<!-- Node9&#45;&gt;Node7 -->
<g id="edge20" class="edge"><title>Node9&#45;&gt;Node7</title>
<path fill="none" stroke="midnightblue" d="M596.795,-128.987C589.411,-126.895 581.436,-124.754 574,-123 505.239,-106.782 425.587,-92.3135 371.1,-83.0647"/>
<polygon fill="midnightblue" stroke="midnightblue" points="371.671,-79.6115 361.228,-81.3993 370.506,-86.514 371.671,-79.6115"/>
</g>
<!-- Node10 -->
<g id="node11" class="node"><title>Node10</title>
<g id="a_node11"><a xlink:href="path__impl_8hpp.html" target="_top" xlink:title=" ">
<polygon fill="white" stroke="black" points="1020,-56.5 1020,-86.5 1116,-86.5 1116,-56.5 1020,-56.5"/>
<text text-anchor="start" x="1028" y="-74.5" font-family="Helvetica,sans-Serif" font-size="10.00">arlib/details/path</text>
<text text-anchor="middle" x="1068" y="-63.5" font-family="Helvetica,sans-Serif" font-size="10.00">_impl.hpp</text>
</a>
</g>
</g>
<!-- Node9&#45;&gt;Node10 -->
<g id="edge13" class="edge"><title>Node9&#45;&gt;Node10</title>
<path fill="none" stroke="midnightblue" d="M666.629,-130.543C681.559,-128.094 698.524,-125.364 714,-123 818.116,-107.094 939.708,-90.0909 1009.89,-80.4308"/>
<polygon fill="midnightblue" stroke="midnightblue" points="1010.43,-83.8892 1019.86,-79.0598 1009.47,-76.9544 1010.43,-83.8892"/>
</g>
<!-- Node9&#45;&gt;Node13 -->
<g id="edge17" class="edge"><title>Node9&#45;&gt;Node13</title>
<path fill="none" stroke="midnightblue" d="M598.208,-128.965C590.462,-126.747 581.951,-124.55 574,-123 428.321,-94.604 389.471,-103.759 242,-87 223.934,-84.947 204.372,-82.6535 186.314,-80.5073"/>
<polygon fill="midnightblue" stroke="midnightblue" points="186.512,-77.0061 176.168,-79.2982 185.683,-83.957 186.512,-77.0061"/>
</g>
<!-- Node14 -->
<g id="node15" class="node"><title>Node14</title>
<g id="a_node15"><a xlink:title=" ">
<polygon fill="white" stroke="#bfbfbf" points="625,-62 625,-81 667,-81 667,-62 625,-62"/>
<text text-anchor="middle" x="646" y="-69" font-family="Helvetica,sans-Serif" font-size="10.00">utility</text>
</a>
</g>
</g>
<!-- Node9&#45;&gt;Node14 -->
<g id="edge23" class="edge"><title>Node9&#45;&gt;Node14</title>
<path fill="none" stroke="midnightblue" d="M627.832,-128.734C630.949,-119.085 636.049,-103.3 640.053,-90.9063"/>
<polygon fill="midnightblue" stroke="midnightblue" points="643.469,-91.719 643.213,-81.1273 636.808,-89.567 643.469,-91.719"/>
</g>
<!-- Node10&#45;&gt;Node1 -->
<g id="edge14" class="edge"><title>Node10&#45;&gt;Node1</title>
<path fill="none" stroke="midnightblue" d="M1048.57,-56.3993C1035.79,-47.1293 1019.11,-35.0254 1006.19,-25.6469"/>
<polygon fill="midnightblue" stroke="midnightblue" points="1008.08,-22.6979 997.932,-19.6578 1003.97,-28.3635 1008.08,-22.6979"/>
</g>
<!-- Node10&#45;&gt;Node11 -->
<g id="edge15" class="edge"><title>Node10&#45;&gt;Node11</title>
<path fill="none" stroke="midnightblue" d="M1105.21,-56.3993C1131.78,-46.3271 1167.19,-32.9093 1192.61,-23.2769"/>
<polygon fill="midnightblue" stroke="midnightblue" points="1194.04,-26.4745 1202.16,-19.6578 1191.56,-19.9288 1194.04,-26.4745"/>
</g>
<!-- Node10&#45;&gt;Node12 -->
<g id="edge16" class="edge"><title>Node10&#45;&gt;Node12</title>
<path fill="none" stroke="midnightblue" d="M1083.88,-56.3993C1094.02,-47.3967 1107.16,-35.7214 1117.59,-26.4652"/>
<polygon fill="midnightblue" stroke="midnightblue" points="1120.1,-28.915 1125.25,-19.6578 1115.45,-23.681 1120.1,-28.915"/>
</g>
<!-- Node13&#45;&gt;Node2 -->
<g id="edge18" class="edge"><title>Node13&#45;&gt;Node2</title>
<path fill="none" stroke="midnightblue" d="M113.982,-61.9751C107.745,-53.1384 97.8273,-39.0886 89.9824,-27.975"/>
<polygon fill="midnightblue" stroke="midnightblue" points="92.6327,-25.6604 84.0064,-19.5091 86.9139,-29.6972 92.6327,-25.6604"/>
</g>
<!-- Node13&#45;&gt;Node3 -->
<g id="edge19" class="edge"><title>Node13&#45;&gt;Node3</title>
<path fill="none" stroke="midnightblue" d="M176.172,-63.7361C196.861,-61.2679 220.492,-58.4759 242,-56 352.6,-43.268 480.303,-29.1396 562.032,-20.1706"/>
<polygon fill="midnightblue" stroke="midnightblue" points="562.702,-23.6181 572.261,-19.0486 561.939,-16.6598 562.702,-23.6181"/>
</g>
</g>
</svg>
