<?xml version="1.0" encoding="UTF-8" standalone="no"?>
<!DOCTYPE svg PUBLIC "-//W3C//DTD SVG 1.1//EN"
 "http://www.w3.org/Graphics/SVG/1.1/DTD/svg11.dtd">
<!-- Generated by graphviz version 2.38.0 (20140413.2041)
 -->
<!-- Title: include/arlib/onepass_plus.hpp Pages: 1 -->
<svg width="1812pt" height="363pt"
 viewBox="0.00 0.00 1812.00 363.00" xmlns="http://www.w3.org/2000/svg" xmlns:xlink="http://www.w3.org/1999/xlink">
<g id="graph0" class="graph" transform="scale(1 1) rotate(0) translate(4 359)">
<title>include/arlib/onepass_plus.hpp</title>
<polygon fill="white" stroke="none" points="-4,4 -4,-359 1808,-359 1808,4 -4,4"/>
<!-- Node0 -->
<g id="node1" class="node"><title>Node0</title>
<g id="a_node1"><a xlink:title=" ">
<polygon fill="#bfbfbf" stroke="black" points="1351.5,-324.5 1351.5,-354.5 1468.5,-354.5 1468.5,-324.5 1351.5,-324.5"/>
<text text-anchor="start" x="1359.5" y="-342.5" font-family="Helvetica,sans-Serif" font-size="10.00">include/arlib/onepass</text>
<text text-anchor="middle" x="1410" y="-331.5" font-family="Helvetica,sans-Serif" font-size="10.00">_plus.hpp</text>
</a>
</g>
</g>
<!-- Node1 -->
<g id="node2" class="node"><title>Node1</title>
<g id="a_node2"><a xlink:title=" ">
<polygon fill="white" stroke="#bfbfbf" points="1328.5,-0.5 1328.5,-19.5 1503.5,-19.5 1503.5,-0.5 1328.5,-0.5"/>
<text text-anchor="middle" x="1416" y="-7.5" font-family="Helvetica,sans-Serif" font-size="10.00">boost/graph/graph_concepts.hpp</text>
</a>
</g>
</g>
<!-- Node0&#45;&gt;Node1 -->
<g id="edge1" class="edge"><title>Node0&#45;&gt;Node1</title>
<path fill="none" stroke="midnightblue" d="M1468.76,-334.3C1549.69,-327.689 1690.49,-312.967 1735,-288 1776.39,-264.781 1804,-253.96 1804,-206.5 1804,-206.5 1804,-206.5 1804,-137.5 1804,-73.7111 1612.04,-37.0728 1498.16,-20.9499"/>
<polygon fill="midnightblue" stroke="midnightblue" points="1498.46,-17.4575 1488.07,-19.5459 1497.49,-24.3907 1498.46,-17.4575"/>
</g>
<!-- Node2 -->
<g id="node3" class="node"><title>Node2</title>
<g id="a_node3"><a xlink:title=" ">
<polygon fill="white" stroke="#bfbfbf" points="88,-0.5 88,-19.5 244,-19.5 244,-0.5 88,-0.5"/>
<text text-anchor="middle" x="166" y="-7.5" font-family="Helvetica,sans-Serif" font-size="10.00">boost/graph/graph_traits.hpp</text>
</a>
</g>
</g>
<!-- Node0&#45;&gt;Node2 -->
<g id="edge2" class="edge"><title>Node0&#45;&gt;Node2</title>
<path fill="none" stroke="midnightblue" d="M1351.43,-338.071C1096.17,-335.982 91.1666,-325.402 36,-288 3.22412,-265.779 0,-246.099 0,-206.5 0,-206.5 0,-206.5 0,-137.5 0,-75.1271 75.0576,-39.4388 124.232,-22.7505"/>
<polygon fill="midnightblue" stroke="midnightblue" points="125.57,-25.9956 133.994,-19.5694 123.401,-19.34 125.57,-25.9956"/>
</g>
<!-- Node3 -->
<g id="node4" class="node"><title>Node3</title>
<g id="a_node4"><a xlink:title=" ">
<polygon fill="white" stroke="#bfbfbf" points="298.5,-0.5 298.5,-19.5 445.5,-19.5 445.5,-0.5 298.5,-0.5"/>
<text text-anchor="middle" x="372" y="-7.5" font-family="Helvetica,sans-Serif" font-size="10.00">boost/graph/properties.hpp</text>
</a>
</g>
</g>
<!-- Node0&#45;&gt;Node3 -->
<g id="edge3" class="edge"><title>Node0&#45;&gt;Node3</title>
<path fill="none" stroke="midnightblue" d="M1351.23,-335.199C1150.14,-323.46 490.78,-281.193 288,-221 225.308,-202.391 191.126,-209.785 157,-154 138.68,-124.054 184.734,-56.2269 185,-56 213.457,-31.7595 252.786,-20.1143 288.037,-14.6842"/>
<polygon fill="midnightblue" stroke="midnightblue" points="288.919,-18.0952 298.342,-13.2516 287.955,-11.1619 288.919,-18.0952"/>
</g>
<!-- Node4 -->
<g id="node5" class="node"><title>Node4</title>
<g id="a_node5"><a xlink:href="terminators_8hpp_source.html" target="_top" xlink:title=" ">
<polygon fill="white" stroke="black" points="66.5,-263 66.5,-282 183.5,-282 183.5,-263 66.5,-263"/>
<text text-anchor="middle" x="125" y="-270" font-family="Helvetica,sans-Serif" font-size="10.00">arlib/terminators.hpp</text>
</a>
</g>
</g>
<!-- Node0&#45;&gt;Node4 -->
<g id="edge4" class="edge"><title>Node0&#45;&gt;Node4</title>
<path fill="none" stroke="midnightblue" d="M1351.44,-337.26C1141.27,-332.621 425.411,-315.158 198,-288 189.608,-286.998 180.74,-285.561 172.185,-283.978"/>
<polygon fill="midnightblue" stroke="midnightblue" points="172.818,-280.535 162.335,-282.068 171.486,-287.407 172.818,-280.535"/>
</g>
<!-- Node7 -->
<g id="node8" class="node"><title>Node7</title>
<g id="a_node8"><a xlink:href="type__traits_8hpp.html" target="_top" xlink:title=" ">
<polygon fill="white" stroke="black" points="194,-62 194,-81 306,-81 306,-62 194,-62"/>
<text text-anchor="middle" x="250" y="-69" font-family="Helvetica,sans-Serif" font-size="10.00">arlib/type_traits.hpp</text>
</a>
</g>
</g>
<!-- Node0&#45;&gt;Node7 -->
<g id="edge7" class="edge"><title>Node0&#45;&gt;Node7</title>
<path fill="none" stroke="midnightblue" d="M1351.47,-338.551C1097.61,-338.493 102.51,-335.241 57,-288 26.7814,-256.632 36.4922,-228.425 57,-190 87.9525,-132.004 161.085,-99.5873 207.91,-84.1129"/>
<polygon fill="midnightblue" stroke="midnightblue" points="209.013,-87.4351 217.478,-81.0648 206.888,-80.7653 209.013,-87.4351"/>
</g>
<!-- Node8 -->
<g id="node9" class="node"><title>Node8</title>
<g id="a_node9"><a xlink:href="onepass__plus__impl_8hpp.html" target="_top" xlink:title=" ">
<polygon fill="white" stroke="black" points="1308.5,-257.5 1308.5,-287.5 1423.5,-287.5 1423.5,-257.5 1308.5,-257.5"/>
<text text-anchor="start" x="1316.5" y="-275.5" font-family="Helvetica,sans-Serif" font-size="10.00">arlib/details/onepass</text>
<text text-anchor="middle" x="1366" y="-264.5" font-family="Helvetica,sans-Serif" font-size="10.00">_plus_impl.hpp</text>
</a>
</g>
</g>
<!-- Node0&#45;&gt;Node8 -->
<g id="edge10" class="edge"><title>Node0&#45;&gt;Node8</title>
<path fill="none" stroke="midnightblue" d="M1400.45,-324.396C1394.86,-316.134 1387.67,-305.507 1381.3,-296.102"/>
<polygon fill="midnightblue" stroke="midnightblue" points="1384.03,-293.896 1375.53,-287.577 1378.24,-297.82 1384.03,-293.896"/>
</g>
<!-- Node16 -->
<g id="node17" class="node"><title>Node16</title>
<g id="a_node17"><a xlink:title=" ">
<polygon fill="white" stroke="#bfbfbf" points="1071.5,-0.5 1071.5,-19.5 1128.5,-19.5 1128.5,-0.5 1071.5,-0.5"/>
<text text-anchor="middle" x="1100" y="-7.5" font-family="Helvetica,sans-Serif" font-size="10.00">memory</text>
</a>
</g>
</g>
<!-- Node0&#45;&gt;Node16 -->
<g id="edge48" class="edge"><title>Node0&#45;&gt;Node16</title>
<path fill="none" stroke="midnightblue" d="M1370.11,-324.494C1348.08,-315.771 1320.85,-303.299 1299,-288 1214.81,-229.061 1209.34,-196.002 1137,-123 1121.07,-106.927 1109.8,-107.848 1101,-87 1093.32,-68.8034 1094.28,-45.9058 1096.4,-30.0241"/>
<polygon fill="midnightblue" stroke="midnightblue" points="1099.9,-30.2979 1098.04,-19.8673 1092.99,-29.1803 1099.9,-30.2979"/>
</g>
<!-- Node21 -->
<g id="node22" class="node"><title>Node21</title>
<g id="a_node22"><a xlink:title=" ">
<polygon fill="white" stroke="#bfbfbf" points="1356.5,-129 1356.5,-148 1403.5,-148 1403.5,-129 1356.5,-129"/>
<text text-anchor="middle" x="1380" y="-136" font-family="Helvetica,sans-Serif" font-size="10.00">vector</text>
</a>
</g>
</g>
<!-- Node0&#45;&gt;Node21 -->
<g id="edge51" class="edge"><title>Node0&#45;&gt;Node21</title>
<path fill="none" stroke="midnightblue" d="M1468.91,-333.52C1585.69,-321.504 1828.44,-284.598 1746,-190 1703,-140.662 1496.01,-137.893 1413.78,-138.8"/>
<polygon fill="midnightblue" stroke="midnightblue" points="1413.66,-135.301 1403.71,-138.937 1413.76,-142.3 1413.66,-135.301"/>
</g>
<!-- Node22 -->
<g id="node23" class="node"><title>Node22</title>
<g id="a_node23"><a xlink:title=" ">
<polygon fill="white" stroke="#bfbfbf" points="1432,-196 1432,-215 1484,-215 1484,-196 1432,-196"/>
<text text-anchor="middle" x="1458" y="-203" font-family="Helvetica,sans-Serif" font-size="10.00">cassert</text>
</a>
</g>
</g>
<!-- Node0&#45;&gt;Node22 -->
<g id="edge46" class="edge"><title>Node0&#45;&gt;Node22</title>
<path fill="none" stroke="midnightblue" d="M1416.75,-324.076C1421.32,-314.062 1427.35,-300.352 1432,-288 1439.99,-266.767 1447.7,-241.856 1452.62,-225.216"/>
<polygon fill="midnightblue" stroke="midnightblue" points="1456.11,-225.745 1455.55,-215.165 1449.39,-223.785 1456.11,-225.745"/>
</g>
<!-- Node23 -->
<g id="node24" class="node"><title>Node23</title>
<g id="a_node24"><a xlink:title=" ">
<polygon fill="white" stroke="#bfbfbf" points="1502.5,-196 1502.5,-215 1561.5,-215 1561.5,-196 1502.5,-196"/>
<text text-anchor="middle" x="1532" y="-203" font-family="Helvetica,sans-Serif" font-size="10.00">iostream</text>
</a>
</g>
</g>
<!-- Node0&#45;&gt;Node23 -->
<g id="edge47" class="edge"><title>Node0&#45;&gt;Node23</title>
<path fill="none" stroke="midnightblue" d="M1423.06,-324.374C1445.91,-299.648 1493.01,-248.683 1517.1,-222.62"/>
<polygon fill="midnightblue" stroke="midnightblue" points="1519.84,-224.817 1524.05,-215.097 1514.7,-220.065 1519.84,-224.817"/>
</g>
<!-- Node24 -->
<g id="node25" class="node"><title>Node24</title>
<g id="a_node25"><a xlink:title=" ">
<polygon fill="white" stroke="#bfbfbf" points="1579.5,-196 1579.5,-215 1626.5,-215 1626.5,-196 1579.5,-196"/>
<text text-anchor="middle" x="1603" y="-203" font-family="Helvetica,sans-Serif" font-size="10.00">queue</text>
</a>
</g>
</g>
<!-- Node0&#45;&gt;Node24 -->
<g id="edge49" class="edge"><title>Node0&#45;&gt;Node24</title>
<path fill="none" stroke="midnightblue" d="M1431.06,-324.417C1446.12,-314.324 1466.84,-300.382 1485,-288 1519.14,-264.718 1558.61,-237.369 1582.15,-221.012"/>
<polygon fill="midnightblue" stroke="midnightblue" points="1584.42,-223.696 1590.63,-215.114 1580.42,-217.949 1584.42,-223.696"/>
</g>
<!-- Node25 -->
<g id="node26" class="node"><title>Node25</title>
<g id="a_node26"><a xlink:title=" ">
<polygon fill="white" stroke="#bfbfbf" points="1644.5,-196 1644.5,-215 1737.5,-215 1737.5,-196 1644.5,-196"/>
<text text-anchor="middle" x="1691" y="-203" font-family="Helvetica,sans-Serif" font-size="10.00">unordered_map</text>
</a>
</g>
</g>
<!-- Node0&#45;&gt;Node25 -->
<g id="edge50" class="edge"><title>Node0&#45;&gt;Node25</title>
<path fill="none" stroke="midnightblue" d="M1441.66,-324.302C1463.9,-314.273 1494.34,-300.455 1521,-288 1571.74,-264.297 1630.6,-235.87 1664.06,-219.623"/>
<polygon fill="midnightblue" stroke="midnightblue" points="1665.73,-222.703 1673.19,-215.184 1662.66,-216.408 1665.73,-222.703"/>
</g>
<!-- Node5 -->
<g id="node6" class="node"><title>Node5</title>
<g id="a_node6"><a xlink:title=" ">
<polygon fill="white" stroke="#bfbfbf" points="66,-196 66,-215 116,-215 116,-196 66,-196"/>
<text text-anchor="middle" x="91" y="-203" font-family="Helvetica,sans-Serif" font-size="10.00">chrono</text>
</a>
</g>
</g>
<!-- Node4&#45;&gt;Node5 -->
<g id="edge5" class="edge"><title>Node4&#45;&gt;Node5</title>
<path fill="none" stroke="midnightblue" d="M120.415,-262.734C115.266,-252.89 106.776,-236.66 100.237,-224.159"/>
<polygon fill="midnightblue" stroke="midnightblue" points="103.249,-222.366 95.5127,-215.127 97.0464,-225.611 103.249,-222.366"/>
</g>
<!-- Node6 -->
<g id="node7" class="node"><title>Node6</title>
<g id="a_node7"><a xlink:title=" ">
<polygon fill="white" stroke="#bfbfbf" points="166,-129 166,-148 230,-148 230,-129 166,-129"/>
<text text-anchor="middle" x="198" y="-136" font-family="Helvetica,sans-Serif" font-size="10.00">stdexcept</text>
</a>
</g>
</g>
<!-- Node4&#45;&gt;Node6 -->
<g id="edge6" class="edge"><title>Node4&#45;&gt;Node6</title>
<path fill="none" stroke="midnightblue" d="M129.79,-262.839C141.65,-241.393 172.566,-185.489 188.38,-156.895"/>
<polygon fill="midnightblue" stroke="midnightblue" points="191.511,-158.466 193.288,-148.021 185.385,-155.078 191.511,-158.466"/>
</g>
<!-- Node7&#45;&gt;Node2 -->
<g id="edge8" class="edge"><title>Node7&#45;&gt;Node2</title>
<path fill="none" stroke="midnightblue" d="M237.965,-61.9751C224.492,-52.4315 202.434,-36.8073 186.285,-25.3683"/>
<polygon fill="midnightblue" stroke="midnightblue" points="188.196,-22.4332 178.013,-19.5091 184.15,-28.1454 188.196,-22.4332"/>
</g>
<!-- Node7&#45;&gt;Node3 -->
<g id="edge9" class="edge"><title>Node7&#45;&gt;Node3</title>
<path fill="none" stroke="midnightblue" d="M267.48,-61.9751C287.863,-52.0338 321.775,-35.4947 345.425,-23.961"/>
<polygon fill="midnightblue" stroke="midnightblue" points="347.099,-27.0385 354.553,-19.5091 344.031,-20.7468 347.099,-27.0385"/>
</g>
<!-- Node8&#45;&gt;Node1 -->
<g id="edge11" class="edge"><title>Node8&#45;&gt;Node1</title>
<path fill="none" stroke="midnightblue" d="M1372.02,-257.408C1376.3,-247.31 1382.12,-233.367 1387,-221 1398.66,-191.433 1405.92,-185.196 1412,-154 1420.53,-110.274 1419.07,-57.617 1417.43,-30.0125"/>
<polygon fill="midnightblue" stroke="midnightblue" points="1420.91,-29.5583 1416.75,-19.8149 1413.92,-30.0267 1420.91,-29.5583"/>
</g>
<!-- Node8&#45;&gt;Node2 -->
<g id="edge12" class="edge"><title>Node8&#45;&gt;Node2</title>
<path fill="none" stroke="midnightblue" d="M1308.24,-272.002C1113.63,-273.194 483.104,-272.858 288,-221 224.799,-204.201 191.126,-209.785 157,-154 133.058,-114.863 148.286,-57.8933 158.671,-29.1011"/>
<polygon fill="midnightblue" stroke="midnightblue" points="162.023,-30.1323 162.322,-19.5417 155.484,-27.6347 162.023,-30.1323"/>
</g>
<!-- Node8&#45;&gt;Node3 -->
<g id="edge13" class="edge"><title>Node8&#45;&gt;Node3</title>
<path fill="none" stroke="midnightblue" d="M1308.12,-270.065C1192,-266.538 922.579,-255.09 699,-221 568.227,-201.06 507.258,-242.569 409,-154 373.531,-122.028 370.085,-60.9082 370.842,-29.9599"/>
<polygon fill="midnightblue" stroke="midnightblue" points="374.35,-29.8398 371.28,-19.6996 367.357,-29.5412 374.35,-29.8398"/>
</g>
<!-- Node8&#45;&gt;Node7 -->
<g id="edge38" class="edge"><title>Node8&#45;&gt;Node7</title>
<path fill="none" stroke="midnightblue" d="M1308.27,-270.351C1094.93,-265.894 361.305,-248.613 320,-221 275.065,-190.961 258.291,-123.936 252.614,-91.2062"/>
<polygon fill="midnightblue" stroke="midnightblue" points="256.048,-90.5133 251.041,-81.1765 249.133,-91.5981 256.048,-90.5133"/>
</g>
<!-- Node9 -->
<g id="node10" class="node"><title>Node9</title>
<g id="a_node10"><a xlink:href="arlib__utils_8hpp.html" target="_top" xlink:title=" ">
<polygon fill="white" stroke="black" points="708.5,-190.5 708.5,-220.5 803.5,-220.5 803.5,-190.5 708.5,-190.5"/>
<text text-anchor="start" x="716.5" y="-208.5" font-family="Helvetica,sans-Serif" font-size="10.00">arlib/details/arlib</text>
<text text-anchor="middle" x="756" y="-197.5" font-family="Helvetica,sans-Serif" font-size="10.00">_utils.hpp</text>
</a>
</g>
</g>
<!-- Node8&#45;&gt;Node9 -->
<g id="edge14" class="edge"><title>Node8&#45;&gt;Node9</title>
<path fill="none" stroke="midnightblue" d="M1308.34,-265.356C1192.01,-252.96 930.425,-225.086 813.901,-212.67"/>
<polygon fill="midnightblue" stroke="midnightblue" points="814.07,-209.168 803.755,-211.589 813.328,-216.129 814.07,-209.168"/>
</g>
<!-- Node8&#45;&gt;Node16 -->
<g id="edge41" class="edge"><title>Node8&#45;&gt;Node16</title>
<path fill="none" stroke="midnightblue" d="M1351.41,-257.125C1322.39,-229.027 1254.66,-165.832 1190,-123 1160.5,-103.461 1141.06,-114.66 1119,-87 1105.91,-70.5856 1101.7,-46.331 1100.42,-29.661"/>
<polygon fill="midnightblue" stroke="midnightblue" points="1103.9,-29.3402 1099.92,-19.5215 1096.91,-29.6792 1103.9,-29.3402"/>
</g>
<!-- Node17 -->
<g id="node18" class="node"><title>Node17</title>
<g id="a_node18"><a xlink:title=" ">
<polygon fill="white" stroke="#bfbfbf" points="1209,-0.5 1209,-19.5 1295,-19.5 1295,-0.5 1209,-0.5"/>
<text text-anchor="middle" x="1252" y="-7.5" font-family="Helvetica,sans-Serif" font-size="10.00">unordered_set</text>
</a>
</g>
</g>
<!-- Node8&#45;&gt;Node17 -->
<g id="edge44" class="edge"><title>Node8&#45;&gt;Node17</title>
<path fill="none" stroke="midnightblue" d="M1360.2,-257.085C1349.44,-230.46 1325.52,-171.83 1304,-123 1289.22,-89.4679 1271,-50.7828 1260.51,-28.7752"/>
<polygon fill="midnightblue" stroke="midnightblue" points="1263.63,-27.1761 1256.16,-19.6606 1257.31,-30.1927 1263.63,-27.1761"/>
</g>
<!-- Node8&#45;&gt;Node21 -->
<g id="edge45" class="edge"><title>Node8&#45;&gt;Node21</title>
<path fill="none" stroke="midnightblue" d="M1367.5,-257.374C1370.04,-233.397 1375.2,-184.748 1378.03,-158.056"/>
<polygon fill="midnightblue" stroke="midnightblue" points="1381.51,-158.411 1379.09,-148.097 1374.55,-157.672 1381.51,-158.411"/>
</g>
<!-- Node8&#45;&gt;Node22 -->
<g id="edge39" class="edge"><title>Node8&#45;&gt;Node22</title>
<path fill="none" stroke="midnightblue" d="M1385.96,-257.396C1401.25,-246.597 1422.25,-231.756 1437.64,-220.887"/>
<polygon fill="midnightblue" stroke="midnightblue" points="1439.81,-223.636 1445.96,-215.007 1435.77,-217.919 1439.81,-223.636"/>
</g>
<!-- Node8&#45;&gt;Node23 -->
<g id="edge40" class="edge"><title>Node8&#45;&gt;Node23</title>
<path fill="none" stroke="midnightblue" d="M1402.02,-257.396C1431.53,-245.84 1472.86,-229.656 1500.94,-218.663"/>
<polygon fill="midnightblue" stroke="midnightblue" points="1502.24,-221.912 1510.27,-215.007 1499.69,-215.394 1502.24,-221.912"/>
</g>
<!-- Node8&#45;&gt;Node24 -->
<g id="edge42" class="edge"><title>Node8&#45;&gt;Node24</title>
<path fill="none" stroke="midnightblue" d="M1423.92,-259.936C1465.17,-251.031 1521.65,-237.472 1570,-221 1571.87,-220.364 1573.77,-219.666 1575.68,-218.929"/>
<polygon fill="midnightblue" stroke="midnightblue" points="1577.16,-222.103 1585.07,-215.045 1574.49,-215.635 1577.16,-222.103"/>
</g>
<!-- Node8&#45;&gt;Node25 -->
<g id="edge43" class="edge"><title>Node8&#45;&gt;Node25</title>
<path fill="none" stroke="midnightblue" d="M1423.69,-261.836C1478.32,-252.409 1562.54,-237.164 1635,-221 1639.77,-219.935 1644.75,-218.751 1649.7,-217.532"/>
<polygon fill="midnightblue" stroke="midnightblue" points="1650.86,-220.848 1659.7,-215.005 1649.14,-214.061 1650.86,-220.848"/>
</g>
<!-- Node9&#45;&gt;Node1 -->
<g id="edge18" class="edge"><title>Node9&#45;&gt;Node1</title>
<path fill="none" stroke="midnightblue" d="M803.598,-205.448C884.071,-205.621 1051.13,-199.774 1183,-154 1270.59,-123.599 1360.17,-56.3324 1397.71,-26.1613"/>
<polygon fill="midnightblue" stroke="midnightblue" points="1400.15,-28.6831 1405.7,-19.6583 1395.74,-23.2523 1400.15,-28.6831"/>
</g>
<!-- Node9&#45;&gt;Node2 -->
<g id="edge19" class="edge"><title>Node9&#45;&gt;Node2</title>
<path fill="none" stroke="midnightblue" d="M708.241,-203.937C627.809,-201.88 460.896,-192.826 326,-154 292.663,-144.405 206.977,-113.841 185,-87 171.699,-70.7549 167.53,-46.4655 166.317,-29.7411"/>
<polygon fill="midnightblue" stroke="midnightblue" points="169.806,-29.401 165.873,-19.563 162.812,-29.7061 169.806,-29.401"/>
</g>
<!-- Node9&#45;&gt;Node3 -->
<g id="edge20" class="edge"><title>Node9&#45;&gt;Node3</title>
<path fill="none" stroke="midnightblue" d="M708.302,-202.837C628.212,-199.132 471.301,-187.676 429,-154 418.723,-145.819 390.615,-65.8704 378.124,-29.206"/>
<polygon fill="midnightblue" stroke="midnightblue" points="381.435,-28.0734 374.913,-19.7243 374.805,-30.3186 381.435,-28.0734"/>
</g>
<!-- Node9&#45;&gt;Node6 -->
<g id="edge35" class="edge"><title>Node9&#45;&gt;Node6</title>
<path fill="none" stroke="midnightblue" d="M708.444,-200.461C622.91,-192.968 437.528,-175.685 282,-154 268.334,-152.095 253.481,-149.654 240.118,-147.32"/>
<polygon fill="midnightblue" stroke="midnightblue" points="240.691,-143.867 230.233,-145.567 239.469,-150.76 240.691,-143.867"/>
</g>
<!-- Node9&#45;&gt;Node7 -->
<g id="edge32" class="edge"><title>Node9&#45;&gt;Node7</title>
<path fill="none" stroke="midnightblue" d="M708.417,-203.372C638.287,-200.485 503.831,-190.243 396,-154 347.793,-137.797 297.189,-105.601 270.047,-86.8907"/>
<polygon fill="midnightblue" stroke="midnightblue" points="271.979,-83.9708 261.779,-81.105 267.965,-89.7061 271.979,-83.9708"/>
</g>
<!-- Node10 -->
<g id="node11" class="node"><title>Node10</title>
<g id="a_node11"><a xlink:title=" ">
<polygon fill="white" stroke="#bfbfbf" points="815.5,-129 815.5,-148 976.5,-148 976.5,-129 815.5,-129"/>
<text text-anchor="middle" x="896" y="-136" font-family="Helvetica,sans-Serif" font-size="10.00">boost/graph/astar_search.hpp</text>
</a>
</g>
</g>
<!-- Node9&#45;&gt;Node10 -->
<g id="edge15" class="edge"><title>Node9&#45;&gt;Node10</title>
<path fill="none" stroke="midnightblue" d="M786.378,-190.396C810.834,-179.041 844.911,-163.22 868.552,-152.244"/>
<polygon fill="midnightblue" stroke="midnightblue" points="870.081,-155.393 877.677,-148.007 867.133,-149.044 870.081,-155.393"/>
</g>
<!-- Node11 -->
<g id="node12" class="node"><title>Node11</title>
<g id="a_node12"><a xlink:title=" ">
<polygon fill="white" stroke="#bfbfbf" points="994.5,-123.5 994.5,-153.5 1109.5,-153.5 1109.5,-123.5 994.5,-123.5"/>
<text text-anchor="start" x="1002.5" y="-141.5" font-family="Helvetica,sans-Serif" font-size="10.00">boost/graph/dijkstra</text>
<text text-anchor="middle" x="1052" y="-130.5" font-family="Helvetica,sans-Serif" font-size="10.00">_shortest_paths.hpp</text>
</a>
</g>
</g>
<!-- Node9&#45;&gt;Node11 -->
<g id="edge16" class="edge"><title>Node9&#45;&gt;Node11</title>
<path fill="none" stroke="midnightblue" d="M803.558,-194.057C852.481,-183.313 929.13,-166.482 984.356,-154.354"/>
<polygon fill="midnightblue" stroke="midnightblue" points="985.39,-157.711 994.407,-152.147 983.889,-150.873 985.39,-157.711"/>
</g>
<!-- Node12 -->
<g id="node13" class="node"><title>Node12</title>
<g id="a_node13"><a xlink:title=" ">
<polygon fill="white" stroke="#bfbfbf" points="860,-56.5 860,-86.5 970,-86.5 970,-56.5 860,-56.5"/>
<text text-anchor="start" x="868" y="-74.5" font-family="Helvetica,sans-Serif" font-size="10.00">boost/graph/filtered</text>
<text text-anchor="middle" x="915" y="-63.5" font-family="Helvetica,sans-Serif" font-size="10.00">_graph.hpp</text>
</a>
</g>
</g>
<!-- Node9&#45;&gt;Node12 -->
<g id="edge17" class="edge"><title>Node9&#45;&gt;Node12</title>
<path fill="none" stroke="midnightblue" d="M803.677,-205.223C892.464,-205.439 1077.8,-200.194 1118,-154 1160.8,-104.816 1054.9,-84.9469 980.497,-77.1935"/>
<polygon fill="midnightblue" stroke="midnightblue" points="980.522,-73.679 970.226,-76.1781 979.833,-80.645 980.522,-73.679"/>
</g>
<!-- Node13 -->
<g id="node14" class="node"><title>Node13</title>
<g id="a_node14"><a xlink:title=" ">
<polygon fill="white" stroke="#bfbfbf" points="438.5,-123.5 438.5,-153.5 551.5,-153.5 551.5,-123.5 438.5,-123.5"/>
<text text-anchor="start" x="446.5" y="-141.5" font-family="Helvetica,sans-Serif" font-size="10.00">boost/graph/reverse</text>
<text text-anchor="middle" x="495" y="-130.5" font-family="Helvetica,sans-Serif" font-size="10.00">_graph.hpp</text>
</a>
</g>
</g>
<!-- Node9&#45;&gt;Node13 -->
<g id="edge21" class="edge"><title>Node9&#45;&gt;Node13</title>
<path fill="none" stroke="midnightblue" d="M708.432,-192.654C667.2,-182.385 607.109,-167.42 561.186,-155.983"/>
<polygon fill="midnightblue" stroke="midnightblue" points="561.868,-152.546 551.319,-153.526 560.176,-159.339 561.868,-152.546"/>
</g>
<!-- Node14 -->
<g id="node15" class="node"><title>Node14</title>
<g id="a_node15"><a xlink:href="path_8hpp.html" target="_top" xlink:title=" ">
<polygon fill="white" stroke="black" points="714.5,-129 714.5,-148 797.5,-148 797.5,-129 714.5,-129"/>
<text text-anchor="middle" x="756" y="-136" font-family="Helvetica,sans-Serif" font-size="10.00">arlib/path.hpp</text>
</a>
</g>
</g>
<!-- Node9&#45;&gt;Node14 -->
<g id="edge22" class="edge"><title>Node9&#45;&gt;Node14</title>
<path fill="none" stroke="midnightblue" d="M756,-190.396C756,-181.064 756,-168.714 756,-158.517"/>
<polygon fill="midnightblue" stroke="midnightblue" points="759.5,-158.195 756,-148.195 752.5,-158.195 759.5,-158.195"/>
</g>
<!-- Node9&#45;&gt;Node17 -->
<g id="edge36" class="edge"><title>Node9&#45;&gt;Node17</title>
<path fill="none" stroke="midnightblue" d="M803.508,-205.309C877.397,-205.024 1023.18,-198.218 1137,-154 1185.5,-135.158 1203.48,-129.848 1233,-87 1244.79,-69.8917 1249.27,-46.1417 1250.97,-29.767"/>
<polygon fill="midnightblue" stroke="midnightblue" points="1254.46,-30.0257 1251.76,-19.7812 1247.48,-29.4747 1254.46,-30.0257"/>
</g>
<!-- Node19 -->
<g id="node20" class="node"><title>Node19</title>
<g id="a_node20"><a xlink:title=" ">
<polygon fill="white" stroke="#bfbfbf" points="570,-129 570,-148 622,-148 622,-129 570,-129"/>
<text text-anchor="middle" x="596" y="-136" font-family="Helvetica,sans-Serif" font-size="10.00">iterator</text>
</a>
</g>
</g>
<!-- Node9&#45;&gt;Node19 -->
<g id="edge33" class="edge"><title>Node9&#45;&gt;Node19</title>
<path fill="none" stroke="midnightblue" d="M720.944,-190.433C695.868,-180.348 661.328,-166.408 631,-154 629.41,-153.349 627.779,-152.68 626.134,-152.004"/>
<polygon fill="midnightblue" stroke="midnightblue" points="627.295,-148.697 616.716,-148.118 624.625,-155.167 627.295,-148.697"/>
</g>
<!-- Node20 -->
<g id="node21" class="node"><title>Node20</title>
<g id="a_node21"><a xlink:title=" ">
<polygon fill="white" stroke="#bfbfbf" points="640,-129 640,-148 696,-148 696,-129 640,-129"/>
<text text-anchor="middle" x="668" y="-136" font-family="Helvetica,sans-Serif" font-size="10.00">sstream</text>
</a>
</g>
</g>
<!-- Node9&#45;&gt;Node20 -->
<g id="edge34" class="edge"><title>Node9&#45;&gt;Node20</title>
<path fill="none" stroke="midnightblue" d="M736.905,-190.396C722.421,-179.697 702.568,-165.033 687.892,-154.193"/>
<polygon fill="midnightblue" stroke="midnightblue" points="689.64,-151.133 679.517,-148.007 685.481,-156.764 689.64,-151.133"/>
</g>
<!-- Node9&#45;&gt;Node21 -->
<g id="edge37" class="edge"><title>Node9&#45;&gt;Node21</title>
<path fill="none" stroke="midnightblue" d="M803.507,-200.241C893.724,-192.053 1096.03,-173.221 1266,-154 1293.04,-150.942 1323.63,-147.026 1346.31,-144.035"/>
<polygon fill="midnightblue" stroke="midnightblue" points="1346.99,-147.475 1356.44,-142.691 1346.07,-140.536 1346.99,-147.475"/>
</g>
<!-- Node14&#45;&gt;Node2 -->
<g id="edge29" class="edge"><title>Node14&#45;&gt;Node2</title>
<path fill="none" stroke="midnightblue" d="M727.793,-128.992C720.41,-126.9 712.435,-124.758 705,-123 621.358,-103.228 599.219,-104.145 515,-87 406.92,-64.997 280.549,-36.8805 213.479,-21.7678"/>
<polygon fill="midnightblue" stroke="midnightblue" points="214.155,-18.3323 203.63,-19.5457 212.614,-25.1607 214.155,-18.3323"/>
</g>
<!-- Node14&#45;&gt;Node3 -->
<g id="edge30" class="edge"><title>Node14&#45;&gt;Node3</title>
<path fill="none" stroke="midnightblue" d="M729.908,-128.905C662.783,-106.792 484.037,-47.9081 407.541,-22.7081"/>
<polygon fill="midnightblue" stroke="midnightblue" points="408.468,-19.3286 397.875,-19.5239 406.278,-25.9771 408.468,-19.3286"/>
</g>
<!-- Node14&#45;&gt;Node7 -->
<g id="edge27" class="edge"><title>Node14&#45;&gt;Node7</title>
<path fill="none" stroke="midnightblue" d="M729.487,-128.964C721.67,-126.72 713.053,-124.508 705,-123 536.079,-91.3672 489.96,-112.469 320,-87 312.575,-85.8874 304.751,-84.491 297.13,-83.007"/>
<polygon fill="midnightblue" stroke="midnightblue" points="297.775,-79.5666 287.28,-81.0222 296.392,-86.4287 297.775,-79.5666"/>
</g>
<!-- Node14&#45;&gt;Node12 -->
<g id="edge28" class="edge"><title>Node14&#45;&gt;Node12</title>
<path fill="none" stroke="midnightblue" d="M777.114,-128.869C800.973,-119.115 840.467,-102.97 871.087,-90.452"/>
<polygon fill="midnightblue" stroke="midnightblue" points="872.753,-93.5519 880.685,-86.5281 870.104,-87.0724 872.753,-93.5519"/>
</g>
<!-- Node15 -->
<g id="node16" class="node"><title>Node15</title>
<g id="a_node16"><a xlink:href="path__impl_8hpp.html" target="_top" xlink:title=" ">
<polygon fill="white" stroke="black" points="1128,-56.5 1128,-86.5 1224,-86.5 1224,-56.5 1128,-56.5"/>
<text text-anchor="start" x="1136" y="-74.5" font-family="Helvetica,sans-Serif" font-size="10.00">arlib/details/path</text>
<text text-anchor="middle" x="1176" y="-63.5" font-family="Helvetica,sans-Serif" font-size="10.00">_impl.hpp</text>
</a>
</g>
</g>
<!-- Node14&#45;&gt;Node15 -->
<g id="edge23" class="edge"><title>Node14&#45;&gt;Node15</title>
<path fill="none" stroke="midnightblue" d="M782.804,-128.943C790.259,-126.778 798.396,-124.612 806,-123 915.03,-99.8803 1044.48,-85.0384 1117.76,-77.7828"/>
<polygon fill="midnightblue" stroke="midnightblue" points="1118.1,-81.2657 1127.72,-76.8093 1117.42,-74.2989 1118.1,-81.2657"/>
</g>
<!-- Node18 -->
<g id="node19" class="node"><title>Node18</title>
<g id="a_node19"><a xlink:title=" ">
<polygon fill="white" stroke="#bfbfbf" points="735,-62 735,-81 777,-81 777,-62 735,-62"/>
<text text-anchor="middle" x="756" y="-69" font-family="Helvetica,sans-Serif" font-size="10.00">utility</text>
</a>
</g>
</g>
<!-- Node14&#45;&gt;Node18 -->
<g id="edge31" class="edge"><title>Node14&#45;&gt;Node18</title>
<path fill="none" stroke="midnightblue" d="M756,-128.734C756,-119.183 756,-103.618 756,-91.2829"/>
<polygon fill="midnightblue" stroke="midnightblue" points="759.5,-91.1273 756,-81.1273 752.5,-91.1273 759.5,-91.1273"/>
</g>
<!-- Node15&#45;&gt;Node1 -->
<g id="edge24" class="edge"><title>Node15&#45;&gt;Node1</title>
<path fill="none" stroke="midnightblue" d="M1224.28,-58.5309C1267.27,-47.8717 1329.67,-32.4023 1371.48,-22.0363"/>
<polygon fill="midnightblue" stroke="midnightblue" points="1372.52,-25.3854 1381.38,-19.5818 1370.84,-18.5911 1372.52,-25.3854"/>
</g>
<!-- Node15&#45;&gt;Node16 -->
<g id="edge25" class="edge"><title>Node15&#45;&gt;Node16</title>
<path fill="none" stroke="midnightblue" d="M1157.99,-56.3993C1146.26,-47.2185 1130.98,-35.2579 1119.06,-25.9182"/>
<polygon fill="midnightblue" stroke="midnightblue" points="1121.09,-23.0664 1111.06,-19.6578 1116.78,-28.5782 1121.09,-23.0664"/>
</g>
<!-- Node15&#45;&gt;Node17 -->
<g id="edge26" class="edge"><title>Node15&#45;&gt;Node17</title>
<path fill="none" stroke="midnightblue" d="M1194.01,-56.3993C1205.74,-47.2185 1221.02,-35.2579 1232.94,-25.9182"/>
<polygon fill="midnightblue" stroke="midnightblue" points="1235.22,-28.5782 1240.94,-19.6578 1230.91,-23.0664 1235.22,-28.5782"/>
</g>
</g>
</svg>
