<?xml version="1.0" encoding="UTF-8" standalone="no"?>
<!DOCTYPE svg PUBLIC "-//W3C//DTD SVG 1.1//EN"
 "http://www.w3.org/Graphics/SVG/1.1/DTD/svg11.dtd">
<!-- Generated by graphviz version 2.38.0 (20140413.2041)
 -->
<!-- Title: include/arlib/path.hpp Pages: 1 -->
<svg width="587pt" height="363pt"
 viewBox="0.00 0.00 587.04 363.00" xmlns="http://www.w3.org/2000/svg" xmlns:xlink="http://www.w3.org/1999/xlink">
<g id="graph0" class="graph" transform="scale(1 1) rotate(0) translate(4 359)">
<title>include/arlib/path.hpp</title>
<polygon fill="white" stroke="none" points="-4,4 -4,-359 583.035,-359 583.035,4 -4,4"/>
<!-- Node10 -->
<g id="node1" class="node"><title>Node10</title>
<g id="a_node1"><a xlink:title=" ">
<polygon fill="#bfbfbf" stroke="black" points="259.535,-335.5 259.535,-354.5 378.535,-354.5 378.535,-335.5 259.535,-335.5"/>
<text text-anchor="middle" x="319.035" y="-342.5" font-family="Helvetica,sans-Serif" font-size="10.00">include/arlib/path.hpp</text>
</a>
</g>
</g>
<!-- Node11 -->
<g id="node2" class="node"><title>Node11</title>
<g id="a_node2"><a xlink:href="arlib_8hpp_source.html" target="_top" xlink:title=" ">
<polygon fill="white" stroke="black" points="234.035,-0.5 234.035,-19.5 352.035,-19.5 352.035,-0.5 234.035,-0.5"/>
<text text-anchor="middle" x="293.035" y="-7.5" font-family="Helvetica,sans-Serif" font-size="10.00">include/arlib/arlib.hpp</text>
</a>
</g>
</g>
<!-- Node10&#45;&gt;Node11 -->
<g id="edge1" class="edge"><title>Node10&#45;&gt;Node11</title>
<path fill="none" stroke="midnightblue" d="M249.179,-344.278C155.836,-340.56 2.03538,-318.303 2.03538,-212 2.03538,-212 2.03538,-212 2.03538,-137.5 2.03538,-100.306 -6.10615,-81.4302 21.0354,-56 51.03,-27.8966 163.206,-17.2475 233.793,-13.2821"/>
<polygon fill="midnightblue" stroke="midnightblue" points="249.298,-347.784 259.41,-344.622 249.533,-340.788 249.298,-347.784"/>
</g>
<!-- Node12 -->
<g id="node3" class="node"><title>Node12</title>
<g id="a_node3"><a xlink:href="arlib__utils_8hpp.html" target="_top" xlink:title=" ">
<polygon fill="white" stroke="black" points="265.035,-268.5 265.035,-298.5 373.035,-298.5 373.035,-268.5 265.035,-268.5"/>
<text text-anchor="start" x="273.035" y="-286.5" font-family="Helvetica,sans-Serif" font-size="10.00">include/arlib/details</text>
<text text-anchor="middle" x="319.035" y="-275.5" font-family="Helvetica,sans-Serif" font-size="10.00">/arlib_utils.hpp</text>
</a>
</g>
</g>
<!-- Node10&#45;&gt;Node12 -->
<g id="edge2" class="edge"><title>Node10&#45;&gt;Node12</title>
<path fill="none" stroke="midnightblue" d="M319.035,-325.235C319.035,-316.586 319.035,-306.497 319.035,-298.523"/>
<polygon fill="midnightblue" stroke="midnightblue" points="315.535,-325.475 319.035,-335.475 322.535,-325.475 315.535,-325.475"/>
</g>
<!-- Node22 -->
<g id="node13" class="node"><title>Node22</title>
<g id="a_node13"><a xlink:href="graph__utils_8hpp.html" target="_top" xlink:title=" ">
<polygon fill="white" stroke="black" points="475.035,-268.5 475.035,-298.5 579.035,-298.5 579.035,-268.5 475.035,-268.5"/>
<text text-anchor="start" x="483.035" y="-286.5" font-family="Helvetica,sans-Serif" font-size="10.00">include/arlib/graph</text>
<text text-anchor="middle" x="527.035" y="-275.5" font-family="Helvetica,sans-Serif" font-size="10.00">_utils.hpp</text>
</a>
</g>
</g>
<!-- Node10&#45;&gt;Node22 -->
<g id="edge19" class="edge"><title>Node10&#45;&gt;Node22</title>
<path fill="none" stroke="midnightblue" d="M358.856,-332.609C392.787,-322.903 441.682,-308.916 478.014,-298.523"/>
<polygon fill="midnightblue" stroke="midnightblue" points="357.488,-329.36 348.837,-335.475 359.414,-336.09 357.488,-329.36"/>
</g>
<!-- Node13 -->
<g id="node4" class="node"><title>Node13</title>
<g id="a_node4"><a xlink:href="esx__impl_8hpp.html" target="_top" xlink:title=" ">
<polygon fill="white" stroke="black" points="136.035,-123.5 136.035,-153.5 244.035,-153.5 244.035,-123.5 136.035,-123.5"/>
<text text-anchor="start" x="144.035" y="-141.5" font-family="Helvetica,sans-Serif" font-size="10.00">include/arlib/details</text>
<text text-anchor="middle" x="190.035" y="-130.5" font-family="Helvetica,sans-Serif" font-size="10.00">/esx_impl.hpp</text>
</a>
</g>
</g>
<!-- Node12&#45;&gt;Node13 -->
<g id="edge3" class="edge"><title>Node12&#45;&gt;Node13</title>
<path fill="none" stroke="midnightblue" d="M255.266,-265.084C237.997,-257.51 220.839,-246.852 209.035,-232 190.88,-209.154 188.786,-173.358 189.196,-153.666"/>
<polygon fill="midnightblue" stroke="midnightblue" points="254.257,-268.452 264.838,-268.981 256.897,-261.969 254.257,-268.452"/>
</g>
<!-- Node15 -->
<g id="node6" class="node"><title>Node15</title>
<g id="a_node6"><a xlink:href="onepass__plus__impl_8hpp.html" target="_top" xlink:title=" ">
<polygon fill="white" stroke="black" points="30.5354,-196 30.5354,-226 161.535,-226 161.535,-196 30.5354,-196"/>
<text text-anchor="start" x="38.5354" y="-214" font-family="Helvetica,sans-Serif" font-size="10.00">include/arlib/details</text>
<text text-anchor="middle" x="96.0354" y="-203" font-family="Helvetica,sans-Serif" font-size="10.00">/onepass_plus_impl.hpp</text>
</a>
</g>
</g>
<!-- Node12&#45;&gt;Node15 -->
<g id="edge6" class="edge"><title>Node12&#45;&gt;Node15</title>
<path fill="none" stroke="midnightblue" d="M264.815,-265.358C226.734,-253.32 176.417,-237.412 140.657,-226.107"/>
<polygon fill="midnightblue" stroke="midnightblue" points="264.121,-268.81 274.711,-268.487 266.231,-262.136 264.121,-268.81"/>
</g>
<!-- Node17 -->
<g id="node8" class="node"><title>Node17</title>
<g id="a_node8"><a xlink:href="penalty__impl_8hpp.html" target="_top" xlink:title=" ">
<polygon fill="white" stroke="black" points="262.035,-123.5 262.035,-153.5 370.035,-153.5 370.035,-123.5 262.035,-123.5"/>
<text text-anchor="start" x="270.035" y="-141.5" font-family="Helvetica,sans-Serif" font-size="10.00">include/arlib/details</text>
<text text-anchor="middle" x="316.035" y="-130.5" font-family="Helvetica,sans-Serif" font-size="10.00">/penalty_impl.hpp</text>
</a>
</g>
</g>
<!-- Node12&#45;&gt;Node17 -->
<g id="edge9" class="edge"><title>Node12&#45;&gt;Node17</title>
<path fill="none" stroke="midnightblue" d="M333.246,-259.409C337.606,-251.083 341.833,-241.412 344.035,-232 348.288,-213.824 348.71,-208.072 344.035,-190 340.621,-176.801 332.932,-163.373 326.474,-153.685"/>
<polygon fill="midnightblue" stroke="midnightblue" points="330.183,-257.716 328.367,-268.154 336.296,-261.126 330.183,-257.716"/>
</g>
<!-- Node19 -->
<g id="node10" class="node"><title>Node19</title>
<g id="a_node10"><a xlink:href="reorder__buffer_8hpp_source.html" target="_top" xlink:title=" ">
<polygon fill="white" stroke="black" points="430.035,-196 430.035,-226 542.035,-226 542.035,-196 430.035,-196"/>
<text text-anchor="start" x="438.035" y="-214" font-family="Helvetica,sans-Serif" font-size="10.00">include/arlib/reorder</text>
<text text-anchor="middle" x="486.035" y="-203" font-family="Helvetica,sans-Serif" font-size="10.00">_buffer.hpp</text>
</a>
</g>
</g>
<!-- Node12&#45;&gt;Node19 -->
<g id="edge12" class="edge"><title>Node12&#45;&gt;Node19</title>
<path fill="none" stroke="midnightblue" d="M361.676,-264.499C389.961,-252.559 426.547,-237.114 452.7,-226.073"/>
<polygon fill="midnightblue" stroke="midnightblue" points="360.28,-261.289 352.429,-268.403 363.003,-267.738 360.28,-261.289"/>
</g>
<!-- Node20 -->
<g id="node11" class="node"><title>Node20</title>
<g id="a_node11"><a xlink:href="bidirectional__dijkstra_8hpp.html" target="_top" xlink:title=" ">
<polygon fill="white" stroke="black" points="218.535,-190.5 218.535,-231.5 335.535,-231.5 335.535,-190.5 218.535,-190.5"/>
<text text-anchor="start" x="226.535" y="-219.5" font-family="Helvetica,sans-Serif" font-size="10.00">include/arlib/routing</text>
<text text-anchor="start" x="226.535" y="-208.5" font-family="Helvetica,sans-Serif" font-size="10.00">_kernels/bidirectional</text>
<text text-anchor="middle" x="277.035" y="-197.5" font-family="Helvetica,sans-Serif" font-size="10.00">_dijkstra.hpp</text>
</a>
</g>
</g>
<!-- Node12&#45;&gt;Node20 -->
<g id="edge13" class="edge"><title>Node12&#45;&gt;Node20</title>
<path fill="none" stroke="midnightblue" d="M305.281,-259.411C299.922,-250.416 293.845,-240.217 288.705,-231.588"/>
<polygon fill="midnightblue" stroke="midnightblue" points="302.411,-261.434 310.536,-268.233 308.425,-257.851 302.411,-261.434"/>
</g>
<!-- Node21 -->
<g id="node12" class="node"><title>Node21</title>
<g id="a_node12"><a xlink:href="uninformed__bidirectional__pruning_8hpp.html" target="_top" xlink:title=" ">
<polygon fill="white" stroke="black" points="388.035,-123.5 388.035,-153.5 530.035,-153.5 530.035,-123.5 388.035,-123.5"/>
<text text-anchor="start" x="396.035" y="-141.5" font-family="Helvetica,sans-Serif" font-size="10.00">include/arlib/uninformed</text>
<text text-anchor="middle" x="459.035" y="-130.5" font-family="Helvetica,sans-Serif" font-size="10.00">_bidirectional_pruning.hpp</text>
</a>
</g>
</g>
<!-- Node12&#45;&gt;Node21 -->
<g id="edge18" class="edge"><title>Node12&#45;&gt;Node21</title>
<path fill="none" stroke="midnightblue" d="M340.18,-260.902C369.2,-231.261 420.563,-178.797 445.156,-153.677"/>
<polygon fill="midnightblue" stroke="midnightblue" points="337.466,-258.672 332.971,-268.266 342.468,-263.569 337.466,-258.672"/>
</g>
<!-- Node14 -->
<g id="node5" class="node"><title>Node14</title>
<g id="a_node5"><a xlink:href="esx_8hpp.html" target="_top" xlink:title=" ">
<polygon fill="white" stroke="black" points="166.035,-62 166.035,-81 280.035,-81 280.035,-62 166.035,-62"/>
<text text-anchor="middle" x="223.035" y="-69" font-family="Helvetica,sans-Serif" font-size="10.00">include/arlib/esx.hpp</text>
</a>
</g>
</g>
<!-- Node13&#45;&gt;Node14 -->
<g id="edge4" class="edge"><title>Node13&#45;&gt;Node14</title>
<path fill="none" stroke="midnightblue" d="M201.82,-114.287C207.651,-102.803 214.339,-89.6298 218.621,-81.1945"/>
<polygon fill="midnightblue" stroke="midnightblue" points="198.602,-112.895 197.196,-123.396 204.844,-116.064 198.602,-112.895"/>
</g>
<!-- Node14&#45;&gt;Node11 -->
<g id="edge5" class="edge"><title>Node14&#45;&gt;Node11</title>
<path fill="none" stroke="midnightblue" d="M240.715,-55.4727C254.103,-44.0925 272.013,-28.8694 283.025,-19.5091"/>
<polygon fill="midnightblue" stroke="midnightblue" points="238.417,-52.8318 233.065,-61.9751 242.951,-58.1654 238.417,-52.8318"/>
</g>
<!-- Node16 -->
<g id="node7" class="node"><title>Node16</title>
<g id="a_node7"><a xlink:href="onepass__plus_8hpp.html" target="_top" xlink:title=" ">
<polygon fill="white" stroke="black" points="30.5354,-56.5 30.5354,-86.5 147.535,-86.5 147.535,-56.5 30.5354,-56.5"/>
<text text-anchor="start" x="38.5354" y="-74.5" font-family="Helvetica,sans-Serif" font-size="10.00">include/arlib/onepass</text>
<text text-anchor="middle" x="89.0354" y="-63.5" font-family="Helvetica,sans-Serif" font-size="10.00">_plus.hpp</text>
</a>
</g>
</g>
<!-- Node15&#45;&gt;Node16 -->
<g id="edge7" class="edge"><title>Node15&#45;&gt;Node16</title>
<path fill="none" stroke="midnightblue" d="M94.8027,-185.787C93.3427,-157.107 90.9585,-110.275 89.7647,-86.8258"/>
<polygon fill="midnightblue" stroke="midnightblue" points="91.3086,-185.994 95.3126,-195.803 98.2996,-185.638 91.3086,-185.994"/>
</g>
<!-- Node16&#45;&gt;Node11 -->
<g id="edge8" class="edge"><title>Node16&#45;&gt;Node11</title>
<path fill="none" stroke="midnightblue" d="M147.088,-53.5681C185.241,-42.44 233.538,-28.3534 263.871,-19.5064"/>
<polygon fill="midnightblue" stroke="midnightblue" points="145.742,-50.3146 137.122,-56.4747 147.702,-57.0346 145.742,-50.3146"/>
</g>
<!-- Node18 -->
<g id="node9" class="node"><title>Node18</title>
<g id="a_node9"><a xlink:href="penalty_8hpp.html" target="_top" xlink:title=" ">
<polygon fill="white" stroke="black" points="298.535,-62 298.535,-81 429.535,-81 429.535,-62 298.535,-62"/>
<text text-anchor="middle" x="364.035" y="-69" font-family="Helvetica,sans-Serif" font-size="10.00">include/arlib/penalty.hpp</text>
</a>
</g>
</g>
<!-- Node17&#45;&gt;Node18 -->
<g id="edge10" class="edge"><title>Node17&#45;&gt;Node18</title>
<path fill="none" stroke="midnightblue" d="M332.417,-115.316C341.071,-103.598 351.199,-89.8829 357.615,-81.1945"/>
<polygon fill="midnightblue" stroke="midnightblue" points="329.576,-113.272 326.451,-123.396 335.207,-117.431 329.576,-113.272"/>
</g>
<!-- Node18&#45;&gt;Node11 -->
<g id="edge11" class="edge"><title>Node18&#45;&gt;Node11</title>
<path fill="none" stroke="midnightblue" d="M346.104,-55.4727C332.524,-44.0925 314.358,-28.8694 303.189,-19.5091"/>
<polygon fill="midnightblue" stroke="midnightblue" points="343.95,-58.2346 353.863,-61.9751 348.446,-52.8694 343.95,-58.2346"/>
</g>
<!-- Node20&#45;&gt;Node13 -->
<g id="edge14" class="edge"><title>Node20&#45;&gt;Node13</title>
<path fill="none" stroke="midnightblue" d="M244.757,-183.844C232.147,-173.625 218.186,-162.312 207.522,-153.67"/>
<polygon fill="midnightblue" stroke="midnightblue" points="242.828,-186.785 252.801,-190.362 247.235,-181.347 242.828,-186.785"/>
</g>
<!-- Node20&#45;&gt;Node17 -->
<g id="edge15" class="edge"><title>Node20&#45;&gt;Node17</title>
<path fill="none" stroke="midnightblue" d="M292.771,-181.555C298.029,-172.051 303.666,-161.861 308.074,-153.892"/>
<polygon fill="midnightblue" stroke="midnightblue" points="289.677,-179.917 287.899,-190.362 295.802,-183.306 289.677,-179.917"/>
</g>
<!-- Node20&#45;&gt;Node21 -->
<g id="edge16" class="edge"><title>Node20&#45;&gt;Node21</title>
<path fill="none" stroke="midnightblue" d="M337.141,-186.717C365.45,-175.751 398.285,-163.032 422.74,-153.56"/>
<polygon fill="midnightblue" stroke="midnightblue" points="335.793,-183.486 327.733,-190.362 338.322,-190.013 335.793,-183.486"/>
</g>
<!-- Node21&#45;&gt;Node11 -->
<g id="edge17" class="edge"><title>Node21&#45;&gt;Node11</title>
<path fill="none" stroke="midnightblue" d="M458.849,-113.389C457.429,-95.3754 452.624,-71.3178 438.035,-56 415.767,-32.619 381.608,-21.3104 352.038,-15.8742"/>
<polygon fill="midnightblue" stroke="midnightblue" points="455.357,-113.624 459.349,-123.438 462.348,-113.276 455.357,-113.624"/>
</g>
<!-- Node22&#45;&gt;Node11 -->
<g id="edge20" class="edge"><title>Node22&#45;&gt;Node11</title>
<path fill="none" stroke="midnightblue" d="M540.817,-259.077C544.955,-250.807 548.948,-241.256 551.035,-232 561.758,-184.457 563.35,-165.239 539.035,-123 500.992,-56.912 412.126,-29.5969 352.287,-18.46"/>
<polygon fill="midnightblue" stroke="midnightblue" points="537.62,-257.633 535.997,-268.103 543.795,-260.93 537.62,-257.633"/>
</g>
</g>
</svg>
