<?xml version="1.0" encoding="UTF-8" standalone="no"?>
<!DOCTYPE svg PUBLIC "-//W3C//DTD SVG 1.1//EN"
 "http://www.w3.org/Graphics/SVG/1.1/DTD/svg11.dtd">
<!-- Generated by graphviz version 2.38.0 (20140413.2041)
 -->
<!-- Title: include/arlib/path.hpp Pages: 1 -->
<svg width="825pt" height="151pt"
 viewBox="0.00 0.00 824.50 151.00" xmlns="http://www.w3.org/2000/svg" xmlns:xlink="http://www.w3.org/1999/xlink">
<g id="graph0" class="graph" transform="scale(1 1) rotate(0) translate(4 147)">
<title>include/arlib/path.hpp</title>
<polygon fill="white" stroke="none" points="-4,4 -4,-147 820.5,-147 820.5,4 -4,4"/>
<!-- Node0 -->
<g id="node1" class="node"><title>Node0</title>
<g id="a_node1"><a xlink:title=" ">
<polygon fill="#bfbfbf" stroke="black" points="517,-123.5 517,-142.5 636,-142.5 636,-123.5 517,-123.5"/>
<text text-anchor="middle" x="576.5" y="-130.5" font-family="Helvetica,sans-Serif" font-size="10.00">include/arlib/path.hpp</text>
</a>
</g>
</g>
<!-- Node1 -->
<g id="node2" class="node"><title>Node1</title>
<g id="a_node2"><a xlink:href="path__impl_8hpp.html" target="_top" xlink:title=" ">
<polygon fill="white" stroke="black" points="218.5,-56.5 218.5,-86.5 314.5,-86.5 314.5,-56.5 218.5,-56.5"/>
<text text-anchor="start" x="226.5" y="-74.5" font-family="Helvetica,sans-Serif" font-size="10.00">arlib/details/path</text>
<text text-anchor="middle" x="266.5" y="-63.5" font-family="Helvetica,sans-Serif" font-size="10.00">_impl.hpp</text>
</a>
</g>
</g>
<!-- Node0&#45;&gt;Node1 -->
<g id="edge1" class="edge"><title>Node0&#45;&gt;Node1</title>
<path fill="none" stroke="midnightblue" d="M532.085,-123.475C477.563,-113.011 384.953,-95.2353 324.764,-83.6829"/>
<polygon fill="midnightblue" stroke="midnightblue" points="325.138,-80.1908 314.657,-81.7431 323.818,-87.0653 325.138,-80.1908"/>
</g>
<!-- Node5 -->
<g id="node6" class="node"><title>Node5</title>
<g id="a_node6"><a xlink:href="type__traits_8hpp.html" target="_top" xlink:title=" ">
<polygon fill="white" stroke="black" points="478.5,-62 478.5,-81 590.5,-81 590.5,-62 478.5,-62"/>
<text text-anchor="middle" x="534.5" y="-69" font-family="Helvetica,sans-Serif" font-size="10.00">arlib/type_traits.hpp</text>
</a>
</g>
</g>
<!-- Node0&#45;&gt;Node5 -->
<g id="edge5" class="edge"><title>Node0&#45;&gt;Node5</title>
<path fill="none" stroke="midnightblue" d="M570.482,-123.475C564.245,-114.638 554.327,-100.589 546.482,-89.475"/>
<polygon fill="midnightblue" stroke="midnightblue" points="549.133,-87.1604 540.506,-81.0091 543.414,-91.1972 549.133,-87.1604"/>
</g>
<!-- Node6 -->
<g id="node7" class="node"><title>Node6</title>
<g id="a_node7"><a xlink:title=" ">
<polygon fill="white" stroke="#bfbfbf" points="372.5,-0.5 372.5,-19.5 528.5,-19.5 528.5,-0.5 372.5,-0.5"/>
<text text-anchor="middle" x="450.5" y="-7.5" font-family="Helvetica,sans-Serif" font-size="10.00">boost/graph/graph_traits.hpp</text>
</a>
</g>
</g>
<!-- Node0&#45;&gt;Node6 -->
<g id="edge9" class="edge"><title>Node0&#45;&gt;Node6</title>
<path fill="none" stroke="midnightblue" d="M533.2,-123.498C511.173,-117.03 485.701,-105.893 469.5,-87 455.833,-71.0617 451.74,-46.709 450.644,-29.8861"/>
<polygon fill="midnightblue" stroke="midnightblue" points="454.133,-29.509 450.283,-19.6383 447.137,-29.7552 454.133,-29.509"/>
</g>
<!-- Node7 -->
<g id="node8" class="node"><title>Node7</title>
<g id="a_node8"><a xlink:title=" ">
<polygon fill="white" stroke="#bfbfbf" points="547,-0.5 547,-19.5 694,-19.5 694,-0.5 547,-0.5"/>
<text text-anchor="middle" x="620.5" y="-7.5" font-family="Helvetica,sans-Serif" font-size="10.00">boost/graph/properties.hpp</text>
</a>
</g>
</g>
<!-- Node0&#45;&gt;Node7 -->
<g id="edge10" class="edge"><title>Node0&#45;&gt;Node7</title>
<path fill="none" stroke="midnightblue" d="M581.63,-123.281C586.698,-114.39 594.41,-100.083 599.5,-87 606.929,-67.9058 612.849,-45.1602 616.486,-29.5596"/>
<polygon fill="midnightblue" stroke="midnightblue" points="619.942,-30.1411 618.719,-19.6171 613.113,-28.607 619.942,-30.1411"/>
</g>
<!-- Node8 -->
<g id="node9" class="node"><title>Node8</title>
<g id="a_node9"><a xlink:title=" ">
<polygon fill="white" stroke="#bfbfbf" points="646.5,-56.5 646.5,-86.5 756.5,-86.5 756.5,-56.5 646.5,-56.5"/>
<text text-anchor="start" x="654.5" y="-74.5" font-family="Helvetica,sans-Serif" font-size="10.00">boost/graph/filtered</text>
<text text-anchor="middle" x="701.5" y="-63.5" font-family="Helvetica,sans-Serif" font-size="10.00">_graph.hpp</text>
</a>
</g>
</g>
<!-- Node0&#45;&gt;Node8 -->
<g id="edge8" class="edge"><title>Node0&#45;&gt;Node8</title>
<path fill="none" stroke="midnightblue" d="M594.409,-123.475C612.209,-115.002 640.077,-101.737 662.923,-90.8628"/>
<polygon fill="midnightblue" stroke="midnightblue" points="664.515,-93.9812 672.04,-86.523 661.506,-87.6607 664.515,-93.9812"/>
</g>
<!-- Node9 -->
<g id="node10" class="node"><title>Node9</title>
<g id="a_node10"><a xlink:title=" ">
<polygon fill="white" stroke="#bfbfbf" points="774.5,-62 774.5,-81 816.5,-81 816.5,-62 774.5,-62"/>
<text text-anchor="middle" x="795.5" y="-69" font-family="Helvetica,sans-Serif" font-size="10.00">utility</text>
</a>
</g>
</g>
<!-- Node0&#45;&gt;Node9 -->
<g id="edge11" class="edge"><title>Node0&#45;&gt;Node9</title>
<path fill="none" stroke="midnightblue" d="M625.104,-123.439C663.781,-115.913 718.947,-103.571 765.5,-87 766.931,-86.4908 768.383,-85.9335 769.838,-85.3434"/>
<polygon fill="midnightblue" stroke="midnightblue" points="771.564,-88.4059 779.27,-81.1342 768.712,-82.0136 771.564,-88.4059"/>
</g>
<!-- Node2 -->
<g id="node3" class="node"><title>Node2</title>
<g id="a_node3"><a xlink:title=" ">
<polygon fill="white" stroke="#bfbfbf" points="0,-0.5 0,-19.5 175,-19.5 175,-0.5 0,-0.5"/>
<text text-anchor="middle" x="87.5" y="-7.5" font-family="Helvetica,sans-Serif" font-size="10.00">boost/graph/graph_concepts.hpp</text>
</a>
</g>
</g>
<!-- Node1&#45;&gt;Node2 -->
<g id="edge2" class="edge"><title>Node1&#45;&gt;Node2</title>
<path fill="none" stroke="midnightblue" d="M224.079,-56.3993C193.284,-46.1627 152.091,-32.4703 123.024,-22.8082"/>
<polygon fill="midnightblue" stroke="midnightblue" points="123.878,-19.404 113.285,-19.5709 121.67,-26.0466 123.878,-19.404"/>
</g>
<!-- Node3 -->
<g id="node4" class="node"><title>Node3</title>
<g id="a_node4"><a xlink:title=" ">
<polygon fill="white" stroke="#bfbfbf" points="193,-0.5 193,-19.5 250,-19.5 250,-0.5 193,-0.5"/>
<text text-anchor="middle" x="221.5" y="-7.5" font-family="Helvetica,sans-Serif" font-size="10.00">memory</text>
</a>
</g>
</g>
<!-- Node1&#45;&gt;Node3 -->
<g id="edge3" class="edge"><title>Node1&#45;&gt;Node3</title>
<path fill="none" stroke="midnightblue" d="M255.836,-56.3993C249.364,-47.8424 241.066,-36.8708 234.249,-27.857"/>
<polygon fill="midnightblue" stroke="midnightblue" points="236.872,-25.5223 228.048,-19.6578 231.289,-29.7449 236.872,-25.5223"/>
</g>
<!-- Node4 -->
<g id="node5" class="node"><title>Node4</title>
<g id="a_node5"><a xlink:title=" ">
<polygon fill="white" stroke="#bfbfbf" points="268.5,-0.5 268.5,-19.5 354.5,-19.5 354.5,-0.5 268.5,-0.5"/>
<text text-anchor="middle" x="311.5" y="-7.5" font-family="Helvetica,sans-Serif" font-size="10.00">unordered_set</text>
</a>
</g>
</g>
<!-- Node1&#45;&gt;Node4 -->
<g id="edge4" class="edge"><title>Node1&#45;&gt;Node4</title>
<path fill="none" stroke="midnightblue" d="M277.164,-56.3993C283.636,-47.8424 291.934,-36.8708 298.751,-27.857"/>
<polygon fill="midnightblue" stroke="midnightblue" points="301.711,-29.7449 304.952,-19.6578 296.128,-25.5223 301.711,-29.7449"/>
</g>
<!-- Node5&#45;&gt;Node6 -->
<g id="edge6" class="edge"><title>Node5&#45;&gt;Node6</title>
<path fill="none" stroke="midnightblue" d="M522.465,-61.9751C508.992,-52.4315 486.934,-36.8073 470.785,-25.3683"/>
<polygon fill="midnightblue" stroke="midnightblue" points="472.696,-22.4332 462.513,-19.5091 468.65,-28.1454 472.696,-22.4332"/>
</g>
<!-- Node5&#45;&gt;Node7 -->
<g id="edge7" class="edge"><title>Node5&#45;&gt;Node7</title>
<path fill="none" stroke="midnightblue" d="M546.822,-61.9751C560.616,-52.4315 583.199,-36.8073 599.732,-25.3683"/>
<polygon fill="midnightblue" stroke="midnightblue" points="601.969,-28.077 608.201,-19.5091 597.986,-22.3205 601.969,-28.077"/>
</g>
</g>
</svg>
