<?xml version="1.0" encoding="UTF-8" standalone="no"?>
<!DOCTYPE svg PUBLIC "-//W3C//DTD SVG 1.1//EN"
 "http://www.w3.org/Graphics/SVG/1.1/DTD/svg11.dtd">
<!-- Generated by graphviz version 2.38.0 (20140413.2041)
 -->
<!-- Title: include/arlib/details/penalty_impl.hpp Pages: 1 -->
<svg width="2569pt" height="374pt"
 viewBox="0.00 0.00 2568.50 374.00" xmlns="http://www.w3.org/2000/svg" xmlns:xlink="http://www.w3.org/1999/xlink">
<g id="graph0" class="graph" transform="scale(1 1) rotate(0) translate(4 370)">
<title>include/arlib/details/penalty_impl.hpp</title>
<polygon fill="white" stroke="none" points="-4,4 -4,-370 2564.5,-370 2564.5,4 -4,4"/>
<!-- Node0 -->
<g id="node1" class="node"><title>Node0</title>
<g id="a_node1"><a xlink:title=" ">
<polygon fill="#bfbfbf" stroke="black" points="1157,-335.5 1157,-365.5 1265,-365.5 1265,-335.5 1157,-335.5"/>
<text text-anchor="start" x="1165" y="-353.5" font-family="Helvetica,sans-Serif" font-size="10.00">include/arlib/details</text>
<text text-anchor="middle" x="1211" y="-342.5" font-family="Helvetica,sans-Serif" font-size="10.00">/penalty_impl.hpp</text>
</a>
</g>
</g>
<!-- Node1 -->
<g id="node2" class="node"><title>Node1</title>
<g id="a_node2"><a xlink:title=" ">
<polygon fill="white" stroke="#bfbfbf" points="1919.5,-123.5 1919.5,-153.5 2034.5,-153.5 2034.5,-123.5 1919.5,-123.5"/>
<text text-anchor="start" x="1927.5" y="-141.5" font-family="Helvetica,sans-Serif" font-size="10.00">boost/graph/dijkstra</text>
<text text-anchor="middle" x="1977" y="-130.5" font-family="Helvetica,sans-Serif" font-size="10.00">_shortest_paths.hpp</text>
</a>
</g>
</g>
<!-- Node0&#45;&gt;Node1 -->
<g id="edge1" class="edge"><title>Node0&#45;&gt;Node1</title>
<path fill="none" stroke="midnightblue" d="M1262.15,-335.477C1398.3,-298.152 1769.13,-196.489 1915.96,-156.235"/>
<polygon fill="midnightblue" stroke="midnightblue" points="1917,-159.578 1925.72,-153.559 1915.15,-152.827 1917,-159.578"/>
</g>
<!-- Node2 -->
<g id="node3" class="node"><title>Node2</title>
<g id="a_node3"><a xlink:title=" ">
<polygon fill="white" stroke="#bfbfbf" points="434.5,-0.5 434.5,-19.5 609.5,-19.5 609.5,-0.5 434.5,-0.5"/>
<text text-anchor="middle" x="522" y="-7.5" font-family="Helvetica,sans-Serif" font-size="10.00">boost/graph/graph_concepts.hpp</text>
</a>
</g>
</g>
<!-- Node0&#45;&gt;Node2 -->
<g id="edge2" class="edge"><title>Node0&#45;&gt;Node2</title>
<path fill="none" stroke="midnightblue" d="M1156.77,-348.771C979.476,-346.059 418.279,-334.793 241,-299 129.376,-276.463 0,-325.877 0,-212 0,-212 0,-212 0,-137.5 0,-85.8005 36.2075,-77.9841 83,-56 141.502,-28.5146 313.599,-17.7118 424.133,-13.5407"/>
<polygon fill="midnightblue" stroke="midnightblue" points="424.434,-17.0321 434.299,-13.1691 424.178,-10.0368 424.434,-17.0321"/>
</g>
<!-- Node3 -->
<g id="node4" class="node"><title>Node3</title>
<g id="a_node4"><a xlink:title=" ">
<polygon fill="white" stroke="#bfbfbf" points="1730,-0.5 1730,-19.5 1886,-19.5 1886,-0.5 1730,-0.5"/>
<text text-anchor="middle" x="1808" y="-7.5" font-family="Helvetica,sans-Serif" font-size="10.00">boost/graph/graph_traits.hpp</text>
</a>
</g>
</g>
<!-- Node0&#45;&gt;Node3 -->
<g id="edge3" class="edge"><title>Node0&#45;&gt;Node3</title>
<path fill="none" stroke="midnightblue" d="M1265.15,-348.464C1458.01,-344.528 2101.55,-329.172 2133,-299 2211.29,-223.901 2199.1,-117.886 2110,-56 2076.3,-32.5941 1972.93,-21.0406 1896.47,-15.5638"/>
<polygon fill="midnightblue" stroke="midnightblue" points="1896.56,-12.0618 1886.34,-14.8623 1896.08,-19.045 1896.56,-12.0618"/>
</g>
<!-- Node4 -->
<g id="node5" class="node"><title>Node4</title>
<g id="a_node5"><a xlink:title=" ">
<polygon fill="white" stroke="#bfbfbf" points="1170.5,-0.5 1170.5,-19.5 1317.5,-19.5 1317.5,-0.5 1170.5,-0.5"/>
<text text-anchor="middle" x="1244" y="-7.5" font-family="Helvetica,sans-Serif" font-size="10.00">boost/graph/properties.hpp</text>
</a>
</g>
</g>
<!-- Node0&#45;&gt;Node4 -->
<g id="edge4" class="edge"><title>Node0&#45;&gt;Node4</title>
<path fill="none" stroke="midnightblue" d="M1212.38,-335.386C1217.6,-281.784 1236.22,-90.7875 1242.16,-29.8376"/>
<polygon fill="midnightblue" stroke="midnightblue" points="1245.66,-30.0377 1243.15,-19.7452 1238.69,-29.3584 1245.66,-30.0377"/>
</g>
<!-- Node5 -->
<g id="node6" class="node"><title>Node5</title>
<g id="a_node6"><a xlink:title=" ">
<polygon fill="white" stroke="#bfbfbf" points="992.5,-123.5 992.5,-153.5 1105.5,-153.5 1105.5,-123.5 992.5,-123.5"/>
<text text-anchor="start" x="1000.5" y="-141.5" font-family="Helvetica,sans-Serif" font-size="10.00">boost/graph/reverse</text>
<text text-anchor="middle" x="1049" y="-130.5" font-family="Helvetica,sans-Serif" font-size="10.00">_graph.hpp</text>
</a>
</g>
</g>
<!-- Node0&#45;&gt;Node5 -->
<g id="edge5" class="edge"><title>Node0&#45;&gt;Node5</title>
<path fill="none" stroke="midnightblue" d="M1200.12,-335.395C1172.51,-299.605 1099.56,-205.037 1066.15,-161.729"/>
<polygon fill="midnightblue" stroke="midnightblue" points="1068.71,-159.323 1059.83,-153.543 1063.17,-163.599 1068.71,-159.323"/>
</g>
<!-- Node6 -->
<g id="node7" class="node"><title>Node6</title>
<g id="a_node7"><a xlink:title=" ">
<polygon fill="white" stroke="#bfbfbf" points="2196,-268.5 2196,-298.5 2348,-298.5 2348,-268.5 2196,-268.5"/>
<text text-anchor="start" x="2204" y="-286.5" font-family="Helvetica,sans-Serif" font-size="10.00">boost/property_map</text>
<text text-anchor="middle" x="2272" y="-275.5" font-family="Helvetica,sans-Serif" font-size="10.00">/function_property_map.hpp</text>
</a>
</g>
</g>
<!-- Node0&#45;&gt;Node6 -->
<g id="edge6" class="edge"><title>Node0&#45;&gt;Node6</title>
<path fill="none" stroke="midnightblue" d="M1265.11,-348.729C1412.6,-346.188 1833.9,-335.984 2182,-299 2183.28,-298.864 2184.58,-298.721 2185.88,-298.573"/>
<polygon fill="midnightblue" stroke="midnightblue" points="2186.47,-302.027 2195.97,-297.34 2185.62,-295.079 2186.47,-302.027"/>
</g>
<!-- Node7 -->
<g id="node8" class="node"><title>Node7</title>
<g id="a_node8"><a xlink:title=" ">
<polygon fill="white" stroke="#bfbfbf" points="104,-123.5 104,-153.5 218,-153.5 218,-123.5 104,-123.5"/>
<text text-anchor="start" x="112" y="-141.5" font-family="Helvetica,sans-Serif" font-size="10.00">boost/property_map</text>
<text text-anchor="middle" x="161" y="-130.5" font-family="Helvetica,sans-Serif" font-size="10.00">/property_map.hpp</text>
</a>
</g>
</g>
<!-- Node0&#45;&gt;Node7 -->
<g id="edge7" class="edge"><title>Node0&#45;&gt;Node7</title>
<path fill="none" stroke="midnightblue" d="M1156.89,-348.105C1012.47,-343.997 620.382,-330.217 495,-299 375.439,-269.233 247.608,-194.578 190.968,-158.976"/>
<polygon fill="midnightblue" stroke="midnightblue" points="192.821,-156.007 182.501,-153.611 189.074,-161.92 192.821,-156.007"/>
</g>
<!-- Node8 -->
<g id="node9" class="node"><title>Node8</title>
<g id="a_node9"><a xlink:href="arlib__utils_8hpp.html" target="_top" xlink:title=" ">
<polygon fill="white" stroke="black" points="1395.5,-196 1395.5,-226 1490.5,-226 1490.5,-196 1395.5,-196"/>
<text text-anchor="start" x="1403.5" y="-214" font-family="Helvetica,sans-Serif" font-size="10.00">arlib/details/arlib</text>
<text text-anchor="middle" x="1443" y="-203" font-family="Helvetica,sans-Serif" font-size="10.00">_utils.hpp</text>
</a>
</g>
</g>
<!-- Node0&#45;&gt;Node8 -->
<g id="edge8" class="edge"><title>Node0&#45;&gt;Node8</title>
<path fill="none" stroke="midnightblue" d="M1249.17,-335.489C1272.34,-326.357 1302.13,-313.473 1327,-299 1360.72,-279.378 1396.12,-251.631 1418.81,-232.787"/>
<polygon fill="midnightblue" stroke="midnightblue" points="1421.16,-235.387 1426.57,-226.279 1416.66,-230.024 1421.16,-235.387"/>
</g>
<!-- Node14 -->
<g id="node15" class="node"><title>Node14</title>
<g id="a_node15"><a xlink:title=" ">
<polygon fill="white" stroke="#bfbfbf" points="650,-0.5 650,-19.5 736,-19.5 736,-0.5 650,-0.5"/>
<text text-anchor="middle" x="693" y="-7.5" font-family="Helvetica,sans-Serif" font-size="10.00">unordered_set</text>
</a>
</g>
</g>
<!-- Node0&#45;&gt;Node14 -->
<g id="edge71" class="edge"><title>Node0&#45;&gt;Node14</title>
<path fill="none" stroke="midnightblue" d="M1156.8,-348.499C999.685,-345.22 546.069,-332.992 402,-299 255.135,-264.348 173.134,-283.094 95,-154 87.866,-142.213 86.1999,-133.601 95,-123 112.541,-101.868 496.38,-41.1339 639.68,-19.1048"/>
<polygon fill="midnightblue" stroke="midnightblue" points="640.22,-22.563 649.573,-17.5867 639.158,-15.644 640.22,-22.563"/>
</g>
<!-- Node15 -->
<g id="node16" class="node"><title>Node15</title>
<g id="a_node16"><a xlink:href="type__traits_8hpp.html" target="_top" xlink:title=" ">
<polygon fill="white" stroke="black" points="1249,-62 1249,-81 1361,-81 1361,-62 1249,-62"/>
<text text-anchor="middle" x="1305" y="-69" font-family="Helvetica,sans-Serif" font-size="10.00">arlib/type_traits.hpp</text>
</a>
</g>
</g>
<!-- Node0&#45;&gt;Node15 -->
<g id="edge66" class="edge"><title>Node0&#45;&gt;Node15</title>
<path fill="none" stroke="midnightblue" d="M1225.14,-335.21C1233.8,-325.687 1244.45,-312.482 1251,-299 1285.87,-227.176 1299.08,-131.361 1303.29,-91.3235"/>
<polygon fill="midnightblue" stroke="midnightblue" points="1306.79,-91.4686 1304.29,-81.1741 1299.83,-90.7838 1306.79,-91.4686"/>
</g>
<!-- Node20 -->
<g id="node21" class="node"><title>Node20</title>
<g id="a_node21"><a xlink:title=" ">
<polygon fill="white" stroke="#bfbfbf" points="1123.5,-129 1123.5,-148 1170.5,-148 1170.5,-129 1123.5,-129"/>
<text text-anchor="middle" x="1147" y="-136" font-family="Helvetica,sans-Serif" font-size="10.00">vector</text>
</a>
</g>
</g>
<!-- Node0&#45;&gt;Node20 -->
<g id="edge72" class="edge"><title>Node0&#45;&gt;Node20</title>
<path fill="none" stroke="midnightblue" d="M1206.7,-335.395C1195.46,-298.499 1165.17,-199.136 1152.6,-157.863"/>
<polygon fill="midnightblue" stroke="midnightblue" points="1155.87,-156.615 1149.61,-148.069 1149.18,-158.655 1155.87,-156.615"/>
</g>
<!-- Node21 -->
<g id="node22" class="node"><title>Node21</title>
<g id="a_node22"><a xlink:href="bidirectional__dijkstra_8hpp.html" target="_top" xlink:title=" ">
<polygon fill="white" stroke="black" points="876,-268.5 876,-298.5 1014,-298.5 1014,-268.5 876,-268.5"/>
<text text-anchor="start" x="884" y="-286.5" font-family="Helvetica,sans-Serif" font-size="10.00">arlib/routing_kernels</text>
<text text-anchor="middle" x="945" y="-275.5" font-family="Helvetica,sans-Serif" font-size="10.00">/bidirectional_dijkstra.hpp</text>
</a>
</g>
</g>
<!-- Node0&#45;&gt;Node21 -->
<g id="edge34" class="edge"><title>Node0&#45;&gt;Node21</title>
<path fill="none" stroke="midnightblue" d="M1156.85,-336.268C1115.05,-326.053 1056.98,-311.864 1012.21,-300.924"/>
<polygon fill="midnightblue" stroke="midnightblue" points="1012.84,-297.474 1002.29,-298.5 1011.18,-304.274 1012.84,-297.474"/>
</g>
<!-- Node26 -->
<g id="node27" class="node"><title>Node26</title>
<g id="a_node27"><a xlink:title=" ">
<polygon fill="white" stroke="#bfbfbf" points="236.5,-129 236.5,-148 295.5,-148 295.5,-129 236.5,-129"/>
<text text-anchor="middle" x="266" y="-136" font-family="Helvetica,sans-Serif" font-size="10.00">iostream</text>
</a>
</g>
</g>
<!-- Node0&#45;&gt;Node26 -->
<g id="edge68" class="edge"><title>Node0&#45;&gt;Node26</title>
<path fill="none" stroke="midnightblue" d="M1156.96,-350.32C1048.65,-350.82 797.915,-346.218 594,-299 514.479,-280.586 496.395,-267.719 423,-232 372.947,-207.641 317.529,-173.068 287.768,-153.83"/>
<polygon fill="midnightblue" stroke="midnightblue" points="289.337,-150.675 279.046,-148.155 285.519,-156.542 289.337,-150.675"/>
</g>
<!-- Node27 -->
<g id="node28" class="node"><title>Node27</title>
<g id="a_node28"><a xlink:title=" ">
<polygon fill="white" stroke="#bfbfbf" points="313.5,-129 313.5,-148 360.5,-148 360.5,-129 313.5,-129"/>
<text text-anchor="middle" x="337" y="-136" font-family="Helvetica,sans-Serif" font-size="10.00">queue</text>
</a>
</g>
</g>
<!-- Node0&#45;&gt;Node27 -->
<g id="edge69" class="edge"><title>Node0&#45;&gt;Node27</title>
<path fill="none" stroke="midnightblue" d="M1156.65,-347.925C1064.02,-344.377 870.085,-333.182 710,-299 617.498,-279.249 594.821,-269.535 508,-232 452.732,-208.106 391.455,-172.596 359.381,-153.262"/>
<polygon fill="midnightblue" stroke="midnightblue" points="361.135,-150.232 350.77,-148.035 357.503,-156.216 361.135,-150.232"/>
</g>
<!-- Node28 -->
<g id="node29" class="node"><title>Node28</title>
<g id="a_node29"><a xlink:title=" ">
<polygon fill="white" stroke="#bfbfbf" points="378.5,-129 378.5,-148 471.5,-148 471.5,-129 378.5,-129"/>
<text text-anchor="middle" x="425" y="-136" font-family="Helvetica,sans-Serif" font-size="10.00">unordered_map</text>
</a>
</g>
</g>
<!-- Node0&#45;&gt;Node28 -->
<g id="edge70" class="edge"><title>Node0&#45;&gt;Node28</title>
<path fill="none" stroke="midnightblue" d="M1156.76,-345.598C1047.65,-336.36 795.191,-307.929 598,-232 541.012,-210.056 478.987,-173.475 446.936,-153.525"/>
<polygon fill="midnightblue" stroke="midnightblue" points="448.684,-150.49 438.354,-148.133 444.96,-156.417 448.684,-150.49"/>
</g>
<!-- Node29 -->
<g id="node30" class="node"><title>Node29</title>
<g id="a_node30"><a xlink:href="types_8hpp.html" target="_top" xlink:title=" ">
<polygon fill="white" stroke="black" points="2366.5,-268.5 2366.5,-298.5 2479.5,-298.5 2479.5,-268.5 2366.5,-268.5"/>
<text text-anchor="start" x="2374.5" y="-286.5" font-family="Helvetica,sans-Serif" font-size="10.00">arlib/routing_kernels</text>
<text text-anchor="middle" x="2423" y="-275.5" font-family="Helvetica,sans-Serif" font-size="10.00">/types.hpp</text>
</a>
</g>
</g>
<!-- Node0&#45;&gt;Node29 -->
<g id="edge62" class="edge"><title>Node0&#45;&gt;Node29</title>
<path fill="none" stroke="midnightblue" d="M1265.03,-348.354C1459.18,-344.048 2121.95,-327.662 2356.07,-298.913"/>
<polygon fill="midnightblue" stroke="midnightblue" points="2356.75,-302.356 2366.23,-297.623 2355.87,-295.412 2356.75,-302.356"/>
</g>
<!-- Node30 -->
<g id="node31" class="node"><title>Node30</title>
<g id="a_node31"><a xlink:href="terminators_8hpp_source.html" target="_top" xlink:title=" ">
<polygon fill="white" stroke="black" points="2006.5,-274 2006.5,-293 2123.5,-293 2123.5,-274 2006.5,-274"/>
<text text-anchor="middle" x="2065" y="-281" font-family="Helvetica,sans-Serif" font-size="10.00">arlib/terminators.hpp</text>
</a>
</g>
</g>
<!-- Node0&#45;&gt;Node30 -->
<g id="edge63" class="edge"><title>Node0&#45;&gt;Node30</title>
<path fill="none" stroke="midnightblue" d="M1265.21,-348.446C1392.55,-345.436 1720.54,-334.58 1992,-299 2000.11,-297.938 2008.67,-296.514 2016.96,-294.974"/>
<polygon fill="midnightblue" stroke="midnightblue" points="2017.74,-298.388 2026.89,-293.053 2016.41,-291.515 2017.74,-298.388"/>
</g>
<!-- Node32 -->
<g id="node33" class="node"><title>Node32</title>
<g id="a_node33"><a xlink:title=" ">
<polygon fill="white" stroke="#bfbfbf" points="2497.5,-274 2497.5,-293 2560.5,-293 2560.5,-274 2497.5,-274"/>
<text text-anchor="middle" x="2529" y="-281" font-family="Helvetica,sans-Serif" font-size="10.00">functional</text>
</a>
</g>
</g>
<!-- Node0&#45;&gt;Node32 -->
<g id="edge67" class="edge"><title>Node0&#45;&gt;Node32</title>
<path fill="none" stroke="midnightblue" d="M1265.13,-349.573C1476.88,-349.518 2249.18,-346.027 2489,-299 2492.44,-298.326 2495.98,-297.403 2499.46,-296.348"/>
<polygon fill="midnightblue" stroke="midnightblue" points="2500.65,-299.641 2509,-293.118 2498.4,-293.011 2500.65,-299.641"/>
</g>
<!-- Node8&#45;&gt;Node1 -->
<g id="edge10" class="edge"><title>Node8&#45;&gt;Node1</title>
<path fill="none" stroke="midnightblue" d="M1490.73,-205.457C1574.74,-197.182 1754.44,-178.248 1905,-154 1906.46,-153.766 1907.93,-153.523 1909.41,-153.273"/>
<polygon fill="midnightblue" stroke="midnightblue" points="1910.06,-156.712 1919.3,-151.532 1908.85,-149.818 1910.06,-156.712"/>
</g>
<!-- Node8&#45;&gt;Node2 -->
<g id="edge12" class="edge"><title>Node8&#45;&gt;Node2</title>
<path fill="none" stroke="midnightblue" d="M1395.17,-205.372C1346.85,-199.132 1271.23,-184.988 1213,-154 1194.95,-144.393 1197.76,-131.14 1179,-123 994.127,-42.7853 911.271,-168.588 727,-87 708.6,-78.8531 711.611,-65.7361 694,-56 663.409,-39.0882 626.226,-28.3328 594.268,-21.5966"/>
<polygon fill="midnightblue" stroke="midnightblue" points="594.584,-18.0902 584.09,-19.548 593.203,-24.9526 594.584,-18.0902"/>
</g>
<!-- Node8&#45;&gt;Node3 -->
<g id="edge13" class="edge"><title>Node8&#45;&gt;Node3</title>
<path fill="none" stroke="midnightblue" d="M1490.55,-209.674C1586.22,-208.051 1797.42,-199.289 1851,-154 1885.02,-125.245 1892.53,-95.5314 1872,-56 1864.85,-42.2262 1851.33,-31.783 1838.55,-24.4413"/>
<polygon fill="midnightblue" stroke="midnightblue" points="1839.96,-21.2252 1829.48,-19.6403 1836.68,-27.412 1839.96,-21.2252"/>
</g>
<!-- Node8&#45;&gt;Node4 -->
<g id="edge14" class="edge"><title>Node8&#45;&gt;Node4</title>
<path fill="none" stroke="midnightblue" d="M1433.01,-195.699C1425.54,-184.636 1415.39,-168.762 1408,-154 1387.08,-112.229 1403.47,-88.5858 1370,-56 1352.96,-39.4161 1329.41,-28.8998 1307.27,-22.2503"/>
<polygon fill="midnightblue" stroke="midnightblue" points="1308.13,-18.8575 1297.56,-19.5452 1306.26,-25.6007 1308.13,-18.8575"/>
</g>
<!-- Node8&#45;&gt;Node5 -->
<g id="edge15" class="edge"><title>Node8&#45;&gt;Node5</title>
<path fill="none" stroke="midnightblue" d="M1395.46,-202.687C1333.31,-192.954 1220.85,-174.752 1115.53,-154.25"/>
<polygon fill="midnightblue" stroke="midnightblue" points="1116.17,-150.81 1105.68,-152.323 1114.83,-157.679 1116.17,-150.81"/>
</g>
<!-- Node9 -->
<g id="node10" class="node"><title>Node9</title>
<g id="a_node10"><a xlink:title=" ">
<polygon fill="white" stroke="#bfbfbf" points="1417.5,-129 1417.5,-148 1578.5,-148 1578.5,-129 1417.5,-129"/>
<text text-anchor="middle" x="1498" y="-136" font-family="Helvetica,sans-Serif" font-size="10.00">boost/graph/astar_search.hpp</text>
</a>
</g>
</g>
<!-- Node8&#45;&gt;Node9 -->
<g id="edge9" class="edge"><title>Node8&#45;&gt;Node9</title>
<path fill="none" stroke="midnightblue" d="M1454.13,-195.733C1463.02,-184.337 1475.5,-168.339 1484.88,-156.32"/>
<polygon fill="midnightblue" stroke="midnightblue" points="1487.67,-158.431 1491.06,-148.393 1482.15,-154.125 1487.67,-158.431"/>
</g>
<!-- Node10 -->
<g id="node11" class="node"><title>Node10</title>
<g id="a_node11"><a xlink:title=" ">
<polygon fill="white" stroke="#bfbfbf" points="1753,-56.5 1753,-86.5 1863,-86.5 1863,-56.5 1753,-56.5"/>
<text text-anchor="start" x="1761" y="-74.5" font-family="Helvetica,sans-Serif" font-size="10.00">boost/graph/filtered</text>
<text text-anchor="middle" x="1808" y="-63.5" font-family="Helvetica,sans-Serif" font-size="10.00">_graph.hpp</text>
</a>
</g>
</g>
<!-- Node8&#45;&gt;Node10 -->
<g id="edge11" class="edge"><title>Node8&#45;&gt;Node10</title>
<path fill="none" stroke="midnightblue" d="M1490.71,-210.561C1584.86,-210.541 1789.21,-204.528 1833,-154 1847.28,-137.523 1836.85,-113.02 1825.41,-95.1853"/>
<polygon fill="midnightblue" stroke="midnightblue" points="1828.02,-92.7996 1819.47,-86.5444 1822.25,-96.7669 1828.02,-92.7996"/>
</g>
<!-- Node11 -->
<g id="node12" class="node"><title>Node11</title>
<g id="a_node12"><a xlink:href="path_8hpp.html" target="_top" xlink:title=" ">
<polygon fill="white" stroke="black" points="1741.5,-129 1741.5,-148 1824.5,-148 1824.5,-129 1741.5,-129"/>
<text text-anchor="middle" x="1783" y="-136" font-family="Helvetica,sans-Serif" font-size="10.00">arlib/path.hpp</text>
</a>
</g>
</g>
<!-- Node8&#45;&gt;Node11 -->
<g id="edge16" class="edge"><title>Node8&#45;&gt;Node11</title>
<path fill="none" stroke="midnightblue" d="M1490.57,-202.069C1548.07,-192.188 1647.61,-174.133 1732,-154 1736.13,-153.015 1740.43,-151.914 1744.7,-150.771"/>
<polygon fill="midnightblue" stroke="midnightblue" points="1745.81,-154.094 1754.52,-148.062 1743.95,-147.346 1745.81,-154.094"/>
</g>
<!-- Node8&#45;&gt;Node14 -->
<g id="edge32" class="edge"><title>Node8&#45;&gt;Node14</title>
<path fill="none" stroke="midnightblue" d="M1413.69,-195.844C1370.76,-175.828 1287.76,-139.825 1213,-123 1116.64,-101.315 859.779,-128.172 770,-87 741.794,-74.0652 717.926,-46.175 704.543,-28.0181"/>
<polygon fill="midnightblue" stroke="midnightblue" points="707.172,-25.6747 698.533,-19.5413 701.462,-29.7233 707.172,-25.6747"/>
</g>
<!-- Node8&#45;&gt;Node15 -->
<g id="edge28" class="edge"><title>Node8&#45;&gt;Node15</title>
<path fill="none" stroke="midnightblue" d="M1424.08,-195.844C1410.01,-184.983 1390.62,-169.303 1375,-154 1353.44,-132.883 1331.17,-105.904 1317.7,-88.9073"/>
<polygon fill="midnightblue" stroke="midnightblue" points="1320.44,-86.7219 1311.51,-81.0133 1314.93,-91.0419 1320.44,-86.7219"/>
</g>
<!-- Node17 -->
<g id="node18" class="node"><title>Node17</title>
<g id="a_node18"><a xlink:title=" ">
<polygon fill="white" stroke="#bfbfbf" points="1597,-129 1597,-148 1649,-148 1649,-129 1597,-129"/>
<text text-anchor="middle" x="1623" y="-136" font-family="Helvetica,sans-Serif" font-size="10.00">iterator</text>
</a>
</g>
</g>
<!-- Node8&#45;&gt;Node17 -->
<g id="edge29" class="edge"><title>Node8&#45;&gt;Node17</title>
<path fill="none" stroke="midnightblue" d="M1479.44,-195.966C1508.58,-184.712 1550.46,-168.463 1587,-154 1588.64,-153.352 1590.31,-152.686 1592.01,-152.011"/>
<polygon fill="midnightblue" stroke="midnightblue" points="1593.71,-155.097 1601.7,-148.13 1591.11,-148.599 1593.71,-155.097"/>
</g>
<!-- Node18 -->
<g id="node19" class="node"><title>Node18</title>
<g id="a_node19"><a xlink:title=" ">
<polygon fill="white" stroke="#bfbfbf" points="1667,-129 1667,-148 1723,-148 1723,-129 1667,-129"/>
<text text-anchor="middle" x="1695" y="-136" font-family="Helvetica,sans-Serif" font-size="10.00">sstream</text>
</a>
</g>
</g>
<!-- Node8&#45;&gt;Node18 -->
<g id="edge30" class="edge"><title>Node8&#45;&gt;Node18</title>
<path fill="none" stroke="midnightblue" d="M1490.86,-199.256C1534.75,-188.999 1601.32,-172.415 1658,-154 1660.27,-153.262 1662.6,-152.46 1664.94,-151.622"/>
<polygon fill="midnightblue" stroke="midnightblue" points="1666.28,-154.857 1674.41,-148.067 1663.82,-148.303 1666.28,-154.857"/>
</g>
<!-- Node19 -->
<g id="node20" class="node"><title>Node19</title>
<g id="a_node20"><a xlink:title=" ">
<polygon fill="white" stroke="#bfbfbf" points="2053,-129 2053,-148 2117,-148 2117,-129 2053,-129"/>
<text text-anchor="middle" x="2085" y="-136" font-family="Helvetica,sans-Serif" font-size="10.00">stdexcept</text>
</a>
</g>
</g>
<!-- Node8&#45;&gt;Node19 -->
<g id="edge31" class="edge"><title>Node8&#45;&gt;Node19</title>
<path fill="none" stroke="midnightblue" d="M1490.75,-209.533C1593.28,-207.665 1841.61,-198.499 2044,-154 2047.42,-153.248 2050.95,-152.292 2054.43,-151.23"/>
<polygon fill="midnightblue" stroke="midnightblue" points="2055.63,-154.522 2064.01,-148.043 2053.42,-147.88 2055.63,-154.522"/>
</g>
<!-- Node8&#45;&gt;Node20 -->
<g id="edge33" class="edge"><title>Node8&#45;&gt;Node20</title>
<path fill="none" stroke="midnightblue" d="M1395.38,-201.891C1343.19,-192.49 1257.27,-175.498 1185,-154 1182.42,-153.234 1179.77,-152.375 1177.13,-151.468"/>
<polygon fill="midnightblue" stroke="midnightblue" points="1178.31,-148.172 1167.71,-148.051 1175.92,-154.752 1178.31,-148.172"/>
</g>
<!-- Node11&#45;&gt;Node3 -->
<g id="edge25" class="edge"><title>Node11&#45;&gt;Node3</title>
<path fill="none" stroke="midnightblue" d="M1773.33,-128.843C1757.81,-113.857 1730.41,-82.1708 1744,-56 1751.15,-42.2262 1764.67,-31.783 1777.45,-24.4413"/>
<polygon fill="midnightblue" stroke="midnightblue" points="1779.32,-27.412 1786.52,-19.6403 1776.04,-21.2252 1779.32,-27.412"/>
</g>
<!-- Node11&#45;&gt;Node4 -->
<g id="edge26" class="edge"><title>Node11&#45;&gt;Node4</title>
<path fill="none" stroke="midnightblue" d="M1753.94,-128.96C1746.79,-126.934 1739.13,-124.831 1732,-123 1572.9,-82.1542 1382.78,-40.5838 1294.13,-21.6143"/>
<polygon fill="midnightblue" stroke="midnightblue" points="1294.85,-18.1892 1284.34,-19.5231 1293.39,-25.0348 1294.85,-18.1892"/>
</g>
<!-- Node11&#45;&gt;Node10 -->
<g id="edge24" class="edge"><title>Node11&#45;&gt;Node10</title>
<path fill="none" stroke="midnightblue" d="M1786.37,-128.734C1789.59,-120.372 1794.58,-107.4 1798.95,-96.0221"/>
<polygon fill="midnightblue" stroke="midnightblue" points="1802.26,-97.1789 1802.58,-86.589 1795.72,-94.666 1802.26,-97.1789"/>
</g>
<!-- Node12 -->
<g id="node13" class="node"><title>Node12</title>
<g id="a_node13"><a xlink:href="path__impl_8hpp.html" target="_top" xlink:title=" ">
<polygon fill="white" stroke="black" points="779,-56.5 779,-86.5 875,-86.5 875,-56.5 779,-56.5"/>
<text text-anchor="start" x="787" y="-74.5" font-family="Helvetica,sans-Serif" font-size="10.00">arlib/details/path</text>
<text text-anchor="middle" x="827" y="-63.5" font-family="Helvetica,sans-Serif" font-size="10.00">_impl.hpp</text>
</a>
</g>
</g>
<!-- Node11&#45;&gt;Node12 -->
<g id="edge17" class="edge"><title>Node11&#45;&gt;Node12</title>
<path fill="none" stroke="midnightblue" d="M1757.31,-128.999C1749.29,-126.67 1740.35,-124.402 1732,-123 1648.94,-109.053 1071.93,-83.1174 885.177,-74.9971"/>
<polygon fill="midnightblue" stroke="midnightblue" points="885.152,-71.4928 875.01,-74.5559 884.849,-78.4863 885.152,-71.4928"/>
</g>
<!-- Node11&#45;&gt;Node15 -->
<g id="edge21" class="edge"><title>Node11&#45;&gt;Node15</title>
<path fill="none" stroke="midnightblue" d="M1755.93,-128.939C1748.26,-126.748 1739.85,-124.57 1732,-123 1605.69,-97.7428 1455.66,-83.5908 1371.27,-77.0483"/>
<polygon fill="midnightblue" stroke="midnightblue" points="1371.3,-73.5402 1361.06,-76.2691 1370.76,-80.5199 1371.3,-73.5402"/>
</g>
<!-- Node16 -->
<g id="node17" class="node"><title>Node16</title>
<g id="a_node17"><a xlink:title=" ">
<polygon fill="white" stroke="#bfbfbf" points="1655,-62 1655,-81 1697,-81 1697,-62 1655,-62"/>
<text text-anchor="middle" x="1676" y="-69" font-family="Helvetica,sans-Serif" font-size="10.00">utility</text>
</a>
</g>
</g>
<!-- Node11&#45;&gt;Node16 -->
<g id="edge27" class="edge"><title>Node11&#45;&gt;Node16</title>
<path fill="none" stroke="midnightblue" d="M1768.57,-128.734C1750.68,-117.867 1719.98,-99.2161 1698.87,-86.3931"/>
<polygon fill="midnightblue" stroke="midnightblue" points="1700.57,-83.3279 1690.2,-81.1273 1696.93,-89.3105 1700.57,-83.3279"/>
</g>
<!-- Node12&#45;&gt;Node2 -->
<g id="edge18" class="edge"><title>Node12&#45;&gt;Node2</title>
<path fill="none" stroke="midnightblue" d="M778.672,-61.072C723.37,-50.2836 633.059,-32.6655 575.629,-21.462"/>
<polygon fill="midnightblue" stroke="midnightblue" points="576.14,-17.9958 565.655,-19.5162 574.8,-24.8663 576.14,-17.9958"/>
</g>
<!-- Node13 -->
<g id="node14" class="node"><title>Node13</title>
<g id="a_node14"><a xlink:title=" ">
<polygon fill="white" stroke="#bfbfbf" points="798.5,-0.5 798.5,-19.5 855.5,-19.5 855.5,-0.5 798.5,-0.5"/>
<text text-anchor="middle" x="827" y="-7.5" font-family="Helvetica,sans-Serif" font-size="10.00">memory</text>
</a>
</g>
</g>
<!-- Node12&#45;&gt;Node13 -->
<g id="edge19" class="edge"><title>Node12&#45;&gt;Node13</title>
<path fill="none" stroke="midnightblue" d="M827,-56.3993C827,-48.4664 827,-38.458 827,-29.8583"/>
<polygon fill="midnightblue" stroke="midnightblue" points="830.5,-29.6577 827,-19.6578 823.5,-29.6578 830.5,-29.6577"/>
</g>
<!-- Node12&#45;&gt;Node14 -->
<g id="edge20" class="edge"><title>Node12&#45;&gt;Node14</title>
<path fill="none" stroke="midnightblue" d="M795.244,-56.3993C772.962,-46.5054 743.409,-33.3832 721.809,-23.7919"/>
<polygon fill="midnightblue" stroke="midnightblue" points="723.058,-20.5172 712.498,-19.6578 720.217,-26.9149 723.058,-20.5172"/>
</g>
<!-- Node15&#45;&gt;Node3 -->
<g id="edge22" class="edge"><title>Node15&#45;&gt;Node3</title>
<path fill="none" stroke="midnightblue" d="M1361.24,-63.8478C1450.06,-53.3414 1623.24,-32.8549 1725.95,-20.706"/>
<polygon fill="midnightblue" stroke="midnightblue" points="1726.45,-24.1713 1735.97,-19.5207 1725.63,-17.2197 1726.45,-24.1713"/>
</g>
<!-- Node15&#45;&gt;Node4 -->
<g id="edge23" class="edge"><title>Node15&#45;&gt;Node4</title>
<path fill="none" stroke="midnightblue" d="M1296.26,-61.9751C1286.84,-52.785 1271.64,-37.9563 1260.05,-26.656"/>
<polygon fill="midnightblue" stroke="midnightblue" points="1262.33,-23.9861 1252.72,-19.5091 1257.44,-28.9971 1262.33,-23.9861"/>
</g>
<!-- Node21&#45;&gt;Node2 -->
<g id="edge35" class="edge"><title>Node21&#45;&gt;Node2</title>
<path fill="none" stroke="midnightblue" d="M875.883,-283.072C691.614,-282.975 195.753,-271.581 95,-154 0.0845827,-43.2317 270.366,-17.9657 423.913,-12.4078"/>
<polygon fill="midnightblue" stroke="midnightblue" points="424.431,-15.8923 434.307,-12.0551 424.194,-8.89632 424.431,-15.8923"/>
</g>
<!-- Node21&#45;&gt;Node3 -->
<g id="edge36" class="edge"><title>Node21&#45;&gt;Node3</title>
<path fill="none" stroke="midnightblue" d="M1014.15,-277.538C1261.4,-259.469 2088.86,-196.05 2126,-154 2197.75,-72.7752 2013.61,-35.2198 1896.41,-19.9796"/>
<polygon fill="midnightblue" stroke="midnightblue" points="1896.7,-16.4885 1886.34,-18.7033 1895.82,-23.433 1896.7,-16.4885"/>
</g>
<!-- Node21&#45;&gt;Node4 -->
<g id="edge37" class="edge"><title>Node21&#45;&gt;Node4</title>
<path fill="none" stroke="midnightblue" d="M941.163,-268.427C933.726,-237.726 921.13,-164.199 958,-123 1012.18,-62.4626 1103.16,-34.3125 1167.96,-21.4414"/>
<polygon fill="midnightblue" stroke="midnightblue" points="1168.95,-24.8145 1178.12,-19.5042 1167.64,-17.9383 1168.95,-24.8145"/>
</g>
<!-- Node21&#45;&gt;Node5 -->
<g id="edge38" class="edge"><title>Node21&#45;&gt;Node5</title>
<path fill="none" stroke="midnightblue" d="M955.352,-268.266C973.496,-243.318 1011.16,-191.528 1032.79,-161.791"/>
<polygon fill="midnightblue" stroke="midnightblue" points="1035.64,-163.823 1038.69,-153.677 1029.98,-159.705 1035.64,-163.823"/>
</g>
<!-- Node21&#45;&gt;Node8 -->
<g id="edge39" class="edge"><title>Node21&#45;&gt;Node8</title>
<path fill="none" stroke="midnightblue" d="M1014.24,-272.697C1113.16,-258.694 1293.13,-233.217 1385.27,-220.173"/>
<polygon fill="midnightblue" stroke="midnightblue" points="1385.84,-223.627 1395.25,-218.76 1384.86,-216.696 1385.84,-223.627"/>
</g>
<!-- Node21&#45;&gt;Node15 -->
<g id="edge58" class="edge"><title>Node21&#45;&gt;Node15</title>
<path fill="none" stroke="midnightblue" d="M943.621,-268.449C941.403,-237.135 940.935,-161.364 983,-123 1024.8,-84.8814 1179.28,-96.7418 1235,-87 1241.74,-85.8225 1248.81,-84.4802 1255.78,-83.0987"/>
<polygon fill="midnightblue" stroke="midnightblue" points="1256.73,-86.4761 1265.84,-81.061 1255.34,-79.6153 1256.73,-86.4761"/>
</g>
<!-- Node21&#45;&gt;Node20 -->
<g id="edge61" class="edge"><title>Node21&#45;&gt;Node20</title>
<path fill="none" stroke="midnightblue" d="M965.107,-268.266C1003.54,-241.059 1087.07,-181.926 1126.11,-154.29"/>
<polygon fill="midnightblue" stroke="midnightblue" points="1128.45,-156.918 1134.59,-148.284 1124.41,-151.205 1128.45,-156.918"/>
</g>
<!-- Node22 -->
<g id="node23" class="node"><title>Node22</title>
<g id="a_node23"><a xlink:href="bidirectional__dijkstra__impl_8hpp.html" target="_top" xlink:title=" ">
<polygon fill="white" stroke="black" points="642.5,-190.5 642.5,-231.5 755.5,-231.5 755.5,-190.5 642.5,-190.5"/>
<text text-anchor="start" x="650.5" y="-219.5" font-family="Helvetica,sans-Serif" font-size="10.00">arlib/routing_kernels</text>
<text text-anchor="start" x="650.5" y="-208.5" font-family="Helvetica,sans-Serif" font-size="10.00">/details/bidirectional</text>
<text text-anchor="middle" x="699" y="-197.5" font-family="Helvetica,sans-Serif" font-size="10.00">_dijkstra_impl.hpp</text>
</a>
</g>
</g>
<!-- Node21&#45;&gt;Node22 -->
<g id="edge40" class="edge"><title>Node21&#45;&gt;Node22</title>
<path fill="none" stroke="midnightblue" d="M896.104,-268.487C858.615,-257.743 806.484,-242.803 765.25,-230.986"/>
<polygon fill="midnightblue" stroke="midnightblue" points="766.133,-227.599 755.556,-228.208 764.205,-234.328 766.133,-227.599"/>
</g>
<!-- Node23 -->
<g id="node24" class="node"><title>Node23</title>
<g id="a_node24"><a xlink:href="visitor_8hpp.html" target="_top" xlink:title=" ">
<polygon fill="white" stroke="black" points="528.5,-123.5 528.5,-153.5 641.5,-153.5 641.5,-123.5 528.5,-123.5"/>
<text text-anchor="start" x="536.5" y="-141.5" font-family="Helvetica,sans-Serif" font-size="10.00">arlib/routing_kernels</text>
<text text-anchor="middle" x="585" y="-130.5" font-family="Helvetica,sans-Serif" font-size="10.00">/visitor.hpp</text>
</a>
</g>
</g>
<!-- Node21&#45;&gt;Node23 -->
<g id="edge57" class="edge"><title>Node21&#45;&gt;Node23</title>
<path fill="none" stroke="midnightblue" d="M875.819,-278.488C795.975,-272.638 670.789,-259.339 633,-232 610.199,-215.504 597.385,-184.905 590.84,-163.431"/>
<polygon fill="midnightblue" stroke="midnightblue" points="594.187,-162.405 588.114,-153.724 587.448,-164.297 594.187,-162.405"/>
</g>
<!-- Node24 -->
<g id="node25" class="node"><title>Node24</title>
<g id="a_node25"><a xlink:title=" ">
<polygon fill="white" stroke="#bfbfbf" points="643,-62 643,-81 685,-81 685,-62 643,-62"/>
<text text-anchor="middle" x="664" y="-69" font-family="Helvetica,sans-Serif" font-size="10.00">limits</text>
</a>
</g>
</g>
<!-- Node21&#45;&gt;Node24 -->
<g id="edge60" class="edge"><title>Node21&#45;&gt;Node24</title>
<path fill="none" stroke="midnightblue" d="M935.568,-268.314C910.744,-231.143 844.509,-133.079 830,-123 780.411,-88.551 756.113,-106.593 699,-87 697.087,-86.3437 695.128,-85.6359 693.163,-84.8984"/>
<polygon fill="midnightblue" stroke="midnightblue" points="694.044,-81.4831 683.457,-81.0645 691.472,-87.9936 694.044,-81.4831"/>
</g>
<!-- Node25 -->
<g id="node26" class="node"><title>Node25</title>
<g id="a_node26"><a xlink:title=" ">
<polygon fill="white" stroke="#bfbfbf" points="774.5,-129 774.5,-148 821.5,-148 821.5,-129 774.5,-129"/>
<text text-anchor="middle" x="798" y="-136" font-family="Helvetica,sans-Serif" font-size="10.00">deque</text>
</a>
</g>
</g>
<!-- Node21&#45;&gt;Node25 -->
<g id="edge59" class="edge"><title>Node21&#45;&gt;Node25</title>
<path fill="none" stroke="midnightblue" d="M895.387,-268.454C874.827,-260.547 852.077,-248.802 836,-232 816.049,-211.15 805.986,-178.379 801.382,-157.958"/>
<polygon fill="midnightblue" stroke="midnightblue" points="804.786,-157.135 799.357,-148.037 797.927,-158.535 804.786,-157.135"/>
</g>
<!-- Node22&#45;&gt;Node2 -->
<g id="edge41" class="edge"><title>Node22&#45;&gt;Node2</title>
<path fill="none" stroke="midnightblue" d="M642.262,-209.058C600.772,-205.017 547.036,-192.084 519,-154 491.848,-117.117 505.377,-59.1537 515.063,-29.6295"/>
<polygon fill="midnightblue" stroke="midnightblue" points="518.499,-30.4047 518.494,-19.8098 511.891,-28.0957 518.499,-30.4047"/>
</g>
<!-- Node22&#45;&gt;Node3 -->
<g id="edge42" class="edge"><title>Node22&#45;&gt;Node3</title>
<path fill="none" stroke="midnightblue" d="M752.623,-190.399C804.692,-171.745 886.173,-143.55 958,-123 1081.85,-87.5646 1112.75,-76.0355 1240,-56 1408.43,-29.4813 1607.55,-18.2726 1719.68,-13.7793"/>
<polygon fill="midnightblue" stroke="midnightblue" points="1720.07,-17.2669 1729.92,-13.3779 1719.79,-10.2723 1720.07,-17.2669"/>
</g>
<!-- Node22&#45;&gt;Node4 -->
<g id="edge43" class="edge"><title>Node22&#45;&gt;Node4</title>
<path fill="none" stroke="midnightblue" d="M700.387,-190.433C702.867,-170.564 709.773,-140.327 729,-123 781.536,-75.6545 819.611,-116.252 884,-87 905.45,-77.2553 905.146,-64.8006 927,-56 1002.13,-25.746 1094.43,-15.3533 1160.01,-12.0139"/>
<polygon fill="midnightblue" stroke="midnightblue" points="1160.48,-15.4963 1170.3,-11.5366 1160.15,-8.50384 1160.48,-15.4963"/>
</g>
<!-- Node22&#45;&gt;Node5 -->
<g id="edge44" class="edge"><title>Node22&#45;&gt;Node5</title>
<path fill="none" stroke="midnightblue" d="M755.623,-198.595C817.639,-186.103 916.994,-166.09 982.627,-152.869"/>
<polygon fill="midnightblue" stroke="midnightblue" points="983.347,-156.295 992.459,-150.889 981.965,-149.433 983.347,-156.295"/>
</g>
<!-- Node22&#45;&gt;Node7 -->
<g id="edge45" class="edge"><title>Node22&#45;&gt;Node7</title>
<path fill="none" stroke="midnightblue" d="M642.436,-205.099C555.508,-197.17 383.694,-179.924 228.376,-154.131"/>
<polygon fill="midnightblue" stroke="midnightblue" points="228.612,-150.622 218.17,-152.42 227.454,-157.526 228.612,-150.622"/>
</g>
<!-- Node22&#45;&gt;Node15 -->
<g id="edge50" class="edge"><title>Node22&#45;&gt;Node15</title>
<path fill="none" stroke="midnightblue" d="M707.917,-190.223C718.383,-169.566 737.827,-138.111 765,-123 844.64,-78.7112 1112.55,-72.5256 1238.51,-72.1429"/>
<polygon fill="midnightblue" stroke="midnightblue" points="1238.79,-75.6425 1248.79,-72.1237 1238.78,-68.6425 1238.79,-75.6425"/>
</g>
<!-- Node22&#45;&gt;Node20 -->
<g id="edge56" class="edge"><title>Node22&#45;&gt;Node20</title>
<path fill="none" stroke="midnightblue" d="M755.725,-207.367C836.595,-202.492 989.071,-189.122 1114,-154 1116.15,-153.395 1118.35,-152.675 1120.53,-151.886"/>
<polygon fill="midnightblue" stroke="midnightblue" points="1121.91,-155.106 1129.87,-148.112 1119.28,-148.616 1121.91,-155.106"/>
</g>
<!-- Node22&#45;&gt;Node23 -->
<g id="edge46" class="edge"><title>Node22&#45;&gt;Node23</title>
<path fill="none" stroke="midnightblue" d="M667.245,-190.362C651.494,-180.621 632.52,-168.887 616.767,-159.145"/>
<polygon fill="midnightblue" stroke="midnightblue" points="618.259,-155.953 607.913,-153.67 614.577,-161.907 618.259,-155.953"/>
</g>
<!-- Node22&#45;&gt;Node24 -->
<g id="edge53" class="edge"><title>Node22&#45;&gt;Node24</title>
<path fill="none" stroke="midnightblue" d="M693.985,-190.3C687.235,-163.779 675.311,-116.938 668.717,-91.0305"/>
<polygon fill="midnightblue" stroke="midnightblue" points="672.032,-89.8655 666.173,-81.0379 665.248,-91.5923 672.032,-89.8655"/>
</g>
<!-- Node22&#45;&gt;Node25 -->
<g id="edge51" class="edge"><title>Node22&#45;&gt;Node25</title>
<path fill="none" stroke="midnightblue" d="M726.577,-190.362C742.686,-178.89 762.677,-164.654 777.409,-154.163"/>
<polygon fill="midnightblue" stroke="midnightblue" points="779.705,-156.825 785.82,-148.173 775.644,-151.123 779.705,-156.825"/>
</g>
<!-- Node22&#45;&gt;Node26 -->
<g id="edge52" class="edge"><title>Node22&#45;&gt;Node26</title>
<path fill="none" stroke="midnightblue" d="M642.295,-205.967C564.873,-199.559 422.198,-184.519 304,-154 301.18,-153.272 298.282,-152.402 295.404,-151.455"/>
<polygon fill="midnightblue" stroke="midnightblue" points="296.438,-148.107 285.843,-148.031 294.078,-154.697 296.438,-148.107"/>
</g>
<!-- Node22&#45;&gt;Node27 -->
<g id="edge54" class="edge"><title>Node22&#45;&gt;Node27</title>
<path fill="none" stroke="midnightblue" d="M642.218,-204.85C575.639,-197.79 462.497,-182.592 369,-154 367.075,-153.411 365.115,-152.734 363.16,-151.999"/>
<polygon fill="midnightblue" stroke="midnightblue" points="364.2,-148.641 353.624,-148.01 361.499,-155.098 364.2,-148.641"/>
</g>
<!-- Node22&#45;&gt;Node28 -->
<g id="edge55" class="edge"><title>Node22&#45;&gt;Node28</title>
<path fill="none" stroke="midnightblue" d="M642.227,-195.392C590.385,-182.053 514.877,-162.625 467.91,-150.541"/>
<polygon fill="midnightblue" stroke="midnightblue" points="468.61,-147.107 458.053,-148.004 466.865,-153.886 468.61,-147.107"/>
</g>
<!-- Node23&#45;&gt;Node2 -->
<g id="edge47" class="edge"><title>Node23&#45;&gt;Node2</title>
<path fill="none" stroke="midnightblue" d="M578.017,-123.479C566.529,-100.411 543.655,-54.4816 530.979,-29.0293"/>
<polygon fill="midnightblue" stroke="midnightblue" points="533.968,-27.1796 526.377,-19.7885 527.702,-30.3002 533.968,-27.1796"/>
</g>
<!-- Node23&#45;&gt;Node14 -->
<g id="edge49" class="edge"><title>Node23&#45;&gt;Node14</title>
<path fill="none" stroke="midnightblue" d="M591.39,-123.468C599.631,-106.331 615.168,-77.0325 634,-56 644.546,-44.2223 658.539,-33.3955 670.251,-25.3145"/>
<polygon fill="midnightblue" stroke="midnightblue" points="672.291,-28.1609 678.667,-19.6998 668.406,-22.3377 672.291,-28.1609"/>
</g>
<!-- Node23&#45;&gt;Node24 -->
<g id="edge48" class="edge"><title>Node23&#45;&gt;Node24</title>
<path fill="none" stroke="midnightblue" d="M602.142,-123.396C614.947,-112.86 632.428,-98.4771 645.54,-87.6886"/>
<polygon fill="midnightblue" stroke="midnightblue" points="647.934,-90.251 653.433,-81.1945 643.487,-84.8455 647.934,-90.251"/>
</g>
<!-- Node30&#45;&gt;Node19 -->
<g id="edge65" class="edge"><title>Node30&#45;&gt;Node19</title>
<path fill="none" stroke="midnightblue" d="M2066.19,-273.983C2069.35,-251.384 2078.01,-189.496 2082.39,-158.179"/>
<polygon fill="midnightblue" stroke="midnightblue" points="2085.87,-158.542 2083.79,-148.153 2078.94,-157.572 2085.87,-158.542"/>
</g>
<!-- Node31 -->
<g id="node32" class="node"><title>Node31</title>
<g id="a_node32"><a xlink:title=" ">
<polygon fill="white" stroke="#bfbfbf" points="2007,-201.5 2007,-220.5 2057,-220.5 2057,-201.5 2007,-201.5"/>
<text text-anchor="middle" x="2032" y="-208.5" font-family="Helvetica,sans-Serif" font-size="10.00">chrono</text>
</a>
</g>
</g>
<!-- Node30&#45;&gt;Node31 -->
<g id="edge64" class="edge"><title>Node30&#45;&gt;Node31</title>
<path fill="none" stroke="midnightblue" d="M2060.95,-273.855C2055.86,-262.967 2046.97,-243.983 2040.38,-229.909"/>
<polygon fill="midnightblue" stroke="midnightblue" points="2043.49,-228.288 2036.08,-220.715 2037.15,-231.256 2043.49,-228.288"/>
</g>
</g>
</svg>
