<?xml version="1.0" encoding="UTF-8" standalone="no"?>
<!DOCTYPE svg PUBLIC "-//W3C//DTD SVG 1.1//EN"
 "http://www.w3.org/Graphics/SVG/1.1/DTD/svg11.dtd">
<!-- Generated by graphviz version 2.38.0 (20140413.2041)
 -->
<!-- Title: include/arlib/penalty.hpp Pages: 1 -->
<svg width="2382pt" height="430pt"
 viewBox="0.00 0.00 2382.00 430.00" xmlns="http://www.w3.org/2000/svg" xmlns:xlink="http://www.w3.org/1999/xlink">
<g id="graph0" class="graph" transform="scale(1 1) rotate(0) translate(4 426)">
<title>include/arlib/penalty.hpp</title>
<polygon fill="white" stroke="none" points="-4,4 -4,-426 2378,-426 2378,4 -4,4"/>
<!-- Node0 -->
<g id="node1" class="node"><title>Node0</title>
<g id="a_node1"><a xlink:title=" ">
<polygon fill="#bfbfbf" stroke="black" points="725.5,-402.5 725.5,-421.5 856.5,-421.5 856.5,-402.5 725.5,-402.5"/>
<text text-anchor="middle" x="791" y="-409.5" font-family="Helvetica,sans-Serif" font-size="10.00">include/arlib/penalty.hpp</text>
</a>
</g>
</g>
<!-- Node1 -->
<g id="node2" class="node"><title>Node1</title>
<g id="a_node2"><a xlink:title=" ">
<polygon fill="white" stroke="#bfbfbf" points="1501.5,-0.5 1501.5,-19.5 1676.5,-19.5 1676.5,-0.5 1501.5,-0.5"/>
<text text-anchor="middle" x="1589" y="-7.5" font-family="Helvetica,sans-Serif" font-size="10.00">boost/graph/graph_concepts.hpp</text>
</a>
</g>
</g>
<!-- Node0&#45;&gt;Node1 -->
<g id="edge1" class="edge"><title>Node0&#45;&gt;Node1</title>
<path fill="none" stroke="midnightblue" d="M856.785,-411.296C1025.93,-411.399 1489.59,-407.533 1873,-366 2080.73,-343.498 2336,-493.441 2336,-284.5 2336,-284.5 2336,-284.5 2336,-210 2336,-163.774 2315.45,-151.432 2279,-123 2207.41,-67.1528 2174.76,-75.1247 2086,-56 1949.46,-26.5815 1787.79,-16.3693 1686.79,-12.8399"/>
<polygon fill="midnightblue" stroke="midnightblue" points="1686.72,-9.33552 1676.61,-12.4995 1686.48,-16.3316 1686.72,-9.33552"/>
</g>
<!-- Node2 -->
<g id="node3" class="node"><title>Node2</title>
<g id="a_node3"><a xlink:title=" ">
<polygon fill="white" stroke="#bfbfbf" points="532,-0.5 532,-19.5 688,-19.5 688,-0.5 532,-0.5"/>
<text text-anchor="middle" x="610" y="-7.5" font-family="Helvetica,sans-Serif" font-size="10.00">boost/graph/graph_traits.hpp</text>
</a>
</g>
</g>
<!-- Node0&#45;&gt;Node2 -->
<g id="edge2" class="edge"><title>Node0&#45;&gt;Node2</title>
<path fill="none" stroke="midnightblue" d="M725.229,-410.08C556.701,-407.283 118.581,-397.078 61,-366 21.1846,-344.511 0,-329.744 0,-284.5 0,-284.5 0,-284.5 0,-137.5 0,-91.9878 22.0854,-77.8675 62,-56 101.243,-34.5004 376.971,-20.3545 521.719,-14.3235"/>
<polygon fill="midnightblue" stroke="midnightblue" points="522.062,-17.8125 531.91,-13.9033 521.774,-10.8184 522.062,-17.8125"/>
</g>
<!-- Node3 -->
<g id="node4" class="node"><title>Node3</title>
<g id="a_node4"><a xlink:title=" ">
<polygon fill="white" stroke="#bfbfbf" points="1082.5,-0.5 1082.5,-19.5 1229.5,-19.5 1229.5,-0.5 1082.5,-0.5"/>
<text text-anchor="middle" x="1156" y="-7.5" font-family="Helvetica,sans-Serif" font-size="10.00">boost/graph/properties.hpp</text>
</a>
</g>
</g>
<!-- Node0&#45;&gt;Node3 -->
<g id="edge3" class="edge"><title>Node0&#45;&gt;Node3</title>
<path fill="none" stroke="midnightblue" d="M745.508,-402.498C648.239,-383 414.834,-329.108 242,-232 216.994,-217.95 217.743,-204.509 193,-190 152.972,-166.529 121.558,-192.049 95,-154 87.1142,-142.702 85.8842,-133.331 95,-123 127.318,-86.3737 826.939,-34.0511 1072.06,-16.7772"/>
<polygon fill="midnightblue" stroke="midnightblue" points="1072.61,-20.2474 1082.34,-16.0547 1072.12,-13.2647 1072.61,-20.2474"/>
</g>
<!-- Node4 -->
<g id="node5" class="node"><title>Node4</title>
<g id="a_node5"><a xlink:href="terminators_8hpp_source.html" target="_top" xlink:title=" ">
<polygon fill="white" stroke="black" points="66.5,-274 66.5,-293 183.5,-293 183.5,-274 66.5,-274"/>
<text text-anchor="middle" x="125" y="-281" font-family="Helvetica,sans-Serif" font-size="10.00">arlib/terminators.hpp</text>
</a>
</g>
</g>
<!-- Node0&#45;&gt;Node4 -->
<g id="edge4" class="edge"><title>Node0&#45;&gt;Node4</title>
<path fill="none" stroke="midnightblue" d="M725.475,-408.779C581.036,-403.49 244.36,-388.857 198,-366 169.433,-351.916 146.971,-321.319 134.872,-301.882"/>
<polygon fill="midnightblue" stroke="midnightblue" points="137.775,-299.916 129.647,-293.119 131.762,-303.501 137.775,-299.916"/>
</g>
<!-- Node7 -->
<g id="node8" class="node"><title>Node7</title>
<g id="a_node8"><a xlink:href="type__traits_8hpp.html" target="_top" xlink:title=" ">
<polygon fill="white" stroke="black" points="638,-62 638,-81 750,-81 750,-62 638,-62"/>
<text text-anchor="middle" x="694" y="-69" font-family="Helvetica,sans-Serif" font-size="10.00">arlib/type_traits.hpp</text>
</a>
</g>
</g>
<!-- Node0&#45;&gt;Node7 -->
<g id="edge7" class="edge"><title>Node0&#45;&gt;Node7</title>
<path fill="none" stroke="midnightblue" d="M725.356,-410.592C585.122,-409.034 260.654,-401.572 157,-366 96.3673,-345.192 38,-348.604 38,-284.5 38,-284.5 38,-284.5 38,-210 38,-163.774 55.2907,-146.666 95,-123 139.895,-96.2437 481.292,-80.4398 627.683,-74.8306"/>
<polygon fill="midnightblue" stroke="midnightblue" points="628.019,-78.3205 637.879,-74.4444 627.754,-71.3255 628.019,-78.3205"/>
</g>
<!-- Node8 -->
<g id="node9" class="node"><title>Node8</title>
<g id="a_node9"><a xlink:href="penalty__impl_8hpp.html" target="_top" xlink:title=" ">
<polygon fill="white" stroke="black" points="1278,-335.5 1278,-365.5 1388,-365.5 1388,-335.5 1278,-335.5"/>
<text text-anchor="start" x="1286" y="-353.5" font-family="Helvetica,sans-Serif" font-size="10.00">arlib/details/penalty</text>
<text text-anchor="middle" x="1333" y="-342.5" font-family="Helvetica,sans-Serif" font-size="10.00">_impl.hpp</text>
</a>
</g>
</g>
<!-- Node0&#45;&gt;Node8 -->
<g id="edge10" class="edge"><title>Node0&#45;&gt;Node8</title>
<path fill="none" stroke="midnightblue" d="M856.648,-403.793C960.976,-392.34 1163.45,-370.113 1267.61,-358.678"/>
<polygon fill="midnightblue" stroke="midnightblue" points="1268.12,-362.143 1277.68,-357.573 1267.36,-355.185 1268.12,-362.143"/>
</g>
<!-- Node19 -->
<g id="node20" class="node"><title>Node19</title>
<g id="a_node20"><a xlink:title=" ">
<polygon fill="white" stroke="#bfbfbf" points="2184,-0.5 2184,-19.5 2270,-19.5 2270,-0.5 2184,-0.5"/>
<text text-anchor="middle" x="2227" y="-7.5" font-family="Helvetica,sans-Serif" font-size="10.00">unordered_set</text>
</a>
</g>
</g>
<!-- Node0&#45;&gt;Node19 -->
<g id="edge81" class="edge"><title>Node0&#45;&gt;Node19</title>
<path fill="none" stroke="midnightblue" d="M856.608,-410.88C1088.34,-410.128 1867.67,-404.71 2114,-366 2233.63,-347.201 2374,-405.6 2374,-284.5 2374,-284.5 2374,-284.5 2374,-137.5 2374,-78.4956 2305.11,-40.9948 2261.65,-23.2072"/>
<polygon fill="midnightblue" stroke="midnightblue" points="2262.86,-19.9195 2252.27,-19.5089 2260.29,-26.432 2262.86,-19.9195"/>
</g>
<!-- Node23 -->
<g id="node24" class="node"><title>Node23</title>
<g id="a_node24"><a xlink:title=" ">
<polygon fill="white" stroke="#bfbfbf" points="1050.5,-129 1050.5,-148 1097.5,-148 1097.5,-129 1050.5,-129"/>
<text text-anchor="middle" x="1074" y="-136" font-family="Helvetica,sans-Serif" font-size="10.00">vector</text>
</a>
</g>
</g>
<!-- Node0&#45;&gt;Node23 -->
<g id="edge82" class="edge"><title>Node0&#45;&gt;Node23</title>
<path fill="none" stroke="midnightblue" d="M797.655,-402.219C821.694,-370.864 907.203,-262.436 994,-190 1011.08,-175.748 1032.47,-162.443 1048.84,-153.071"/>
<polygon fill="midnightblue" stroke="midnightblue" points="1050.82,-155.976 1057.83,-148.03 1047.39,-149.871 1050.82,-155.976"/>
</g>
<!-- Node30 -->
<g id="node31" class="node"><title>Node30</title>
<g id="a_node31"><a xlink:title=" ">
<polygon fill="white" stroke="#bfbfbf" points="2222.5,-129 2222.5,-148 2269.5,-148 2269.5,-129 2222.5,-129"/>
<text text-anchor="middle" x="2246" y="-136" font-family="Helvetica,sans-Serif" font-size="10.00">queue</text>
</a>
</g>
</g>
<!-- Node0&#45;&gt;Node30 -->
<g id="edge79" class="edge"><title>Node0&#45;&gt;Node30</title>
<path fill="none" stroke="midnightblue" d="M856.645,-411.315C1084.66,-411.47 1840.03,-403.883 2054,-299 2130.08,-261.706 2201.95,-188.335 2231.66,-155.753"/>
<polygon fill="midnightblue" stroke="midnightblue" points="2234.5,-157.826 2238.58,-148.05 2229.29,-153.145 2234.5,-157.826"/>
</g>
<!-- Node31 -->
<g id="node32" class="node"><title>Node31</title>
<g id="a_node32"><a xlink:title=" ">
<polygon fill="white" stroke="#bfbfbf" points="2072.5,-129 2072.5,-148 2165.5,-148 2165.5,-129 2072.5,-129"/>
<text text-anchor="middle" x="2119" y="-136" font-family="Helvetica,sans-Serif" font-size="10.00">unordered_map</text>
</a>
</g>
</g>
<!-- Node0&#45;&gt;Node31 -->
<g id="edge80" class="edge"><title>Node0&#45;&gt;Node31</title>
<path fill="none" stroke="midnightblue" d="M856.671,-408.557C1097.76,-399.112 1925.21,-362.327 2024,-299 2076.15,-265.57 2103.54,-192.432 2113.96,-158.053"/>
<polygon fill="midnightblue" stroke="midnightblue" points="2117.35,-158.931 2116.75,-148.353 2110.62,-156.993 2117.35,-158.931"/>
</g>
<!-- Node5 -->
<g id="node6" class="node"><title>Node5</title>
<g id="a_node6"><a xlink:title=" ">
<polygon fill="white" stroke="#bfbfbf" points="134,-201.5 134,-220.5 184,-220.5 184,-201.5 134,-201.5"/>
<text text-anchor="middle" x="159" y="-208.5" font-family="Helvetica,sans-Serif" font-size="10.00">chrono</text>
</a>
</g>
</g>
<!-- Node4&#45;&gt;Node5 -->
<g id="edge5" class="edge"><title>Node4&#45;&gt;Node5</title>
<path fill="none" stroke="midnightblue" d="M129.169,-273.855C134.42,-262.967 143.576,-243.983 150.363,-229.909"/>
<polygon fill="midnightblue" stroke="midnightblue" points="153.605,-231.243 154.797,-220.715 147.3,-228.202 153.605,-231.243"/>
</g>
<!-- Node6 -->
<g id="node7" class="node"><title>Node6</title>
<g id="a_node7"><a xlink:title=" ">
<polygon fill="white" stroke="#bfbfbf" points="104,-129 104,-148 168,-148 168,-129 104,-129"/>
<text text-anchor="middle" x="136" y="-136" font-family="Helvetica,sans-Serif" font-size="10.00">stdexcept</text>
</a>
</g>
</g>
<!-- Node4&#45;&gt;Node6 -->
<g id="edge6" class="edge"><title>Node4&#45;&gt;Node6</title>
<path fill="none" stroke="midnightblue" d="M124.381,-273.795C123.35,-257.359 121.7,-220.656 125,-190 126.146,-179.356 128.613,-167.664 130.921,-158.213"/>
<polygon fill="midnightblue" stroke="midnightblue" points="134.358,-158.902 133.468,-148.345 127.58,-157.153 134.358,-158.902"/>
</g>
<!-- Node7&#45;&gt;Node2 -->
<g id="edge8" class="edge"><title>Node7&#45;&gt;Node2</title>
<path fill="none" stroke="midnightblue" d="M681.965,-61.9751C668.492,-52.4315 646.434,-36.8073 630.285,-25.3683"/>
<polygon fill="midnightblue" stroke="midnightblue" points="632.196,-22.4332 622.013,-19.5091 628.15,-28.1454 632.196,-22.4332"/>
</g>
<!-- Node7&#45;&gt;Node3 -->
<g id="edge9" class="edge"><title>Node7&#45;&gt;Node3</title>
<path fill="none" stroke="midnightblue" d="M728.949,-61.9856C738.64,-59.8208 749.194,-57.6448 759,-56 866.426,-37.9823 991.44,-25.1368 1072.04,-17.8977"/>
<polygon fill="midnightblue" stroke="midnightblue" points="1072.49,-21.3722 1082.14,-16.9996 1071.87,-14.3997 1072.49,-21.3722"/>
</g>
<!-- Node8&#45;&gt;Node1 -->
<g id="edge12" class="edge"><title>Node8&#45;&gt;Node1</title>
<path fill="none" stroke="midnightblue" d="M1388.27,-346.486C1547.06,-337.691 1995.11,-311.87 2024,-299 2108.99,-261.142 2138.52,-239.595 2175,-154 2180.4,-141.325 2183.78,-133.618 2175,-123 2114.18,-49.4598 1837.31,-23.7597 1686.92,-15.131"/>
<polygon fill="midnightblue" stroke="midnightblue" points="1686.94,-11.6266 1676.76,-14.5629 1686.55,-18.6157 1686.94,-11.6266"/>
</g>
<!-- Node8&#45;&gt;Node2 -->
<g id="edge13" class="edge"><title>Node8&#45;&gt;Node2</title>
<path fill="none" stroke="midnightblue" d="M1277.76,-348.143C1114.76,-343.834 637.686,-328.944 485,-299 394.248,-281.202 359.462,-290.701 288,-232 247.501,-198.733 212.653,-165.731 243,-123 278.158,-73.4939 449.347,-37.7005 545.001,-21.1942"/>
<polygon fill="midnightblue" stroke="midnightblue" points="545.593,-24.6439 554.864,-19.5145 544.418,-17.7432 545.593,-24.6439"/>
</g>
<!-- Node8&#45;&gt;Node3 -->
<g id="edge14" class="edge"><title>Node8&#45;&gt;Node3</title>
<path fill="none" stroke="midnightblue" d="M1378.35,-335.47C1519.78,-291.671 1943.59,-160.026 1948,-154 1956.13,-142.879 1956.4,-133.918 1948,-123 1877.05,-30.8202 1809.62,-75.804 1695,-56 1535.44,-28.4321 1346.28,-17.5856 1239.79,-13.442"/>
<polygon fill="midnightblue" stroke="midnightblue" points="1239.88,-9.94264 1229.75,-13.0615 1239.61,-16.9376 1239.88,-9.94264"/>
</g>
<!-- Node8&#45;&gt;Node4 -->
<g id="edge71" class="edge"><title>Node8&#45;&gt;Node4</title>
<path fill="none" stroke="midnightblue" d="M1277.82,-347.83C1120.73,-342.867 657.686,-326.801 274,-299 247.799,-297.102 219.061,-294.442 193.873,-291.918"/>
<polygon fill="midnightblue" stroke="midnightblue" points="193.983,-288.411 183.681,-290.885 193.277,-295.376 193.983,-288.411"/>
</g>
<!-- Node8&#45;&gt;Node7 -->
<g id="edge72" class="edge"><title>Node8&#45;&gt;Node7</title>
<path fill="none" stroke="midnightblue" d="M1277.66,-349.079C1074.19,-346.181 373.166,-323.842 253,-154 245.042,-142.753 243.829,-133.282 253,-123 277.462,-95.5769 510.297,-80.9836 627.411,-75.3256"/>
<polygon fill="midnightblue" stroke="midnightblue" points="627.867,-78.808 637.689,-74.8376 627.535,-71.8159 627.867,-78.808"/>
</g>
<!-- Node9 -->
<g id="node10" class="node"><title>Node9</title>
<g id="a_node10"><a xlink:title=" ">
<polygon fill="white" stroke="#bfbfbf" points="262.5,-123.5 262.5,-153.5 377.5,-153.5 377.5,-123.5 262.5,-123.5"/>
<text text-anchor="start" x="270.5" y="-141.5" font-family="Helvetica,sans-Serif" font-size="10.00">boost/graph/dijkstra</text>
<text text-anchor="middle" x="320" y="-130.5" font-family="Helvetica,sans-Serif" font-size="10.00">_shortest_paths.hpp</text>
</a>
</g>
</g>
<!-- Node8&#45;&gt;Node9 -->
<g id="edge11" class="edge"><title>Node8&#45;&gt;Node9</title>
<path fill="none" stroke="midnightblue" d="M1277.81,-346.319C1192.05,-340.71 1021.9,-326.915 880,-299 688.451,-261.317 467.22,-189.721 370.094,-156.822"/>
<polygon fill="midnightblue" stroke="midnightblue" points="371.126,-153.477 360.532,-153.572 368.874,-160.104 371.126,-153.477"/>
</g>
<!-- Node10 -->
<g id="node11" class="node"><title>Node10</title>
<g id="a_node11"><a xlink:title=" ">
<polygon fill="white" stroke="#bfbfbf" points="1115.5,-123.5 1115.5,-153.5 1228.5,-153.5 1228.5,-123.5 1115.5,-123.5"/>
<text text-anchor="start" x="1123.5" y="-141.5" font-family="Helvetica,sans-Serif" font-size="10.00">boost/graph/reverse</text>
<text text-anchor="middle" x="1172" y="-130.5" font-family="Helvetica,sans-Serif" font-size="10.00">_graph.hpp</text>
</a>
</g>
</g>
<!-- Node8&#45;&gt;Node10 -->
<g id="edge15" class="edge"><title>Node8&#45;&gt;Node10</title>
<path fill="none" stroke="midnightblue" d="M1306.51,-335.36C1290.63,-326.18 1270.57,-313.291 1255,-299 1227.23,-273.509 1220.8,-265.229 1203,-232 1191.19,-209.954 1182.69,-182.567 1177.61,-163.334"/>
<polygon fill="midnightblue" stroke="midnightblue" points="1180.99,-162.41 1175.14,-153.574 1174.2,-164.127 1180.99,-162.41"/>
</g>
<!-- Node11 -->
<g id="node12" class="node"><title>Node11</title>
<g id="a_node12"><a xlink:title=" ">
<polygon fill="white" stroke="#bfbfbf" points="1009,-268.5 1009,-298.5 1161,-298.5 1161,-268.5 1009,-268.5"/>
<text text-anchor="start" x="1017" y="-286.5" font-family="Helvetica,sans-Serif" font-size="10.00">boost/property_map</text>
<text text-anchor="middle" x="1085" y="-275.5" font-family="Helvetica,sans-Serif" font-size="10.00">/function_property_map.hpp</text>
</a>
</g>
</g>
<!-- Node8&#45;&gt;Node11 -->
<g id="edge16" class="edge"><title>Node8&#45;&gt;Node11</title>
<path fill="none" stroke="midnightblue" d="M1279.49,-335.476C1241.08,-325.408 1189.16,-311.799 1148.62,-301.174"/>
<polygon fill="midnightblue" stroke="midnightblue" points="1149.4,-297.761 1138.84,-298.611 1147.62,-304.532 1149.4,-297.761"/>
</g>
<!-- Node12 -->
<g id="node13" class="node"><title>Node12</title>
<g id="a_node13"><a xlink:title=" ">
<polygon fill="white" stroke="#bfbfbf" points="1825,-123.5 1825,-153.5 1939,-153.5 1939,-123.5 1825,-123.5"/>
<text text-anchor="start" x="1833" y="-141.5" font-family="Helvetica,sans-Serif" font-size="10.00">boost/property_map</text>
<text text-anchor="middle" x="1882" y="-130.5" font-family="Helvetica,sans-Serif" font-size="10.00">/property_map.hpp</text>
</a>
</g>
</g>
<!-- Node8&#45;&gt;Node12 -->
<g id="edge17" class="edge"><title>Node8&#45;&gt;Node12</title>
<path fill="none" stroke="midnightblue" d="M1388.24,-349.377C1537.48,-348.474 1940.19,-342.035 1980,-299 2020.67,-255.028 1951.99,-191.701 1910.33,-159.678"/>
<polygon fill="midnightblue" stroke="midnightblue" points="1912.24,-156.737 1902.14,-153.521 1908.03,-162.331 1912.24,-156.737"/>
</g>
<!-- Node13 -->
<g id="node14" class="node"><title>Node13</title>
<g id="a_node14"><a xlink:href="arlib__utils_8hpp.html" target="_top" xlink:title=" ">
<polygon fill="white" stroke="black" points="720.5,-196 720.5,-226 815.5,-226 815.5,-196 720.5,-196"/>
<text text-anchor="start" x="728.5" y="-214" font-family="Helvetica,sans-Serif" font-size="10.00">arlib/details/arlib</text>
<text text-anchor="middle" x="768" y="-203" font-family="Helvetica,sans-Serif" font-size="10.00">_utils.hpp</text>
</a>
</g>
</g>
<!-- Node8&#45;&gt;Node13 -->
<g id="edge18" class="edge"><title>Node8&#45;&gt;Node13</title>
<path fill="none" stroke="midnightblue" d="M1277.78,-346.613C1205.28,-341.756 1074.58,-329.311 967,-299 907.278,-282.173 842.111,-251.032 803.174,-230.931"/>
<polygon fill="midnightblue" stroke="midnightblue" points="804.345,-227.594 793.86,-226.074 801.108,-233.801 804.345,-227.594"/>
</g>
<!-- Node8&#45;&gt;Node19 -->
<g id="edge77" class="edge"><title>Node8&#45;&gt;Node19</title>
<path fill="none" stroke="midnightblue" d="M1388.24,-347.552C1572.26,-340.894 2154.86,-318.378 2190,-299 2256.21,-262.483 2260.88,-227.413 2279,-154 2290.61,-106.968 2258.9,-53.9404 2239.98,-27.6395"/>
<polygon fill="midnightblue" stroke="midnightblue" points="2242.7,-25.4279 2233.91,-19.5049 2237.09,-29.6133 2242.7,-25.4279"/>
</g>
<!-- Node8&#45;&gt;Node23 -->
<g id="edge78" class="edge"><title>Node8&#45;&gt;Node23</title>
<path fill="none" stroke="midnightblue" d="M1277.81,-349.454C1192.61,-348.078 1035.17,-339.902 1000,-299 961.289,-253.976 1024.13,-185.288 1056.55,-154.891"/>
<polygon fill="midnightblue" stroke="midnightblue" points="1059.03,-157.357 1064.05,-148.025 1054.31,-152.192 1059.03,-157.357"/>
</g>
<!-- Node24 -->
<g id="node25" class="node"><title>Node24</title>
<g id="a_node25"><a xlink:href="bidirectional__dijkstra_8hpp.html" target="_top" xlink:title=" ">
<polygon fill="white" stroke="black" points="1264,-268.5 1264,-298.5 1402,-298.5 1402,-268.5 1264,-268.5"/>
<text text-anchor="start" x="1272" y="-286.5" font-family="Helvetica,sans-Serif" font-size="10.00">arlib/routing_kernels</text>
<text text-anchor="middle" x="1333" y="-275.5" font-family="Helvetica,sans-Serif" font-size="10.00">/bidirectional_dijkstra.hpp</text>
</a>
</g>
</g>
<!-- Node8&#45;&gt;Node24 -->
<g id="edge42" class="edge"><title>Node8&#45;&gt;Node24</title>
<path fill="none" stroke="midnightblue" d="M1333,-335.396C1333,-327.645 1333,-317.812 1333,-308.86"/>
<polygon fill="midnightblue" stroke="midnightblue" points="1336.5,-308.576 1333,-298.577 1329.5,-308.577 1336.5,-308.576"/>
</g>
<!-- Node29 -->
<g id="node30" class="node"><title>Node29</title>
<g id="a_node30"><a xlink:title=" ">
<polygon fill="white" stroke="#bfbfbf" points="1995.5,-129 1995.5,-148 2054.5,-148 2054.5,-129 1995.5,-129"/>
<text text-anchor="middle" x="2025" y="-136" font-family="Helvetica,sans-Serif" font-size="10.00">iostream</text>
</a>
</g>
</g>
<!-- Node8&#45;&gt;Node29 -->
<g id="edge74" class="edge"><title>Node8&#45;&gt;Node29</title>
<path fill="none" stroke="midnightblue" d="M1388.23,-349.175C1540.06,-347.754 1955.47,-340.109 2000,-299 2039.24,-262.775 2033.92,-192.118 2028.63,-158.35"/>
<polygon fill="midnightblue" stroke="midnightblue" points="2032,-157.31 2026.83,-148.061 2025.11,-158.514 2032,-157.31"/>
</g>
<!-- Node8&#45;&gt;Node30 -->
<g id="edge75" class="edge"><title>Node8&#45;&gt;Node30</title>
<path fill="none" stroke="midnightblue" d="M1388.16,-349.207C1562.69,-347.86 2095.27,-340.367 2160,-299 2210.97,-266.429 2233.89,-192.815 2242.14,-158.179"/>
<polygon fill="midnightblue" stroke="midnightblue" points="2245.64,-158.565 2244.4,-148.043 2238.81,-157.044 2245.64,-158.565"/>
</g>
<!-- Node8&#45;&gt;Node31 -->
<g id="edge76" class="edge"><title>Node8&#45;&gt;Node31</title>
<path fill="none" stroke="midnightblue" d="M1388.05,-345.67C1480.79,-338.674 1663.96,-322.363 1724,-299 1746.29,-290.325 1746.81,-279.097 1768,-268 1874.36,-212.311 2010.3,-170.002 2077.52,-150.818"/>
<polygon fill="midnightblue" stroke="midnightblue" points="2078.65,-154.137 2087.32,-148.048 2076.75,-147.402 2078.65,-154.137"/>
</g>
<!-- Node32 -->
<g id="node33" class="node"><title>Node32</title>
<g id="a_node33"><a xlink:href="types_8hpp.html" target="_top" xlink:title=" ">
<polygon fill="white" stroke="black" points="1776.5,-268.5 1776.5,-298.5 1889.5,-298.5 1889.5,-268.5 1776.5,-268.5"/>
<text text-anchor="start" x="1784.5" y="-286.5" font-family="Helvetica,sans-Serif" font-size="10.00">arlib/routing_kernels</text>
<text text-anchor="middle" x="1833" y="-275.5" font-family="Helvetica,sans-Serif" font-size="10.00">/types.hpp</text>
</a>
</g>
</g>
<!-- Node8&#45;&gt;Node32 -->
<g id="edge70" class="edge"><title>Node8&#45;&gt;Node32</title>
<path fill="none" stroke="midnightblue" d="M1388.06,-344.517C1469.9,-336.772 1628.35,-320.474 1762,-299 1763.48,-298.763 1764.97,-298.517 1766.47,-298.263"/>
<polygon fill="midnightblue" stroke="midnightblue" points="1767.26,-301.677 1776.5,-296.486 1766.04,-294.784 1767.26,-301.677"/>
</g>
<!-- Node33 -->
<g id="node34" class="node"><title>Node33</title>
<g id="a_node34"><a xlink:title=" ">
<polygon fill="white" stroke="#bfbfbf" points="1907.5,-274 1907.5,-293 1970.5,-293 1970.5,-274 1907.5,-274"/>
<text text-anchor="middle" x="1939" y="-281" font-family="Helvetica,sans-Serif" font-size="10.00">functional</text>
</a>
</g>
</g>
<!-- Node8&#45;&gt;Node33 -->
<g id="edge73" class="edge"><title>Node8&#45;&gt;Node33</title>
<path fill="none" stroke="midnightblue" d="M1388.36,-349.282C1490.52,-347.841 1715.05,-339.822 1899,-299 1902.25,-298.28 1905.59,-297.365 1908.89,-296.346"/>
<polygon fill="midnightblue" stroke="midnightblue" points="1910.2,-299.597 1918.54,-293.067 1907.95,-292.968 1910.2,-299.597"/>
</g>
<!-- Node13&#45;&gt;Node1 -->
<g id="edge22" class="edge"><title>Node13&#45;&gt;Node1</title>
<path fill="none" stroke="midnightblue" d="M810.614,-195.982C817.094,-193.929 823.714,-191.877 830,-190 887.857,-172.727 906.007,-178.931 961,-154 983.791,-143.668 984.825,-132.438 1008,-123 1100.14,-85.4734 1385.48,-40.6132 1518.9,-21.0024"/>
<polygon fill="midnightblue" stroke="midnightblue" points="1519.62,-24.4337 1529.01,-19.5217 1518.61,-17.5076 1519.62,-24.4337"/>
</g>
<!-- Node13&#45;&gt;Node2 -->
<g id="edge23" class="edge"><title>Node13&#45;&gt;Node2</title>
<path fill="none" stroke="midnightblue" d="M720.377,-205.627C630.676,-196.907 443.928,-176.269 425,-154 374.758,-94.8904 502.617,-44.3438 570.673,-22.5146"/>
<polygon fill="midnightblue" stroke="midnightblue" points="571.761,-25.8415 580.252,-19.5046 569.663,-19.1634 571.761,-25.8415"/>
</g>
<!-- Node13&#45;&gt;Node3 -->
<g id="edge24" class="edge"><title>Node13&#45;&gt;Node3</title>
<path fill="none" stroke="midnightblue" d="M810.905,-195.932C849.74,-182.956 903.849,-164.206 924,-154 945.994,-142.861 947.617,-133.335 970,-123 1024.04,-98.047 1049.86,-120.596 1099,-87 1120.85,-72.0593 1137.71,-45.9795 1147.24,-28.6007"/>
<polygon fill="midnightblue" stroke="midnightblue" points="1150.46,-30.0067 1152,-19.5238 1144.26,-26.7606 1150.46,-30.0067"/>
</g>
<!-- Node13&#45;&gt;Node6 -->
<g id="edge39" class="edge"><title>Node13&#45;&gt;Node6</title>
<path fill="none" stroke="midnightblue" d="M720.402,-205.065C629.511,-195.589 424.969,-174.005 253,-154 228.253,-151.121 200.588,-147.702 178.374,-144.907"/>
<polygon fill="midnightblue" stroke="midnightblue" points="178.624,-141.411 168.264,-143.63 177.747,-148.355 178.624,-141.411"/>
</g>
<!-- Node13&#45;&gt;Node7 -->
<g id="edge36" class="edge"><title>Node13&#45;&gt;Node7</title>
<path fill="none" stroke="midnightblue" d="M767.505,-195.808C766.317,-177.769 762.325,-146.191 749,-123 740.869,-108.848 727.432,-96.4015 715.875,-87.4057"/>
<polygon fill="midnightblue" stroke="midnightblue" points="717.644,-84.3608 707.523,-81.2281 713.481,-89.9887 717.644,-84.3608"/>
</g>
<!-- Node13&#45;&gt;Node9 -->
<g id="edge20" class="edge"><title>Node13&#45;&gt;Node9</title>
<path fill="none" stroke="midnightblue" d="M720.391,-203.7C648.905,-194.063 509.667,-174.597 392,-154 390.548,-153.746 389.08,-153.485 387.601,-153.219"/>
<polygon fill="midnightblue" stroke="midnightblue" points="388.189,-149.768 377.72,-151.393 386.917,-156.652 388.189,-149.768"/>
</g>
<!-- Node13&#45;&gt;Node10 -->
<g id="edge25" class="edge"><title>Node13&#45;&gt;Node10</title>
<path fill="none" stroke="midnightblue" d="M815.718,-202.895C879.384,-193.24 995.833,-174.961 1105.27,-154.082"/>
<polygon fill="midnightblue" stroke="midnightblue" points="1106,-157.507 1115.16,-152.185 1104.68,-150.632 1106,-157.507"/>
</g>
<!-- Node14 -->
<g id="node15" class="node"><title>Node14</title>
<g id="a_node15"><a xlink:title=" ">
<polygon fill="white" stroke="#bfbfbf" points="434.5,-129 434.5,-148 595.5,-148 595.5,-129 434.5,-129"/>
<text text-anchor="middle" x="515" y="-136" font-family="Helvetica,sans-Serif" font-size="10.00">boost/graph/astar_search.hpp</text>
</a>
</g>
</g>
<!-- Node13&#45;&gt;Node14 -->
<g id="edge19" class="edge"><title>Node13&#45;&gt;Node14</title>
<path fill="none" stroke="midnightblue" d="M720.413,-196.739C672.771,-183.464 600.268,-163.26 555.357,-150.746"/>
<polygon fill="midnightblue" stroke="midnightblue" points="556.236,-147.357 545.663,-148.045 554.357,-154.1 556.236,-147.357"/>
</g>
<!-- Node15 -->
<g id="node16" class="node"><title>Node15</title>
<g id="a_node16"><a xlink:title=" ">
<polygon fill="white" stroke="#bfbfbf" points="980,-56.5 980,-86.5 1090,-86.5 1090,-56.5 980,-56.5"/>
<text text-anchor="start" x="988" y="-74.5" font-family="Helvetica,sans-Serif" font-size="10.00">boost/graph/filtered</text>
<text text-anchor="middle" x="1035" y="-63.5" font-family="Helvetica,sans-Serif" font-size="10.00">_graph.hpp</text>
</a>
</g>
</g>
<!-- Node13&#45;&gt;Node15 -->
<g id="edge21" class="edge"><title>Node13&#45;&gt;Node15</title>
<path fill="none" stroke="midnightblue" d="M802.172,-195.979C826.636,-185.482 860.052,-170.195 888,-154 908.698,-142.006 911.419,-135.192 932,-123 951.732,-111.311 974.553,-99.9197 993.692,-90.9234"/>
<polygon fill="midnightblue" stroke="midnightblue" points="995.169,-94.0968 1002.76,-86.7086 992.219,-87.7488 995.169,-94.0968"/>
</g>
<!-- Node16 -->
<g id="node17" class="node"><title>Node16</title>
<g id="a_node17"><a xlink:href="path_8hpp.html" target="_top" xlink:title=" ">
<polygon fill="white" stroke="black" points="796.5,-129 796.5,-148 879.5,-148 879.5,-129 796.5,-129"/>
<text text-anchor="middle" x="838" y="-136" font-family="Helvetica,sans-Serif" font-size="10.00">arlib/path.hpp</text>
</a>
</g>
</g>
<!-- Node13&#45;&gt;Node16 -->
<g id="edge26" class="edge"><title>Node13&#45;&gt;Node16</title>
<path fill="none" stroke="midnightblue" d="M782.166,-195.733C793.701,-184.115 809.984,-167.716 821.99,-155.624"/>
<polygon fill="midnightblue" stroke="midnightblue" points="824.608,-157.955 829.17,-148.393 819.64,-153.023 824.608,-157.955"/>
</g>
<!-- Node13&#45;&gt;Node19 -->
<g id="edge40" class="edge"><title>Node13&#45;&gt;Node19</title>
<path fill="none" stroke="midnightblue" d="M809.515,-195.964C816.325,-193.847 823.334,-191.78 830,-190 904.196,-170.186 928.968,-185.515 999,-154 1020.16,-144.479 1019.4,-131.478 1041,-123 1147.55,-81.1742 1956.69,-27.934 2173.63,-14.2971"/>
<polygon fill="midnightblue" stroke="midnightblue" points="2174.04,-17.778 2183.8,-13.6592 2173.6,-10.7917 2174.04,-17.778"/>
</g>
<!-- Node21 -->
<g id="node22" class="node"><title>Node21</title>
<g id="a_node22"><a xlink:title=" ">
<polygon fill="white" stroke="#bfbfbf" points="614,-129 614,-148 666,-148 666,-129 614,-129"/>
<text text-anchor="middle" x="640" y="-136" font-family="Helvetica,sans-Serif" font-size="10.00">iterator</text>
</a>
</g>
</g>
<!-- Node13&#45;&gt;Node21 -->
<g id="edge37" class="edge"><title>Node13&#45;&gt;Node21</title>
<path fill="none" stroke="midnightblue" d="M742.405,-195.903C719.679,-183.386 686.701,-165.222 664.357,-152.916"/>
<polygon fill="midnightblue" stroke="midnightblue" points="665.941,-149.792 655.494,-148.034 662.564,-155.924 665.941,-149.792"/>
</g>
<!-- Node22 -->
<g id="node23" class="node"><title>Node22</title>
<g id="a_node23"><a xlink:title=" ">
<polygon fill="white" stroke="#bfbfbf" points="684,-129 684,-148 740,-148 740,-129 684,-129"/>
<text text-anchor="middle" x="712" y="-136" font-family="Helvetica,sans-Serif" font-size="10.00">sstream</text>
</a>
</g>
</g>
<!-- Node13&#45;&gt;Node22 -->
<g id="edge38" class="edge"><title>Node13&#45;&gt;Node22</title>
<path fill="none" stroke="midnightblue" d="M756.668,-195.733C747.615,-184.337 734.908,-168.339 725.36,-156.32"/>
<polygon fill="midnightblue" stroke="midnightblue" points="728.025,-154.047 719.064,-148.393 722.543,-158.4 728.025,-154.047"/>
</g>
<!-- Node13&#45;&gt;Node23 -->
<g id="edge41" class="edge"><title>Node13&#45;&gt;Node23</title>
<path fill="none" stroke="midnightblue" d="M808.79,-195.955C815.816,-193.791 823.083,-191.711 830,-190 920.223,-167.679 946.394,-178.68 1036,-154 1038.65,-153.269 1041.38,-152.425 1044.09,-151.519"/>
<polygon fill="midnightblue" stroke="midnightblue" points="1045.5,-154.732 1053.73,-148.057 1043.13,-148.144 1045.5,-154.732"/>
</g>
<!-- Node16&#45;&gt;Node2 -->
<g id="edge33" class="edge"><title>Node16&#45;&gt;Node2</title>
<path fill="none" stroke="midnightblue" d="M796.35,-129.827C738.86,-118.879 640.892,-98.7981 629,-87 614.017,-72.1346 610.217,-47.3636 609.548,-30.1593"/>
<polygon fill="midnightblue" stroke="midnightblue" points="613.045,-29.6513 609.486,-19.6722 606.045,-29.6927 613.045,-29.6513"/>
</g>
<!-- Node16&#45;&gt;Node3 -->
<g id="edge34" class="edge"><title>Node16&#45;&gt;Node3</title>
<path fill="none" stroke="midnightblue" d="M837.16,-128.839C836.058,-112.065 836.292,-75.1209 857,-56 887.543,-27.7976 994.748,-17.2673 1072.06,-13.3373"/>
<polygon fill="midnightblue" stroke="midnightblue" points="1072.46,-16.8221 1082.28,-12.8468 1072.13,-9.83012 1072.46,-16.8221"/>
</g>
<!-- Node16&#45;&gt;Node7 -->
<g id="edge31" class="edge"><title>Node16&#45;&gt;Node7</title>
<path fill="none" stroke="midnightblue" d="M818.878,-128.869C794.241,-117.748 751.194,-98.3167 722.642,-85.4286"/>
<polygon fill="midnightblue" stroke="midnightblue" points="723.756,-82.0914 713.201,-81.1672 720.876,-88.4715 723.756,-82.0914"/>
</g>
<!-- Node16&#45;&gt;Node15 -->
<g id="edge32" class="edge"><title>Node16&#45;&gt;Node15</title>
<path fill="none" stroke="midnightblue" d="M864.16,-128.869C894.233,-118.946 944.354,-102.408 982.552,-89.8051"/>
<polygon fill="midnightblue" stroke="midnightblue" points="984.084,-92.9852 992.484,-86.5281 981.891,-86.3377 984.084,-92.9852"/>
</g>
<!-- Node17 -->
<g id="node18" class="node"><title>Node17</title>
<g id="a_node18"><a xlink:href="path__impl_8hpp.html" target="_top" xlink:title=" ">
<polygon fill="white" stroke="black" points="866,-56.5 866,-86.5 962,-86.5 962,-56.5 866,-56.5"/>
<text text-anchor="start" x="874" y="-74.5" font-family="Helvetica,sans-Serif" font-size="10.00">arlib/details/path</text>
<text text-anchor="middle" x="914" y="-63.5" font-family="Helvetica,sans-Serif" font-size="10.00">_impl.hpp</text>
</a>
</g>
</g>
<!-- Node16&#45;&gt;Node17 -->
<g id="edge27" class="edge"><title>Node16&#45;&gt;Node17</title>
<path fill="none" stroke="midnightblue" d="M848.25,-128.734C858.817,-119.696 875.68,-105.274 889.682,-93.2982"/>
<polygon fill="midnightblue" stroke="midnightblue" points="892.202,-95.7486 897.527,-86.589 887.652,-90.4288 892.202,-95.7486"/>
</g>
<!-- Node20 -->
<g id="node21" class="node"><title>Node20</title>
<g id="a_node21"><a xlink:title=" ">
<polygon fill="white" stroke="#bfbfbf" points="768,-62 768,-81 810,-81 810,-62 768,-62"/>
<text text-anchor="middle" x="789" y="-69" font-family="Helvetica,sans-Serif" font-size="10.00">utility</text>
</a>
</g>
</g>
<!-- Node16&#45;&gt;Node20 -->
<g id="edge35" class="edge"><title>Node16&#45;&gt;Node20</title>
<path fill="none" stroke="midnightblue" d="M831.392,-128.734C823.824,-118.695 811.249,-102.014 801.756,-89.4213"/>
<polygon fill="midnightblue" stroke="midnightblue" points="804.318,-87.0057 795.504,-81.1273 798.728,-91.2194 804.318,-87.0057"/>
</g>
<!-- Node17&#45;&gt;Node1 -->
<g id="edge28" class="edge"><title>Node17&#45;&gt;Node1</title>
<path fill="none" stroke="midnightblue" d="M962.077,-57.6351C965.085,-57.0274 968.077,-56.4744 971,-56 1153.29,-26.4141 1369.01,-16.2721 1491.35,-12.8008"/>
<polygon fill="midnightblue" stroke="midnightblue" points="1491.54,-16.2969 1501.44,-12.5235 1491.35,-9.29952 1491.54,-16.2969"/>
</g>
<!-- Node18 -->
<g id="node19" class="node"><title>Node18</title>
<g id="a_node19"><a xlink:title=" ">
<polygon fill="white" stroke="#bfbfbf" points="885.5,-0.5 885.5,-19.5 942.5,-19.5 942.5,-0.5 885.5,-0.5"/>
<text text-anchor="middle" x="914" y="-7.5" font-family="Helvetica,sans-Serif" font-size="10.00">memory</text>
</a>
</g>
</g>
<!-- Node17&#45;&gt;Node18 -->
<g id="edge29" class="edge"><title>Node17&#45;&gt;Node18</title>
<path fill="none" stroke="midnightblue" d="M914,-56.3993C914,-48.4664 914,-38.458 914,-29.8583"/>
<polygon fill="midnightblue" stroke="midnightblue" points="917.5,-29.6577 914,-19.6578 910.5,-29.6578 917.5,-29.6577"/>
</g>
<!-- Node17&#45;&gt;Node19 -->
<g id="edge30" class="edge"><title>Node17&#45;&gt;Node19</title>
<path fill="none" stroke="midnightblue" d="M962.057,-57.5078C965.07,-56.9317 968.069,-56.4204 971,-56 1091.06,-38.7801 1950.04,-17.5264 2173.81,-12.2358"/>
<polygon fill="midnightblue" stroke="midnightblue" points="2174.07,-15.7309 2183.98,-11.9961 2173.9,-8.73283 2174.07,-15.7309"/>
</g>
<!-- Node24&#45;&gt;Node1 -->
<g id="edge43" class="edge"><title>Node24&#45;&gt;Node1</title>
<path fill="none" stroke="midnightblue" d="M1402.11,-276.791C1463.96,-270.141 1548.14,-256.756 1570,-232 1621.13,-174.09 1603.79,-71.2307 1593.9,-29.4294"/>
<polygon fill="midnightblue" stroke="midnightblue" points="1597.25,-28.402 1591.42,-19.5533 1590.46,-30.1042 1597.25,-28.402"/>
</g>
<!-- Node24&#45;&gt;Node2 -->
<g id="edge44" class="edge"><title>Node24&#45;&gt;Node2</title>
<path fill="none" stroke="midnightblue" d="M1330.91,-268.152C1325.57,-236.903 1308.53,-162.35 1263,-123 1217.32,-83.5178 1184.66,-116.538 1132,-87 1114.45,-77.1558 1117.35,-64.2598 1099,-56 1029.69,-24.8024 819.712,-15.233 698.637,-12.2981"/>
<polygon fill="midnightblue" stroke="midnightblue" points="698.361,-8.79082 688.283,-12.058 698.199,-15.7889 698.361,-8.79082"/>
</g>
<!-- Node24&#45;&gt;Node3 -->
<g id="edge45" class="edge"><title>Node24&#45;&gt;Node3</title>
<path fill="none" stroke="midnightblue" d="M1334.35,-268.061C1336.39,-238.508 1337.41,-169.959 1309,-123 1279.87,-74.858 1221.43,-41.073 1185.81,-23.9352"/>
<polygon fill="midnightblue" stroke="midnightblue" points="1186.95,-20.6058 1176.41,-19.5448 1183.99,-26.948 1186.95,-20.6058"/>
</g>
<!-- Node24&#45;&gt;Node7 -->
<g id="edge66" class="edge"><title>Node24&#45;&gt;Node7</title>
<path fill="none" stroke="midnightblue" d="M1314.74,-268.137C1303.8,-258.782 1290.27,-245.786 1281,-232 1251.85,-188.643 1279.18,-153.827 1237,-123 1151,-60.1435 864.369,-102.637 759,-87 752.161,-85.9851 744.971,-84.6532 737.966,-83.2077"/>
<polygon fill="midnightblue" stroke="midnightblue" points="738.413,-79.7235 727.899,-81.0325 736.934,-86.5656 738.413,-79.7235"/>
</g>
<!-- Node24&#45;&gt;Node10 -->
<g id="edge46" class="edge"><title>Node24&#45;&gt;Node10</title>
<path fill="none" stroke="midnightblue" d="M1300.58,-268.302C1282.48,-259.441 1260.2,-246.896 1243,-232 1219.51,-211.657 1198.66,-182.455 1185.74,-162.331"/>
<polygon fill="midnightblue" stroke="midnightblue" points="1188.65,-160.396 1180.37,-153.788 1182.73,-164.118 1188.65,-160.396"/>
</g>
<!-- Node24&#45;&gt;Node13 -->
<g id="edge47" class="edge"><title>Node24&#45;&gt;Node13</title>
<path fill="none" stroke="midnightblue" d="M1263.72,-273.855C1151.08,-259.8 930.301,-232.252 825.653,-219.194"/>
<polygon fill="midnightblue" stroke="midnightblue" points="825.95,-215.704 815.594,-217.939 825.083,-222.65 825.95,-215.704"/>
</g>
<!-- Node24&#45;&gt;Node23 -->
<g id="edge69" class="edge"><title>Node24&#45;&gt;Node23</title>
<path fill="none" stroke="midnightblue" d="M1288.74,-268.423C1263.01,-259.481 1230.36,-246.815 1203,-232 1160.7,-209.093 1116.11,-174.416 1092.01,-154.672"/>
<polygon fill="midnightblue" stroke="midnightblue" points="1094.04,-151.807 1084.11,-148.123 1089.58,-157.198 1094.04,-151.807"/>
</g>
<!-- Node25 -->
<g id="node26" class="node"><title>Node25</title>
<g id="a_node26"><a xlink:href="bidirectional__dijkstra__impl_8hpp.html" target="_top" xlink:title=" ">
<polygon fill="white" stroke="black" points="1447.5,-190.5 1447.5,-231.5 1560.5,-231.5 1560.5,-190.5 1447.5,-190.5"/>
<text text-anchor="start" x="1455.5" y="-219.5" font-family="Helvetica,sans-Serif" font-size="10.00">arlib/routing_kernels</text>
<text text-anchor="start" x="1455.5" y="-208.5" font-family="Helvetica,sans-Serif" font-size="10.00">/details/bidirectional</text>
<text text-anchor="middle" x="1504" y="-197.5" font-family="Helvetica,sans-Serif" font-size="10.00">_dijkstra_impl.hpp</text>
</a>
</g>
</g>
<!-- Node24&#45;&gt;Node25 -->
<g id="edge48" class="edge"><title>Node24&#45;&gt;Node25</title>
<path fill="none" stroke="midnightblue" d="M1367.19,-268.403C1390.02,-258.99 1420.6,-246.385 1447.05,-235.479"/>
<polygon fill="midnightblue" stroke="midnightblue" points="1448.68,-238.594 1456.59,-231.546 1446.01,-232.122 1448.68,-238.594"/>
</g>
<!-- Node26 -->
<g id="node27" class="node"><title>Node26</title>
<g id="a_node27"><a xlink:href="visitor_8hpp.html" target="_top" xlink:title=" ">
<polygon fill="white" stroke="black" points="1693.5,-123.5 1693.5,-153.5 1806.5,-153.5 1806.5,-123.5 1693.5,-123.5"/>
<text text-anchor="start" x="1701.5" y="-141.5" font-family="Helvetica,sans-Serif" font-size="10.00">arlib/routing_kernels</text>
<text text-anchor="middle" x="1750" y="-130.5" font-family="Helvetica,sans-Serif" font-size="10.00">/visitor.hpp</text>
</a>
</g>
</g>
<!-- Node24&#45;&gt;Node26 -->
<g id="edge65" class="edge"><title>Node24&#45;&gt;Node26</title>
<path fill="none" stroke="midnightblue" d="M1402.05,-277.006C1484.34,-269.569 1616.22,-254.578 1660,-232 1676.82,-223.326 1710.62,-185.831 1731.68,-161.322"/>
<polygon fill="midnightblue" stroke="midnightblue" points="1734.46,-163.45 1738.29,-153.569 1729.13,-158.909 1734.46,-163.45"/>
</g>
<!-- Node27 -->
<g id="node28" class="node"><title>Node27</title>
<g id="a_node28"><a xlink:title=" ">
<polygon fill="white" stroke="#bfbfbf" points="1644,-62 1644,-81 1686,-81 1686,-62 1644,-62"/>
<text text-anchor="middle" x="1665" y="-69" font-family="Helvetica,sans-Serif" font-size="10.00">limits</text>
</a>
</g>
</g>
<!-- Node24&#45;&gt;Node27 -->
<g id="edge68" class="edge"><title>Node24&#45;&gt;Node27</title>
<path fill="none" stroke="midnightblue" d="M1402.17,-277.173C1471.81,-270.502 1573.09,-256.814 1603,-232 1646.57,-195.859 1659.63,-125.161 1663.46,-91.3663"/>
<polygon fill="midnightblue" stroke="midnightblue" points="1666.97,-91.3614 1664.46,-81.0688 1660.01,-90.6817 1666.97,-91.3614"/>
</g>
<!-- Node28 -->
<g id="node29" class="node"><title>Node28</title>
<g id="a_node29"><a xlink:title=" ">
<polygon fill="white" stroke="#bfbfbf" points="1361.5,-129 1361.5,-148 1408.5,-148 1408.5,-129 1361.5,-129"/>
<text text-anchor="middle" x="1385" y="-136" font-family="Helvetica,sans-Serif" font-size="10.00">deque</text>
</a>
</g>
</g>
<!-- Node24&#45;&gt;Node28 -->
<g id="edge67" class="edge"><title>Node24&#45;&gt;Node28</title>
<path fill="none" stroke="midnightblue" d="M1338.18,-268.266C1347.65,-242.207 1367.78,-186.859 1378.29,-157.952"/>
<polygon fill="midnightblue" stroke="midnightblue" points="1381.68,-158.878 1381.81,-148.284 1375.1,-156.485 1381.68,-158.878"/>
</g>
<!-- Node25&#45;&gt;Node1 -->
<g id="edge49" class="edge"><title>Node25&#45;&gt;Node1</title>
<path fill="none" stroke="midnightblue" d="M1512.46,-190.192C1528.97,-151.537 1565.26,-66.5755 1581.22,-29.2253"/>
<polygon fill="midnightblue" stroke="midnightblue" points="1584.6,-30.2177 1585.31,-19.6467 1578.16,-27.4681 1584.6,-30.2177"/>
</g>
<!-- Node25&#45;&gt;Node2 -->
<g id="edge50" class="edge"><title>Node25&#45;&gt;Node2</title>
<path fill="none" stroke="midnightblue" d="M1497.87,-190.491C1490.51,-170.372 1476.17,-139.655 1453,-123 1334.65,-37.9431 1276.19,-77.1856 1132,-56 980.455,-33.7343 802.419,-21.29 698.313,-15.3804"/>
<polygon fill="midnightblue" stroke="midnightblue" points="698.343,-11.8766 688.163,-14.8116 697.951,-18.8657 698.343,-11.8766"/>
</g>
<!-- Node25&#45;&gt;Node3 -->
<g id="edge51" class="edge"><title>Node25&#45;&gt;Node3</title>
<path fill="none" stroke="midnightblue" d="M1505.53,-190.348C1505.97,-171.259 1503.75,-142.396 1489,-123 1430.77,-46.4593 1317.95,-21.7162 1239.87,-14.0008"/>
<polygon fill="midnightblue" stroke="midnightblue" points="1239.85,-10.4843 1229.57,-13.0614 1239.22,-17.4554 1239.85,-10.4843"/>
</g>
<!-- Node25&#45;&gt;Node7 -->
<g id="edge58" class="edge"><title>Node25&#45;&gt;Node7</title>
<path fill="none" stroke="midnightblue" d="M1491.04,-190.284C1476.02,-169.359 1449.18,-137.372 1417,-123 1283.29,-63.2835 904.067,-107.01 759,-87 751.997,-86.0341 744.632,-84.7024 737.476,-83.2349"/>
<polygon fill="midnightblue" stroke="midnightblue" points="737.724,-79.7075 727.21,-81.0143 736.244,-86.5493 737.724,-79.7075"/>
</g>
<!-- Node25&#45;&gt;Node10 -->
<g id="edge52" class="edge"><title>Node25&#45;&gt;Node10</title>
<path fill="none" stroke="midnightblue" d="M1447.3,-197.961C1389.5,-185.686 1299.86,-166.651 1238.68,-153.66"/>
<polygon fill="midnightblue" stroke="midnightblue" points="1239.25,-150.202 1228.74,-151.549 1237.79,-157.049 1239.25,-150.202"/>
</g>
<!-- Node25&#45;&gt;Node12 -->
<g id="edge53" class="edge"><title>Node25&#45;&gt;Node12</title>
<path fill="none" stroke="midnightblue" d="M1560.77,-200.489C1621.26,-190.203 1720.05,-172.968 1814.75,-154.208"/>
<polygon fill="midnightblue" stroke="midnightblue" points="1815.67,-157.595 1824.79,-152.21 1814.3,-150.729 1815.67,-157.595"/>
</g>
<!-- Node25&#45;&gt;Node23 -->
<g id="edge64" class="edge"><title>Node25&#45;&gt;Node23</title>
<path fill="none" stroke="midnightblue" d="M1447.24,-207.111C1369.05,-201.989 1224.44,-188.394 1106,-154 1104.07,-153.439 1102.1,-152.781 1100.14,-152.062"/>
<polygon fill="midnightblue" stroke="midnightblue" points="1101.17,-148.701 1090.6,-148.104 1098.49,-155.167 1101.17,-148.701"/>
</g>
<!-- Node25&#45;&gt;Node26 -->
<g id="edge54" class="edge"><title>Node25&#45;&gt;Node26</title>
<path fill="none" stroke="midnightblue" d="M1560.75,-193.737C1599.86,-182.528 1651.71,-167.669 1691.25,-156.338"/>
<polygon fill="midnightblue" stroke="midnightblue" points="1692.37,-159.657 1701.02,-153.537 1690.44,-152.928 1692.37,-159.657"/>
</g>
<!-- Node25&#45;&gt;Node27 -->
<g id="edge61" class="edge"><title>Node25&#45;&gt;Node27</title>
<path fill="none" stroke="midnightblue" d="M1527.07,-190.3C1559.51,-162.589 1617.93,-112.696 1647.23,-87.6752"/>
<polygon fill="midnightblue" stroke="midnightblue" points="1649.67,-90.1938 1655,-81.0379 1645.13,-84.8708 1649.67,-90.1938"/>
</g>
<!-- Node25&#45;&gt;Node28 -->
<g id="edge59" class="edge"><title>Node25&#45;&gt;Node28</title>
<path fill="none" stroke="midnightblue" d="M1470.85,-190.362C1450.94,-178.565 1426.09,-163.846 1408.26,-153.282"/>
<polygon fill="midnightblue" stroke="midnightblue" points="1410.03,-150.259 1399.64,-148.173 1406.46,-156.282 1410.03,-150.259"/>
</g>
<!-- Node25&#45;&gt;Node29 -->
<g id="edge60" class="edge"><title>Node25&#45;&gt;Node29</title>
<path fill="none" stroke="midnightblue" d="M1560.58,-203.977C1645.1,-194.727 1809.27,-175.791 1948,-154 1960.16,-152.09 1973.35,-149.718 1985.31,-147.45"/>
<polygon fill="midnightblue" stroke="midnightblue" points="1986.3,-150.825 1995.46,-145.498 1984.97,-143.951 1986.3,-150.825"/>
</g>
<!-- Node25&#45;&gt;Node30 -->
<g id="edge62" class="edge"><title>Node25&#45;&gt;Node30</title>
<path fill="none" stroke="midnightblue" d="M1560.81,-207.528C1676.75,-201.985 1948.78,-186.425 2175,-154 2187.33,-152.233 2200.74,-149.664 2212.55,-147.178"/>
<polygon fill="midnightblue" stroke="midnightblue" points="2213.42,-150.571 2222.46,-145.036 2211.94,-143.729 2213.42,-150.571"/>
</g>
<!-- Node25&#45;&gt;Node31 -->
<g id="edge63" class="edge"><title>Node25&#45;&gt;Node31</title>
<path fill="none" stroke="midnightblue" d="M1560.7,-205.478C1683.01,-195.535 1968.33,-171.283 2064,-154 2069.21,-153.059 2074.65,-151.875 2080,-150.593"/>
<polygon fill="midnightblue" stroke="midnightblue" points="2081.24,-153.889 2090.08,-148.042 2079.52,-147.103 2081.24,-153.889"/>
</g>
<!-- Node26&#45;&gt;Node1 -->
<g id="edge55" class="edge"><title>Node26&#45;&gt;Node1</title>
<path fill="none" stroke="midnightblue" d="M1743.59,-123.277C1734.89,-105.398 1717.79,-74.7818 1695,-56 1676.49,-40.7421 1652.04,-29.901 1631.29,-22.6884"/>
<polygon fill="midnightblue" stroke="midnightblue" points="1632.34,-19.3495 1621.75,-19.5315 1630.14,-25.9953 1632.34,-19.3495"/>
</g>
<!-- Node26&#45;&gt;Node19 -->
<g id="edge57" class="edge"><title>Node26&#45;&gt;Node19</title>
<path fill="none" stroke="midnightblue" d="M1802.87,-123.479C1898.42,-98.14 2097.98,-45.2147 2184.97,-22.1476"/>
<polygon fill="midnightblue" stroke="midnightblue" points="2185.99,-25.4982 2194.75,-19.5517 2184.19,-18.7321 2185.99,-25.4982"/>
</g>
<!-- Node26&#45;&gt;Node27 -->
<g id="edge56" class="edge"><title>Node26&#45;&gt;Node27</title>
<path fill="none" stroke="midnightblue" d="M1731.56,-123.396C1717.65,-112.759 1698.61,-98.2028 1684.46,-87.3813"/>
<polygon fill="midnightblue" stroke="midnightblue" points="1686.44,-84.4888 1676.37,-81.1945 1682.19,-90.0493 1686.44,-84.4888"/>
</g>
</g>
</svg>
