<?xml version="1.0" encoding="UTF-8" standalone="no"?>
<!DOCTYPE svg PUBLIC "-//W3C//DTD SVG 1.1//EN"
 "http://www.w3.org/Graphics/SVG/1.1/DTD/svg11.dtd">
<!-- Generated by graphviz version 2.38.0 (20140413.2041)
 -->
<!-- Title: include/arlib/type_traits.hpp Pages: 1 -->
<svg width="924pt" height="441pt"
 viewBox="0.00 0.00 924.46 441.00" xmlns="http://www.w3.org/2000/svg" xmlns:xlink="http://www.w3.org/1999/xlink">
<g id="graph0" class="graph" transform="scale(1 1) rotate(0) translate(4 437)">
<title>include/arlib/type_traits.hpp</title>
<polygon fill="white" stroke="none" points="-4,4 -4,-437 920.457,-437 920.457,4 -4,4"/>
<!-- Node3 -->
<g id="node1" class="node"><title>Node3</title>
<g id="a_node1"><a xlink:title=" ">
<polygon fill="#bfbfbf" stroke="black" points="309.457,-402.5 309.457,-432.5 407.457,-432.5 407.457,-402.5 309.457,-402.5"/>
<text text-anchor="start" x="317.457" y="-420.5" font-family="Helvetica,sans-Serif" font-size="10.00">include/arlib/type</text>
<text text-anchor="middle" x="358.457" y="-409.5" font-family="Helvetica,sans-Serif" font-size="10.00">_traits.hpp</text>
</a>
</g>
</g>
<!-- Node4 -->
<g id="node2" class="node"><title>Node4</title>
<g id="a_node2"><a xlink:href="arlib__utils_8hpp.html" target="_top" xlink:title=" ">
<polygon fill="white" stroke="black" points="356.457,-257.5 356.457,-287.5 464.457,-287.5 464.457,-257.5 356.457,-257.5"/>
<text text-anchor="start" x="364.457" y="-275.5" font-family="Helvetica,sans-Serif" font-size="10.00">include/arlib/details</text>
<text text-anchor="middle" x="410.457" y="-264.5" font-family="Helvetica,sans-Serif" font-size="10.00">/arlib_utils.hpp</text>
</a>
</g>
</g>
<!-- Node3&#45;&gt;Node4 -->
<g id="edge1" class="edge"><title>Node3&#45;&gt;Node4</title>
<path fill="none" stroke="midnightblue" d="M367.152,-392.588C378.057,-362.6 396.4,-312.155 405.302,-287.677"/>
<polygon fill="midnightblue" stroke="midnightblue" points="363.761,-391.672 363.633,-402.266 370.34,-394.064 363.761,-391.672"/>
</g>
<!-- Node5 -->
<g id="node3" class="node"><title>Node5</title>
<g id="a_node3"><a xlink:href="esx__impl_8hpp.html" target="_top" xlink:title=" ">
<polygon fill="white" stroke="black" points="264.457,-112.5 264.457,-142.5 372.457,-142.5 372.457,-112.5 264.457,-112.5"/>
<text text-anchor="start" x="272.457" y="-130.5" font-family="Helvetica,sans-Serif" font-size="10.00">include/arlib/details</text>
<text text-anchor="middle" x="318.457" y="-119.5" font-family="Helvetica,sans-Serif" font-size="10.00">/esx_impl.hpp</text>
</a>
</g>
</g>
<!-- Node3&#45;&gt;Node5 -->
<g id="edge18" class="edge"><title>Node3&#45;&gt;Node5</title>
<path fill="none" stroke="midnightblue" d="M325.085,-397.026C276.958,-366.662 190.442,-302.921 159.457,-221 152.853,-203.54 148.435,-194.065 159.457,-179 183.228,-146.509 228.061,-134.413 264.075,-130.143"/>
<polygon fill="midnightblue" stroke="midnightblue" points="323.543,-400.188 333.887,-402.477 327.228,-394.237 323.543,-400.188"/>
</g>
<!-- Node6 -->
<g id="node4" class="node"><title>Node6</title>
<g id="a_node4"><a xlink:href="esx_8hpp.html" target="_top" xlink:title=" ">
<polygon fill="white" stroke="black" points="254.457,-56.5 254.457,-75.5 368.457,-75.5 368.457,-56.5 254.457,-56.5"/>
<text text-anchor="middle" x="311.457" y="-63.5" font-family="Helvetica,sans-Serif" font-size="10.00">include/arlib/esx.hpp</text>
</a>
</g>
</g>
<!-- Node3&#45;&gt;Node6 -->
<g id="edge21" class="edge"><title>Node3&#45;&gt;Node6</title>
<path fill="none" stroke="midnightblue" d="M299.083,-411.92C224.41,-405.218 101.368,-390.766 63.4568,-366 22.2288,-339.067 2.45682,-322.746 2.45682,-273.5 2.45682,-273.5 2.45682,-273.5 2.45682,-199 2.45682,-159.422 -7.37045,-139.118 21.4568,-112 54.2064,-81.1917 179.648,-71.4746 254.4,-68.4105"/>
<polygon fill="midnightblue" stroke="midnightblue" points="299.017,-415.428 309.284,-412.815 299.628,-408.454 299.017,-415.428"/>
</g>
<!-- Node8 -->
<g id="node6" class="node"><title>Node8</title>
<g id="a_node6"><a xlink:href="onepass__plus__impl_8hpp.html" target="_top" xlink:title=" ">
<polygon fill="white" stroke="black" points="168.957,-185 168.957,-215 299.957,-215 299.957,-185 168.957,-185"/>
<text text-anchor="start" x="176.957" y="-203" font-family="Helvetica,sans-Serif" font-size="10.00">include/arlib/details</text>
<text text-anchor="middle" x="234.457" y="-192" font-family="Helvetica,sans-Serif" font-size="10.00">/onepass_plus_impl.hpp</text>
</a>
</g>
</g>
<!-- Node3&#45;&gt;Node8 -->
<g id="edge19" class="edge"><title>Node3&#45;&gt;Node8</title>
<path fill="none" stroke="midnightblue" d="M337.423,-394.932C329.658,-386.339 321.134,-376.101 314.457,-366 280.049,-313.947 251.433,-244.88 239.91,-215.365"/>
<polygon fill="midnightblue" stroke="midnightblue" points="334.899,-397.358 344.265,-402.311 340.032,-392.598 334.899,-397.358"/>
</g>
<!-- Node9 -->
<g id="node7" class="node"><title>Node9</title>
<g id="a_node7"><a xlink:href="onepass__plus_8hpp.html" target="_top" xlink:title=" ">
<polygon fill="white" stroke="black" points="30.9568,-112.5 30.9568,-142.5 147.957,-142.5 147.957,-112.5 30.9568,-112.5"/>
<text text-anchor="start" x="38.9568" y="-130.5" font-family="Helvetica,sans-Serif" font-size="10.00">include/arlib/onepass</text>
<text text-anchor="middle" x="89.4568" y="-119.5" font-family="Helvetica,sans-Serif" font-size="10.00">_plus.hpp</text>
</a>
</g>
</g>
<!-- Node3&#45;&gt;Node9 -->
<g id="edge24" class="edge"><title>Node3&#45;&gt;Node9</title>
<path fill="none" stroke="midnightblue" d="M299.131,-413.97C227.896,-409.542 114.698,-397.604 88.4568,-366 33.2746,-299.54 69.0799,-182.8 83.9079,-142.583"/>
<polygon fill="midnightblue" stroke="midnightblue" points="299.133,-417.476 309.321,-414.57 299.544,-410.488 299.133,-417.476"/>
</g>
<!-- Node10 -->
<g id="node8" class="node"><title>Node10</title>
<g id="a_node8"><a xlink:href="penalty__impl_8hpp.html" target="_top" xlink:title=" ">
<polygon fill="white" stroke="black" points="394.457,-112.5 394.457,-142.5 502.457,-142.5 502.457,-112.5 394.457,-112.5"/>
<text text-anchor="start" x="402.457" y="-130.5" font-family="Helvetica,sans-Serif" font-size="10.00">include/arlib/details</text>
<text text-anchor="middle" x="448.457" y="-119.5" font-family="Helvetica,sans-Serif" font-size="10.00">/penalty_impl.hpp</text>
</a>
</g>
</g>
<!-- Node3&#45;&gt;Node10 -->
<g id="edge20" class="edge"><title>Node3&#45;&gt;Node10</title>
<path fill="none" stroke="midnightblue" d="M351.109,-392.594C342.572,-360.712 331.558,-302.956 347.457,-257 364.249,-208.463 407.785,-164.324 431.853,-142.627"/>
<polygon fill="midnightblue" stroke="midnightblue" points="347.781,-393.688 353.867,-402.36 354.517,-391.785 347.781,-393.688"/>
</g>
<!-- Node11 -->
<g id="node9" class="node"><title>Node11</title>
<g id="a_node9"><a xlink:href="penalty_8hpp.html" target="_top" xlink:title=" ">
<polygon fill="white" stroke="black" points="386.957,-56.5 386.957,-75.5 517.957,-75.5 517.957,-56.5 386.957,-56.5"/>
<text text-anchor="middle" x="452.457" y="-63.5" font-family="Helvetica,sans-Serif" font-size="10.00">include/arlib/penalty.hpp</text>
</a>
</g>
</g>
<!-- Node3&#45;&gt;Node11 -->
<g id="edge29" class="edge"><title>Node3&#45;&gt;Node11</title>
<path fill="none" stroke="midnightblue" d="M299.46,-401.101C276.379,-393.151 250.655,-381.739 230.457,-366 159.014,-310.328 105.751,-258.33 149.457,-179 176.351,-130.185 203.997,-133.401 255.457,-112 299.025,-93.8808 351.192,-82.3793 390.895,-75.5433"/>
<polygon fill="midnightblue" stroke="midnightblue" points="298.574,-404.494 309.167,-404.298 300.764,-397.845 298.574,-404.494"/>
</g>
<!-- Node13 -->
<g id="node11" class="node"><title>Node13</title>
<g id="a_node11"><a xlink:href="bidirectional__dijkstra_8hpp.html" target="_top" xlink:title=" ">
<polygon fill="white" stroke="black" points="562.957,-179.5 562.957,-220.5 679.957,-220.5 679.957,-179.5 562.957,-179.5"/>
<text text-anchor="start" x="570.957" y="-208.5" font-family="Helvetica,sans-Serif" font-size="10.00">include/arlib/routing</text>
<text text-anchor="start" x="570.957" y="-197.5" font-family="Helvetica,sans-Serif" font-size="10.00">_kernels/bidirectional</text>
<text text-anchor="middle" x="621.457" y="-186.5" font-family="Helvetica,sans-Serif" font-size="10.00">_dijkstra.hpp</text>
</a>
</g>
</g>
<!-- Node3&#45;&gt;Node13 -->
<g id="edge30" class="edge"><title>Node3&#45;&gt;Node13</title>
<path fill="none" stroke="midnightblue" d="M417.913,-411.893C481.427,-405.671 576.248,-392.204 600.457,-366 637.492,-325.912 631.289,-255.081 625.505,-220.752"/>
<polygon fill="midnightblue" stroke="midnightblue" points="417.241,-408.441 407.614,-412.866 417.899,-415.41 417.241,-408.441"/>
</g>
<!-- Node14 -->
<g id="node12" class="node"><title>Node14</title>
<g id="a_node12"><a xlink:href="uninformed__bidirectional__pruning_8hpp.html" target="_top" xlink:title=" ">
<polygon fill="white" stroke="black" points="593.457,-112.5 593.457,-142.5 735.457,-142.5 735.457,-112.5 593.457,-112.5"/>
<text text-anchor="start" x="601.457" y="-130.5" font-family="Helvetica,sans-Serif" font-size="10.00">include/arlib/uninformed</text>
<text text-anchor="middle" x="664.457" y="-119.5" font-family="Helvetica,sans-Serif" font-size="10.00">_bidirectional_pruning.hpp</text>
</a>
</g>
</g>
<!-- Node3&#45;&gt;Node14 -->
<g id="edge33" class="edge"><title>Node3&#45;&gt;Node14</title>
<path fill="none" stroke="midnightblue" d="M417.806,-411.222C486.342,-404.125 593.85,-389.597 626.457,-366 686.083,-322.85 688.099,-292.276 706.457,-221 711.113,-202.923 712.803,-196.555 706.457,-179 701.34,-164.844 690.333,-151.86 680.871,-142.603"/>
<polygon fill="midnightblue" stroke="midnightblue" points="417.172,-407.769 407.575,-412.257 417.876,-414.733 417.172,-407.769"/>
</g>
<!-- Node15 -->
<g id="node13" class="node"><title>Node15</title>
<g id="a_node13"><a xlink:href="graph__utils_8hpp.html" target="_top" xlink:title=" ">
<polygon fill="white" stroke="black" points="812.457,-257.5 812.457,-287.5 916.457,-287.5 916.457,-257.5 812.457,-257.5"/>
<text text-anchor="start" x="820.457" y="-275.5" font-family="Helvetica,sans-Serif" font-size="10.00">include/arlib/graph</text>
<text text-anchor="middle" x="864.457" y="-264.5" font-family="Helvetica,sans-Serif" font-size="10.00">_utils.hpp</text>
</a>
</g>
</g>
<!-- Node3&#45;&gt;Node15 -->
<g id="edge22" class="edge"><title>Node3&#45;&gt;Node15</title>
<path fill="none" stroke="midnightblue" d="M417.677,-414.545C542.339,-409.854 822.905,-396.046 853.457,-366 874.212,-345.589 871.218,-308.15 867.612,-287.72"/>
<polygon fill="midnightblue" stroke="midnightblue" points="417.406,-411.053 407.542,-414.919 417.665,-418.048 417.406,-411.053"/>
</g>
<!-- Node16 -->
<g id="node14" class="node"><title>Node16</title>
<g id="a_node14"><a xlink:href="path_8hpp.html" target="_top" xlink:title=" ">
<polygon fill="white" stroke="black" points="724.957,-335.5 724.957,-354.5 843.957,-354.5 843.957,-335.5 724.957,-335.5"/>
<text text-anchor="middle" x="784.457" y="-342.5" font-family="Helvetica,sans-Serif" font-size="10.00">include/arlib/path.hpp</text>
</a>
</g>
</g>
<!-- Node3&#45;&gt;Node16 -->
<g id="edge25" class="edge"><title>Node3&#45;&gt;Node16</title>
<path fill="none" stroke="midnightblue" d="M417.453,-410.255C487.681,-402.311 608.304,-387.051 710.457,-366 725.707,-362.857 742.474,-358.41 756.187,-354.506"/>
<polygon fill="midnightblue" stroke="midnightblue" points="417.014,-406.782 407.466,-411.374 417.793,-413.739 417.014,-406.782"/>
</g>
<!-- Node17 -->
<g id="node15" class="node"><title>Node17</title>
<g id="a_node15"><a xlink:href="bidirectional__dijkstra__impl_8hpp.html" target="_top" xlink:title=" ">
<polygon fill="white" stroke="black" points="439.457,-324.5 439.457,-365.5 591.457,-365.5 591.457,-324.5 439.457,-324.5"/>
<text text-anchor="start" x="447.457" y="-353.5" font-family="Helvetica,sans-Serif" font-size="10.00">include/arlib/routing</text>
<text text-anchor="start" x="447.457" y="-342.5" font-family="Helvetica,sans-Serif" font-size="10.00">_kernels/details/bidirectional</text>
<text text-anchor="middle" x="515.457" y="-331.5" font-family="Helvetica,sans-Serif" font-size="10.00">_dijkstra_impl.hpp</text>
</a>
</g>
</g>
<!-- Node3&#45;&gt;Node17 -->
<g id="edge31" class="edge"><title>Node3&#45;&gt;Node17</title>
<path fill="none" stroke="midnightblue" d="M399.066,-398.265C421.409,-388.232 449.14,-375.779 471.928,-365.546"/>
<polygon fill="midnightblue" stroke="midnightblue" points="397.539,-395.113 389.851,-402.403 400.407,-401.499 397.539,-395.113"/>
</g>
<!-- Node4&#45;&gt;Node5 -->
<g id="edge2" class="edge"><title>Node4&#45;&gt;Node5</title>
<path fill="none" stroke="midnightblue" d="M395.824,-248.756C376.633,-218.926 343.532,-167.476 327.577,-142.677"/>
<polygon fill="midnightblue" stroke="midnightblue" points="392.945,-250.75 401.299,-257.266 398.832,-246.962 392.945,-250.75"/>
</g>
<!-- Node4&#45;&gt;Node8 -->
<g id="edge5" class="edge"><title>Node4&#45;&gt;Node8</title>
<path fill="none" stroke="midnightblue" d="M365.907,-253.655C336.045,-241.693 297.271,-226.162 269.589,-215.073"/>
<polygon fill="midnightblue" stroke="midnightblue" points="364.679,-256.933 375.264,-257.403 367.282,-250.435 364.679,-256.933"/>
</g>
<!-- Node4&#45;&gt;Node10 -->
<g id="edge8" class="edge"><title>Node4&#45;&gt;Node10</title>
<path fill="none" stroke="midnightblue" d="M411.74,-247.258C413.247,-228.325 416.494,-201.537 423.457,-179 427.442,-166.101 434.395,-152.434 439.959,-142.575"/>
<polygon fill="midnightblue" stroke="midnightblue" points="408.237,-247.189 411.04,-257.407 415.22,-247.671 408.237,-247.189"/>
</g>
<!-- Node12 -->
<g id="node10" class="node"><title>Node12</title>
<g id="a_node10"><a xlink:href="reorder__buffer_8hpp_source.html" target="_top" xlink:title=" ">
<polygon fill="white" stroke="black" points="432.457,-185 432.457,-215 544.457,-215 544.457,-185 432.457,-185"/>
<text text-anchor="start" x="440.457" y="-203" font-family="Helvetica,sans-Serif" font-size="10.00">include/arlib/reorder</text>
<text text-anchor="middle" x="488.457" y="-192" font-family="Helvetica,sans-Serif" font-size="10.00">_buffer.hpp</text>
</a>
</g>
</g>
<!-- Node4&#45;&gt;Node12 -->
<g id="edge11" class="edge"><title>Node4&#45;&gt;Node12</title>
<path fill="none" stroke="midnightblue" d="M433.731,-250.464C446.41,-239.004 461.752,-225.137 472.962,-215.005"/>
<polygon fill="midnightblue" stroke="midnightblue" points="431.313,-247.931 426.241,-257.233 436.007,-253.124 431.313,-247.931"/>
</g>
<!-- Node4&#45;&gt;Node13 -->
<g id="edge12" class="edge"><title>Node4&#45;&gt;Node13</title>
<path fill="none" stroke="midnightblue" d="M461.984,-254.284C492.465,-244.099 531.173,-231.166 562.82,-220.592"/>
<polygon fill="midnightblue" stroke="midnightblue" points="460.771,-250.998 452.396,-257.487 462.99,-257.638 460.771,-250.998"/>
</g>
<!-- Node4&#45;&gt;Node14 -->
<g id="edge17" class="edge"><title>Node4&#45;&gt;Node14</title>
<path fill="none" stroke="midnightblue" d="M474.675,-269.104C548.397,-264.846 662.634,-253.114 689.457,-221 708.439,-198.274 688.937,-162.431 675.292,-142.699"/>
<polygon fill="midnightblue" stroke="midnightblue" points="474.349,-265.617 464.554,-269.657 474.73,-272.606 474.349,-265.617"/>
</g>
<!-- Node5&#45;&gt;Node6 -->
<g id="edge3" class="edge"><title>Node5&#45;&gt;Node6</title>
<path fill="none" stroke="midnightblue" d="M315.608,-102.289C314.499,-92.857 313.299,-82.6548 312.475,-75.6578"/>
<polygon fill="midnightblue" stroke="midnightblue" points="312.153,-102.877 316.798,-112.399 319.105,-102.059 312.153,-102.877"/>
</g>
<!-- Node7 -->
<g id="node5" class="node"><title>Node7</title>
<g id="a_node5"><a xlink:href="arlib_8hpp_source.html" target="_top" xlink:title=" ">
<polygon fill="white" stroke="black" points="469.457,-0.5 469.457,-19.5 587.457,-19.5 587.457,-0.5 469.457,-0.5"/>
<text text-anchor="middle" x="528.457" y="-7.5" font-family="Helvetica,sans-Serif" font-size="10.00">include/arlib/arlib.hpp</text>
</a>
</g>
</g>
<!-- Node6&#45;&gt;Node7 -->
<g id="edge4" class="edge"><title>Node6&#45;&gt;Node7</title>
<path fill="none" stroke="midnightblue" d="M355.565,-54.0237C396.556,-43.8232 456.761,-28.8414 494.233,-19.5164"/>
<polygon fill="midnightblue" stroke="midnightblue" points="354.7,-50.6322 345.841,-56.4435 356.39,-57.425 354.7,-50.6322"/>
</g>
<!-- Node8&#45;&gt;Node9 -->
<g id="edge6" class="edge"><title>Node8&#45;&gt;Node9</title>
<path fill="none" stroke="midnightblue" d="M196.469,-180.53C172.048,-168.656 140.813,-153.47 118.401,-142.573"/>
<polygon fill="midnightblue" stroke="midnightblue" points="194.939,-183.678 205.462,-184.903 197.999,-177.382 194.939,-183.678"/>
</g>
<!-- Node9&#45;&gt;Node7 -->
<g id="edge7" class="edge"><title>Node9&#45;&gt;Node7</title>
<path fill="none" stroke="midnightblue" d="M123.922,-107.689C154.866,-91.5952 201.982,-69.0243 245.457,-56 320.993,-33.371 411.478,-21.513 469.445,-15.763"/>
<polygon fill="midnightblue" stroke="midnightblue" points="122.079,-104.704 114.859,-112.459 125.339,-110.899 122.079,-104.704"/>
</g>
<!-- Node10&#45;&gt;Node11 -->
<g id="edge9" class="edge"><title>Node10&#45;&gt;Node11</title>
<path fill="none" stroke="midnightblue" d="M450.084,-102.289C450.719,-92.857 451.404,-82.6548 451.875,-75.6578"/>
<polygon fill="midnightblue" stroke="midnightblue" points="446.583,-102.187 449.405,-112.399 453.568,-102.657 446.583,-102.187"/>
</g>
<!-- Node11&#45;&gt;Node7 -->
<g id="edge10" class="edge"><title>Node11&#45;&gt;Node7</title>
<path fill="none" stroke="midnightblue" d="M473.033,-50.3804C486.769,-40.6204 504.382,-28.1057 516.024,-19.8339"/>
<polygon fill="midnightblue" stroke="midnightblue" points="470.792,-47.6787 464.668,-56.324 474.847,-53.385 470.792,-47.6787"/>
</g>
<!-- Node13&#45;&gt;Node5 -->
<g id="edge13" class="edge"><title>Node13&#45;&gt;Node5</title>
<path fill="none" stroke="midnightblue" d="M552.971,-178.965C477.763,-160.095 457.045,-158.417 385.457,-143 381.268,-142.098 376.933,-141.163 372.575,-140.222"/>
<polygon fill="midnightblue" stroke="midnightblue" points="552.375,-182.425 562.928,-181.483 554.091,-175.638 552.375,-182.425"/>
</g>
<!-- Node13&#45;&gt;Node10 -->
<g id="edge14" class="edge"><title>Node13&#45;&gt;Node10</title>
<path fill="none" stroke="midnightblue" d="M563.972,-175.574C537.143,-164.641 506.102,-151.991 482.958,-142.56"/>
<polygon fill="midnightblue" stroke="midnightblue" points="562.685,-178.829 573.267,-179.362 565.327,-172.347 562.685,-178.829"/>
</g>
<!-- Node13&#45;&gt;Node14 -->
<g id="edge15" class="edge"><title>Node13&#45;&gt;Node14</title>
<path fill="none" stroke="midnightblue" d="M638.806,-170.555C644.603,-161.051 650.818,-150.861 655.679,-142.892"/>
<polygon fill="midnightblue" stroke="midnightblue" points="635.654,-169.002 633.435,-179.362 641.63,-172.647 635.654,-169.002"/>
</g>
<!-- Node14&#45;&gt;Node7 -->
<g id="edge16" class="edge"><title>Node14&#45;&gt;Node7</title>
<path fill="none" stroke="midnightblue" d="M639.831,-105.587C609.67,-79.9714 559.966,-37.7599 538.665,-19.6695"/>
<polygon fill="midnightblue" stroke="midnightblue" points="637.893,-108.532 647.781,-112.337 642.424,-103.196 637.893,-108.532"/>
</g>
<!-- Node15&#45;&gt;Node7 -->
<g id="edge23" class="edge"><title>Node15&#45;&gt;Node7</title>
<path fill="none" stroke="midnightblue" d="M864.742,-247.22C863.852,-202.127 855.014,-105.542 798.457,-56 767.849,-29.1885 657.369,-18.1109 587.574,-13.7148"/>
<polygon fill="midnightblue" stroke="midnightblue" points="861.243,-247.297 864.823,-257.269 868.243,-247.241 861.243,-247.297"/>
</g>
<!-- Node16&#45;&gt;Node4 -->
<g id="edge27" class="edge"><title>Node16&#45;&gt;Node4</title>
<path fill="none" stroke="midnightblue" d="M729.231,-333.59C658.055,-320.173 535.092,-296.994 464.497,-283.687"/>
<polygon fill="midnightblue" stroke="midnightblue" points="728.868,-337.083 739.344,-335.496 730.165,-330.204 728.868,-337.083"/>
</g>
<!-- Node16&#45;&gt;Node7 -->
<g id="edge26" class="edge"><title>Node16&#45;&gt;Node7</title>
<path fill="none" stroke="midnightblue" d="M784.457,-325.204C784.457,-297.865 784.457,-245.532 784.457,-201 784.457,-201 784.457,-201 784.457,-126.5 784.457,-40.5631 663.113,-18.2103 587.51,-12.6233"/>
<polygon fill="midnightblue" stroke="midnightblue" points="780.957,-325.295 784.457,-335.295 787.957,-325.295 780.957,-325.295"/>
</g>
<!-- Node16&#45;&gt;Node15 -->
<g id="edge28" class="edge"><title>Node16&#45;&gt;Node15</title>
<path fill="none" stroke="midnightblue" d="M802.113,-328.44C815.966,-316.232 835.083,-299.386 848.484,-287.576"/>
<polygon fill="midnightblue" stroke="midnightblue" points="799.455,-326.118 794.266,-335.355 804.083,-331.37 799.455,-326.118"/>
</g>
<!-- Node17&#45;&gt;Node13 -->
<g id="edge32" class="edge"><title>Node17&#45;&gt;Node13</title>
<path fill="none" stroke="midnightblue" d="M536.05,-316.219C556.832,-288.183 588.403,-245.591 606.775,-220.806"/>
<polygon fill="midnightblue" stroke="midnightblue" points="533.117,-314.298 529.973,-324.416 538.74,-318.467 533.117,-314.298"/>
</g>
</g>
</svg>
