<?xml version="1.0" encoding="UTF-8" standalone="no"?>
<!DOCTYPE svg PUBLIC "-//W3C//DTD SVG 1.1//EN"
 "http://www.w3.org/Graphics/SVG/1.1/DTD/svg11.dtd">
<!-- Generated by graphviz version 2.38.0 (20140413.2041)
 -->
<!-- Title: include/arlib/type_traits.hpp Pages: 1 -->
<svg width="330pt" height="95pt"
 viewBox="0.00 0.00 329.50 95.00" xmlns="http://www.w3.org/2000/svg" xmlns:xlink="http://www.w3.org/1999/xlink">
<g id="graph0" class="graph" transform="scale(1 1) rotate(0) translate(4 91)">
<title>include/arlib/type_traits.hpp</title>
<polygon fill="white" stroke="none" points="-4,4 -4,-91 325.5,-91 325.5,4 -4,4"/>
<!-- Node0 -->
<g id="node1" class="node"><title>Node0</title>
<g id="a_node1"><a xlink:title=" ">
<polygon fill="#bfbfbf" stroke="black" points="114,-56.5 114,-86.5 212,-86.5 212,-56.5 114,-56.5"/>
<text text-anchor="start" x="122" y="-74.5" font-family="Helvetica,sans-Serif" font-size="10.00">include/arlib/type</text>
<text text-anchor="middle" x="163" y="-63.5" font-family="Helvetica,sans-Serif" font-size="10.00">_traits.hpp</text>
</a>
</g>
</g>
<!-- Node1 -->
<g id="node2" class="node"><title>Node1</title>
<g id="a_node2"><a xlink:title=" ">
<polygon fill="white" stroke="#bfbfbf" points="0,-0.5 0,-19.5 156,-19.5 156,-0.5 0,-0.5"/>
<text text-anchor="middle" x="78" y="-7.5" font-family="Helvetica,sans-Serif" font-size="10.00">boost/graph/graph_traits.hpp</text>
</a>
</g>
</g>
<!-- Node0&#45;&gt;Node1 -->
<g id="edge1" class="edge"><title>Node0&#45;&gt;Node1</title>
<path fill="none" stroke="midnightblue" d="M142.856,-56.3993C129.613,-47.1293 112.322,-35.0254 98.9241,-25.6469"/>
<polygon fill="midnightblue" stroke="midnightblue" points="100.568,-22.5251 90.3683,-19.6578 96.5535,-28.2598 100.568,-22.5251"/>
</g>
<!-- Node2 -->
<g id="node3" class="node"><title>Node2</title>
<g id="a_node3"><a xlink:title=" ">
<polygon fill="white" stroke="#bfbfbf" points="174.5,-0.5 174.5,-19.5 321.5,-19.5 321.5,-0.5 174.5,-0.5"/>
<text text-anchor="middle" x="248" y="-7.5" font-family="Helvetica,sans-Serif" font-size="10.00">boost/graph/properties.hpp</text>
</a>
</g>
</g>
<!-- Node0&#45;&gt;Node2 -->
<g id="edge2" class="edge"><title>Node0&#45;&gt;Node2</title>
<path fill="none" stroke="midnightblue" d="M183.144,-56.3993C196.387,-47.1293 213.678,-35.0254 227.076,-25.6469"/>
<polygon fill="midnightblue" stroke="midnightblue" points="229.447,-28.2598 235.632,-19.6578 225.432,-22.5251 229.447,-28.2598"/>
</g>
</g>
</svg>
