<?xml version="1.0" encoding="UTF-8" standalone="no"?>
<!DOCTYPE svg PUBLIC "-//W3C//DTD SVG 1.1//EN"
 "http://www.w3.org/Graphics/SVG/1.1/DTD/svg11.dtd">
<!-- Generated by graphviz version 2.38.0 (20140413.2041)
 -->
<!-- Title: include/arlib/routing_kernels/types.hpp Pages: 1 -->
<svg width="272pt" height="218pt"
 viewBox="0.00 0.00 271.50 218.00" xmlns="http://www.w3.org/2000/svg" xmlns:xlink="http://www.w3.org/1999/xlink">
<g id="graph0" class="graph" transform="scale(1 1) rotate(0) translate(4 214)">
<title>include/arlib/routing_kernels/types.hpp</title>
<polygon fill="white" stroke="none" points="-4,4 -4,-214 267.5,-214 267.5,4 -4,4"/>
<!-- Node1 -->
<g id="node1" class="node"><title>Node1</title>
<g id="a_node1"><a xlink:title=" ">
<polygon fill="#bfbfbf" stroke="black" points="72,-179.5 72,-209.5 182,-209.5 182,-179.5 72,-179.5"/>
<text text-anchor="start" x="80" y="-197.5" font-family="Helvetica,sans-Serif" font-size="10.00">include/arlib/routing</text>
<text text-anchor="middle" x="127" y="-186.5" font-family="Helvetica,sans-Serif" font-size="10.00">_kernels/types.hpp</text>
</a>
</g>
</g>
<!-- Node2 -->
<g id="node2" class="node"><title>Node2</title>
<g id="a_node2"><a xlink:href="esx__impl_8hpp.html" target="_top" xlink:title=" ">
<polygon fill="white" stroke="black" points="7,-112.5 7,-142.5 115,-142.5 115,-112.5 7,-112.5"/>
<text text-anchor="start" x="15" y="-130.5" font-family="Helvetica,sans-Serif" font-size="10.00">include/arlib/details</text>
<text text-anchor="middle" x="61" y="-119.5" font-family="Helvetica,sans-Serif" font-size="10.00">/esx_impl.hpp</text>
</a>
</g>
</g>
<!-- Node1&#45;&gt;Node2 -->
<g id="edge1" class="edge"><title>Node1&#45;&gt;Node2</title>
<path fill="none" stroke="midnightblue" d="M105.485,-172.311C95.5852,-162.561 84.1092,-151.259 75.2931,-142.577"/>
<polygon fill="midnightblue" stroke="midnightblue" points="103.098,-174.873 112.679,-179.396 108.01,-169.885 103.098,-174.873"/>
</g>
<!-- Node5 -->
<g id="node5" class="node"><title>Node5</title>
<g id="a_node5"><a xlink:href="penalty__impl_8hpp.html" target="_top" xlink:title=" ">
<polygon fill="white" stroke="black" points="140,-112.5 140,-142.5 248,-142.5 248,-112.5 140,-112.5"/>
<text text-anchor="start" x="148" y="-130.5" font-family="Helvetica,sans-Serif" font-size="10.00">include/arlib/details</text>
<text text-anchor="middle" x="194" y="-119.5" font-family="Helvetica,sans-Serif" font-size="10.00">/penalty_impl.hpp</text>
</a>
</g>
</g>
<!-- Node1&#45;&gt;Node5 -->
<g id="edge4" class="edge"><title>Node1&#45;&gt;Node5</title>
<path fill="none" stroke="midnightblue" d="M148.84,-172.311C158.891,-162.561 170.541,-151.259 179.49,-142.577"/>
<polygon fill="midnightblue" stroke="midnightblue" points="146.278,-169.921 141.538,-179.396 151.153,-174.945 146.278,-169.921"/>
</g>
<!-- Node3 -->
<g id="node3" class="node"><title>Node3</title>
<g id="a_node3"><a xlink:href="esx_8hpp.html" target="_top" xlink:title=" ">
<polygon fill="white" stroke="black" points="0,-56.5 0,-75.5 114,-75.5 114,-56.5 0,-56.5"/>
<text text-anchor="middle" x="57" y="-63.5" font-family="Helvetica,sans-Serif" font-size="10.00">include/arlib/esx.hpp</text>
</a>
</g>
</g>
<!-- Node2&#45;&gt;Node3 -->
<g id="edge2" class="edge"><title>Node2&#45;&gt;Node3</title>
<path fill="none" stroke="midnightblue" d="M59.3724,-102.289C58.7383,-92.857 58.0524,-82.6548 57.582,-75.6578"/>
<polygon fill="midnightblue" stroke="midnightblue" points="55.8891,-102.657 60.0521,-112.399 62.8733,-102.187 55.8891,-102.657"/>
</g>
<!-- Node4 -->
<g id="node4" class="node"><title>Node4</title>
<g id="a_node4"><a xlink:href="arlib_8hpp_source.html" target="_top" xlink:title=" ">
<polygon fill="white" stroke="black" points="68,-0.5 68,-19.5 186,-19.5 186,-0.5 68,-0.5"/>
<text text-anchor="middle" x="127" y="-7.5" font-family="Helvetica,sans-Serif" font-size="10.00">include/arlib/arlib.hpp</text>
</a>
</g>
</g>
<!-- Node3&#45;&gt;Node4 -->
<g id="edge3" class="edge"><title>Node3&#45;&gt;Node4</title>
<path fill="none" stroke="midnightblue" d="M76.3138,-50.1008C88.9117,-40.3824 104.928,-28.0269 115.549,-19.8339"/>
<polygon fill="midnightblue" stroke="midnightblue" points="74.0267,-47.4446 68.2467,-56.324 78.3024,-52.9871 74.0267,-47.4446"/>
</g>
<!-- Node6 -->
<g id="node6" class="node"><title>Node6</title>
<g id="a_node6"><a xlink:href="penalty_8hpp.html" target="_top" xlink:title=" ">
<polygon fill="white" stroke="black" points="132.5,-56.5 132.5,-75.5 263.5,-75.5 263.5,-56.5 132.5,-56.5"/>
<text text-anchor="middle" x="198" y="-63.5" font-family="Helvetica,sans-Serif" font-size="10.00">include/arlib/penalty.hpp</text>
</a>
</g>
</g>
<!-- Node5&#45;&gt;Node6 -->
<g id="edge5" class="edge"><title>Node5&#45;&gt;Node6</title>
<path fill="none" stroke="midnightblue" d="M195.628,-102.289C196.262,-92.857 196.948,-82.6548 197.418,-75.6578"/>
<polygon fill="midnightblue" stroke="midnightblue" points="192.127,-102.187 194.948,-112.399 199.111,-102.657 192.127,-102.187"/>
</g>
<!-- Node6&#45;&gt;Node4 -->
<g id="edge6" class="edge"><title>Node6&#45;&gt;Node4</title>
<path fill="none" stroke="midnightblue" d="M178.41,-50.1008C165.632,-40.3824 149.387,-28.0269 138.615,-19.8339"/>
<polygon fill="midnightblue" stroke="midnightblue" points="176.514,-53.0561 186.593,-56.324 180.752,-47.4844 176.514,-53.0561"/>
</g>
</g>
</svg>
