<?xml version="1.0" encoding="UTF-8" standalone="no"?>
<!DOCTYPE svg PUBLIC "-//W3C//DTD SVG 1.1//EN"
 "http://www.w3.org/Graphics/SVG/1.1/DTD/svg11.dtd">
<!-- Generated by graphviz version 2.38.0 (20140413.2041)
 -->
<!-- Title: include/arlib/uninformed_bidirectional_pruning.hpp Pages: 1 -->
<svg width="2424pt" height="374pt"
 viewBox="0.00 0.00 2424.00 374.00" xmlns="http://www.w3.org/2000/svg" xmlns:xlink="http://www.w3.org/1999/xlink">
<g id="graph0" class="graph" transform="scale(1 1) rotate(0) translate(4 370)">
<title>include/arlib/uninformed_bidirectional_pruning.hpp</title>
<polygon fill="white" stroke="none" points="-4,4 -4,-370 2420,-370 2420,4 -4,4"/>
<!-- Node0 -->
<g id="node1" class="node"><title>Node0</title>
<g id="a_node1"><a xlink:title=" ">
<polygon fill="#bfbfbf" stroke="black" points="950,-335.5 950,-365.5 1092,-365.5 1092,-335.5 950,-335.5"/>
<text text-anchor="start" x="958" y="-353.5" font-family="Helvetica,sans-Serif" font-size="10.00">include/arlib/uninformed</text>
<text text-anchor="middle" x="1021" y="-342.5" font-family="Helvetica,sans-Serif" font-size="10.00">_bidirectional_pruning.hpp</text>
</a>
</g>
</g>
<!-- Node1 -->
<g id="node2" class="node"><title>Node1</title>
<g id="a_node2"><a xlink:title=" ">
<polygon fill="white" stroke="#bfbfbf" points="142,-56.5 142,-86.5 252,-86.5 252,-56.5 142,-56.5"/>
<text text-anchor="start" x="150" y="-74.5" font-family="Helvetica,sans-Serif" font-size="10.00">boost/graph/filtered</text>
<text text-anchor="middle" x="197" y="-63.5" font-family="Helvetica,sans-Serif" font-size="10.00">_graph.hpp</text>
</a>
</g>
</g>
<!-- Node0&#45;&gt;Node1 -->
<g id="edge1" class="edge"><title>Node0&#45;&gt;Node1</title>
<path fill="none" stroke="midnightblue" d="M949.931,-346.261C820.463,-339.837 551.214,-323.912 461,-299 317.866,-259.474 238.994,-279.736 160,-154 147.994,-134.89 161.519,-111.232 175.471,-94.337"/>
<polygon fill="midnightblue" stroke="midnightblue" points="178.268,-96.4563 182.244,-86.6359 173.012,-91.8333 178.268,-96.4563"/>
</g>
<!-- Node2 -->
<g id="node3" class="node"><title>Node2</title>
<g id="a_node3"><a xlink:title=" ">
<polygon fill="white" stroke="#bfbfbf" points="1839.5,-0.5 1839.5,-19.5 2014.5,-19.5 2014.5,-0.5 1839.5,-0.5"/>
<text text-anchor="middle" x="1927" y="-7.5" font-family="Helvetica,sans-Serif" font-size="10.00">boost/graph/graph_concepts.hpp</text>
</a>
</g>
</g>
<!-- Node0&#45;&gt;Node2 -->
<g id="edge2" class="edge"><title>Node0&#45;&gt;Node2</title>
<path fill="none" stroke="midnightblue" d="M1092.27,-349.862C1318.4,-350.491 2017.71,-348.294 2238,-299 2323.93,-279.772 2416,-300.055 2416,-212 2416,-212 2416,-212 2416,-137.5 2416,-57.4846 2167.5,-27.2651 2024.79,-16.508"/>
<polygon fill="midnightblue" stroke="midnightblue" points="2024.94,-13.0091 2014.71,-15.7667 2024.42,-19.9903 2024.94,-13.0091"/>
</g>
<!-- Node3 -->
<g id="node4" class="node"><title>Node3</title>
<g id="a_node4"><a xlink:title=" ">
<polygon fill="white" stroke="#bfbfbf" points="979,-0.5 979,-19.5 1135,-19.5 1135,-0.5 979,-0.5"/>
<text text-anchor="middle" x="1057" y="-7.5" font-family="Helvetica,sans-Serif" font-size="10.00">boost/graph/graph_traits.hpp</text>
</a>
</g>
</g>
<!-- Node0&#45;&gt;Node3 -->
<g id="edge3" class="edge"><title>Node0&#45;&gt;Node3</title>
<path fill="none" stroke="midnightblue" d="M1020.57,-335.444C1019.81,-299.465 1019.91,-201.361 1040,-123 1044.35,-106.039 1052.25,-104.103 1056,-87 1060.19,-67.8949 1059.86,-45.4362 1058.84,-29.9116"/>
<polygon fill="midnightblue" stroke="midnightblue" points="1062.3,-29.2424 1057.99,-19.5619 1055.32,-29.8145 1062.3,-29.2424"/>
</g>
<!-- Node4 -->
<g id="node5" class="node"><title>Node4</title>
<g id="a_node5"><a xlink:title=" ">
<polygon fill="white" stroke="#bfbfbf" points="485.5,-274 485.5,-293 640.5,-293 640.5,-274 485.5,-274"/>
<text text-anchor="middle" x="563" y="-281" font-family="Helvetica,sans-Serif" font-size="10.00">boost/graph/graph_utility.hpp</text>
</a>
</g>
</g>
<!-- Node0&#45;&gt;Node4 -->
<g id="edge4" class="edge"><title>Node0&#45;&gt;Node4</title>
<path fill="none" stroke="midnightblue" d="M949.751,-340.081C875.952,-330.229 757.32,-314.121 655,-299 645.621,-297.614 635.713,-296.102 626.009,-294.595"/>
<polygon fill="midnightblue" stroke="midnightblue" points="626.422,-291.117 616.001,-293.032 625.341,-298.033 626.422,-291.117"/>
</g>
<!-- Node5 -->
<g id="node6" class="node"><title>Node5</title>
<g id="a_node6"><a xlink:title=" ">
<polygon fill="white" stroke="#bfbfbf" points="785.5,-0.5 785.5,-19.5 932.5,-19.5 932.5,-0.5 785.5,-0.5"/>
<text text-anchor="middle" x="859" y="-7.5" font-family="Helvetica,sans-Serif" font-size="10.00">boost/graph/properties.hpp</text>
</a>
</g>
</g>
<!-- Node0&#45;&gt;Node5 -->
<g id="edge5" class="edge"><title>Node0&#45;&gt;Node5</title>
<path fill="none" stroke="midnightblue" d="M957.291,-335.443C759.353,-291.716 167.772,-160.62 160,-154 135.559,-133.183 139.112,-118.518 133,-87 130.377,-73.4742 123.563,-66.0381 133,-56 177.455,-8.71488 651.225,-24.0383 716,-20 735.134,-18.8072 755.707,-17.5169 775.118,-16.2959"/>
<polygon fill="midnightblue" stroke="midnightblue" points="775.39,-19.7859 785.15,-15.6646 774.95,-12.7997 775.39,-19.7859"/>
</g>
<!-- Node6 -->
<g id="node7" class="node"><title>Node6</title>
<g id="a_node7"><a xlink:href="arlib__utils_8hpp.html" target="_top" xlink:title=" ">
<polygon fill="white" stroke="black" points="667.5,-196 667.5,-226 762.5,-226 762.5,-196 667.5,-196"/>
<text text-anchor="start" x="675.5" y="-214" font-family="Helvetica,sans-Serif" font-size="10.00">arlib/details/arlib</text>
<text text-anchor="middle" x="715" y="-203" font-family="Helvetica,sans-Serif" font-size="10.00">_utils.hpp</text>
</a>
</g>
</g>
<!-- Node0&#45;&gt;Node6 -->
<g id="edge6" class="edge"><title>Node0&#45;&gt;Node6</title>
<path fill="none" stroke="midnightblue" d="M949.852,-348.136C809.401,-344.703 507.328,-333.365 476,-299 420.987,-238.654 570.17,-220.094 657.245,-214.44"/>
<polygon fill="midnightblue" stroke="midnightblue" points="657.511,-217.93 667.279,-213.827 657.084,-210.943 657.511,-217.93"/>
</g>
<!-- Node13 -->
<g id="node14" class="node"><title>Node13</title>
<g id="a_node14"><a xlink:title=" ">
<polygon fill="white" stroke="#bfbfbf" points="289,-0.5 289,-19.5 375,-19.5 375,-0.5 289,-0.5"/>
<text text-anchor="middle" x="332" y="-7.5" font-family="Helvetica,sans-Serif" font-size="10.00">unordered_set</text>
</a>
</g>
</g>
<!-- Node0&#45;&gt;Node13 -->
<g id="edge65" class="edge"><title>Node0&#45;&gt;Node13</title>
<path fill="none" stroke="midnightblue" d="M949.611,-347.406C717.64,-339.667 0,-307.968 0,-212 0,-212 0,-212 0,-137.5 0,-74.4919 58.187,-81.0536 116,-56 168.66,-33.1794 233.668,-21.6569 278.532,-16.0246"/>
<polygon fill="midnightblue" stroke="midnightblue" points="279.122,-19.479 288.634,-14.813 278.289,-12.5288 279.122,-19.479"/>
</g>
<!-- Node14 -->
<g id="node15" class="node"><title>Node14</title>
<g id="a_node15"><a xlink:href="type__traits_8hpp.html" target="_top" xlink:title=" ">
<polygon fill="white" stroke="black" points="935,-62 935,-81 1047,-81 1047,-62 935,-62"/>
<text text-anchor="middle" x="991" y="-69" font-family="Helvetica,sans-Serif" font-size="10.00">arlib/type_traits.hpp</text>
</a>
</g>
</g>
<!-- Node0&#45;&gt;Node14 -->
<g id="edge61" class="edge"><title>Node0&#45;&gt;Node14</title>
<path fill="none" stroke="midnightblue" d="M1016.18,-335.09C1013.03,-325.081 1009.13,-311.373 1007,-299 993.908,-222.952 991.483,-130.772 991.066,-91.5954"/>
<polygon fill="midnightblue" stroke="midnightblue" points="994.563,-91.1898 990.992,-81.2152 987.564,-91.24 994.563,-91.1898"/>
</g>
<!-- Node19 -->
<g id="node20" class="node"><title>Node19</title>
<g id="a_node20"><a xlink:title=" ">
<polygon fill="white" stroke="#bfbfbf" points="1049.5,-129 1049.5,-148 1096.5,-148 1096.5,-129 1049.5,-129"/>
<text text-anchor="middle" x="1073" y="-136" font-family="Helvetica,sans-Serif" font-size="10.00">vector</text>
</a>
</g>
</g>
<!-- Node0&#45;&gt;Node19 -->
<g id="edge66" class="edge"><title>Node0&#45;&gt;Node19</title>
<path fill="none" stroke="midnightblue" d="M1025.06,-335.388C1027.93,-325.281 1031.82,-311.334 1035,-299 1048.1,-248.158 1062.05,-187.785 1068.82,-158.004"/>
<polygon fill="midnightblue" stroke="midnightblue" points="1072.25,-158.699 1071.05,-148.172 1065.43,-157.151 1072.25,-158.699"/>
</g>
<!-- Node20 -->
<g id="node21" class="node"><title>Node20</title>
<g id="a_node21"><a xlink:href="bidirectional__dijkstra_8hpp.html" target="_top" xlink:title=" ">
<polygon fill="white" stroke="black" points="1234,-268.5 1234,-298.5 1372,-298.5 1372,-268.5 1234,-268.5"/>
<text text-anchor="start" x="1242" y="-286.5" font-family="Helvetica,sans-Serif" font-size="10.00">arlib/routing_kernels</text>
<text text-anchor="middle" x="1303" y="-275.5" font-family="Helvetica,sans-Serif" font-size="10.00">/bidirectional_dijkstra.hpp</text>
</a>
</g>
</g>
<!-- Node0&#45;&gt;Node20 -->
<g id="edge32" class="edge"><title>Node0&#45;&gt;Node20</title>
<path fill="none" stroke="midnightblue" d="M1081.84,-335.476C1125.89,-325.323 1185.56,-311.568 1231.83,-300.906"/>
<polygon fill="midnightblue" stroke="midnightblue" points="1232.82,-304.268 1241.78,-298.611 1231.25,-297.446 1232.82,-304.268"/>
</g>
<!-- Node23 -->
<g id="node24" class="node"><title>Node23</title>
<g id="a_node24"><a xlink:href="visitor_8hpp.html" target="_top" xlink:title=" ">
<polygon fill="white" stroke="black" points="2002.5,-123.5 2002.5,-153.5 2115.5,-153.5 2115.5,-123.5 2002.5,-123.5"/>
<text text-anchor="start" x="2010.5" y="-141.5" font-family="Helvetica,sans-Serif" font-size="10.00">arlib/routing_kernels</text>
<text text-anchor="middle" x="2059" y="-130.5" font-family="Helvetica,sans-Serif" font-size="10.00">/visitor.hpp</text>
</a>
</g>
</g>
<!-- Node0&#45;&gt;Node23 -->
<g id="edge60" class="edge"><title>Node0&#45;&gt;Node23</title>
<path fill="none" stroke="midnightblue" d="M1092.04,-344.116C1231.67,-332.402 1550.92,-300.016 1811,-232 1886.02,-212.38 1969.9,-178.434 2018.36,-157.573"/>
<polygon fill="midnightblue" stroke="midnightblue" points="2019.78,-160.771 2027.56,-153.584 2017,-154.348 2019.78,-160.771"/>
</g>
<!-- Node24 -->
<g id="node25" class="node"><title>Node24</title>
<g id="a_node25"><a xlink:title=" ">
<polygon fill="white" stroke="#bfbfbf" points="2123,-62 2123,-81 2165,-81 2165,-62 2123,-62"/>
<text text-anchor="middle" x="2144" y="-69" font-family="Helvetica,sans-Serif" font-size="10.00">limits</text>
</a>
</g>
</g>
<!-- Node0&#45;&gt;Node24 -->
<g id="edge64" class="edge"><title>Node0&#45;&gt;Node24</title>
<path fill="none" stroke="midnightblue" d="M1092.38,-345.894C1198.98,-339.868 1405.9,-325.694 1580,-299 1718.47,-277.768 1752.38,-267.114 1888,-232 2004.38,-201.867 2075.29,-250.488 2147,-154 2160.49,-135.846 2155.98,-108.612 2150.68,-90.7004"/>
<polygon fill="midnightblue" stroke="midnightblue" points="2153.98,-89.5355 2147.51,-81.1433 2147.33,-91.7367 2153.98,-89.5355"/>
</g>
<!-- Node29 -->
<g id="node30" class="node"><title>Node29</title>
<g id="a_node30"><a xlink:href="ubp__impl_8hpp.html" target="_top" xlink:title=" ">
<polygon fill="white" stroke="black" points="2248.5,-201.5 2248.5,-220.5 2387.5,-220.5 2387.5,-201.5 2248.5,-201.5"/>
<text text-anchor="middle" x="2318" y="-208.5" font-family="Helvetica,sans-Serif" font-size="10.00">arlib/details/ubp_impl.hpp</text>
</a>
</g>
</g>
<!-- Node0&#45;&gt;Node29 -->
<g id="edge62" class="edge"><title>Node0&#45;&gt;Node29</title>
<path fill="none" stroke="midnightblue" d="M1092.11,-348.794C1330.46,-346.104 2091.98,-334.772 2196,-299 2239.41,-284.072 2280.94,-248.389 2302.56,-227.655"/>
<polygon fill="midnightblue" stroke="midnightblue" points="2305.15,-230.018 2309.83,-220.515 2300.24,-225.023 2305.15,-230.018"/>
</g>
<!-- Node6&#45;&gt;Node1 -->
<g id="edge9" class="edge"><title>Node6&#45;&gt;Node1</title>
<path fill="none" stroke="midnightblue" d="M667.375,-208.669C540.903,-204.646 203.995,-190.566 171,-154 156.208,-137.607 167.366,-112.767 179.322,-94.8198"/>
<polygon fill="midnightblue" stroke="midnightblue" points="182.202,-96.8085 185.145,-86.6305 176.497,-92.7519 182.202,-96.8085"/>
</g>
<!-- Node6&#45;&gt;Node2 -->
<g id="edge10" class="edge"><title>Node6&#45;&gt;Node2</title>
<path fill="none" stroke="midnightblue" d="M762.808,-199.426C793.041,-190.942 831.626,-176.634 860,-154 901.051,-121.254 880.209,-81.7045 926,-56 1003.31,-12.6051 1592.18,-9.78622 1828.91,-10.4388"/>
<polygon fill="midnightblue" stroke="midnightblue" points="1829.22,-13.9397 1839.23,-10.4701 1829.24,-6.9397 1829.22,-13.9397"/>
</g>
<!-- Node6&#45;&gt;Node3 -->
<g id="edge11" class="edge"><title>Node6&#45;&gt;Node3</title>
<path fill="none" stroke="midnightblue" d="M760.967,-195.961C785.067,-186.886 813.881,-173.149 835,-154 872.494,-120.003 852.773,-86.7143 893,-56 915.363,-38.9255 943.802,-28.3273 970.695,-21.7498"/>
<polygon fill="midnightblue" stroke="midnightblue" points="971.551,-25.1446 980.519,-19.5039 969.991,-18.3207 971.551,-25.1446"/>
</g>
<!-- Node6&#45;&gt;Node5 -->
<g id="edge12" class="edge"><title>Node6&#45;&gt;Node5</title>
<path fill="none" stroke="midnightblue" d="M752.251,-195.93C772.155,-186.714 795.651,-172.854 811,-154 841.359,-116.708 852.862,-59.3409 856.939,-29.8844"/>
<polygon fill="midnightblue" stroke="midnightblue" points="860.44,-30.0964 858.197,-19.7416 853.493,-29.2347 860.44,-30.0964"/>
</g>
<!-- Node7 -->
<g id="node8" class="node"><title>Node7</title>
<g id="a_node8"><a xlink:title=" ">
<polygon fill="white" stroke="#bfbfbf" points="180.5,-129 180.5,-148 341.5,-148 341.5,-129 180.5,-129"/>
<text text-anchor="middle" x="261" y="-136" font-family="Helvetica,sans-Serif" font-size="10.00">boost/graph/astar_search.hpp</text>
</a>
</g>
</g>
<!-- Node6&#45;&gt;Node7 -->
<g id="edge7" class="edge"><title>Node6&#45;&gt;Node7</title>
<path fill="none" stroke="midnightblue" d="M667.439,-202.847C597.754,-192.333 463.822,-172.003 350,-154 341.237,-152.614 331.992,-151.131 322.908,-149.662"/>
<polygon fill="midnightblue" stroke="midnightblue" points="323.186,-146.161 312.755,-148.015 322.066,-153.071 323.186,-146.161"/>
</g>
<!-- Node8 -->
<g id="node9" class="node"><title>Node8</title>
<g id="a_node9"><a xlink:title=" ">
<polygon fill="white" stroke="#bfbfbf" points="359.5,-123.5 359.5,-153.5 474.5,-153.5 474.5,-123.5 359.5,-123.5"/>
<text text-anchor="start" x="367.5" y="-141.5" font-family="Helvetica,sans-Serif" font-size="10.00">boost/graph/dijkstra</text>
<text text-anchor="middle" x="417" y="-130.5" font-family="Helvetica,sans-Serif" font-size="10.00">_shortest_paths.hpp</text>
</a>
</g>
</g>
<!-- Node6&#45;&gt;Node8 -->
<g id="edge8" class="edge"><title>Node6&#45;&gt;Node8</title>
<path fill="none" stroke="midnightblue" d="M667.452,-198.751C618.001,-187.052 540.16,-168.637 484.385,-155.442"/>
<polygon fill="midnightblue" stroke="midnightblue" points="485.125,-152.02 474.588,-153.124 483.513,-158.832 485.125,-152.02"/>
</g>
<!-- Node9 -->
<g id="node10" class="node"><title>Node9</title>
<g id="a_node10"><a xlink:title=" ">
<polygon fill="white" stroke="#bfbfbf" points="1191.5,-123.5 1191.5,-153.5 1304.5,-153.5 1304.5,-123.5 1191.5,-123.5"/>
<text text-anchor="start" x="1199.5" y="-141.5" font-family="Helvetica,sans-Serif" font-size="10.00">boost/graph/reverse</text>
<text text-anchor="middle" x="1248" y="-130.5" font-family="Helvetica,sans-Serif" font-size="10.00">_graph.hpp</text>
</a>
</g>
</g>
<!-- Node6&#45;&gt;Node9 -->
<g id="edge13" class="edge"><title>Node6&#45;&gt;Node9</title>
<path fill="none" stroke="midnightblue" d="M762.769,-203.682C858.07,-191.076 1072.01,-162.778 1181.17,-148.339"/>
<polygon fill="midnightblue" stroke="midnightblue" points="1181.95,-151.767 1191.4,-146.986 1181.03,-144.828 1181.95,-151.767"/>
</g>
<!-- Node10 -->
<g id="node11" class="node"><title>Node10</title>
<g id="a_node11"><a xlink:href="path_8hpp.html" target="_top" xlink:title=" ">
<polygon fill="white" stroke="black" points="719.5,-129 719.5,-148 802.5,-148 802.5,-129 719.5,-129"/>
<text text-anchor="middle" x="761" y="-136" font-family="Helvetica,sans-Serif" font-size="10.00">arlib/path.hpp</text>
</a>
</g>
</g>
<!-- Node6&#45;&gt;Node10 -->
<g id="edge14" class="edge"><title>Node6&#45;&gt;Node10</title>
<path fill="none" stroke="midnightblue" d="M724.309,-195.733C731.6,-184.558 741.779,-168.959 749.566,-157.024"/>
<polygon fill="midnightblue" stroke="midnightblue" points="752.664,-158.681 755.197,-148.393 746.802,-154.856 752.664,-158.681"/>
</g>
<!-- Node6&#45;&gt;Node13 -->
<g id="edge30" class="edge"><title>Node6&#45;&gt;Node13</title>
<path fill="none" stroke="midnightblue" d="M667.112,-207.98C539.848,-202.222 200.171,-184.168 160,-154 123.875,-126.87 104.796,-91.2936 133,-56 150.932,-33.5606 226.017,-21.4918 278.639,-15.6599"/>
<polygon fill="midnightblue" stroke="midnightblue" points="279.267,-19.113 288.841,-14.5755 278.527,-12.1523 279.267,-19.113"/>
</g>
<!-- Node6&#45;&gt;Node14 -->
<g id="edge26" class="edge"><title>Node6&#45;&gt;Node14</title>
<path fill="none" stroke="midnightblue" d="M762.788,-205.113C806.736,-198.824 872.273,-184.774 921,-154 947.053,-137.546 968.632,-108.388 980.661,-89.775"/>
<polygon fill="midnightblue" stroke="midnightblue" points="983.733,-91.4631 986.055,-81.1257 977.794,-87.7592 983.733,-91.4631"/>
</g>
<!-- Node16 -->
<g id="node17" class="node"><title>Node16</title>
<g id="a_node17"><a xlink:title=" ">
<polygon fill="white" stroke="#bfbfbf" points="493,-129 493,-148 545,-148 545,-129 493,-129"/>
<text text-anchor="middle" x="519" y="-136" font-family="Helvetica,sans-Serif" font-size="10.00">iterator</text>
</a>
</g>
</g>
<!-- Node6&#45;&gt;Node16 -->
<g id="edge27" class="edge"><title>Node6&#45;&gt;Node16</title>
<path fill="none" stroke="midnightblue" d="M672.385,-195.929C639.79,-184.985 593.827,-169.162 554,-154 552.352,-153.373 550.665,-152.718 548.966,-152.048"/>
<polygon fill="midnightblue" stroke="midnightblue" points="549.861,-148.635 539.278,-148.135 547.24,-155.125 549.861,-148.635"/>
</g>
<!-- Node17 -->
<g id="node18" class="node"><title>Node17</title>
<g id="a_node18"><a xlink:title=" ">
<polygon fill="white" stroke="#bfbfbf" points="563,-129 563,-148 619,-148 619,-129 563,-129"/>
<text text-anchor="middle" x="591" y="-136" font-family="Helvetica,sans-Serif" font-size="10.00">sstream</text>
</a>
</g>
</g>
<!-- Node6&#45;&gt;Node17 -->
<g id="edge28" class="edge"><title>Node6&#45;&gt;Node17</title>
<path fill="none" stroke="midnightblue" d="M690.205,-195.903C668.287,-183.442 636.527,-165.384 614.887,-153.081"/>
<polygon fill="midnightblue" stroke="midnightblue" points="616.432,-149.933 606.009,-148.034 612.973,-156.019 616.432,-149.933"/>
</g>
<!-- Node18 -->
<g id="node19" class="node"><title>Node18</title>
<g id="a_node19"><a xlink:title=" ">
<polygon fill="white" stroke="#bfbfbf" points="637,-129 637,-148 701,-148 701,-129 637,-129"/>
<text text-anchor="middle" x="669" y="-136" font-family="Helvetica,sans-Serif" font-size="10.00">stdexcept</text>
</a>
</g>
</g>
<!-- Node6&#45;&gt;Node18 -->
<g id="edge29" class="edge"><title>Node6&#45;&gt;Node18</title>
<path fill="none" stroke="midnightblue" d="M705.691,-195.733C698.4,-184.558 688.221,-168.959 680.434,-157.024"/>
<polygon fill="midnightblue" stroke="midnightblue" points="683.198,-154.856 674.803,-148.393 677.336,-158.681 683.198,-154.856"/>
</g>
<!-- Node6&#45;&gt;Node19 -->
<g id="edge31" class="edge"><title>Node6&#45;&gt;Node19</title>
<path fill="none" stroke="midnightblue" d="M762.54,-200.638C836.049,-186.162 975.482,-158.704 1039.43,-146.111"/>
<polygon fill="midnightblue" stroke="midnightblue" points="1040.25,-149.518 1049.38,-144.151 1038.89,-142.649 1040.25,-149.518"/>
</g>
<!-- Node10&#45;&gt;Node1 -->
<g id="edge22" class="edge"><title>Node10&#45;&gt;Node1</title>
<path fill="none" stroke="midnightblue" d="M734.482,-128.989C726.665,-126.746 718.049,-124.528 710,-123 550.778,-92.7805 360.116,-80.0447 262.168,-75.1789"/>
<polygon fill="midnightblue" stroke="midnightblue" points="262.281,-71.6804 252.123,-74.6915 261.942,-78.6721 262.281,-71.6804"/>
</g>
<!-- Node10&#45;&gt;Node3 -->
<g id="edge23" class="edge"><title>Node10&#45;&gt;Node3</title>
<path fill="none" stroke="midnightblue" d="M768.285,-128.792C782.892,-111.937 817.579,-74.8553 855,-56 890.048,-38.3403 931.963,-27.5582 968.504,-20.9996"/>
<polygon fill="midnightblue" stroke="midnightblue" points="969.392,-24.3984 978.658,-19.2595 968.21,-17.499 969.392,-24.3984"/>
</g>
<!-- Node10&#45;&gt;Node5 -->
<g id="edge24" class="edge"><title>Node10&#45;&gt;Node5</title>
<path fill="none" stroke="midnightblue" d="M760.706,-128.956C760.591,-113.019 762.432,-78.3504 779,-56 789.845,-41.37 806.95,-30.8342 822.564,-23.6528"/>
<polygon fill="midnightblue" stroke="midnightblue" points="824.206,-26.7576 832.025,-19.6082 821.454,-20.3211 824.206,-26.7576"/>
</g>
<!-- Node11 -->
<g id="node12" class="node"><title>Node11</title>
<g id="a_node12"><a xlink:href="path__impl_8hpp.html" target="_top" xlink:title=" ">
<polygon fill="white" stroke="black" points="631,-56.5 631,-86.5 727,-86.5 727,-56.5 631,-56.5"/>
<text text-anchor="start" x="639" y="-74.5" font-family="Helvetica,sans-Serif" font-size="10.00">arlib/details/path</text>
<text text-anchor="middle" x="679" y="-63.5" font-family="Helvetica,sans-Serif" font-size="10.00">_impl.hpp</text>
</a>
</g>
</g>
<!-- Node10&#45;&gt;Node11 -->
<g id="edge15" class="edge"><title>Node10&#45;&gt;Node11</title>
<path fill="none" stroke="midnightblue" d="M749.941,-128.734C738.433,-119.611 720.005,-105.004 704.815,-92.9631"/>
<polygon fill="midnightblue" stroke="midnightblue" points="706.785,-90.0582 696.774,-86.589 702.436,-95.5438 706.785,-90.0582"/>
</g>
<!-- Node10&#45;&gt;Node14 -->
<g id="edge19" class="edge"><title>Node10&#45;&gt;Node14</title>
<path fill="none" stroke="midnightblue" d="M791.542,-128.869C832.553,-117.278 905.502,-96.6624 950.897,-83.8335"/>
<polygon fill="midnightblue" stroke="midnightblue" points="952.027,-87.1514 960.698,-81.0637 950.123,-80.4152 952.027,-87.1514"/>
</g>
<!-- Node15 -->
<g id="node16" class="node"><title>Node15</title>
<g id="a_node16"><a xlink:title=" ">
<polygon fill="white" stroke="#bfbfbf" points="571,-62 571,-81 613,-81 613,-62 571,-62"/>
<text text-anchor="middle" x="592" y="-69" font-family="Helvetica,sans-Serif" font-size="10.00">utility</text>
</a>
</g>
</g>
<!-- Node10&#45;&gt;Node15 -->
<g id="edge25" class="edge"><title>Node10&#45;&gt;Node15</title>
<path fill="none" stroke="midnightblue" d="M735.078,-128.965C706.929,-119.493 660.794,-103.372 622,-87 620.801,-86.4939 619.581,-85.9648 618.353,-85.4206"/>
<polygon fill="midnightblue" stroke="midnightblue" points="619.541,-82.1138 608.996,-81.0855 616.598,-88.4652 619.541,-82.1138"/>
</g>
<!-- Node11&#45;&gt;Node2 -->
<g id="edge16" class="edge"><title>Node11&#45;&gt;Node2</title>
<path fill="none" stroke="midnightblue" d="M727,-66.9148C770.358,-63.7556 835.928,-59.1749 893,-56 1237.01,-36.8625 1645.79,-21.1472 1829.31,-14.4644"/>
<polygon fill="midnightblue" stroke="midnightblue" points="1829.61,-17.9559 1839.47,-14.0951 1829.35,-10.9606 1829.61,-17.9559"/>
</g>
<!-- Node12 -->
<g id="node13" class="node"><title>Node12</title>
<g id="a_node13"><a xlink:title=" ">
<polygon fill="white" stroke="#bfbfbf" points="650.5,-0.5 650.5,-19.5 707.5,-19.5 707.5,-0.5 650.5,-0.5"/>
<text text-anchor="middle" x="679" y="-7.5" font-family="Helvetica,sans-Serif" font-size="10.00">memory</text>
</a>
</g>
</g>
<!-- Node11&#45;&gt;Node12 -->
<g id="edge17" class="edge"><title>Node11&#45;&gt;Node12</title>
<path fill="none" stroke="midnightblue" d="M679,-56.3993C679,-48.4664 679,-38.458 679,-29.8583"/>
<polygon fill="midnightblue" stroke="midnightblue" points="682.5,-29.6577 679,-19.6578 675.5,-29.6578 682.5,-29.6577"/>
</g>
<!-- Node11&#45;&gt;Node13 -->
<g id="edge18" class="edge"><title>Node11&#45;&gt;Node13</title>
<path fill="none" stroke="midnightblue" d="M630.872,-57.9142C627.877,-57.2372 624.901,-56.5927 622,-56 540.061,-39.2602 443.973,-25.4866 385.567,-17.7575"/>
<polygon fill="midnightblue" stroke="midnightblue" points="385.836,-14.2629 375.466,-16.4314 384.925,-21.2033 385.836,-14.2629"/>
</g>
<!-- Node14&#45;&gt;Node3 -->
<g id="edge20" class="edge"><title>Node14&#45;&gt;Node3</title>
<path fill="none" stroke="midnightblue" d="M1000.46,-61.9751C1010.75,-52.6966 1027.42,-37.6706 1039.99,-26.331"/>
<polygon fill="midnightblue" stroke="midnightblue" points="1042.48,-28.8046 1047.56,-19.5091 1037.79,-23.6054 1042.48,-28.8046"/>
</g>
<!-- Node14&#45;&gt;Node5 -->
<g id="edge21" class="edge"><title>Node14&#45;&gt;Node5</title>
<path fill="none" stroke="midnightblue" d="M972.088,-61.9751C949.837,-51.9455 912.688,-35.2002 887.074,-23.6546"/>
<polygon fill="midnightblue" stroke="midnightblue" points="888.432,-20.4277 877.877,-19.5091 885.556,-26.8094 888.432,-20.4277"/>
</g>
<!-- Node20&#45;&gt;Node2 -->
<g id="edge33" class="edge"><title>Node20&#45;&gt;Node2</title>
<path fill="none" stroke="midnightblue" d="M1372.03,-281.484C1525.93,-278.587 1892.91,-268.009 2011,-232 2077.65,-211.677 2101.23,-206.543 2147,-154 2176.67,-119.933 2202.94,-90.6909 2174,-56 2154.82,-33.0142 2085.12,-21.7396 2024.63,-16.2262"/>
<polygon fill="midnightblue" stroke="midnightblue" points="2024.89,-12.7356 2014.62,-15.358 2024.28,-19.7094 2024.89,-12.7356"/>
</g>
<!-- Node20&#45;&gt;Node3 -->
<g id="edge34" class="edge"><title>Node20&#45;&gt;Node3</title>
<path fill="none" stroke="midnightblue" d="M1309.12,-268.278C1320.87,-238.537 1342.92,-168.744 1313,-123 1273.32,-62.3313 1192.74,-34.3281 1132.53,-21.5269"/>
<polygon fill="midnightblue" stroke="midnightblue" points="1133.17,-18.0855 1122.67,-19.5273 1131.77,-24.9457 1133.17,-18.0855"/>
</g>
<!-- Node20&#45;&gt;Node5 -->
<g id="edge35" class="edge"><title>Node20&#45;&gt;Node5</title>
<path fill="none" stroke="midnightblue" d="M1289.39,-268.217C1246.09,-223.064 1111.09,-84.6909 1056,-56 1021.16,-37.8537 979.109,-26.9725 942.82,-20.4725"/>
<polygon fill="midnightblue" stroke="midnightblue" points="943.195,-16.986 932.748,-18.753 942.017,-23.8861 943.195,-16.986"/>
</g>
<!-- Node20&#45;&gt;Node6 -->
<g id="edge37" class="edge"><title>Node20&#45;&gt;Node6</title>
<path fill="none" stroke="midnightblue" d="M1233.82,-274.205C1116.77,-260.171 881.794,-231.998 772.877,-218.939"/>
<polygon fill="midnightblue" stroke="midnightblue" points="773.084,-215.439 762.739,-217.724 772.251,-222.389 773.084,-215.439"/>
</g>
<!-- Node20&#45;&gt;Node9 -->
<g id="edge36" class="edge"><title>Node20&#45;&gt;Node9</title>
<path fill="none" stroke="midnightblue" d="M1297.53,-268.266C1288.09,-243.747 1268.69,-193.298 1257.17,-163.342"/>
<polygon fill="midnightblue" stroke="midnightblue" points="1260.31,-161.754 1253.45,-153.677 1253.78,-164.267 1260.31,-161.754"/>
</g>
<!-- Node20&#45;&gt;Node14 -->
<g id="edge56" class="edge"><title>Node20&#45;&gt;Node14</title>
<path fill="none" stroke="midnightblue" d="M1233.92,-269.858C1208.07,-262.346 1179.94,-250.515 1159,-232 1118.5,-196.187 1144.04,-160.399 1105,-123 1085.65,-104.46 1058.35,-92.0412 1035.32,-84.1591"/>
<polygon fill="midnightblue" stroke="midnightblue" points="1036.33,-80.8099 1025.74,-81.0542 1034.17,-87.4685 1036.33,-80.8099"/>
</g>
<!-- Node20&#45;&gt;Node19 -->
<g id="edge59" class="edge"><title>Node20&#45;&gt;Node19</title>
<path fill="none" stroke="midnightblue" d="M1233.81,-276.644C1196.97,-270.463 1152.84,-257.818 1121,-232 1097.31,-212.785 1084,-178.755 1077.68,-157.761"/>
<polygon fill="midnightblue" stroke="midnightblue" points="1081.05,-156.811 1074.99,-148.118 1074.3,-158.691 1081.05,-156.811"/>
</g>
<!-- Node21 -->
<g id="node22" class="node"><title>Node21</title>
<g id="a_node22"><a xlink:href="bidirectional__dijkstra__impl_8hpp.html" target="_top" xlink:title=" ">
<polygon fill="white" stroke="black" points="1483.5,-190.5 1483.5,-231.5 1596.5,-231.5 1596.5,-190.5 1483.5,-190.5"/>
<text text-anchor="start" x="1491.5" y="-219.5" font-family="Helvetica,sans-Serif" font-size="10.00">arlib/routing_kernels</text>
<text text-anchor="start" x="1491.5" y="-208.5" font-family="Helvetica,sans-Serif" font-size="10.00">/details/bidirectional</text>
<text text-anchor="middle" x="1540" y="-197.5" font-family="Helvetica,sans-Serif" font-size="10.00">_dijkstra_impl.hpp</text>
</a>
</g>
</g>
<!-- Node20&#45;&gt;Node21 -->
<g id="edge38" class="edge"><title>Node20&#45;&gt;Node21</title>
<path fill="none" stroke="midnightblue" d="M1350.11,-268.487C1385.45,-257.974 1434.3,-243.442 1473.6,-231.751"/>
<polygon fill="midnightblue" stroke="midnightblue" points="1474.79,-235.05 1483.38,-228.844 1472.79,-228.34 1474.79,-235.05"/>
</g>
<!-- Node20&#45;&gt;Node23 -->
<g id="edge55" class="edge"><title>Node20&#45;&gt;Node23</title>
<path fill="none" stroke="midnightblue" d="M1372.2,-276.883C1453.91,-269.578 1593.65,-254.967 1712,-232 1816.86,-211.651 1936.78,-177.11 2004.64,-156.486"/>
<polygon fill="midnightblue" stroke="midnightblue" points="2005.72,-159.815 2014.27,-153.548 2003.68,-153.12 2005.72,-159.815"/>
</g>
<!-- Node20&#45;&gt;Node24 -->
<g id="edge58" class="edge"><title>Node20&#45;&gt;Node24</title>
<path fill="none" stroke="midnightblue" d="M1372.22,-281.847C1550.8,-278.641 2020.44,-260.085 2125,-154 2141.3,-137.462 2144.65,-109.807 2144.87,-91.3622"/>
<polygon fill="midnightblue" stroke="midnightblue" points="2148.37,-91.1854 2144.69,-81.2498 2141.37,-91.3109 2148.37,-91.1854"/>
</g>
<!-- Node25 -->
<g id="node26" class="node"><title>Node25</title>
<g id="a_node26"><a xlink:title=" ">
<polygon fill="white" stroke="#bfbfbf" points="1937.5,-129 1937.5,-148 1984.5,-148 1984.5,-129 1937.5,-129"/>
<text text-anchor="middle" x="1961" y="-136" font-family="Helvetica,sans-Serif" font-size="10.00">deque</text>
</a>
</g>
</g>
<!-- Node20&#45;&gt;Node25 -->
<g id="edge57" class="edge"><title>Node20&#45;&gt;Node25</title>
<path fill="none" stroke="midnightblue" d="M1372.18,-272.534C1433.78,-263.288 1526.23,-248.498 1606,-232 1747.24,-202.789 1783.01,-195.968 1921,-154 1923.63,-153.201 1926.33,-152.329 1929.04,-151.421"/>
<polygon fill="midnightblue" stroke="midnightblue" points="1930.42,-154.645 1938.71,-148.047 1928.12,-148.036 1930.42,-154.645"/>
</g>
<!-- Node21&#45;&gt;Node2 -->
<g id="edge39" class="edge"><title>Node21&#45;&gt;Node2</title>
<path fill="none" stroke="midnightblue" d="M1596.66,-191.301C1598.45,-190.843 1600.24,-190.408 1602,-190 1711.36,-164.678 1760.34,-218.803 1852,-154 1895.02,-123.588 1915.29,-60.7684 1923.04,-29.5077"/>
<polygon fill="midnightblue" stroke="midnightblue" points="1926.5,-30.0683 1925.34,-19.537 1919.68,-28.4922 1926.5,-30.0683"/>
</g>
<!-- Node21&#45;&gt;Node3 -->
<g id="edge40" class="edge"><title>Node21&#45;&gt;Node3</title>
<path fill="none" stroke="midnightblue" d="M1507.09,-190.477C1493.02,-180.876 1477.28,-168.29 1466,-154 1436.53,-116.666 1461.16,-84.3983 1423,-56 1380.39,-24.2834 1239.22,-14.7771 1145.18,-12.0137"/>
<polygon fill="midnightblue" stroke="midnightblue" points="1145.18,-8.51266 1135.09,-11.7377 1144.99,-15.51 1145.18,-8.51266"/>
</g>
<!-- Node21&#45;&gt;Node5 -->
<g id="edge41" class="edge"><title>Node21&#45;&gt;Node5</title>
<path fill="none" stroke="midnightblue" d="M1506.68,-190.482C1472.38,-171.084 1416.91,-141.612 1366,-123 1217.03,-68.54 1033.32,-36.0325 933.01,-21.0286"/>
<polygon fill="midnightblue" stroke="midnightblue" points="933.378,-17.5451 922.974,-19.5445 932.354,-24.4698 933.378,-17.5451"/>
</g>
<!-- Node21&#45;&gt;Node9 -->
<g id="edge42" class="edge"><title>Node21&#45;&gt;Node9</title>
<path fill="none" stroke="midnightblue" d="M1483.35,-196.323C1435.15,-184.686 1365.84,-167.951 1314.92,-155.656"/>
<polygon fill="midnightblue" stroke="midnightblue" points="1315.53,-152.204 1304.99,-153.259 1313.89,-159.008 1315.53,-152.204"/>
</g>
<!-- Node21&#45;&gt;Node14 -->
<g id="edge48" class="edge"><title>Node21&#45;&gt;Node14</title>
<path fill="none" stroke="midnightblue" d="M1489.5,-190.495C1424,-165.217 1317.5,-124.202 1313,-123 1226.07,-99.8031 1122.92,-85.9407 1057.22,-78.7658"/>
<polygon fill="midnightblue" stroke="midnightblue" points="1057.32,-75.2568 1047.01,-77.6713 1056.58,-82.2169 1057.32,-75.2568"/>
</g>
<!-- Node21&#45;&gt;Node19 -->
<g id="edge54" class="edge"><title>Node21&#45;&gt;Node19</title>
<path fill="none" stroke="midnightblue" d="M1483.2,-201.426C1384.8,-186.57 1185.56,-156.493 1106.46,-144.552"/>
<polygon fill="midnightblue" stroke="midnightblue" points="1106.97,-141.088 1096.55,-143.056 1105.92,-148.009 1106.97,-141.088"/>
</g>
<!-- Node22 -->
<g id="node23" class="node"><title>Node22</title>
<g id="a_node23"><a xlink:title=" ">
<polygon fill="white" stroke="#bfbfbf" points="1729,-123.5 1729,-153.5 1843,-153.5 1843,-123.5 1729,-123.5"/>
<text text-anchor="start" x="1737" y="-141.5" font-family="Helvetica,sans-Serif" font-size="10.00">boost/property_map</text>
<text text-anchor="middle" x="1786" y="-130.5" font-family="Helvetica,sans-Serif" font-size="10.00">/property_map.hpp</text>
</a>
</g>
</g>
<!-- Node21&#45;&gt;Node22 -->
<g id="edge43" class="edge"><title>Node21&#45;&gt;Node22</title>
<path fill="none" stroke="midnightblue" d="M1596.75,-193.737C1635.86,-182.528 1687.71,-167.669 1727.25,-156.338"/>
<polygon fill="midnightblue" stroke="midnightblue" points="1728.37,-159.657 1737.02,-153.537 1726.44,-152.928 1728.37,-159.657"/>
</g>
<!-- Node21&#45;&gt;Node23 -->
<g id="edge44" class="edge"><title>Node21&#45;&gt;Node23</title>
<path fill="none" stroke="midnightblue" d="M1596.53,-204.803C1680.72,-196.67 1844.21,-179.377 1992.17,-154.224"/>
<polygon fill="midnightblue" stroke="midnightblue" points="1993.08,-157.619 2002.34,-152.477 1991.9,-150.72 1993.08,-157.619"/>
</g>
<!-- Node21&#45;&gt;Node24 -->
<g id="edge51" class="edge"><title>Node21&#45;&gt;Node24</title>
<path fill="none" stroke="midnightblue" d="M1596.76,-208.557C1666.91,-205.048 1788.78,-193.251 1885,-154 1907.15,-144.964 1907.18,-132.803 1929,-123 1990.91,-95.1886 2069.99,-81.694 2112.9,-76.0138"/>
<polygon fill="midnightblue" stroke="midnightblue" points="2113.52,-79.4636 2123,-74.7341 2112.64,-72.5191 2113.52,-79.4636"/>
</g>
<!-- Node21&#45;&gt;Node25 -->
<g id="edge49" class="edge"><title>Node21&#45;&gt;Node25</title>
<path fill="none" stroke="midnightblue" d="M1596.59,-205.633C1672.01,-198.93 1809.2,-183.648 1923,-154 1925.82,-153.266 1928.72,-152.392 1931.59,-151.442"/>
<polygon fill="midnightblue" stroke="midnightblue" points="1932.92,-154.684 1941.15,-148.014 1930.56,-148.094 1932.92,-154.684"/>
</g>
<!-- Node26 -->
<g id="node27" class="node"><title>Node26</title>
<g id="a_node27"><a xlink:title=" ">
<polygon fill="white" stroke="#bfbfbf" points="1475.5,-129 1475.5,-148 1534.5,-148 1534.5,-129 1475.5,-129"/>
<text text-anchor="middle" x="1505" y="-136" font-family="Helvetica,sans-Serif" font-size="10.00">iostream</text>
</a>
</g>
</g>
<!-- Node21&#45;&gt;Node26 -->
<g id="edge50" class="edge"><title>Node21&#45;&gt;Node26</title>
<path fill="none" stroke="midnightblue" d="M1530.25,-190.362C1525.09,-179.972 1518.81,-167.315 1513.8,-157.227"/>
<polygon fill="midnightblue" stroke="midnightblue" points="1516.89,-155.574 1509.31,-148.173 1510.62,-158.687 1516.89,-155.574"/>
</g>
<!-- Node27 -->
<g id="node28" class="node"><title>Node27</title>
<g id="a_node28"><a xlink:title=" ">
<polygon fill="white" stroke="#bfbfbf" points="1552.5,-129 1552.5,-148 1599.5,-148 1599.5,-129 1552.5,-129"/>
<text text-anchor="middle" x="1576" y="-136" font-family="Helvetica,sans-Serif" font-size="10.00">queue</text>
</a>
</g>
</g>
<!-- Node21&#45;&gt;Node27 -->
<g id="edge52" class="edge"><title>Node21&#45;&gt;Node27</title>
<path fill="none" stroke="midnightblue" d="M1550.03,-190.362C1555.33,-179.972 1561.8,-167.315 1566.95,-157.227"/>
<polygon fill="midnightblue" stroke="midnightblue" points="1570.14,-158.671 1571.57,-148.173 1563.91,-155.488 1570.14,-158.671"/>
</g>
<!-- Node28 -->
<g id="node29" class="node"><title>Node28</title>
<g id="a_node29"><a xlink:title=" ">
<polygon fill="white" stroke="#bfbfbf" points="1617.5,-129 1617.5,-148 1710.5,-148 1710.5,-129 1617.5,-129"/>
<text text-anchor="middle" x="1664" y="-136" font-family="Helvetica,sans-Serif" font-size="10.00">unordered_map</text>
</a>
</g>
</g>
<!-- Node21&#45;&gt;Node28 -->
<g id="edge53" class="edge"><title>Node21&#45;&gt;Node28</title>
<path fill="none" stroke="midnightblue" d="M1574.54,-190.362C1595.38,-178.511 1621.42,-163.711 1640.02,-153.137"/>
<polygon fill="midnightblue" stroke="midnightblue" points="1641.78,-156.159 1648.74,-148.173 1638.32,-150.073 1641.78,-156.159"/>
</g>
<!-- Node23&#45;&gt;Node2 -->
<g id="edge45" class="edge"><title>Node23&#45;&gt;Node2</title>
<path fill="none" stroke="midnightblue" d="M2044.37,-123.479C2019.55,-99.6938 1969.37,-51.6016 1943.4,-26.7145"/>
<polygon fill="midnightblue" stroke="midnightblue" points="1945.81,-24.1807 1936.17,-19.7885 1940.97,-29.2346 1945.81,-24.1807"/>
</g>
<!-- Node23&#45;&gt;Node13 -->
<g id="edge47" class="edge"><title>Node23&#45;&gt;Node13</title>
<path fill="none" stroke="midnightblue" d="M2002.37,-124.349C1999.55,-123.856 1996.75,-123.402 1994,-123 1580.46,-62.4457 1473.02,-83.853 1056,-56 805.088,-39.2415 505.117,-21.2482 385.274,-14.1423"/>
<polygon fill="midnightblue" stroke="midnightblue" points="385.449,-10.6467 375.26,-13.5491 385.035,-17.6344 385.449,-10.6467"/>
</g>
<!-- Node23&#45;&gt;Node24 -->
<g id="edge46" class="edge"><title>Node23&#45;&gt;Node24</title>
<path fill="none" stroke="midnightblue" d="M2077.44,-123.396C2091.35,-112.759 2110.39,-98.2028 2124.54,-87.3813"/>
<polygon fill="midnightblue" stroke="midnightblue" points="2126.81,-90.0493 2132.63,-81.1945 2122.56,-84.4888 2126.81,-90.0493"/>
</g>
<!-- Node29&#45;&gt;Node24 -->
<g id="edge63" class="edge"><title>Node29&#45;&gt;Node24</title>
<path fill="none" stroke="midnightblue" d="M2307.12,-201.399C2278.19,-178.538 2199.12,-116.059 2162.76,-87.3213"/>
<polygon fill="midnightblue" stroke="midnightblue" points="2164.9,-84.552 2154.88,-81.098 2160.56,-90.0442 2164.9,-84.552"/>
</g>
</g>
</svg>
