<?xml version="1.0" encoding="UTF-8" standalone="no"?>
<!DOCTYPE svg PUBLIC "-//W3C//DTD SVG 1.1//EN"
 "http://www.w3.org/Graphics/SVG/1.1/DTD/svg11.dtd">
<!-- Generated by graphviz version 2.38.0 (20140413.2041)
 -->
<!-- Title: include/arlib/routing_kernels/visitor.hpp Pages: 1 -->
<svg width="348pt" height="95pt"
 viewBox="0.00 0.00 347.50 95.00" xmlns="http://www.w3.org/2000/svg" xmlns:xlink="http://www.w3.org/1999/xlink">
<g id="graph0" class="graph" transform="scale(1 1) rotate(0) translate(4 91)">
<title>include/arlib/routing_kernels/visitor.hpp</title>
<polygon fill="white" stroke="none" points="-4,4 -4,-91 343.5,-91 343.5,4 -4,4"/>
<!-- Node0 -->
<g id="node1" class="node"><title>Node0</title>
<g id="a_node1"><a xlink:title=" ">
<polygon fill="#bfbfbf" stroke="black" points="159.5,-56.5 159.5,-86.5 269.5,-86.5 269.5,-56.5 159.5,-56.5"/>
<text text-anchor="start" x="167.5" y="-74.5" font-family="Helvetica,sans-Serif" font-size="10.00">include/arlib/routing</text>
<text text-anchor="middle" x="214.5" y="-63.5" font-family="Helvetica,sans-Serif" font-size="10.00">_kernels/visitor.hpp</text>
</a>
</g>
</g>
<!-- Node1 -->
<g id="node2" class="node"><title>Node1</title>
<g id="a_node2"><a xlink:title=" ">
<polygon fill="white" stroke="#bfbfbf" points="0,-0.5 0,-19.5 175,-19.5 175,-0.5 0,-0.5"/>
<text text-anchor="middle" x="87.5" y="-7.5" font-family="Helvetica,sans-Serif" font-size="10.00">boost/graph/graph_concepts.hpp</text>
</a>
</g>
</g>
<!-- Node0&#45;&gt;Node1 -->
<g id="edge1" class="edge"><title>Node0&#45;&gt;Node1</title>
<path fill="none" stroke="midnightblue" d="M184.403,-56.3993C163.38,-46.55 135.528,-33.5014 115.081,-23.9217"/>
<polygon fill="midnightblue" stroke="midnightblue" points="116.52,-20.7309 105.98,-19.6578 113.55,-27.0698 116.52,-20.7309"/>
</g>
<!-- Node2 -->
<g id="node3" class="node"><title>Node2</title>
<g id="a_node3"><a xlink:title=" ">
<polygon fill="white" stroke="#bfbfbf" points="193.5,-0.5 193.5,-19.5 235.5,-19.5 235.5,-0.5 193.5,-0.5"/>
<text text-anchor="middle" x="214.5" y="-7.5" font-family="Helvetica,sans-Serif" font-size="10.00">limits</text>
</a>
</g>
</g>
<!-- Node0&#45;&gt;Node2 -->
<g id="edge2" class="edge"><title>Node0&#45;&gt;Node2</title>
<path fill="none" stroke="midnightblue" d="M214.5,-56.3993C214.5,-48.4664 214.5,-38.458 214.5,-29.8583"/>
<polygon fill="midnightblue" stroke="midnightblue" points="218,-29.6577 214.5,-19.6578 211,-29.6578 218,-29.6577"/>
</g>
<!-- Node3 -->
<g id="node4" class="node"><title>Node3</title>
<g id="a_node4"><a xlink:title=" ">
<polygon fill="white" stroke="#bfbfbf" points="253.5,-0.5 253.5,-19.5 339.5,-19.5 339.5,-0.5 253.5,-0.5"/>
<text text-anchor="middle" x="296.5" y="-7.5" font-family="Helvetica,sans-Serif" font-size="10.00">unordered_set</text>
</a>
</g>
</g>
<!-- Node0&#45;&gt;Node3 -->
<g id="edge3" class="edge"><title>Node0&#45;&gt;Node3</title>
<path fill="none" stroke="midnightblue" d="M233.933,-56.3993C246.708,-47.1293 263.389,-35.0254 276.314,-25.6469"/>
<polygon fill="midnightblue" stroke="midnightblue" points="278.53,-28.3635 284.568,-19.6578 274.419,-22.6979 278.53,-28.3635"/>
</g>
</g>
</svg>
