<?xml version="1.0" encoding="UTF-8" standalone="no"?>
<!DOCTYPE svg PUBLIC "-//W3C//DTD SVG 1.1//EN"
 "http://www.w3.org/Graphics/SVG/1.1/DTD/svg11.dtd">
<!-- Generated by graphviz version 2.38.0 (20140413.2041)
 -->
<!-- Title: include/arlib/routing_kernels/visitor.hpp Pages: 1 -->
<svg width="405pt" height="374pt"
 viewBox="0.00 0.00 405.00 374.00" xmlns="http://www.w3.org/2000/svg" xmlns:xlink="http://www.w3.org/1999/xlink">
<g id="graph0" class="graph" transform="scale(1 1) rotate(0) translate(4 370)">
<title>include/arlib/routing_kernels/visitor.hpp</title>
<polygon fill="white" stroke="none" points="-4,4 -4,-370 401,-370 401,4 -4,4"/>
<!-- Node4 -->
<g id="node1" class="node"><title>Node4</title>
<g id="a_node1"><a xlink:title=" ">
<polygon fill="#bfbfbf" stroke="black" points="167,-335.5 167,-365.5 277,-365.5 277,-335.5 167,-335.5"/>
<text text-anchor="start" x="175" y="-353.5" font-family="Helvetica,sans-Serif" font-size="10.00">include/arlib/routing</text>
<text text-anchor="middle" x="222" y="-342.5" font-family="Helvetica,sans-Serif" font-size="10.00">_kernels/visitor.hpp</text>
</a>
</g>
</g>
<!-- Node5 -->
<g id="node2" class="node"><title>Node5</title>
<g id="a_node2"><a xlink:href="bidirectional__dijkstra_8hpp.html" target="_top" xlink:title=" ">
<polygon fill="white" stroke="black" points="124.5,-179.5 124.5,-220.5 241.5,-220.5 241.5,-179.5 124.5,-179.5"/>
<text text-anchor="start" x="132.5" y="-208.5" font-family="Helvetica,sans-Serif" font-size="10.00">include/arlib/routing</text>
<text text-anchor="start" x="132.5" y="-197.5" font-family="Helvetica,sans-Serif" font-size="10.00">_kernels/bidirectional</text>
<text text-anchor="middle" x="183" y="-186.5" font-family="Helvetica,sans-Serif" font-size="10.00">_dijkstra.hpp</text>
</a>
</g>
</g>
<!-- Node4&#45;&gt;Node5 -->
<g id="edge1" class="edge"><title>Node4&#45;&gt;Node5</title>
<path fill="none" stroke="midnightblue" d="M171.603,-330.746C157.949,-323.079 144.8,-312.706 137,-299 127.768,-282.776 130.707,-274.574 137,-257 141.92,-243.259 151.826,-230.473 161.189,-220.598"/>
<polygon fill="midnightblue" stroke="midnightblue" points="170.108,-333.913 180.598,-335.401 173.326,-327.696 170.108,-333.913"/>
</g>
<!-- Node11 -->
<g id="node8" class="node"><title>Node11</title>
<g id="a_node8"><a xlink:href="uninformed__bidirectional__pruning_8hpp.html" target="_top" xlink:title=" ">
<polygon fill="white" stroke="black" points="255,-112.5 255,-142.5 397,-142.5 397,-112.5 255,-112.5"/>
<text text-anchor="start" x="263" y="-130.5" font-family="Helvetica,sans-Serif" font-size="10.00">include/arlib/uninformed</text>
<text text-anchor="middle" x="326" y="-119.5" font-family="Helvetica,sans-Serif" font-size="10.00">_bidirectional_pruning.hpp</text>
</a>
</g>
</g>
<!-- Node4&#45;&gt;Node11 -->
<g id="edge12" class="edge"><title>Node4&#45;&gt;Node11</title>
<path fill="none" stroke="midnightblue" d="M270.744,-330.596C284.613,-322.862 298.299,-312.489 307,-299 339.126,-249.192 332.787,-173.793 328.372,-142.686"/>
<polygon fill="midnightblue" stroke="midnightblue" points="268.925,-327.596 261.655,-335.303 272.144,-333.812 268.925,-327.596"/>
</g>
<!-- Node12 -->
<g id="node9" class="node"><title>Node12</title>
<g id="a_node9"><a xlink:href="bidirectional__dijkstra__impl_8hpp.html" target="_top" xlink:title=" ">
<polygon fill="white" stroke="black" points="146,-257.5 146,-298.5 298,-298.5 298,-257.5 146,-257.5"/>
<text text-anchor="start" x="154" y="-286.5" font-family="Helvetica,sans-Serif" font-size="10.00">include/arlib/routing</text>
<text text-anchor="start" x="154" y="-275.5" font-family="Helvetica,sans-Serif" font-size="10.00">_kernels/details/bidirectional</text>
<text text-anchor="middle" x="222" y="-264.5" font-family="Helvetica,sans-Serif" font-size="10.00">_dijkstra_impl.hpp</text>
</a>
</g>
</g>
<!-- Node4&#45;&gt;Node12 -->
<g id="edge10" class="edge"><title>Node4&#45;&gt;Node12</title>
<path fill="none" stroke="midnightblue" d="M222,-324.982C222,-316.347 222,-306.762 222,-298.588"/>
<polygon fill="midnightblue" stroke="midnightblue" points="218.5,-325.233 222,-335.233 225.5,-325.233 218.5,-325.233"/>
</g>
<!-- Node6 -->
<g id="node3" class="node"><title>Node6</title>
<g id="a_node3"><a xlink:href="esx__impl_8hpp.html" target="_top" xlink:title=" ">
<polygon fill="white" stroke="black" points="3,-112.5 3,-142.5 111,-142.5 111,-112.5 3,-112.5"/>
<text text-anchor="start" x="11" y="-130.5" font-family="Helvetica,sans-Serif" font-size="10.00">include/arlib/details</text>
<text text-anchor="middle" x="57" y="-119.5" font-family="Helvetica,sans-Serif" font-size="10.00">/esx_impl.hpp</text>
</a>
</g>
</g>
<!-- Node5&#45;&gt;Node6 -->
<g id="edge2" class="edge"><title>Node5&#45;&gt;Node6</title>
<path fill="none" stroke="midnightblue" d="M139.105,-174.44C120.12,-163.817 98.5788,-151.764 82.3251,-142.67"/>
<polygon fill="midnightblue" stroke="midnightblue" points="137.466,-177.533 147.902,-179.362 140.884,-171.425 137.466,-177.533"/>
</g>
<!-- Node9 -->
<g id="node6" class="node"><title>Node9</title>
<g id="a_node6"><a xlink:href="penalty__impl_8hpp.html" target="_top" xlink:title=" ">
<polygon fill="white" stroke="black" points="129,-112.5 129,-142.5 237,-142.5 237,-112.5 129,-112.5"/>
<text text-anchor="start" x="137" y="-130.5" font-family="Helvetica,sans-Serif" font-size="10.00">include/arlib/details</text>
<text text-anchor="middle" x="183" y="-119.5" font-family="Helvetica,sans-Serif" font-size="10.00">/penalty_impl.hpp</text>
</a>
</g>
</g>
<!-- Node5&#45;&gt;Node9 -->
<g id="edge5" class="edge"><title>Node5&#45;&gt;Node9</title>
<path fill="none" stroke="midnightblue" d="M183,-169.08C183,-160.006 183,-150.45 183,-142.892"/>
<polygon fill="midnightblue" stroke="midnightblue" points="179.5,-169.362 183,-179.362 186.5,-169.362 179.5,-169.362"/>
</g>
<!-- Node5&#45;&gt;Node11 -->
<g id="edge8" class="edge"><title>Node5&#45;&gt;Node11</title>
<path fill="none" stroke="midnightblue" d="M231.941,-174.872C253.698,-164.145 278.561,-151.888 297.258,-142.67"/>
<polygon fill="midnightblue" stroke="midnightblue" points="230.255,-171.801 222.833,-179.362 233.35,-178.079 230.255,-171.801"/>
</g>
<!-- Node7 -->
<g id="node4" class="node"><title>Node7</title>
<g id="a_node4"><a xlink:href="esx_8hpp.html" target="_top" xlink:title=" ">
<polygon fill="white" stroke="black" points="0,-56.5 0,-75.5 114,-75.5 114,-56.5 0,-56.5"/>
<text text-anchor="middle" x="57" y="-63.5" font-family="Helvetica,sans-Serif" font-size="10.00">include/arlib/esx.hpp</text>
</a>
</g>
</g>
<!-- Node6&#45;&gt;Node7 -->
<g id="edge3" class="edge"><title>Node6&#45;&gt;Node7</title>
<path fill="none" stroke="midnightblue" d="M57,-102.289C57,-92.857 57,-82.6548 57,-75.6578"/>
<polygon fill="midnightblue" stroke="midnightblue" points="53.5001,-102.399 57,-112.399 60.5001,-102.399 53.5001,-102.399"/>
</g>
<!-- Node8 -->
<g id="node5" class="node"><title>Node8</title>
<g id="a_node5"><a xlink:href="arlib_8hpp_source.html" target="_top" xlink:title=" ">
<polygon fill="white" stroke="black" points="139,-0.5 139,-19.5 257,-19.5 257,-0.5 139,-0.5"/>
<text text-anchor="middle" x="198" y="-7.5" font-family="Helvetica,sans-Serif" font-size="10.00">include/arlib/arlib.hpp</text>
</a>
</g>
</g>
<!-- Node7&#45;&gt;Node8 -->
<g id="edge4" class="edge"><title>Node7&#45;&gt;Node8</title>
<path fill="none" stroke="midnightblue" d="M88.9286,-52.772C115.414,-42.6287 152.392,-28.4669 175.763,-19.5164"/>
<polygon fill="midnightblue" stroke="midnightblue" points="87.4287,-49.5985 79.3419,-56.4435 89.9322,-56.1355 87.4287,-49.5985"/>
</g>
<!-- Node10 -->
<g id="node7" class="node"><title>Node10</title>
<g id="a_node7"><a xlink:href="penalty_8hpp.html" target="_top" xlink:title=" ">
<polygon fill="white" stroke="black" points="132.5,-56.5 132.5,-75.5 263.5,-75.5 263.5,-56.5 132.5,-56.5"/>
<text text-anchor="middle" x="198" y="-63.5" font-family="Helvetica,sans-Serif" font-size="10.00">include/arlib/penalty.hpp</text>
</a>
</g>
</g>
<!-- Node9&#45;&gt;Node10 -->
<g id="edge6" class="edge"><title>Node9&#45;&gt;Node10</title>
<path fill="none" stroke="midnightblue" d="M189.027,-102.593C191.426,-93.0768 194.034,-82.73 195.817,-75.6578"/>
<polygon fill="midnightblue" stroke="midnightblue" points="185.606,-101.847 186.555,-112.399 192.393,-103.558 185.606,-101.847"/>
</g>
<!-- Node10&#45;&gt;Node8 -->
<g id="edge7" class="edge"><title>Node10&#45;&gt;Node8</title>
<path fill="none" stroke="midnightblue" d="M198,-45.8045C198,-36.9102 198,-26.7798 198,-19.7511"/>
<polygon fill="midnightblue" stroke="midnightblue" points="194.5,-46.083 198,-56.083 201.5,-46.083 194.5,-46.083"/>
</g>
<!-- Node11&#45;&gt;Node8 -->
<g id="edge9" class="edge"><title>Node11&#45;&gt;Node8</title>
<path fill="none" stroke="midnightblue" d="M311.77,-103.725C301.826,-88.9791 287.578,-69.9909 272,-56 254.884,-40.6283 231.795,-27.5569 215.986,-19.5269"/>
<polygon fill="midnightblue" stroke="midnightblue" points="308.967,-105.833 317.379,-112.275 314.82,-101.994 308.967,-105.833"/>
</g>
<!-- Node12&#45;&gt;Node5 -->
<g id="edge11" class="edge"><title>Node12&#45;&gt;Node5</title>
<path fill="none" stroke="midnightblue" d="M207.358,-248.466C202.573,-239.143 197.372,-229.007 193.009,-220.506"/>
<polygon fill="midnightblue" stroke="midnightblue" points="204.277,-250.129 211.957,-257.428 210.505,-246.933 204.277,-250.129"/>
</g>
</g>
</svg>
